4D 54 68 64 00 00 00 06 00 01 00 01 01 E0 4D 54
72 6B 00 02 1C CA 01 CB 90 41 35 04 90 3C 4F 4D
90 3C 3E 7C 80 41 00 27 80 3C 00 11 80 3C 00 03
DA 90 41 33 69 90 3C 53 3D 90 47 53 02 80 41 00
29 80 3C 00 01 BF 80 47 00 01 96 90 47 4C 01 B0
80 47 00 01 AE 90 43 48 1F 90 41 5C 2B 90 45 47
4D 80 41 00 03 90 47 5A 43 80 47 00 32 80 43 00
7F 90 48 36 47 80 45 00 01 97 90 3E 5A 7C 80 48
00 24 90 3C 33 4B 80 3E 00 02 83 90 41 3B 09 80
3C 00 01 D4 80 41 00 05 B6 90 41 42 12 90 3C 3C
02 8E 80 3C 00 0F 80 41 00 61 90 47 32 03 A2 80
47 00 03 81 90 41 55 72 90 47 59 01 9F 90 43 41
40 80 41 00 6E 80 47 00 01 92 80 43 00 03 96 90
3E 53 4C 90 45 55 65 80 3E 00 70 90 3E 33 10 80
45 00 21 90 45 44 2B 80 3E 00 02 C0 80 45 00 01
88 90 3E 4E 03 9F 80 3E 00 33 90 48 4E 01 CB 80
48 00 01 C4 90 43 36 48 90 47 46 01 D4 80 47 00
01 90 80 43 00 01 ED 90 45 64 66 90 41 60 6B 90
47 41 14 80 41 00 35 90 43 41 43 80 45 00 01 AA
80 43 00 74 80 47 00 29 90 3C 49 21 90 45 43 70
80 3C 00 01 97 80 45 00 01 BB 90 43 42 01 A6 90
43 39 15 90 3C 5C 1E 90 43 61 43 80 43 00 5B 80
3C 00 7E 80 43 00 07 90 43 3E 20 90 43 58 60 80
43 00 02 80 43 00 02 82 90 3E 33 52 80 43 00 51
90 40 47 6F 80 3E 00 01 86 90 41 49 60 80 40 00
02 AD 90 41 54 1C 80 41 00 48 90 3C 3E 38 80 41
00 0F 90 47 4C 2B 90 48 60 7B 80 3C 00 4B 80 48
00 68 80 47 00 1C 90 47 61 02 A3 80 47 00 01 89
90 41 43 46 90 3C 49 11 90 41 61 01 89 90 45 38
04 80 41 00 14 90 41 4A 53 80 3C 00 6F 80 41 00
67 90 41 39 02 80 45 00 01 92 80 41 00 0D 80 41
00 01 CC 90 47 56 02 C6 90 43 33 01 89 80 47 00
54 90 41 43 15 80 43 00 01 A0 80 41 00 57 90 43
34 01 8F 90 40 63 54 80 40 00 3C 90 45 61 04 90
40 41 3D 80 43 00 02 9F 80 40 00 0C 90 47 58 70
80 45 00 65 90 3E 37 5E 80 3E 00 11 80 47 00 01
B6 90 41 32 64 90 41 36 01 B1 80 41 00 01 B8 80
41 00 02 CF 90 45 3E 02 AD 80 45 00 52 90 45 48
3C 80 45 00 23 90 41 56 02 A1 90 40 40 0B 90 3E
5A 6D 80 40 00 34 80 41 00 21 80 3E 00 02 D9 90
40 46 01 A2 90 43 5F 02 93 80 40 00 7B 80 43 00
01 DC 90 45 61 5E 80 45 00 2A 90 45 56 0C 90 40
48 4D 80 40 00 40 90 48 5B 01 C0 90 40 5C 01 90
48 62 25 80 45 00 24 80 40 00 69 80 48 00 3B 80
48 00 02 ED 90 43 5F 03 8C 90 43 54 24 90 41 5F
11 80 43 00 01 A6 80 41 00 77 80 43 00 24 90 45
47 26 90 3C 3F 01 8F 90 40 54 01 C2 80 3C 00 06
90 40 46 05 80 45 00 68 90 45 57 25 80 40 00 01
9B 80 45 00 4E 80 40 00 01 D7 90 3E 48 6D 80 3E
00 03 81 90 47 3B 02 D1 90 43 3D 38 80 47 00 39
90 43 59 63 80 43 00 25 90 3C 56 17 80 43 00 7D
90 48 53 15 90 40 5F 01 DC 80 3C 00 76 80 48 00
4B 80 40 00 02 99 90 43 36 4C 80 43 00 03 96 90
3C 58 01 C1 80 3C 00 08 90 43 63 6C 90 41 37 01
E5 80 43 00 53 80 41 00 6A 90 41 37 01 98 80 41
00 19 90 47 3D 53 90 48 3C 34 90 43 38 3C 90 45
3F 26 80 48 00 02 80 43 00 1A 80 47 00 01 9A 90
47 50 57 80 45 00 31 80 47 00 01 B7 90 3C 50 2B
90 40 53 4F 80 3C 00 01 8F 90 47 46 5E 80 40 00
02 98 80 47 00 09 90 41 4C 02 AC 80 41 00 03 93
90 3E 43 01 F3 80 3E 00 04 CF 90 41 39 01 84 90
40 55 3C 90 40 57 41 90 40 49 01 82 80 40 00 04
80 41 00 29 80 40 00 4B 90 43 51 32 80 40 00 01
94 90 48 4E 1F 80 43 00 02 F0 80 48 00 77 90 48
4D 01 D8 80 48 00 07 CA 90 3C 5C 51 90 41 62 1F
80 3C 00 79 80 41 00 01 BB 90 40 64 71 90 3C 64
7C 90 40 47 40 80 40 00 27 80 40 00 01 CF 80 3C
00 01 F4 90 3E 48 03 98 80 3E 00 01 EC 90 3E 55
5B 90 40 39 01 DA 80 3E 00 27 90 43 5D 76 80 43
00 0C 80 40 00 23 90 41 46 01 BA 90 47 58 2A 80
41 00 01 C3 80 47 00 01 8E 90 47 57 7A 90 47 39
7A 90 43 43 0C 80 47 00 28 80 47 00 4D 80 43 00
02 C1 90 45 3F 40 90 47 59 13 90 41 4A 69 80 41
00 01 DE 80 45 00 55 80 47 00 78 90 48 33 2E 90
41 57 05 90 41 34 78 80 41 00 1A 80 41 00 17 80
48 00 39 90 3C 3B 02 A7 80 3C 00 0D 90 3C 56 66
90 41 45 31 80 3C 00 01 BA 90 43 4B 1F 90 47 61
33 80 41 00 0B 90 48 47 72 80 47 00 51 90 41 3F
12 80 48 00 72 80 43 00 61 80 41 00 3E 90 3E 58
5A 90 40 41 02 9B 80 3E 00 01 87 90 3E 51 31 80
40 00 35 90 47 43 48 90 47 4D 27 90 41 4F 63 80
41 00 44 90 3C 64 45 80 3E 00 18 80 47 00 08 80
47 00 39 90 3C 42 43 80 3C 00 42 90 41 32 5C 80
3C 00 1A 80 41 00 16 90 45 63 01 82 80 45 00 01
8A 90 47 5F 01 85 90 3C 38 01 EA 80 3C 00 35 80
47 00 61 90 43 4B 53 80 43 00 02 BA 90 40 48 01
E5 80 40 00 01 B1 90 3C 34 01 ED 90 3E 56 1B 80
3C 00 4C 90 47 33 01 A2 80 47 00 28 80 3E 00 01
8E 90 41 58 01 CA 80 41 00 02 84 90 41 62 03 90
43 64 56 90 48 49 01 E0 80 43 00 38 80 48 00 6D
80 41 00 6D 90 45 54 76 80 45 00 7D 90 47 36 28
90 40 41 24 80 47 00 01 89 90 3E 44 43 90 47 4C
5C 90 3C 5C 4E 80 40 00 01 A8 80 47 00 28 80 3E
00 0C 80 3C 00 05 F8 90 3C 53 01 99 80 3C 00 07
90 41 55 69 90 43 64 01 91 80 43 00 01 86 80 41
00 02 E0 90 47 63 01 C5 90 40 48 54 80 47 00 70
90 47 53 46 90 3E 52 14 80 47 00 16 80 40 00 02
B7 90 45 42 40 90 48 56 0B 80 3E 00 01 88 80 45
00 01 8E 80 48 00 01 EF 90 41 49 60 80 41 00 01
E0 90 45 5C 57 90 3E 32 6B 80 3E 00 01 F5 80 45
00 02 E1 90 48 62 3F 80 48 00 02 E2 90 48 51 4A
80 48 00 0B 90 45 64 01 82 90 40 56 5A 80 40 00
30 90 40 59 2B 80 45 00 4C 80 40 00 24 90 3E 43
05 90 47 50 1D 90 3E 4D 01 AA 80 3E 00 01 AA 80
47 00 69 80 3E 00 74 90 40 46 15 90 45 3E 56 80
40 00 51 90 3E 49 4E 90 48 51 60 90 3C 42 68 80
3E 00 10 80 45 00 5F 80 48 00 6C 90 45 5A 01 8E
80 3C 00 29 80 45 00 01 B9 90 43 63 02 AE 80 43
00 73 90 3C 33 7B 90 3C 47 59 90 48 55 55 80 3C
00 3A 80 48 00 5E 80 3C 00 08 B5 90 45 52 01 9A
90 41 56 19 80 45 00 01 E7 90 41 3E 71 80 41 00
01 83 90 43 53 01 A5 80 41 00 41 90 3E 52 40 90
45 5C 01 A0 80 43 00 0E 90 48 39 35 80 3E 00 0A
80 45 00 79 80 48 00 01 CF 90 47 3E 01 A2 80 47
00 01 BE 90 43 5C 01 83 90 41 3C 01 AC 80 41 00
55 90 3E 3B 47 80 43 00 01 F3 80 3E 00 02 84 90
41 4C 01 C8 90 3C 57 01 DC 80 3C 00 37 80 41 00
01 CB 90 48 59 2D 90 41 50 63 80 41 00 02 90 3E
42 47 80 48 00 70 90 41 34 01 CB 90 3C 58 24 90
3C 5F 09 80 3E 00 2F 80 41 00 16 90 3C 3B 38 90
45 50 5B 80 3C 00 4A 80 45 00 78 80 3C 00 76 80
3C 00 02 E1 90 48 5A 2B 90 45 4E 43 80 45 00 5E
80 48 00 03 C1 90 48 37 73 90 3E 5D 45 80 48 00
4E 90 3E 3F 13 80 3E 00 70 80 3E 00 02 E8 90 45
36 25 90 3C 36 15 90 41 47 40 80 41 00 2E 80 3C
00 3B 80 45 00 00 90 43 3A 01 9E 90 45 35 01 90
80 43 00 11 90 40 5D 31 80 45 00 1C 80 40 00 0A
90 48 63 01 DF 80 48 00 02 D1 90 40 63 01 B2 90
40 40 19 80 40 00 01 83 90 43 54 1C 80 40 00 15
90 43 3D 06 90 47 4D 12 80 43 00 38 90 40 3B 1F
80 43 00 64 80 40 00 36 90 41 45 5B 80 47 00 01
82 80 41 00 03 86 90 3E 5E 01 D5 90 45 4C 01 85
80 45 00 0A 80 3E 00 09 90 3E 35 01 DF 90 48 38
27 90 47 4D 15 80 3E 00 2E 80 47 00 21 80 48 00
06 DA 90 41 3B 01 9D 80 41 00 05 90 3C 5D 01 AE
90 47 54 7F 90 3C 32 3C 90 41 3E 48 80 3C 00 57
80 41 00 15 90 47 5F 00 90 41 46 47 80 3C 00 02
90 3E 3F 0E 80 47 00 47 80 41 00 1F 90 3E 42 01
CF 80 47 00 03 80 3E 00 44 80 3E 00 38 90 3E 3D
66 90 47 32 64 80 47 00 28 90 48 50 01 89 80 3E
00 01 AD 80 48 00 32 90 41 47 02 96 80 41 00 4E
90 41 56 29 90 3E 4E 01 86 90 45 40 01 A1 80 45
00 23 90 3E 4C 32 80 41 00 37 80 3E 00 0B 90 41
54 54 80 3E 00 18 90 3E 48 6E 80 41 00 07 80 3E
00 12 90 40 58 09 90 40 4F 2B 90 3C 5F 0F 90 47
59 02 80 40 00 5D 80 47 00 06 90 43 60 23 90 3E
53 4A 90 40 3F 2A 80 43 00 09 80 3C 00 18 90 3C
40 1D 80 40 00 49 80 3C 00 47 80 3E 00 15 80 40
00 08 90 40 34 08 90 47 5F 18 90 3C 52 02 88 80
3C 00 48 80 40 00 64 80 47 00 01 B6 90 45 56 01
F6 90 3C 5E 06 90 3E 48 20 80 45 00 03 90 43 45
12 90 45 37 54 80 45 00 01 8F 80 3C 00 51 80 43
00 6C 80 3E 00 49 90 45 63 01 FA 90 43 60 46 80
45 00 01 C9 90 41 39 32 80 43 00 18 80 41 00 01
FA 90 41 4E 03 BE 80 41 00 02 FE 90 48 33 01 B6
80 48 00 3D 90 3E 44 22 90 40 34 01 B4 80 3E 00
01 93 90 41 4C 12 90 48 55 46 80 40 00 1C 80 48
00 01 FB 90 48 38 2E 80 41 00 01 87 80 48 00 03
CF 90 47 41 61 90 48 50 34 90 3E 5A 21 80 47 00
01 8D 90 3C 64 0D 80 48 00 35 90 45 45 4B 80 3E
00 78 90 43 60 16 80 3C 00 0C 80 45 00 01 90 45
3E 01 AE 80 43 00 01 99 80 45 00 05 90 48 37 45
90 48 3C 34 90 47 40 41 80 48 00 63 80 47 00 44
80 48 00 02 D4 90 45 48 01 84 80 45 00 6B 90 40
34 5C 90 47 4C 11 90 48 41 57 80 47 00 01 B0 80
40 00 6B 80 48 00 37 90 41 56 65 80 41 00 01 F6
90 3E 3F 01 8B 90 48 64 02 9F 80 3E 00 06 80 48
00 01 8C 90 48 3C 01 A8 80 48 00 01 DB 90 40 5E
6F 90 41 32 08 80 40 00 0F 90 3C 4C 01 D7 80 3C
00 21 80 41 00 02 FF 90 48 4C 01 80 90 48 40 23
80 48 00 4A 90 3E 5A 32 90 40 45 04 80 48 00 01
C1 80 40 00 00 90 41 61 1D 90 47 64 13 90 43 42
35 90 47 35 06 80 3E 00 01 89 80 47 00 25 80 43
00 3D 80 41 00 01 D1 90 40 47 0E 80 47 00 01 9D
90 41 3D 05 90 48 3C 01 D9 80 40 00 6F 80 41 00
79 80 48 00 77 90 41 35 63 90 47 3F 48 90 48 63
6A 80 41 00 4F 80 47 00 01 F1 80 48 00 02 83 90
40 59 02 F2 90 48 62 3A 90 3E 40 10 80 40 00 36
80 3E 00 41 90 45 44 01 B3 80 48 00 36 90 3E 3E
08 80 45 00 01 85 80 3E 00 02 BD 90 3C 49 01 ED
80 3C 00 01 A4 90 48 33 7E 90 41 5C 09 80 48 00
01 C6 90 41 33 01 A3 80 41 00 31 80 41 00 02 D8
90 3C 43 52 90 45 61 4C 90 47 41 0B 90 45 4A 27
90 45 3D 19 80 45 00 21 80 3C 00 01 80 80 45 00
65 80 47 00 01 82 80 45 00 04 E2 90 40 62 2F 90
3C 45 01 9D 90 3E 58 01 8C 80 3C 00 1A 80 40 00
49 80 3E 00 02 BD 90 3C 53 01 A4 90 3E 55 01 F2
80 3C 00 01 8A 80 3E 00 02 E7 90 41 46 03 D3 80
41 00 03 EC 90 3C 53 6A 90 3E 4E 6C 90 45 5D 06
80 3E 00 61 80 3C 00 09 90 43 57 63 80 43 00 01
E6 80 45 00 06 FE 90 3E 3D 31 90 45 53 01 81 90
47 56 36 80 3E 00 4C 80 47 00 01 C5 80 45 00 14
90 43 3C 4F 90 45 33 5D 90 45 49 4B 90 3E 42 57
80 45 00 0C 90 45 60 2D 80 43 00 12 80 45 00 22
90 3E 34 01 AE 80 45 00 42 80 3E 00 27 80 3E 00
77 90 40 5D 6F 90 48 37 61 90 41 3E 6F 80 48 00
33 90 47 5E 27 80 41 00 36 80 40 00 01 DF 90 3E
36 55 80 3E 00 44 80 47 00 02 97 90 48 55 6C 90
3E 5A 23 90 43 56 23 80 48 00 02 E7 80 43 00 00
80 3E 00 03 A6 90 45 47 69 80 45 00 01 8D 90 45
5A 01 F9 80 45 00 01 F3 90 3E 55 3E 90 41 4D 25
90 3E 38 01 8D 80 41 00 28 90 48 39 15 80 3E 00
09 80 3E 00 58 80 48 00 73 90 45 3B 01 8E 90 3C
61 01 F9 80 3C 00 47 80 45 00 59 90 43 3F 02 F3
80 43 00 06 D2 90 41 53 01 DA 80 41 00 02 B8 90
48 53 73 80 48 00 04 98 90 47 47 25 90 40 59 01
CA 90 3C 33 01 B6 90 41 4C 16 80 47 00 08 90 45
38 20 80 41 00 22 80 40 00 36 90 41 43 73 80 3C
00 22 80 45 00 49 90 47 34 15 80 41 00 02 FE 80
47 00 03 90 41 4D 01 A6 90 48 43 05 90 48 48 01
C7 80 41 00 1A 80 48 00 0F 80 48 00 01 90 3E 4E
01 89 80 3E 00 2D 90 47 3D 03 A8 90 48 57 2B 80
47 00 01 A2 80 48 00 04 C4 90 3C 43 01 97 90 3C
49 07 90 3C 56 4A 80 3C 00 42 90 3E 52 48 80 3C
00 37 90 47 3F 1C 80 3E 00 16 80 3C 00 52 80 47
00 2B 90 3E 45 11 90 48 54 7C 80 48 00 01 A0 90
41 37 0D 90 3C 42 01 80 3E 00 61 90 47 62 26 80
3C 00 70 80 47 00 63 80 41 00 05 A1 90 43 3C 01
E4 90 41 64 2E 90 3C 37 1E 80 41 00 53 80 43 00
01 CA 80 3C 00 02 CB 90 41 4F 53 90 41 5E 10 80
41 00 01 90 90 45 5E 74 80 45 00 39 90 48 41 73
80 41 00 1E 90 40 5A 58 90 41 5B 7E 80 48 00 01
98 80 40 00 0E 80 41 00 75 90 47 3C 01 83 80 47
00 21 90 47 4C 02 84 80 47 00 5E 90 47 44 01 E6
80 47 00 0C 90 40 61 6C 80 40 00 08 FC 90 43 4E
01 DE 90 41 5B 01 E9 80 43 00 26 80 41 00 6D 90
47 58 23 90 48 3D 2F 90 3C 5E 18 90 43 48 15 90
40 42 18 80 47 00 48 80 43 00 1C 80 3C 00 24 80
40 00 5F 80 48 00 5F 90 3C 4E 03 CB 80 3C 00 04
8D 90 41 46 01 9D 90 40 48 2D 90 48 3C 0C 80 41
00 37 90 43 51 77 80 43 00 71 80 40 00 4B 80 48
00 03 CF 90 45 4C 03 92 90 3E 34 44 80 45 00 1E
80 3E 00 03 B1 90 48 62 03 A2 80 48 00 44 90 41
33 60 90 43 4E 01 CA 90 41 3E 01 90 40 42 19 80
41 00 58 80 43 00 01 81 80 41 00 01 CF 80 40 00
11 90 43 5A 33 90 48 5E 01 BD 90 3C 4E 23 80 48
00 65 80 43 00 41 80 3C 00 17 90 3C 4A 01 DE 80
3C 00 05 BA 90 43 42 0B 90 40 34 5C 80 43 00 54
80 40 00 03 87 90 48 42 7B 90 41 54 01 CC 80 48
00 02 92 80 41 00 01 B3 90 48 62 10 90 43 62 64
90 45 4F 01 B8 80 48 00 0A 80 43 00 16 80 45 00
0A B4 90 48 42 02 B4 80 48 00 02 DF 90 3C 58 69
90 40 4E 5B 90 40 5A 01 C7 80 3C 00 56 80 40 00
2B 90 3C 63 52 90 40 51 2F 90 3E 59 03 80 40 00
52 90 45 45 40 90 47 33 11 80 40 00 1C 80 3E 00
49 80 3C 00 46 80 45 00 54 90 45 58 40 90 40 58
0D 90 48 43 36 80 47 00 08 90 3E 33 13 80 45 00
01 F2 90 45 55 15 90 41 4E 0A 80 48 00 25 80 3E
00 47 80 40 00 01 E4 80 45 00 16 80 41 00 02 B7
90 40 48 01 AC 90 45 4D 0C 90 3E 33 12 80 40 00
01 98 90 45 47 37 90 3E 44 0B 80 3E 00 19 90 41
41 45 90 47 48 0D 80 45 00 05 80 45 00 5F 80 41
00 19 80 3E 00 28 80 47 00 01 82 90 41 5E 01 DD
90 3C 57 19 80 41 00 02 90 90 43 3E 4F 90 3C 37
0C 80 3C 00 4C 90 48 39 14 90 43 5C 6E 90 43 38
04 80 43 00 4E 80 3C 00 5C 80 43 00 55 90 45 64
23 80 48 00 1E 90 41 51 1E 80 43 00 37 90 3C 43
07 80 41 00 46 80 45 00 01 89 90 3E 41 01 92 80
3C 00 01 9D 90 41 50 03 90 43 36 01 90 43 63 1B
80 3E 00 3F 80 41 00 01 CA 80 43 00 46 80 43 00
01 80 90 3E 5F 6D 90 40 42 03 80 3E 00 01 F4 80
40 00 06 E2 90 41 46 79 90 41 40 07 90 43 39 01
91 90 40 35 11 80 41 00 01 8E 80 41 00 1B 90 43
57 5B 90 43 54 3A 80 43 00 54 90 40 47 29 80 40
00 1F 80 43 00 4F 80 43 00 07 90 48 51 01 98 90
43 44 22 80 48 00 3B 80 40 00 3F 90 48 38 7E 80
48 00 66 80 43 00 01 E6 90 3C 52 01 AB 80 3C 00
06 90 41 4A 01 D0 80 41 00 01 90 3E 54 01 93 90
43 46 13 80 3E 00 2E 80 43 00 01 A1 90 47 4A 31
90 48 40 6C 80 48 00 1E 90 43 4D 01 90 43 4A 46
80 43 00 02 90 45 45 61 80 43 00 12 80 47 00 68
90 47 44 3F 80 47 00 4E 90 40 58 62 80 45 00 02
F8 80 40 00 02 9D 90 43 58 02 B9 80 43 00 02 C0
90 48 36 02 8A 90 3C 5D 69 80 48 00 4A 90 40 60
01 F7 80 3C 00 66 80 40 00 16 90 47 47 7D 80 47
00 02 EA 90 3E 60 1C 90 3C 37 01 91 90 45 61 32
80 3E 00 40 80 3C 00 3A 80 45 00 5F 90 41 63 01
92 90 40 5F 3E 90 3E 4B 44 80 40 00 42 90 3C 32
02 80 41 00 01 C7 80 3C 00 6B 80 3E 00 40 90 3E
45 2F 90 48 34 13 80 3E 00 0E 90 47 63 33 80 48
00 33 90 41 4D 0B 80 47 00 02 C3 80 41 00 67 90
41 54 01 9A 90 41 45 15 90 45 58 00 80 41 00 0E
90 45 5C 4F 80 41 00 0A 90 45 33 70 80 45 00 08
80 45 00 01 B5 80 45 00 03 DA 90 3C 44 01 C3 80
3C 00 09 90 47 57 01 90 43 4A 01 D1 80 47 00 5A
80 43 00 03 A9 90 41 42 50 90 3E 48 37 80 41 00
46 90 3E 35 3B 80 3E 00 42 90 43 42 35 80 3E 00
02 89 80 43 00 4A 90 40 47 01 AB 80 40 00 5E 90
48 58 28 90 3E 60 5D 80 48 00 11 90 48 54 0A 90
48 57 1A 90 40 47 06 90 3E 38 4B 80 3E 00 01 89
80 48 00 1B 80 48 00 35 80 3E 00 01 A9 80 40 00
02 EE 90 48 44 02 E0 80 48 00 2E 90 41 52 03 9E
80 41 00 02 BE 90 3E 49 03 A7 80 3E 00 5B 90 45
64 03 D1 80 45 00 02 D7 90 48 38 59 90 3E 5D 28
90 3E 53 02 9B 80 48 00 36 80 3E 00 7A 80 3E 00
11 90 40 4F 04 90 43 37 01 AA 80 43 00 36 80 40
00 10 90 43 3C 01 A3 80 43 00 01 A7 90 48 42 02
E3 90 41 3F 58 80 48 00 01 8F 80 41 00 03 E5 90
43 49 01 F6 80 43 00 02 D8 90 43 4B 0E 90 3C 58
21 90 40 58 2D 80 3C 00 11 90 45 4E 61 90 48 4A
43 80 43 00 03 80 45 00 0F 90 41 41 39 80 40 00
0F 90 3C 3E 00 90 43 55 22 80 41 00 6B 80 43 00
6D 90 45 51 04 80 3C 00 14 90 47 45 12 80 48 00
2A 90 3C 59 6F 80 47 00 02 8D 80 45 00 05 80 3C
00 02 C7 90 40 4E 01 A7 80 40 00 19 90 41 38 02
C3 80 41 00 3B 90 45 32 03 C8 80 45 00 4D 90 43
4F 3B 90 48 59 41 90 48 45 3B 80 48 00 16 80 43
00 2E 90 3E 4A 13 90 3E 52 35 80 48 00 11 90 43
39 29 90 41 44 62 90 43 5E 72 80 3E 00 04 80 3E
00 2B 80 43 00 3B 80 41 00 53 90 3C 5D 38 80 43
00 01 D3 90 43 43 5C 80 3C 00 01 9A 80 43 00 07
97 90 48 45 59 80 48 00 3C 90 40 5F 01 8A 90 3E
50 02 C4 80 40 00 5D 80 3E 00 33 90 40 64 01 B6
80 40 00 01 E2 90 41 33 02 DC 80 41 00 04 C6 90
41 5B 03 A1 80 41 00 01 BE 90 3C 52 01 8C 80 3C
00 02 E5 90 47 3B 1A 90 41 4F 01 A8 80 41 00 48
80 47 00 25 90 47 4D 01 F7 80 47 00 47 90 47 61
01 84 90 3E 3B 4D 90 3E 59 21 90 3C 4E 5C 80 47
00 2C 80 3E 00 58 80 3E 00 55 80 3C 00 71 90 47
35 01 AA 90 41 59 01 A1 90 45 53 3A 80 47 00 3D
80 41 00 53 80 45 00 01 9C 90 3C 4E 02 EB 80 3C
00 02 F0 90 45 61 01 F7 90 3C 38 22 80 45 00 0C
90 3E 3F 01 B9 80 3C 00 01 98 80 3E 00 08 90 3C
3A 01 F2 90 48 4D 63 80 48 00 39 90 41 4E 23 80
3C 00 03 A6 80 41 00 01 C2 90 43 42 54 90 3C 44
0E 90 3E 3A 06 80 43 00 02 A2 80 3C 00 6C 90 3C
48 32 80 3E 00 55 80 3C 00 01 AE 90 43 5E 02 B2
80 43 00 4B 90 48 3E 24 90 40 5E 02 A9 80 40 00
05 80 48 00 01 87 90 43 58 02 88 90 3E 4C 49 80
43 00 33 90 48 32 56 90 40 49 17 90 3E 36 09 80
48 00 43 90 41 3B 01 81 80 40 00 08 80 3E 00 0C
90 40 41 1D 90 45 33 7A 80 3E 00 65 80 41 00 2D
80 40 00 00 90 40 4D 59 90 48 4C 41 80 45 00 03
80 40 00 01 DC 80 48 00 5A 90 41 4A 6B 80 41 00
02 90 90 3C 45 79 90 47 5D 78 80 3C 00 61 90 43
36 02 80 47 00 38 90 41 51 6C 90 48 60 08 90 48
4F 0F 90 40 5A 15 80 43 00 38 80 48 00 27 90 47
5E 34 80 41 00 0F 80 48 00 1B 90 40 46 26 90 48
33 71 80 48 00 1F 80 40 00 13 90 47 56 38 80 40
00 26 90 40 4A 16 90 40 4D 1C 80 47 00 2E 90 45
40 59 80 40 00 66 80 40 00 31 90 45 53 23 80 47
00 23 80 45 00 14 90 41 64 01 8A 80 45 00 00 80
41 00 02 89 90 41 3E 3D 90 3E 5B 01 9A 80 41 00
1A 80 3E 00 09 90 48 60 3C 90 47 58 02 80 48 00
69 90 41 63 01 BA 80 41 00 38 80 47 00 47 90 47
46 01 D6 80 47 00 01 F9 90 3E 4D 7B 90 41 5D 47
80 3E 00 01 BF 80 41 00 13 90 3E 56 7C 90 43 4E
4A 90 45 4C 39 90 47 64 23 80 43 00 07 80 45 00
18 90 43 60 58 90 47 36 1B 80 3E 00 56 90 3E 48
50 80 47 00 1E 80 43 00 47 80 47 00 71 80 3E 00
2C 90 41 3F 02 BB 80 41 00 01 82 90 3C 3D 06 90
43 5A 7D 80 43 00 01 80 90 3C 5F 7D 90 48 4A 42
80 3C 00 2A 80 3C 00 02 9C 80 48 00 01 A4 90 3C
4B 01 AC 90 3E 4A 46 80 3E 00 30 80 3C 00 01 F1
90 47 4F 01 C3 80 47 00 1B 90 40 64 4F 90 45 53
01 86 90 47 3D 23 80 45 00 01 82 90 48 5E 0B 80
40 00 68 80 48 00 14 80 47 00 01 F3 90 41 47 1F
90 43 55 61 80 41 00 73 80 43 00 01 DD 90 41 3A
21 90 47 48 01 81 80 41 00 01 8C 90 47 40 23 90
3C 53 59 90 48 59 15 80 47 00 34 80 3C 00 42 90
45 5E 25 90 40 35 77 90 41 43 01 80 47 00 1B 80
48 00 01 BE 80 41 00 55 80 45 00 0B 80 40 00 01
84 90 47 4A 35 90 48 3E 0C 80 47 00 01 D2 80 48
00 74 90 48 4F 22 90 3C 44 26 80 48 00 01 83 90
41 4A 17 80 3C 00 69 80 41 00 60 90 3E 64 0D 90
40 5D 51 80 40 00 4E 90 41 33 60 90 41 40 12 90
43 52 1A 80 41 00 7F 80 41 00 03 80 3E 00 01 9C
80 43 00 01 EE 90 48 47 3D 90 3C 63 09 90 45 34
74 90 3E 5E 3D 80 3C 00 6C 80 3E 00 47 80 48 00
59 80 45 00 67 90 3E 47 01 DD 90 43 5E 1C 90 43
46 37 80 43 00 0A 80 43 00 20 80 3E 00 56 90 47
39 20 90 48 63 01 8E 90 45 3B 0D 90 40 4D 25 90
48 63 04 80 48 00 01 BF 80 47 00 01 C0 80 45 00
24 80 40 00 22 80 48 00 07 86 90 3E 32 02 C3 90
43 56 32 90 3C 43 47 80 3E 00 59 80 43 00 01 AE
90 3E 39 15 80 3C 00 2A 90 40 44 5B 90 47 3A 60
90 45 36 04 80 47 00 00 80 3E 00 70 80 40 00 52
80 45 00 3B 90 40 35 01 91 80 40 00 16 90 48 46
01 CC 90 3C 3E 20 80 48 00 06 90 40 40 6D 90 40
4E 29 90 45 42 4C 80 45 00 13 80 40 00 5B 90 45
32 0A 80 3C 00 3A 90 45 53 30 80 40 00 01 98 80
45 00 59 80 45 00 02 BD 90 43 4D 29 90 45 38 01
B7 80 45 00 14 90 45 3E 4B 90 40 3B 2E 80 43 00
30 90 40 3D 01 97 80 45 00 18 80 40 00 02 87 80
40 00 05 F1 90 43 52 7B 90 45 64 41 80 43 00 3E
80 45 00 03 AB 90 3C 38 02 B0 80 3C 00 3B 90 47
5D 01 90 90 40 50 50 80 47 00 57 90 45 54 01 B3
80 40 00 02 92 80 45 00 01 FA 90 47 4D 75 80 47
00 01 8E 90 3E 4A 01 F9 80 3E 00 04 B4 90 41 4B
18 90 48 57 2F 90 43 5C 70 80 43 00 22 80 41 00
02 8C 80 48 00 23 90 40 3F 01 BA 80 40 00 02 98
90 47 58 60 90 43 5E 42 80 47 00 3A 90 48 53 18
90 3C 34 39 80 43 00 52 80 3C 00 01 9F 90 48 41
20 80 48 00 01 9D 90 41 41 02 99 80 48 00 5A 80
41 00 1F 90 47 42 02 A0 90 48 37 16 80 47 00 01
A4 90 40 4B 77 80 40 00 5B 80 48 00 01 B6 90 48
59 60 90 3E 3C 01 F2 80 48 00 75 80 3E 00 01 F4
90 43 5A 01 C4 80 43 00 02 C6 90 45 39 38 90 47
56 01 B5 80 45 00 01 F7 80 47 00 04 F5 90 43 32
42 80 43 00 23 90 47 4C 02 81 80 47 00 07 85 90
40 3C 60 90 45 3C 4C 80 45 00 7C 90 47 43 24 90
40 4D 24 80 40 00 01 A4 80 47 00 02 94 80 40 00
26 90 45 3C 02 B5 80 45 00 02 A0 90 3E 4C 14 90
47 3C 1D 90 48 49 68 90 3E 56 46 90 45 4B 43 90
41 5D 15 80 3E 00 07 80 47 00 43 80 48 00 19 80
3E 00 4E 80 41 00 77 80 45 00 24 90 40 46 01 CC
90 47 42 4A 80 40 00 58 80 47 00 11 90 41 61 07
90 3C 57 01 9C 80 3C 00 01 C3 90 45 53 3A 80 41
00 02 89 80 45 00 48 90 40 62 01 E7 80 40 00 06
90 45 3A 01 A3 90 3C 63 5A 80 45 00 02 DD 80 3C
00 01 AF 90 41 4C 01 9D 90 40 5B 01 82 80 41 00
40 90 40 4C 03 80 40 00 51 90 40 5C 01 9B 80 40
00 22 80 40 00 05 CC 90 3E 56 01 9F 80 3E 00 56
90 40 43 07 90 3C 42 01 F9 80 40 00 01 CF 80 3C
00 01 95 90 40 48 01 B1 90 48 33 78 90 48 32 01
A8 80 40 00 4B 80 48 00 01 B2 80 48 00 02 EB 90
47 3A 56 80 47 00 01 AF 90 3C 53 02 AD 80 3C 00
01 A5 90 40 53 13 90 48 54 42 80 40 00 01 D3 90
47 60 38 80 48 00 01 9B 80 47 00 0F 90 3C 4D 01
8A 90 48 40 01 90 43 50 48 80 3C 00 4C 80 43 00
6E 90 41 4D 0A 80 48 00 15 90 40 3D 79 80 41 00
32 90 43 56 67 80 40 00 25 90 43 62 14 80 43 00
0E 90 3C 64 01 96 80 43 00 5A 80 3C 00 70 90 45
62 01 AA 80 45 00 76 90 45 4A 03 CD 80 45 00 03
84 90 40 33 1A 90 3E 5E 3F 80 40 00 6E 90 40 62
2B 80 3E 00 03 89 80 40 00 03 E1 90 41 4A 55 80
41 00 21 90 41 3F 54 80 41 00 0F 90 48 3C 55 80
48 00 5F 90 45 56 3F 90 48 32 52 90 3E 34 24 80
45 00 68 80 48 00 01 80 3E 00 01 82 90 40 5D 58
90 47 54 6B 90 41 5C 3E 80 40 00 64 80 41 00 4C
80 47 00 01 D5 90 47 43 01 A4 90 48 3D 05 80 47
00 15 90 41 53 52 90 45 55 01 97 80 48 00 3F 80
41 00 02 80 45 00 01 9A 90 3C 32 60 90 48 3E 3A
80 3C 00 1D 90 3C 49 35 80 48 00 0C 90 3C 47 01
B8 90 47 42 27 90 43 47 56 80 3C 00 08 90 41 49
05 80 3C 00 4F 90 43 43 09 90 48 64 1B 80 47 00
01 80 41 00 39 90 3C 62 01 89 80 43 00 17 80 43
00 3B 80 3C 00 09 80 48 00 02 8E 90 40 5C 42 90
40 47 49 80 40 00 01 C7 80 40 00 69 90 45 44 73
90 43 53 01 D7 90 40 4B 01 80 80 45 00 51 80 43
00 1A 90 45 4E 04 90 45 46 01 9D 80 40 00 3C 90
43 49 01 98 80 43 00 26 80 45 00 31 80 45 00 04
E2 90 41 3D 01 C9 80 41 00 2B 90 41 37 53 80 41
00 01 B7 90 41 42 02 D5 80 41 00 01 C9 90 3C 56
1B 90 48 5B 3C 90 47 56 01 83 90 41 4F 0B 80 3C
00 45 80 41 00 13 80 48 00 0F 80 47 00 03 C9 90
40 53 02 A0 90 45 57 01 96 80 40 00 08 80 45 00
02 CF 90 41 51 69 90 45 3F 01 EE 80 45 00 04 80
41 00 17 90 45 3C 13 90 47 34 7A 90 47 43 12 80
45 00 49 80 47 00 01 AA 80 47 00 04 C7 90 47 32
01 92 90 41 63 77 80 47 00 0D 80 41 00 02 D1 90
45 3D 01 87 80 45 00 0B 90 41 4D 02 C9 80 41 00
02 D9 90 3E 50 01 EA 90 45 3A 39 80 3E 00 01 AD
80 45 00 4B 90 3C 37 5B 90 3C 49 0F 90 40 5E 01
C0 80 3C 00 06 90 3C 32 28 80 3C 00 6D 90 3C 58
48 80 40 00 31 80 3C 00 40 80 3C 00 01 9F 90 3C
5D 14 90 40 58 62 80 40 00 01 E9 80 3C 00 5B 90
48 56 01 9F 90 3E 57 01 80 80 3E 00 1A 90 43 3B
2C 80 48 00 23 90 47 42 02 8B 90 3C 5C 4C 80 43
00 3C 80 3C 00 07 80 47 00 02 A6 90 40 45 01 C0
80 40 00 0D 90 40 51 62 90 41 5E 66 90 45 54 1D
90 3C 3E 31 80 40 00 0F 90 41 5B 2C 90 40 4B 7B
80 41 00 04 80 3C 00 01 88 90 41 64 0D 90 40 51
0F 80 40 00 12 80 45 00 48 80 41 00 12 80 41 00
01 C8 90 40 41 21 90 47 4C 14 80 40 00 01 D7 90
40 38 01 97 80 40 00 0A 80 47 00 72 90 45 4A 01
86 80 40 00 01 C3 80 45 00 03 91 90 48 49 01 F6
80 48 00 31 90 43 49 4E 80 43 00 76 90 3C 52 01
B5 80 3C 00 01 A9 90 41 59 02 98 90 40 59 33 90
45 44 22 80 40 00 61 80 41 00 01 D4 80 45 00 01
8E 90 40 3B 70 90 43 64 72 80 43 00 01 C8 90 45
41 2F 80 40 00 3F 90 3E 49 04 80 45 00 7B 80 3E
00 42 90 47 3C 46 80 47 00 03 91 90 3E 44 01 F2
80 3E 00 08 D7 90 40 57 3E 90 43 4A 49 90 45 40
7F 90 43 63 68 80 43 00 67 80 40 00 0F 80 45 00
35 90 3E 62 42 90 48 4B 78 80 43 00 1A 80 48 00
02 84 80 3E 00 3F 90 3C 4A 17 90 3E 58 39 90 3E
44 42 80 3C 00 01 84 90 3E 5D 22 80 3E 00 53 80
3E 00 57 90 41 35 66 80 3E 00 00 90 3E 5E 01 85
90 41 54 01 9D 80 3E 00 14 80 41 00 2D 90 3C 61
57 90 43 48 02 80 41 00 0C 80 3C 00 02 90 47 32
41 80 47 00 01 E6 90 45 34 40 80 43 00 03 80 45
00 03 97 90 48 36 01 9D 90 41 3C 09 90 40 59 01
90 80 41 00 02 90 47 4F 4C 80 48 00 01 81 80 40
00 01 C0 80 47 00 01 87 90 40 57 04 90 47 35 02
93 80 47 00 46 80 40 00 27 90 48 47 03 CA 80 48
00 29 90 47 49 77 80 47 00 07 A7 90 41 41 34 90
45 4F 01 E0 80 45 00 01 A0 80 41 00 01 C4 90 43
39 01 A3 80 43 00 02 E6 90 41 5B 03 C2 80 41 00
41 90 3E 42 02 BC 90 45 5A 01 87 80 45 00 05 80
3E 00 03 B3 90 3E 62 03 90 40 40 01 C1 80 40 00
62 90 41 53 01 A8 80 3E 00 57 90 40 3B 24 80 41
00 01 F5 90 41 59 08 80 40 00 01 D1 90 3E 38 05
80 41 00 2D 90 43 47 58 90 3E 43 76 80 43 00 5B
90 45 38 22 80 3E 00 6B 90 40 4C 19 80 3E 00 49
90 41 38 08 80 45 00 01 8D 80 40 00 4A 80 41 00
56 90 43 3F 02 90 3E 58 43 80 3E 00 02 A5 80 43
00 55 90 3E 3B 73 80 3E 00 23 90 40 56 18 90 3C
47 5A 80 40 00 3C 90 3C 48 53 80 3C 00 01 E1 80
3C 00 01 8C 90 41 34 58 80 41 00 03 B7 90 48 62
52 90 41 5F 50 90 3C 35 01 B2 90 47 4D 4F 80 48
00 3C 80 41 00 24 80 3C 00 58 80 47 00 5D 90 3C
60 39 90 41 61 49 80 41 00 1F 90 40 4E 01 C4 90
47 38 5A 80 3C 00 63 80 40 00 01 C2 80 47 00 01
A8 90 3E 5F 01 92 80 3E 00 3B 90 48 57 01 94 90
40 42 20 80 48 00 01 D7 80 40 00 2B 90 45 3F 18
90 40 3C 49 80 45 00 44 80 40 00 01 A8 90 43 5D
7B 90 41 4B 6F 80 41 00 01 EB 80 43 00 26 90 48
44 53 90 43 48 6F 80 43 00 01 E5 80 48 00 53 90
43 5F 6A 90 3C 3F 71 80 43 00 02 92 80 3C 00 05
88 90 48 32 17 90 43 56 17 90 41 4C 26 80 48 00
02 C8 80 41 00 29 80 43 00 03 C5 90 43 3D 14 90
45 59 22 90 3E 40 59 80 43 00 7E 90 3E 53 2C 90
40 5F 53 80 40 00 35 80 45 00 01 90 45 34 2B 80
3E 00 5B 80 3E 00 01 96 90 43 4A 30 80 45 00 01
FB 80 43 00 01 DC 90 40 5A 66 80 40 00 36 90 3C
4E 03 93 80 3C 00 06 B1 90 40 35 1A 90 45 39 01
99 80 40 00 34 80 45 00 02 DD 90 47 5F 01 CE 80
47 00 38 90 3E 34 49 80 3E 00 30 90 45 4D 5F 80
45 00 4D 90 41 5A 01 95 90 3E 4F 01 D6 80 41 00
07 80 3E 00 04 99 90 45 33 24 90 41 3E 01 BE 80
45 00 35 80 41 00 2E 90 3C 5B 01 DB 90 45 37 3D
90 40 4D 41 80 45 00 7D 80 3C 00 3C 90 48 46 7C
80 40 00 01 9F 80 48 00 05 97 90 48 5D 01 F5 80
48 00 01 95 90 43 53 01 E8 90 47 5C 01 8E 80 43
00 01 F4 90 43 36 1C 80 47 00 01 E0 90 48 39 7F
80 43 00 01 E1 80 48 00 01 A7 90 47 54 03 85 80
47 00 02 AA 90 3E 62 01 FC 80 3E 00 01 C0 90 48
5D 1A 90 3E 3C 33 80 48 00 01 DA 90 43 59 3F 80
43 00 25 80 3E 00 02 B3 90 3C 3C 32 90 41 4D 03
9E 80 3C 00 16 80 41 00 00 90 48 4A 01 BD 80 48
00 03 C1 90 48 3C 01 80 80 48 00 04 E7 90 40 35
03 B2 90 45 61 2E 80 40 00 02 8F 80 45 00 01 83
90 47 57 2F 90 47 48 7C 90 47 36 5D 80 47 00 3A
80 47 00 01 89 80 47 00 01 A6 90 43 44 3D 90 43
4A 02 84 80 43 00 1C 90 48 48 68 80 43 00 22 90
47 52 51 80 47 00 2A 80 48 00 5F 90 40 5B 6F 90
45 4B 01 A1 80 40 00 02 8F 80 45 00 01 9B 90 43
34 57 90 43 5E 23 80 43 00 51 90 43 57 54 80 43
00 02 96 80 43 00 02 9B 90 41 63 02 97 80 41 00
02 FA 90 43 44 01 A2 90 41 54 66 90 40 4D 3E 80
40 00 23 80 43 00 01 BD 80 41 00 6B 90 3E 4E 17
90 40 53 03 86 80 40 00 40 80 3E 00 02 E2 90 40
3B 01 D2 90 3E 56 32 90 43 34 17 90 43 3B 4A 90
40 38 39 80 40 00 46 80 3E 00 1C 90 3E 55 1E 80
40 00 30 80 43 00 1A 90 3C 38 04 80 43 00 5E 80
3C 00 35 80 3E 00 01 90 90 48 61 01 99 90 40 49
01 F1 80 40 00 0E 80 48 00 03 C8 90 45 62 49 90
48 37 01 B2 80 45 00 49 80 48 00 0D 91 90 3C 61
0C 90 43 5B 01 FC 80 3C 00 22 90 40 51 02 90 47
3B 01 80 43 00 70 90 47 49 06 80 40 00 01 82 80
47 00 15 80 47 00 0F 90 3C 47 75 90 40 4B 01 9E
80 40 00 10 80 3C 00 02 F7 90 48 4C 01 B5 90 40
43 01 81 80 40 00 25 80 48 00 56 90 40 55 51 90
3E 56 03 80 40 00 2F 90 3C 3C 02 F6 80 3E 00 23
90 45 60 02 80 3C 00 3B 90 48 56 72 90 47 4D 11
90 47 41 13 80 48 00 6E 90 43 41 47 80 47 00 02
80 45 00 33 80 43 00 0C 90 43 44 2A 90 3C 35 52
80 47 00 03 90 41 3A 55 80 43 00 5C 80 3C 00 01
BA 80 41 00 01 F6 90 43 40 13 90 3E 4F 08 90 40
45 46 90 3E 5A 01 85 90 3C 59 0F 80 40 00 32 90
40 51 6F 80 40 00 09 80 3E 00 06 80 43 00 01 80
3E 00 7E 80 3C 00 01 DB 90 47 4E 08 90 3E 5B 02
87 80 3E 00 41 80 47 00 78 90 47 33 43 90 43 3F
01 EA 80 47 00 09 80 43 00 02 E7 90 41 41 02 AF
90 48 3C 0D 80 41 00 27 90 41 59 02 B0 80 48 00
01 91 80 41 00 3E 90 41 48 03 A9 90 45 3F 15 80
41 00 01 B4 90 40 62 01 B0 80 45 00 05 90 45 50
70 80 40 00 7D 90 48 62 01 80 45 00 02 A7 80 48
00 01 EA 90 47 44 4C 90 43 43 02 EB 80 47 00 1E
90 48 52 44 90 3C 39 06 80 43 00 60 90 40 3D 01
BA 80 3C 00 30 80 48 00 01 B3 80 40 00 57 90 40
4A 6F 80 40 00 58 90 41 48 5A 90 3E 5B 5F 90 3E
58 08 80 3E 00 01 C8 80 41 00 01 89 80 3E 00 02
C3 90 43 53 01 B8 90 3E 64 01 E3 80 43 00 21 90
41 56 01 DA 80 3E 00 01 A7 80 41 00 31 90 40 5C
29 90 45 34 4F 80 45 00 4B 90 47 5F 45 80 40 00
32 90 47 63 01 BE 80 47 00 3A 80 47 00 02 BB 90
45 48 02 83 80 45 00 02 A1 90 41 5D 01 88 80 41
00 01 8A 90 3E 46 03 9C 80 3E 00 20 90 45 4C 68
80 45 00 01 95 90 45 4C 55 80 45 00 01 C0 90 3E
5F 01 AE 90 43 5E 7A 90 47 46 74 80 3E 00 01 BA
80 43 00 65 80 47 00 68 90 41 35 3C 90 40 35 01
C5 80 40 00 55 80 41 00 03 87 90 3E 62 01 96 90
3E 49 01 AD 80 3E 00 01 B8 80 3E 00 02 ED 90 3C
39 16 90 3C 48 2F 90 3E 3B 66 90 47 61 23 80 3C
00 1F 80 3E 00 01 90 40 40 38 80 3C 00 56 80 47
00 01 C4 90 48 5E 2D 80 40 00 66 80 48 00 4C 90
47 46 02 AE 80 47 00 6A 90 40 58 7A 90 43 59 22
80 40 00 03 83 80 43 00 04 B8 90 43 47 01 B4 80
43 00 1B 90 41 62 69 80 41 00 01 F0 90 3E 3F 03
8D 80 3E 00 73 90 3E 45 01 D8 90 3E 5A 4F 80 3E
00 06 90 43 42 65 90 40 5E 01 EF 80 3E 00 09 80
43 00 1B 90 41 55 66 90 48 4A 12 80 41 00 4E 80
40 00 36 90 43 42 4A 80 48 00 01 BF 90 3E 3C 48
80 3E 00 3D 80 43 00 6C 90 47 57 57 80 47 00 03
FD 90 45 44 03 84 80 45 00 01 BC 90 47 32 3D 90
47 49 48 80 47 00 5F 90 41 49 1F 90 48 3B 5B 80
47 00 2C 90 41 62 39 90 43 41 1B 80 41 00 0C 80
41 00 3A 80 48 00 7A 90 45 39 2F 90 3E 61 0D 80
45 00 13 80 43 00 31 90 41 49 02 D6 80 41 00 2D
80 3E 00 11 90 47 32 40 90 45 58 01 A4 90 41 35
0F 80 47 00 01 EA 80 41 00 0B 80 45 00 01 81 90
48 51 02 C9 90 45 45 23 90 48 5B 10 80 48 00 19
80 45 00 1F 90 41 3B 31 80 48 00 1A 80 41 00 03
9A 90 48 4B 01 9A 80 48 00 3E 90 48 3A 43 90 48
54 6A 80 48 00 10 80 48 00 02 DD 90 41 44 02 ED
80 41 00 08 90 41 40 01 DA 90 45 46 3D 80 41 00
3B 80 45 00 01 D2 90 40 34 01 C4 80 40 00 01 D1
90 3E 46 01 C9 90 3C 58 27 80 3E 00 01 D0 90 43
54 29 80 3C 00 4F 90 41 34 63 80 43 00 59 90 47
42 48 80 47 00 01 85 80 41 00 02 A4 90 45 57 43
90 47 33 10 80 45 00 46 90 3C 47 43 90 3E 4E 1C
80 3C 00 17 90 47 5C 46 80 47 00 02 84 80 3E 00
6D 80 47 00 45 90 43 36 01 A8 90 3E 5F 66 90 40
37 73 80 40 00 13 80 43 00 53 80 3E 00 23 90 47
60 3C 90 45 4B 01 B5 80 47 00 7E 90 45 39 01 88
80 45 00 19 80 45 00 03 D7 90 40 37 01 91 90 48
57 02 85 80 40 00 15 90 3E 61 01 B0 80 48 00 01
DD 90 3E 4E 36 80 3E 00 7B 90 45 3C 01 8B 80 45
00 34 90 3C 37 41 80 3E 00 01 80 80 3C 00 02 F2
90 3C 4D 2B 90 43 36 17 90 45 5B 01 97 80 45 00
01 86 90 41 4D 06 80 3C 00 35 80 43 00 01 9E 90
48 60 59 80 41 00 4C 90 43 39 4C 90 43 38 11 80
43 00 32 80 43 00 01 90 40 4E 33 90 3C 54 20 80
48 00 19 90 48 3E 22 80 3C 00 49 80 48 00 0A 80
40 00 03 95 90 45 4A 6C 90 3E 3A 1E 80 45 00 67
90 41 4A 16 90 3E 37 19 90 43 33 4B 90 45 58 36
80 41 00 31 80 45 00 26 80 43 00 27 80 3E 00 76
80 3E 00 06 EC 90 3E 5A 4E 90 40 37 2F 80 3E 00
32 90 48 4C 01 80 80 48 00 5A 80 40 00 7A 90 43
62 5C 80 43 00 1C 90 48 5A 01 C9 80 48 00 32 90
3E 5B 01 BC 80 3E 00 03 88 90 43 34 1E 90 40 59
38 90 40 54 57 80 40 00 37 80 40 00 37 90 41 51
12 90 43 4A 6E 80 43 00 2E 80 41 00 47 90 3C 3C
01 92 90 43 49 0C 80 43 00 6B 80 43 00 01 D1 80
3C 00 02 BA 90 3E 4D 01 BF 80 3E 00 01 BD 90 40
5F 2B 90 3C 5D 01 E4 90 3E 3D 33 80 3C 00 0D 80
3E 00 44 90 3C 45 32 80 40 00 65 80 3C 00 01 E8
90 40 46 59 80 40 00 01 C1 90 3E 52 45 90 43 5E
01 A9 90 40 5D 01 8F 80 3E 00 3C 80 40 00 1C 80
43 00 02 CE 90 3E 48 03 D4 80 3E 00 15 90 40 33
78 80 40 00 02 90 90 47 3B 52 90 43 5D 08 90 41
60 3E 90 48 55 03 80 47 00 01 B4 80 41 00 01 90
48 5A 5A 80 48 00 0A 80 48 00 0E 80 43 00 58 90
41 4F 3F 90 3C 3C 05 80 41 00 25 90 3E 5B 3F 80
3C 00 02 CB 80 3E 00 21 90 47 40 33 90 48 40 33
80 47 00 58 80 48 00 01 8B 90 3C 42 01 B1 90 48
37 41 90 45 49 0B 80 3C 00 16 90 41 49 32 90 3C
55 55 80 41 00 11 80 45 00 01 B7 80 48 00 5E 80
3C 00 02 83 90 40 55 23 90 48 53 75 90 3E 40 1D
90 3E 3A 14 80 40 00 03 80 48 00 02 A9 80 3E 00
52 80 3E 00 7C 90 47 41 01 92 80 47 00 15 90 3C
3D 01 E1 90 40 62 35 80 3C 00 01 96 90 3C 50 20
90 48 4E 26 90 47 60 19 80 40 00 44 90 47 4C 12
90 3C 56 03 80 47 00 22 80 3C 00 48 80 47 00 0D
90 43 4E 6E 80 48 00 67 90 43 53 17 90 48 3F 2D
80 43 00 2E 80 3C 00 0F 80 43 00 01 F1 90 41 3E
09 80 48 00 02 C1 80 41 00 7C 90 41 47 01 D1 80
41 00 03 BE 90 47 5D 01 D4 80 47 00 01 CE 90 3C
38 36 90 43 3C 0D 80 3C 00 35 90 3E 33 01 84 90
3E 35 17 90 45 4A 06 90 3C 4C 1F 80 43 00 55 80
3E 00 6E 80 3E 00 3F 90 48 44 4F 80 3C 00 2E 80
45 00 62 90 47 50 4D 80 48 00 01 9C 90 45 51 01
8B 80 47 00 02 A0 80 45 00 17 90 47 3C 02 80 90
3C 5D 2A 90 48 42 45 80 3C 00 3C 80 47 00 02 87
80 48 00 05 90 40 33 19 90 45 53 01 DB 80 40 00
5B 80 45 00 02 E4 90 3C 34 01 B5 80 3C 00 01 E6
90 45 3A 01 B0 80 45 00 01 B3 90 41 56 01 F9 90
3E 3F 01 8D 80 41 00 7E 80 3E 00 3B 90 41 4B 39
90 48 3E 01 95 90 47 34 76 80 41 00 64 90 3C 4C
50 80 48 00 26 90 47 60 0F 80 3C 00 4C 80 47 00
02 AC 90 3E 56 14 80 47 00 01 FD 90 3E 55 75 90
41 3C 25 80 3E 00 09 90 40 43 62 80 40 00 19 90
47 52 1D 90 45 61 07 80 41 00 24 80 3E 00 01 B6
80 47 00 01 CD 80 45 00 36 90 47 40 01 90 80 47
00 01 E6 90 43 3B 01 D7 80 43 00 5C 90 45 37 45
90 3E 4A 01 D1 80 3E 00 1E 80 45 00 15 90 3E 41
01 81 80 3E 00 02 EC 90 45 57 02 B8 90 45 54 47
90 40 4F 0D 80 45 00 74 80 40 00 01 82 80 45 00
01 B5 90 43 35 26 90 48 55 44 90 45 62 63 80 43
00 01 AD 80 45 00 7C 80 48 00 01 82 90 40 3F 30
90 47 54 01 F9 80 47 00 2D 80 40 00 01 84 90 43
46 02 F8 80 43 00 06 90 3E 35 16 90 40 5D 2D 90
41 50 02 C0 80 41 00 2C 80 3E 00 12 80 40 00 01
99 90 43 5F 3C 90 3E 4E 0F 90 48 60 5C 80 48 00
5E 90 3C 52 29 80 43 00 01 90 47 45 01 A7 80 3E
00 01 90 3E 46 26 90 3C 4F 20 90 45 40 46 80 3C
00 0E 80 47 00 32 80 3C 00 2B 90 3C 41 1E 80 3E
00 01 84 80 3C 00 6A 80 45 00 02 F3 90 47 40 01
82 90 3E 38 01 F0 80 3E 00 38 80 47 00 01 F2 90
45 44 14 90 47 58 02 A6 90 47 4F 5E 80 45 00 1D
90 3C 39 22 80 47 00 28 80 3C 00 54 90 43 5B 50
80 47 00 03 89 80 43 00 56 90 47 5E 07 90 43 57
5F 90 48 3C 14 90 45 3F 6E 90 47 62 0B 80 47 00
01 97 80 43 00 48 80 47 00 27 90 43 44 1B 80 48
00 0F 90 45 47 34 80 45 00 13 90 48 46 01 AE 90
40 52 24 80 48 00 1A 80 40 00 32 90 3E 38 3A 80
45 00 16 80 43 00 01 E2 90 45 34 5E 80 3E 00 08
90 43 47 29 80 45 00 21 80 43 00 02 A8 90 41 35
02 D2 80 41 00 24 90 41 59 48 90 45 48 47 90 41
3B 10 80 45 00 01 A0 90 3C 53 76 80 41 00 22 90
40 3A 32 80 41 00 01 84 80 3C 00 4C 90 45 62 54
80 45 00 2B 80 40 00 01 96 90 47 4B 01 BA 90 40
46 60 80 47 00 02 82 80 40 00 01 CB 90 43 37 03
C0 80 43 00 01 CA 90 45 55 01 8D 80 45 00 08 90
43 60 01 D5 90 3E 3F 56 80 43 00 02 C7 80 3E 00
01 E6 90 43 5D 67 80 43 00 02 DD 90 3C 3C 01 A1
80 3C 00 01 BB 90 3C 49 4D 80 3C 00 04 98 90 40
50 02 BC 80 40 00 02 80 90 3C 5D 01 CA 80 3C 00
04 C2 90 41 41 01 D5 90 48 39 26 80 41 00 02 C4
80 48 00 78 90 41 5F 61 80 41 00 01 C0 90 3E 5E
27 90 48 49 01 8D 80 3E 00 01 B8 90 3C 63 45 80
3C 00 3D 80 48 00 01 82 90 48 33 01 C7 80 48 00
03 91 90 47 32 02 9D 90 40 43 41 90 47 58 19 80
47 00 01 97 90 41 5A 44 80 47 00 34 80 41 00 31
80 40 00 56 90 3E 3C 7F 90 3C 3E 02 97 80 3E 00
3C 80 3C 00 01 E6 90 3E 5F 54 90 40 5F 33 90 41
5C 1D 80 3E 00 69 80 40 00 01 C0 80 41 00 01 94
90 45 4C 02 A1 90 3E 58 2A 80 45 00 01 D9 80 3E
00 01 9B 90 43 59 56 80 43 00 5B 90 45 34 01 AF
90 3C 5F 5B 80 3C 00 11 90 48 4C 5A 80 48 00 48
80 45 00 4B 90 3E 45 01 AE 90 45 4E 5C 80 3E 00
5C 90 48 32 01 D8 80 45 00 08 80 48 00 01 FB 90
41 5F 02 9B 80 41 00 03 A5 90 41 48 02 90 43 4F
0C 90 3E 4C 6A 90 47 4A 03 80 41 00 01 83 90 40
57 03 80 3E 00 03 80 47 00 5C 80 43 00 01 A0 90
47 49 7C 80 40 00 28 80 47 00 01 A7 90 3C 43 01
D4 90 41 62 53 90 43 63 04 80 3C 00 13 90 47 64
2B 80 41 00 0F 90 3C 35 4F 80 43 00 1E 80 3C 00
6C 80 47 00 01 CA 90 41 36 4D 80 41 00 05 E1 90
45 5F 02 9D 90 48 32 6B 80 45 00 23 90 47 32 1D
80 48 00 12 90 41 53 40 90 45 33 2A 80 41 00 1C
80 47 00 01 FC 80 45 00 03 86 90 40 47 01 D6 90
3C 4D 5A 80 3C 00 02 90 48 37 48 80 40 00 02 8E
80 48 00 06 F1 90 45 58 01 DC 90 3C 3F 14 80 45
00 21 90 48 4D 01 9B 80 48 00 12 90 47 4F 07 80
3C 00 5E 90 47 62 43 80 47 00 01 B3 80 47 00 34
90 41 5D 01 99 80 41 00 01 99 90 3E 4F 0C 90 45
35 45 80 3E 00 01 9B 80 45 00 47 90 40 47 42 80
40 00 05 B2 90 40 64 01 D5 80 40 00 06 CC 90 48
5E 03 8B 80 48 00 02 D1 90 45 55 01 A2 90 48 35
3E 90 40 39 04 90 45 4A 5A 90 48 45 35 90 47 33
24 80 40 00 20 80 48 00 0E 80 48 00 18 80 45 00
73 80 45 00 4D 90 41 3A 47 80 41 00 52 80 47 00
01 EF 90 47 55 0E 90 48 40 19 90 41 37 6A 90 45
51 5B 90 3E 42 0F 80 41 00 05 90 3C 39 6B 80 45
00 16 80 48 00 2E 80 3C 00 1C 80 47 00 01 8F 80
3E 00 01 A1 90 40 32 01 B2 80 40 00 30 90 47 35
04 90 3C 38 25 90 48 37 4A 90 3C 5A 11 90 41 48
07 80 47 00 5A 80 41 00 3C 80 3C 00 4C 90 47 4C
0E 90 43 63 26 80 3C 00 2E 90 41 51 07 80 48 00
18 80 47 00 01 AF 80 43 00 17 80 41 00 37 90 3C
64 38 90 45 3C 02 CD 80 3C 00 6C 80 45 00 01 B8
90 41 5D 0D 90 3C 3F 32 80 41 00 50 80 3C 00 69
90 41 34 46 90 43 57 7C 80 41 00 01 84 90 41 3D
01 98 90 3E 38 3A 80 43 00 4F 80 3E 00 73 80 41
00 01 85 90 41 5A 01 E7 80 41 00 01 B4 90 47 5C
0E 90 48 61 01 B4 80 47 00 28 80 48 00 03 C3 90
3C 38 01 82 90 41 4B 01 B3 80 3C 00 2C 80 41 00
02 BF 90 48 4A 42 90 48 52 76 80 48 00 02 E1 80
48 00 06 87 90 45 3D 10 90 41 5F 41 90 47 3D 01
83 80 41 00 03 90 3C 4C 01 A8 80 45 00 2D 80 47
00 02 89 80 3C 00 04 B4 90 48 40 69 80 48 00 04
90 41 4F 01 CC 90 40 3E 0F 80 41 00 2A 90 43 32
11 90 40 5A 4F 80 40 00 3A 80 40 00 02 B2 80 43
00 02 BB 90 45 48 02 A0 90 47 5B 45 90 3C 4E 06
80 45 00 49 90 43 59 35 80 47 00 03 80 3C 00 27
90 43 33 01 99 90 47 39 1A 90 48 32 46 80 43 00
0C 90 40 32 5E 80 47 00 18 80 40 00 06 80 43 00
01 B0 90 45 4A 21 80 48 00 26 80 45 00 05 85 90
41 57 01 C8 90 43 52 1B 90 45 37 01 A0 80 41 00
17 90 3E 40 7A 80 43 00 36 90 3C 3C 05 80 45 00
41 80 3E 00 5F 90 47 35 23 90 40 48 2E 80 3C 00
42 90 47 35 01 83 80 47 00 01 A4 80 47 00 47 80
40 00 36 90 3C 37 01 96 90 48 54 2D 80 3C 00 02
B6 80 48 00 4D 90 47 4F 03 C2 90 3E 41 1E 80 47
00 02 A8 80 3E 00 1F 90 48 4E 01 FB 80 48 00 01
CE 90 43 3F 01 9C 90 40 4B 47 80 43 00 01 D8 80
40 00 29 90 48 5B 19 90 48 5E 01 DC 90 40 44 01
9C 80 48 00 41 80 40 00 10 80 48 00 01 A9 90 48
57 51 90 48 5C 02 9C 90 45 39 02 80 48 00 23 80
48 00 01 CC 90 41 3B 6E 90 45 40 1F 80 45 00 5D
90 48 39 00 90 47 64 59 80 41 00 49 80 45 00 2E
80 48 00 01 BC 90 43 47 1E 80 47 00 5A 90 41 56
01 BF 80 43 00 2D 90 47 53 5F 80 47 00 4A 80 41
00 08 B6 90 3C 32 34 90 48 62 0D 90 48 55 01 81
90 3C 32 15 90 48 43 45 80 3C 00 2A 90 41 4E 06
80 3C 00 39 80 48 00 08 80 48 00 76 80 48 00 3A
80 41 00 20 90 47 49 01 E2 90 3C 50 2E 90 43 42
2F 80 47 00 17 90 45 64 52 80 43 00 07 80 3C 00
01 CF 80 45 00 0F 90 40 61 01 83 90 3E 38 02 CB
80 40 00 0F 80 3E 00 01 FC 90 47 4B 01 8D 90 3E
50 5B 80 47 00 02 80 3E 00 03 E2 90 45 41 5D 90
47 34 19 90 45 53 24 80 45 00 24 80 45 00 0A 80
47 00 04 86 90 45 5E 3C 90 47 3F 7D 80 45 00 0D
90 41 33 70 80 41 00 5A 90 48 4A 37 80 47 00 27
90 3E 64 17 90 41 37 2D 80 3E 00 43 80 41 00 01
80 48 00 01 90 43 54 03 B9 90 47 49 00 80 43 00
01 8A 90 3C 46 7C 80 3C 00 22 80 47 00 1B 90 47
49 01 90 90 40 52 01 E4 80 47 00 01 DB 90 47 5C
0D 80 40 00 1A 90 41 32 1F 90 3E 3F 43 90 48 45
0B 90 43 51 01 8C 80 47 00 39 80 41 00 0E 90 45
56 5B 80 3E 00 02 80 43 00 1B 80 48 00 01 A8 80
45 00 03 CC 90 41 3C 02 A9 80 41 00 03 D4 90 40
58 79 80 40 00 02 B1 90 45 5A 4C 90 3C 32 01 C7
80 45 00 0E 80 3C 00 03 B4 90 3C 4C 02 D6 90 47
62 2E 90 3E 42 43 80 3C 00 4B 80 3E 00 01 B3 80
47 00 61 90 45 49 08 90 47 3D 34 90 3E 52 01 87
80 45 00 00 80 3E 00 14 90 48 38 39 80 47 00 43
90 47 4D 22 90 43 46 01 9D 80 48 00 1D 80 47 00
38 80 43 00 03 FE 90 41 36 01 9E 80 41 00 18 90
43 38 01 C5 90 3C 43 05 80 43 00 42 80 3C 00 0A
98 90 47 64 47 90 41 37 42 90 48 53 46 80 47 00
57 80 41 00 01 9A 90 40 61 30 90 3E 49 3B 80 48
00 24 80 40 00 06 90 47 46 01 A0 80 3E 00 43 90
47 37 43 80 47 00 1B 90 3E 50 01 86 80 3E 00 3A
80 47 00 38 90 48 54 01 C6 90 47 4B 5F 90 48 36
01 95 90 47 64 07 80 48 00 05 90 45 5C 33 80 47
00 25 80 48 00 34 80 47 00 02 C2 80 45 00 36 90
3E 54 56 80 3E 00 01 B5 90 45 4B 4F 90 43 48 01
8D 80 45 00 44 90 40 55 7B 80 43 00 02 B9 90 47
4C 15 80 40 00 01 DD 90 47 5E 3C 80 47 00 78 90
41 36 57 90 3E 64 11 80 47 00 6B 90 3E 60 0F 80
41 00 12 90 48 5D 50 80 3E 00 5F 80 3E 00 26 80
48 00 03 F1 90 3C 3A 58 90 48 50 01 A6 90 3E 4D
1A 80 3C 00 0D 90 47 4D 35 80 3E 00 61 80 48 00
01 A6 80 47 00 26 90 47 48 01 A8 90 47 5C 44 80
47 00 01 9D 80 47 00 02 B3 90 3E 51 02 DF 80 3E
00 01 AA 90 48 36 69 80 48 00 39 90 47 5E 0F 90
45 60 01 9D 80 47 00 02 A7 80 45 00 02 CF 90 3E
4E 01 86 80 3E 00 03 AC 90 41 5E 01 8C 80 41 00
78 90 45 4D 02 AC 80 45 00 01 8A 90 48 3E 74 90
47 4E 6C 80 48 00 33 80 47 00 03 F8 90 45 4D 45
90 3E 4F 3C 90 3E 54 01 BF 90 3C 59 0B 80 3E 00
5B 80 3E 00 24 80 45 00 0C 90 3E 5C 1C 90 43 4F
27 80 3C 00 3C 90 40 5F 52 90 48 41 19 80 3E 00
00 90 3E 4B 4E 80 43 00 50 80 48 00 36 90 47 5F
09 80 3E 00 6D 80 40 00 05 80 47 00 01 BE 90 40
41 03 A5 80 40 00 01 CD 90 43 4D 01 D7 90 43 5C
33 90 45 52 19 90 41 44 77 80 43 00 08 80 43 00
7A 80 45 00 61 80 41 00 01 E3 90 3C 45 37 90 48
39 71 90 40 44 02 99 80 3C 00 26 80 40 00 14 80
48 00 01 D0 90 40 5D 02 89 80 40 00 01 D5 90 45
5A 16 90 48 5C 01 EC 90 47 33 2F 80 45 00 1C 80
48 00 08 90 47 37 43 90 45 48 61 80 47 00 07 90
45 42 01 B8 90 41 45 46 80 47 00 10 90 45 5D 58
80 45 00 19 90 45 54 19 80 45 00 14 90 3C 3E 39
80 45 00 6F 80 41 00 16 90 47 55 37 90 45 36 25
90 40 56 15 80 45 00 16 80 3C 00 28 80 45 00 7F
80 47 00 25 80 40 00 01 92 90 43 5F 25 90 40 4E
01 81 80 43 00 11 90 40 64 3B 90 45 32 08 90 47
32 00 80 40 00 69 80 45 00 4E 80 40 00 01 A5 80
47 00 01 90 47 44 02 B9 80 47 00 01 F2 90 3C 60
01 9F 80 3C 00 10 90 47 5C 33 90 45 61 40 80 47
00 02 81 90 43 58 0A 80 45 00 3B 90 3E 33 20 90
48 36 57 80 48 00 01 83 80 43 00 1A 80 3E 00 03
C9 90 43 4D 01 9B 90 3C 60 25 90 47 45 2C 80 43
00 46 90 45 44 3C 80 3C 00 0B 80 47 00 1B 90 3E
4A 77 90 47 61 0A 90 45 44 1A 80 3E 00 20 80 45
00 11 90 48 43 01 BD 80 48 00 43 80 47 00 2C 90
3E 54 0D 90 40 3C 05 90 43 59 2E 80 45 00 01 B7
80 3E 00 31 80 43 00 10 90 40 3D 11 80 40 00 7A
90 40 34 01 97 80 40 00 6E 80 40 00 01 FF 90 3E
5D 2A 90 47 46 40 90 45 34 01 81 80 3E 00 01 A0
80 47 00 17 80 45 00 33 90 45 38 01 FF 80 45 00
4B 90 3E 59 5E 90 45 5D 01 92 90 48 50 36 80 3E
00 30 80 48 00 6B 90 48 57 65 80 45 00 24 90 40
36 73 80 48 00 01 99 80 40 00 15 90 40 36 00 90
40 3A 26 90 40 5E 1A 80 40 00 5E 80 40 00 01 8A
90 48 5A 01 A7 80 40 00 40 90 45 46 01 BA 80 48
00 12 90 48 62 77 80 45 00 01 8B 80 48 00 5D 90
47 5D 01 DB 90 43 61 5F 80 43 00 2D 80 47 00 02
E4 90 40 4E 01 AF 80 40 00 02 B2 90 3C 42 48 90
3C 55 43 90 45 3F 47 80 3C 00 0E 90 43 54 1C 80
3C 00 01 8C 80 45 00 01 A9 80 43 00 01 87 90 3E
61 01 DD 80 3E 00 77 90 43 43 01 AD 90 48 44 28
80 43 00 22 90 47 32 64 80 48 00 02 F6 80 47 00
03 FF 90 41 3E 03 D4 80 41 00 01 91 90 43 4B 01
97 90 3C 61 33 80 43 00 40 90 41 3A 4B 90 3E 39
73 80 3C 00 05 90 43 41 65 80 43 00 77 80 41 00
1A 80 3E 00 21 90 48 52 17 90 3E 44 1E 90 48 3E
01 91 80 3E 00 01 9E 80 48 00 0A 80 48 00 04 BA
90 43 4F 08 90 3E 48 3C 90 43 62 02 C1 80 43 00
3E 80 3E 00 33 90 3E 3A 1F 90 45 5E 0C 80 43 00
01 8A 90 45 55 01 BE 80 45 00 43 80 45 00 1E 80
3E 00 03 E7 90 45 43 01 87 90 45 5D 0E 90 48 3D
07 90 43 50 70 80 45 00 25 80 45 00 0D 80 48 00
01 99 80 43 00 05 AD 90 3C 4E 01 FA 80 3C 00 02
C3 90 48 3D 01 ED 80 48 00 02 F2 90 47 43 49 90
40 33 01 D3 80 40 00 15 90 43 45 45 80 47 00 01
B0 80 43 00 04 BE 90 45 64 13 90 47 5F 5A 80 45
00 2F 80 47 00 49 90 3E 3F 0E 90 47 57 01 90 80
47 00 04 90 40 3A 01 E1 90 43 33 25 90 3C 46 0B
80 3E 00 68 80 40 00 60 80 43 00 10 90 43 57 3D
90 43 4A 32 80 3C 00 2B 80 43 00 6E 80 43 00 7C
90 43 3F 03 BE 80 43 00 02 A9 90 43 3D 02 E8 80
43 00 02 8E 90 3E 3D 02 B1 90 3E 47 3B 90 40 40
4A 80 3E 00 1F 90 47 5C 04 90 3C 5C 25 80 3E 00
33 80 3C 00 7A 90 3C 42 2B 80 40 00 01 80 47 00
0C 90 48 53 3C 80 3C 00 6B 90 43 58 2C 80 48 00
12 90 3E 4E 01 81 80 43 00 01 BD 90 45 4E 01 89
80 3E 00 04 90 43 59 37 80 45 00 01 D5 90 48 4C
25 80 43 00 1B 80 48 00 03 B4 90 41 48 01 D0 80
41 00 2F 90 41 35 02 90 3C 49 01 AD 90 48 52 13
80 3C 00 01 90 40 4E 01 88 80 41 00 0F 80 48 00
0F 90 48 3F 01 96 80 40 00 13 90 41 40 21 80 48
00 5F 90 3E 33 0E 80 41 00 62 90 40 5B 3A 90 45
49 47 90 47 5D 0F 80 3E 00 30 80 40 00 01 B9 80
47 00 4C 90 45 4D 22 80 45 00 1D 90 3C 4B 01 E7
80 45 00 67 80 3C 00 06 90 41 4C 32 90 48 40 02
A6 90 45 32 32 80 41 00 09 90 41 37 63 80 45 00
01 80 48 00 04 90 45 3E 28 80 41 00 3A 90 40 53
40 80 45 00 12 80 40 00 48 90 40 44 02 82 90 45
3B 2D 80 40 00 01 EA 80 45 00 52 90 40 34 0A 90
48 39 23 90 41 63 01 81 80 40 00 3C 80 48 00 35
80 41 00 02 9A 90 47 60 60 80 47 00 01 85 90 41
56 01 F0 80 41 00 3C 90 3C 4E 01 ED 90 40 38 1D
80 3C 00 6C 90 41 49 48 90 43 4E 31 80 40 00 15
80 43 00 0B 90 48 38 72 80 41 00 24 80 48 00 01
90 90 3C 5F 29 90 41 61 72 80 3C 00 45 90 43 50
58 90 41 59 07 80 41 00 03 80 43 00 65 90 48 32
1A 80 41 00 01 CE 90 40 61 39 80 48 00 01 88 90
3E 3A 38 80 40 00 02 CF 80 3E 00 72 90 43 4E 02
8F 90 47 41 1A 80 43 00 77 90 43 55 45 80 43 00
1E 80 47 00 00 90 40 4C 01 93 90 41 4E 01 CE 90
3E 47 1A 90 48 4C 41 80 48 00 02 80 40 00 09 90
45 51 01 AC 80 41 00 10 80 3E 00 02 82 80 45 00
03 C1 90 41 3A 02 F5 90 40 39 41 80 41 00 01 BD
80 40 00 5C 90 3C 46 03 96 90 43 3A 01 90 43 3E
21 80 3C 00 02 A1 90 3E 3D 39 90 3E 61 1F 80 43
00 1B 80 43 00 62 80 3E 00 28 80 3E 00 03 A3 90
40 5E 02 BF 90 48 37 01 80 40 00 15 90 45 49 45
90 47 5E 6E 80 47 00 01 88 90 48 64 3A 80 45 00
2B 80 48 00 0D 80 48 00 03 A5 90 48 38 01 CC 90
40 47 4B 90 3E 61 30 80 48 00 6D 80 3E 00 24 90
47 54 28 80 40 00 39 80 47 00 0C B8 90 43 40 1D
90 43 4A 01 CE 80 43 00 01 ED 80 43 00 6A 90 45
32 3F 80 45 00 6F 90 48 60 7F 90 3C 64 69 80 48
00 01 81 90 48 51 7B 80 3C 00 64 80 48 00 01 E6
90 43 3D 68 90 40 46 01 99 80 43 00 6D 80 40 00
02 BC 90 45 37 10 90 47 5C 11 90 3C 60 34 80 45
00 01 F0 80 47 00 01 85 90 47 39 1D 80 3C 00 44
80 47 00 03 D0 90 40 4B 01 BD 80 40 00 04 A8 90
43 44 02 8E 80 43 00 37 90 3C 4E 01 8E 80 3C 00
2A 90 45 34 4E 80 45 00 4B 90 41 60 27 90 48 51
05 90 41 47 01 A8 90 41 44 02 90 47 63 01 D5 80
41 00 00 80 41 00 07 80 47 00 4D 80 48 00 1F 80
41 00 02 C5 90 48 5C 64 80 48 00 01 96 90 41 37
62 90 43 4F 01 A1 80 41 00 01 8A 90 45 54 05 80
43 00 01 A7 80 45 00 28 90 47 33 01 DC 90 3C 3A
5D 80 47 00 0C 90 48 47 0C 90 48 62 59 90 47 52
46 80 48 00 5C 80 3C 00 08 80 47 00 36 80 48 00
65 90 41 55 01 8E 90 43 3F 45 90 3E 46 10 90 43
3D 0E 80 43 00 26 90 48 59 66 80 41 00 12 80 48
00 1A 90 48 4A 3F 80 3E 00 10 80 43 00 10 90 48
43 67 80 48 00 4A 90 3C 58 01 9D 80 48 00 2D 90
48 5B 08 90 3C 34 08 90 3C 32 02 80 3C 00 01 A0
80 3C 00 01 DF 80 48 00 10 90 3C 59 18 90 43 38
0A 80 3C 00 0E 90 41 60 21 90 47 43 3B 80 3C 00
60 80 47 00 74 90 43 4B 76 80 43 00 35 80 41 00
1A 80 43 00 03 EF 90 48 55 16 90 3C 33 0A 90 3C
5C 50 80 3C 00 03 80 48 00 79 90 3C 40 6E 80 3C
00 01 95 90 3E 4F 63 80 3C 00 01 CF 80 3E 00 03
80 90 43 5B 04 90 41 4E 62 80 41 00 02 80 43 00
04 91 90 40 40 01 BB 90 41 3B 01 B6 80 41 00 17
80 40 00 02 D4 90 47 51 01 B8 90 45 35 01 AE 90
41 39 60 80 47 00 03 80 45 00 45 80 41 00 02 90
45 62 4A 90 43 53 02 AB 80 45 00 7E 80 43 00 01
B6 90 40 51 7E 90 3E 5E 01 81 90 3E 60 12 90 41
5C 01 90 41 49 33 80 40 00 26 80 41 00 01 AB 80
3E 00 46 80 41 00 77 80 3E 00 03 BD 90 41 3D 0C
90 3C 51 70 80 3C 00 42 90 3E 37 01 81 80 41 00
01 9E 90 40 57 01 95 90 47 41 18 80 3E 00 12 80
40 00 29 90 43 3B 1E 90 3E 40 41 90 45 4F 27 80
3E 00 11 90 40 60 48 90 3E 50 29 80 47 00 01 BB
80 40 00 0F 80 43 00 07 80 45 00 4F 90 41 54 3E
80 3E 00 07 90 3C 48 3A 90 40 49 60 90 3E 53 3C
80 3C 00 3E 80 41 00 26 80 40 00 01 BD 80 3E 00
55 90 45 5D 01 AA 80 45 00 3E 90 41 64 01 81 90
41 5E 41 90 43 57 01 83 80 41 00 35 80 41 00 1A
90 40 64 01 94 90 40 56 0D 80 43 00 63 80 40 00
01 C1 80 40 00 02 E5 90 48 55 01 EF 90 47 4D 01
D9 80 48 00 3B 80 47 00 02 90 47 48 6F 80 47 00
57 90 48 5B 71 90 40 5E 49 80 48 00 08 90 3E 33
29 80 40 00 01 B5 80 3E 00 5A 90 47 63 3F 90 3E
60 14 90 48 34 01 A2 80 47 00 01 8C 80 3E 00 7B
80 48 00 31 90 43 5E 2C 90 45 5A 4F 90 40 4D 01
E1 80 43 00 12 80 45 00 39 80 40 00 26 90 3C 37
01 CC 80 3C 00 02 B0 90 41 42 01 D0 80 41 00 01
CC 90 43 53 54 80 43 00 42 90 43 63 46 90 40 3D
36 80 43 00 0F 90 3E 4F 01 A2 80 40 00 01 A4 80
3E 00 02 87 90 45 3A 06 90 45 3C 01 84 90 43 46
4B 80 45 00 0D 80 45 00 01 FB 80 43 00 25 90 41
41 30 90 48 43 26 80 41 00 59 90 43 49 2D 80 48
00 37 80 43 00 02 92 90 45 38 02 A3 90 3E 4F 0E
80 45 00 01 8E 90 43 43 01 E0 80 3E 00 79 90 3C
63 24 80 43 00 02 B6 80 3C 00 01 C6 90 3C 57 01
BA 80 3C 00 04 90 47 5F 02 F8 90 47 61 64 80 47
00 01 B4 80 47 00 62 90 41 4E 02 F9 80 41 00 02
C2 90 47 43 6C 90 47 4B 3F 80 47 00 02 9C 80 47
00 3E 90 48 5E 02 FC 80 48 00 65 90 43 4D 03 8A
80 43 00 71 90 3E 5E 01 ED 80 3E 00 25 90 47 61
02 93 90 3C 4A 01 A4 80 47 00 02 88 80 3C 00 03
B3 90 43 5F 01 8F 90 45 3D 01 8B 80 43 00 01 9F
90 3C 5C 01 9D 80 45 00 11 80 3C 00 01 86 90 3E
36 4C 80 3E 00 02 B3 90 3C 54 02 E3 80 3C 00 02
BA 90 43 3D 4D 90 47 35 01 F8 90 45 3E 1B 90 47
64 70 80 43 00 4F 80 47 00 18 80 47 00 01 C9 80
45 00 2D 90 3C 4C 01 C6 90 41 50 59 90 41 39 03
80 3C 00 02 E2 80 41 00 1F 80 41 00 4C 90 40 5B
7B 90 43 47 26 90 41 63 2F 80 43 00 2C 90 40 44
01 AD 80 41 00 29 80 40 00 01 A1 90 40 5B 3D 80
40 00 67 80 40 00 0E 90 40 33 55 90 3C 4B 4B 80
40 00 72 80 3C 00 03 B5 90 40 46 01 84 90 48 3A
4A 90 48 38 36 80 40 00 30 90 43 63 00 80 48 00
64 90 43 59 2B 90 43 4C 14 80 48 00 50 80 43 00
4C 80 43 00 22 80 43 00 04 B5 90 48 51 07 90 3C
47 73 80 3C 00 15 80 48 00 08 A3 90 47 40 01 95
80 47 00 04 A8 90 43 43 03 AE 80 43 00 03 B6 90
45 3D 72 80 45 00 22 90 47 56 02 90 47 59 02 93
80 47 00 48 80 47 00 01 A3 90 47 56 01 CA 90 43
46 01 BB 90 47 61 12 80 47 00 1F 80 43 00 6D 90
48 5A 1A 90 47 37 20 90 48 5E 49 90 3C 4A 51 80
48 00 10 90 41 61 07 80 3C 00 09 80 47 00 11 80
47 00 2C 80 48 00 02 D3 80 41 00 08 90 43 42 41
90 47 43 12 90 45 62 07 90 3E 55 11 90 45 40 11
80 43 00 3F 90 41 38 2D 80 47 00 01 9C 80 41 00
2E 90 3C 55 19 80 3E 00 09 80 45 00 4D 80 45 00
01 EC 80 3C 00 4B 90 45 47 23 90 3C 3E 11 90 3C
57 44 90 41 50 2F 80 45 00 5D 80 3C 00 4A 80 41
00 27 80 3C 00 04 F6 90 48 3F 01 F4 90 41 5E 52
90 43 47 06 80 48 00 06 80 41 00 34 90 47 52 01
A5 80 47 00 5C 80 43 00 02 AF 90 48 52 1F 90 48
3C 01 86 80 48 00 70 80 48 00 0B 90 3C 42 02 F7
90 45 61 2F 90 3C 32 08 80 3C 00 02 E9 90 48 3A
02 80 45 00 63 80 3C 00 3B 90 40 51 12 90 3C 5C
5C 80 48 00 1E 90 41 3B 61 80 41 00 34 90 3C 62
19 80 3C 00 70 80 40 00 1E 90 3C 57 0F 90 41 39
02 90 3E 51 65 80 3C 00 69 90 48 42 27 80 41 00
4A 80 3E 00 72 80 3C 00 3A 80 48 00 01 B3 90 3E
5A 01 90 90 3E 39 17 90 47 34 01 C2 80 3E 00 0F
90 48 5D 6A 80 48 00 47 80 47 00 39 80 3E 00 01
90 41 34 01 88 80 41 00 1E 90 45 4C 02 AC 90 47
4C 0D 80 45 00 03 C2 80 47 00 40 90 41 53 2D 90
45 32 02 89 80 45 00 22 90 3E 4F 57 80 41 00 0A
90 3E 3C 01 94 80 3E 00 01 D3 80 3E 00 45 90 43
3F 01 90 40 56 02 A4 80 43 00 1C 90 43 38 4C 80
40 00 06 80 43 00 09 90 43 32 02 D0 80 43 00 79
90 45 56 01 FE 80 45 00 15 90 3C 60 01 CC 80 3C
00 01 BF 90 3C 61 01 B7 90 45 4A 56 80 3C 00 2B
90 3E 4A 45 80 3E 00 01 9D 90 43 54 1C 80 45 00
7E 80 43 00 07 F9 90 41 38 7A 90 40 5A 7A 80 40
00 01 A5 90 3C 63 05 80 41 00 01 CC 90 43 45 3A
90 47 5A 12 80 3C 00 01 F8 90 43 34 34 80 43 00
49 80 47 00 58 90 3C 3E 53 80 3C 00 79 80 43 00
48 90 40 3B 47 90 43 61 01 B5 80 43 00 01 8F 90
41 47 3E 80 40 00 02 D6 80 41 00 07 EB 90 41 57
03 A4 80 41 00 33 90 41 38 21 90 48 56 25 90 43
59 02 9E 80 43 00 3B 80 41 00 60 80 48 00 02 C7
90 41 56 03 90 40 5C 01 D9 90 3C 43 3C 90 3C 64
38 80 40 00 1C 80 3C 00 65 80 41 00 37 90 48 4D
01 D4 80 3C 00 12 90 40 44 29 90 3E 5B 53 90 40
51 13 80 40 00 0D 80 48 00 71 90 40 32 02 90 47
61 48 80 47 00 54 80 40 00 06 80 3E 00 7A 80 40
00 73 90 3E 3B 52 90 43 38 4A 80 3E 00 3A 80 43
00 3B 90 45 60 43 80 45 00 02 CE 90 3C 64 76 80
3C 00 4D 90 3C 5F 02 87 80 3C 00 03 D9 90 48 39
06 90 48 35 01 C8 90 41 5B 42 80 48 00 01 85 80
48 00 1B 90 45 63 0F 90 45 4F 3E 80 41 00 02 80
45 00 4A 90 43 4E 02 D5 80 45 00 16 90 3C 3B 22
90 45 4E 04 80 43 00 01 8D 80 45 00 22 90 48 4E
6E 80 48 00 4D 80 3C 00 01 DE 90 47 34 72 90 40
5A 03 80 47 00 01 9A 80 40 00 01 9B 90 41 50 02
91 90 3C 3C 7F 90 45 47 24 90 45 54 1A 80 41 00
3C 80 3C 00 3D 90 47 32 61 80 45 00 2E 80 45 00
11 90 41 5F 16 80 47 00 03 92 80 41 00 4C 90 3E
55 01 82 90 48 48 4E 80 3E 00 5E 90 45 48 29 90
41 4B 2F 80 45 00 43 80 48 00 01 E8 90 48 46 10
80 41 00 60 90 43 63 1A 80 48 00 5F 80 43 00 01
A5 90 41 5E 7C 90 48 44 02 A0 80 41 00 1D 80 48
00 02 DC 90 47 35 74 80 47 00 45 90 40 5A 02 CC
90 45 4F 59 80 40 00 2B 80 45 00 05 D2 90 48 54
01 9A 80 48 00 32 90 43 50 01 EB 90 3E 47 01 81
80 3E 00 10 90 3E 3D 07 90 47 3E 1F 80 43 00 78
80 3E 00 51 80 47 00 04 8D 90 48 55 6E 90 3E 3B
1E 80 48 00 1C 90 47 32 56 90 40 59 4F 90 47 61
01 D9 80 3E 00 03 80 47 00 01 9E 80 40 00 2F 90
48 42 28 80 47 00 77 90 40 49 01 CB 80 48 00 5B
80 40 00 2F 90 45 5C 01 ED 90 41 3C 01 8C 80 45
00 41 80 41 00 55 90 41 60 65 80 41 00 04 E5 90
3C 4C 11 90 3E 46 07 90 48 53 34 90 41 54 0C 90
45 4E 1F 80 3E 00 4E 80 48 00 05 90 43 32 15 80
41 00 3B 80 43 00 14 90 43 3B 2C 80 45 00 6D 80
3C 00 30 90 43 34 10 90 40 3A 4D 90 43 43 27 80
43 00 2E 80 40 00 12 90 47 49 67 80 47 00 41 80
43 00 01 9A 80 43 00 04 9E 90 45 61 01 DC 80 45
00 0B 90 41 3A 74 80 41 00 01 9A 90 41 3D 01 DF
80 41 00 01 96 90 45 4A 01 BB 90 45 5E 5B 80 45
00 30 90 48 58 01 E2 80 45 00 47 90 45 59 01 89
80 48 00 39 80 45 00 01 BE 90 40 40 75 90 48 5F
1A 80 40 00 01 8F 80 48 00 04 8A 90 45 64 01 B5
80 45 00 01 89 90 43 64 01 F4 90 41 37 5F 80 41
00 71 80 43 00 01 CD 90 43 52 3E 80 43 00 06 A0
90 40 46 01 9B 90 47 35 6E 80 40 00 01 B2 90 43
46 07 90 41 51 16 80 47 00 01 BA 80 41 00 1B 90
47 34 31 90 41 49 1D 80 43 00 5B 80 41 00 40 90
48 4C 14 90 48 63 52 90 3C 34 0F 90 3E 56 21 80
48 00 43 80 47 00 01 86 80 48 00 1D 80 3E 00 41
90 45 50 1B 90 43 5D 47 80 3C 00 01 BB 90 40 49
05 80 43 00 4C 80 45 00 18 80 40 00 6F 90 47 4C
6E 80 47 00 25 90 41 33 44 90 40 56 02 C4 90 40
45 23 80 41 00 22 80 40 00 02 92 90 3E 3C 4B 80
40 00 34 90 41 33 02 87 90 47 5E 02 90 3C 64 02
90 47 38 0B 80 3E 00 31 80 41 00 59 90 3C 60 6C
80 3C 00 50 90 43 64 05 80 47 00 34 90 45 56 06
90 45 32 3B 80 47 00 08 90 40 62 27 90 3C 40 1F
80 45 00 29 80 43 00 0F 80 3C 00 01 88 90 3C 54
1C 80 45 00 22 80 40 00 22 90 41 47 0A 80 3C 00
09 90 48 3D 01 BC 80 41 00 10 80 3C 00 3C 80 48
00 04 A6 90 48 3E 51 90 41 45 1F 90 3C 5C 60 80
48 00 0E 90 47 3E 09 80 3C 00 01 CA 80 41 00 01
DA 80 47 00 01 B3 90 48 44 0E 90 45 5F 01 9B 90
3E 37 01 8D 80 3E 00 6B 80 48 00 14 90 45 57 06
80 45 00 7B 80 45 00 01 BE 90 41 53 47 90 45 54
01 87 80 41 00 01 F8 80 45 00 01 89 90 48 33 4F
80 48 00 68 90 3E 63 21 90 45 3B 01 E0 90 3C 4B
2C 80 3E 00 2B 80 45 00 01 A1 80 3C 00 26 90 47
50 6F 90 43 5F 09 90 47 35 02 84 80 47 00 33 80
43 00 31 90 40 55 35 80 47 00 2B 90 41 55 34 80
40 00 1C 90 3E 4B 0A 80 41 00 01 9F 80 3E 00 02
CE 90 48 58 3E 80 48 00 2B 90 47 5C 01 AB 90 47
36 75 80 47 00 01 C2 80 47 00 04 94 90 47 46 03
CF 80 47 00 04 87 90 3C 3E 01 8D 80 3C 00 2C 90
48 4F 02 8A 90 41 5C 11 90 45 40 17 80 48 00 15
80 41 00 15 80 45 00 1D 90 40 55 3C 80 40 00 04
BB 90 41 36 01 A5 90 41 4C 36 80 41 00 01 84 90
45 5E 01 85 80 41 00 13 90 47 5B 3D 80 47 00 78
80 45 00 01 C2 90 43 57 31 90 40 4A 1E 90 45 48
60 80 40 00 31 90 47 63 25 80 43 00 54 90 41 62
1C 80 45 00 33 90 3C 5C 01 B5 90 3E 49 10 80 47
00 3A 80 3C 00 5D 80 41 00 02 84 80 3E 00 01 BA
90 3C 40 44 90 3E 37 24 80 3C 00 44 90 40 5E 52
80 3E 00 77 80 40 00 2E 90 41 40 01 95 90 47 37
15 80 41 00 02 8F 80 47 00 3C 90 41 63 02 AF 80
41 00 03 D0 90 41 53 01 A1 80 41 00 01 A2 90 40
32 02 D5 80 40 00 03 AE 90 48 64 70 80 48 00 04
87 90 47 5B 01 C5 80 47 00 02 8E 90 48 53 01 93
90 47 5A 21 80 48 00 01 D6 90 45 64 12 80 47 00
2C 90 47 36 02 85 80 45 00 3F 80 47 00 01 F8 90
47 44 17 90 41 3E 20 90 48 50 52 80 47 00 0B 80
41 00 07 90 40 46 01 8E 90 43 5A 45 90 40 4C 32
80 43 00 6C 80 48 00 2F 80 40 00 02 80 40 00 30
90 43 4A 03 86 90 3E 56 4D 80 43 00 01 9F 80 3E
00 03 D6 90 40 33 59 80 40 00 74 90 40 32 03 C7
80 40 00 02 A1 90 40 54 1A 90 3E 5E 01 D1 80 40
00 01 E8 80 3E 00 68 90 40 4F 01 C3 80 40 00 40
90 45 57 24 90 45 53 01 C7 90 48 3E 15 90 45 3F
1A 80 45 00 01 B1 80 45 00 50 80 45 00 01 91 80
48 00 02 8B 90 47 58 02 AA 90 45 44 3F 80 47 00
28 80 45 00 01 BD 90 40 32 03 9E 80 40 00 63 90
3E 34 02 84 80 3E 00 01 F7 90 45 63 7D 80 45 00
2C 90 48 36 55 80 48 00 02 FE 90 48 35 03 AD 80
48 00 02 AD 90 40 45 49 90 45 3E 01 C4 80 45 00
4E 80 40 00 42 90 40 41 03 D3 80 40 00 02 FB 90
3E 53 01 C1 90 3E 4B 53 90 41 57 66 80 41 00 52
80 3E 00 07 90 40 53 44 80 40 00 14 80 3E 00 0A
90 41 5B 72 80 41 00 0C 90 3C 5F 4D 90 3E 44 75
80 3C 00 01 82 90 43 43 49 90 3E 4D 1E 80 3E 00
18 80 43 00 02 97 80 3E 00 03 B7 90 47 62 70 90
43 39 01 FC 80 43 00 2A 90 3C 47 16 80 47 00 2F
90 3C 3F 1A 90 40 4F 21 90 41 3D 0E 90 47 3B 2A
90 3C 40 1D 90 40 4A 2A 80 47 00 2E 80 41 00 5D
80 3C 00 17 80 3C 00 5C 80 40 00 0D 80 40 00 77
80 3C 00 7D 90 41 5A 01 A1 80 41 00 29 90 45 63
01 FD 80 45 00 01 EF 90 3E 37 01 BD 80 3E 00 64
90 3C 37 42 80 3C 00 63 90 47 4B 02 C0 80 47 00
03 9D 90 47 45 01 89 80 47 00 02 8F 90 3E 3B 5E
90 3C 4A 72 90 48 4F 54 90 48 32 07 80 3C 00 2B
90 45 33 17 80 48 00 46 80 3E 00 37 90 41 56 21
80 45 00 6F 80 48 00 32 80 41 00 05 90 3E 64 01
95 90 3C 50 01 80 3E 00 6B 90 41 5D 0C 80 3C 00
01 C4 90 3E 42 36 80 41 00 39 90 40 3A 02 C5 80
3E 00 12 80 40 00 06 D8 90 45 4E 05 90 43 51 6B
90 47 42 2D 80 43 00 75 90 3E 62 61 80 45 00 00
80 3E 00 09 80 47 00 03 97 90 43 50 01 EB 80 43
00 02 CE 90 40 32 3D 80 40 00 7B 90 43 3B 32 90
41 63 1B 80 43 00 27 80 41 00 08 90 43 33 03 97
90 47 4D 11 80 43 00 78 90 48 50 59 90 45 43 01
A7 80 48 00 16 90 40 37 09 80 47 00 39 80 45 00
01 92 80 40 00 02 9E 90 41 57 5C 90 45 3A 3F 80
45 00 02 AA 80 41 00 01 81 90 45 52 5C 90 41 43
54 90 47 4B 01 87 80 41 00 76 80 45 00 1F 90 48
36 1B 80 47 00 01 91 90 41 3C 37 90 47 3E 36 80
48 00 0C 80 47 00 4E 90 40 59 6C 80 41 00 02 F2
80 40 00 06 A6 90 45 62 38 90 40 3B 01 D6 90 3E
63 07 90 45 5E 01 98 80 45 00 2D 80 3E 00 14 80
40 00 01 D3 90 45 61 0A 90 45 3C 26 80 45 00 4C
90 45 5A 33 90 41 53 46 80 45 00 05 80 45 00 3B
90 47 56 6E 80 45 00 43 80 47 00 34 90 3E 41 4E
80 41 00 05 80 3E 00 67 90 40 47 1F 90 40 39 02
B6 80 40 00 38 80 40 00 01 CE 90 47 49 69 90 3C
41 22 80 47 00 4B 90 48 3F 5E 90 48 44 34 80 3C
00 6D 80 48 00 62 80 48 00 03 F5 90 3E 4D 26 90
45 48 01 9C 80 3E 00 5F 80 45 00 31 90 47 46 01
CE 80 47 00 24 90 3E 3D 34 90 41 5C 02 84 80 41
00 16 90 43 43 15 80 3E 00 65 90 41 53 02 D4 80
41 00 0B 80 43 00 01 ED 90 3E 44 01 CD 90 45 5C
0A 80 3E 00 02 90 41 60 25 90 41 47 46 80 41 00
24 80 45 00 04 90 3E 4D 01 AD 80 3E 00 05 90 43
5B 5A 80 41 00 08 90 47 53 69 90 47 32 04 80 43
00 14 90 45 3F 05 90 45 3B 7E 80 45 00 65 80 45
00 18 80 47 00 01 C1 80 47 00 02 97 90 48 4E 2B
90 3C 5C 72 80 48 00 3C 80 3C 00 7C 90 43 4C 58
90 43 42 73 80 43 00 2D 90 3C 5D 38 90 40 58 1A
80 3C 00 1D 90 43 5C 03 80 43 00 26 90 45 47 35
80 43 00 4F 90 40 4D 58 90 45 4A 23 80 40 00 3F
80 45 00 1E 80 40 00 28 90 43 5B 09 80 45 00 3C
80 43 00 77 90 45 52 76 80 45 00 02 86 90 40 4E
01 CC 90 3E 37 16 80 40 00 11 90 45 33 01 B7 90
40 63 78 80 3E 00 26 90 48 61 5C 80 45 00 27 80
48 00 46 80 40 00 01 A8 90 43 57 7C 80 43 00 69
90 40 56 01 8A 90 41 52 01 AA 80 41 00 6E 80 40
00 5F 90 3C 63 11 90 3C 3F 3C 90 47 47 01 A0 80
3C 00 10 80 3C 00 15 90 47 46 01 F8 80 47 00 03
80 47 00 27 90 41 61 3C 90 48 53 01 A3 90 41 53
01 98 90 47 43 13 90 40 5D 3F 80 41 00 06 80 41
00 26 80 48 00 11 80 47 00 1D 90 43 46 0A 80 40
00 22 90 47 58 02 87 80 43 00 17 80 47 00 02 D5
90 43 60 01 D6 80 43 00 14 90 41 41 02 D6 80 41
00 06 CC 90 43 43 01 99 90 3E 47 66 90 41 61 50
80 43 00 32 80 3E 00 00 90 3C 57 7B 80 41 00 5E
80 3C 00 01 92 90 3E 55 75 90 47 64 69 80 3E 00
01 A1 90 43 48 14 90 47 4B 29 80 47 00 34 80 43
00 02 CA 80 47 00 02 9F 90 45 32 08 90 43 4B 64
90 43 5A 5D 90 45 63 04 80 45 00 23 80 43 00 65
90 45 3B 01 80 45 00 61 90 3E 35 2C 80 45 00 05
80 43 00 42 90 45 5A 0B 90 45 5D 01 86 90 43 49
52 80 43 00 4A 90 47 33 02 80 3E 00 63 80 45 00
21 90 3E 5D 16 80 45 00 44 80 47 00 01 ED 90 48
4E 76 80 3E 00 02 A0 80 48 00 02 F5 90 40 37 49
90 43 35 26 90 47 45 49 80 40 00 17 80 43 00 02
B1 80 47 00 66 90 41 49 6E 90 3C 42 35 90 48 48
31 80 41 00 40 90 43 5F 01 96 80 3C 00 0B 90 3C
38 34 80 48 00 01 90 80 3C 00 62 80 43 00 03 9D
90 43 3C 01 8A 80 43 00 35 90 47 5D 01 C0 90 40
3E 01 A3 90 3E 33 3C 80 47 00 07 90 3C 5C 07 80
3E 00 01 B0 80 3C 00 20 80 40 00 01 9E 90 45 4E
27 90 3C 60 01 B6 90 47 3F 3A 80 3C 00 22 80 47
00 2D 80 45 00 6E 90 41 62 3E 90 41 50 01 A4 80
41 00 46 90 40 63 04 90 40 34 32 80 41 00 27 80
40 00 4E 90 3E 60 36 80 40 00 29 80 3E 00 65 90
41 36 01 C2 80 41 00 2B 90 3E 33 61 90 48 58 01
C3 80 48 00 01 88 90 43 41 2E 80 3E 00 36 90 40
4A 44 80 43 00 11 90 45 49 01 90 47 36 0D 90 3C
4D 48 80 3C 00 2F 90 3C 45 14 80 47 00 23 80 45
00 12 80 40 00 01 82 90 43 4A 02 8B 80 3C 00 4D
90 45 3F 68 80 43 00 01 8D 90 3E 33 0C 90 43 36
08 90 40 3A 01 9D 80 45 00 0A 80 40 00 01 9B 90
3E 33 52 80 43 00 0F 80 3E 00 0D 80 3E 00 41 90
41 58 69 80 41 00 24 90 43 5E 6F 80 43 00 04 E2
90 48 56 03 AF 80 48 00 08 85 90 43 5C 28 90 45
37 40 90 43 50 0E 90 3E 4B 01 8C 90 41 4D 05 80
45 00 2D 80 43 00 10 80 41 00 6F 90 45 55 4B 80
3E 00 02 80 43 00 01 AD 90 3E 5D 1F 80 45 00 02
90 47 5A 01 B3 80 3E 00 32 80 47 00 6C 90 47 36
01 BF 90 48 5B 01 CF 90 47 46 3A 80 47 00 32 80
47 00 5C 80 48 00 02 CB 90 3E 57 01 FA 90 41 3C
01 A5 80 3E 00 78 80 41 00 60 90 48 56 02 81 90
3E 57 01 81 80 48 00 01 C8 80 3E 00 05 EB 90 40
33 44 90 41 4B 19 90 41 41 1C 90 3C 4A 0B 80 40
00 01 FC 80 3C 00 33 80 41 00 44 80 41 00 33 90
43 42 2A 90 48 4A 01 A9 80 48 00 34 80 43 00 23
90 40 56 01 AA 80 40 00 01 99 90 47 53 01 AB 80
47 00 05 EB 90 41 53 01 C9 90 47 45 1E 80 41 00
01 DE 90 48 45 6F 80 47 00 01 B6 90 43 3C 64 80
43 00 4C 80 48 00 30 90 3E 33 02 A2 80 3E 00 48
90 40 44 33 90 48 36 01 B5 80 40 00 01 C0 90 43
36 5D 80 48 00 38 90 48 5B 01 E5 80 48 00 4F 80
43 00 30 90 43 55 71 90 3E 4B 0B 80 43 00 01 E2
90 3E 57 6B 80 3E 00 01 A9 80 3E 00 74 90 3E 41
01 9A 90 43 3D 01 BB 80 3E 00 0D 90 48 5C 4D 80
43 00 15 80 48 00 01 C7 90 3E 59 6A 80 3E 00 6D
90 41 4D 02 CD 80 41 00 02 8F 90 3C 5C 01 A7 80
3C 00 24 90 3C 50 32 90 41 55 01 8A 90 3E 35 14
90 3E 32 2F 80 41 00 28 90 48 38 13 80 3C 00 13
90 3C 4D 31 80 3E 00 25 90 41 5B 2F 80 3E 00 03
80 48 00 26 80 3C 00 11 90 43 40 01 9F 90 45 5A
21 90 47 3A 27 80 43 00 2D 80 41 00 51 90 48 32
42 80 47 00 26 90 3C 60 1A 90 41 47 41 80 45 00
01 98 80 3C 00 21 80 48 00 01 C6 80 41 00 02 BA
90 47 61 02 C0 80 47 00 20 90 45 3C 72 80 45 00
02 B3 90 43 51 03 C4 80 43 00 02 95 90 3E 3A 01
E8 80 3E 00 02 AC 90 45 36 6F 80 45 00 4A 90 45
47 60 90 45 57 01 8D 80 45 00 01 81 90 40 40 3C
80 45 00 74 80 40 00 01 B6 90 48 47 1B 90 41 61
38 90 3E 60 2D 80 41 00 18 80 3E 00 6F 90 45 50
38 90 43 46 0A 90 45 56 0F 80 48 00 1A 90 3E 4F
45 90 43 48 41 80 3E 00 00 80 45 00 48 80 43 00
3A 80 43 00 04 80 45 00 05 B2 90 3C 33 75 80 3C
00 01 C6 90 43 5A 02 92 90 40 5E 0C 90 3C 5D 21
80 43 00 02 92 80 40 00 04 80 3C 00 01 B6 90 48
4B 01 8D 90 48 3F 01 9F 80 48 00 4E 90 43 5A 6B
80 48 00 57 90 47 45 22 90 41 41 67 80 43 00 0A
80 47 00 02 B1 80 41 00 33 90 45 44 03 D8 80 45
00 01 EB 90 47 62 47 90 43 48 74 80 47 00 04 90
40 5D 01 A0 90 45 33 0D 80 40 00 60 80 45 00 0F
80 43 00 0F 90 40 40 6F 90 40 4D 13 90 48 3B 39
90 3E 5E 6A 80 40 00 68 80 48 00 08 90 40 5C 40
80 40 00 17 80 3E 00 09 90 47 51 27 80 40 00 5F
90 47 41 0F 90 3E 5A 1C 90 3C 59 41 80 47 00 01
F8 80 3C 00 22 80 3E 00 1E 80 47 00 12 90 40 36
02 9D 90 3E 59 01 8C 80 40 00 72 90 48 5B 77 80
3E 00 02 B8 80 48 00 51 90 48 53 01 B5 90 3C 40
0F 80 48 00 01 8C 90 45 46 01 BE 90 3C 5B 0E 80
3C 00 01 C1 80 45 00 3B 80 3C 00 70 90 40 3B 02
D4 90 45 61 17 80 40 00 01 9C 80 45 00 63 90 3C
4B 47 90 3C 3C 5B 80 3C 00 01 93 90 43 35 3D 80
3C 00 01 F8 80 43 00 02 B2 90 3E 38 02 95 80 3E
00 10 90 40 56 01 8A 90 3E 53 01 A7 90 48 5B 2A
80 3E 00 23 80 40 00 01 91 80 48 00 05 E5 90 43
3F 64 90 43 61 49 80 43 00 03 89 80 43 00 21 90
45 5D 01 EF 80 45 00 01 FD 90 47 41 01 8E 80 47
00 01 A5 90 45 5D 01 9D 90 3E 36 01 B2 80 45 00
43 90 43 54 2F 80 3E 00 03 9A 80 43 00 52 90 3E
5A 0E 90 47 5E 45 90 3E 40 01 D6 80 3E 00 54 80
3E 00 69 80 47 00 11 90 43 50 2B 90 45 49 56 90
3E 3D 40 80 3E 00 4F 80 43 00 18 80 45 00 01 EC
90 3C 64 02 E1 80 3C 00 6E 90 45 59 01 9E 80 45
00 04 99 90 43 33 02 DC 90 45 57 11 90 48 5C 37
80 43 00 3D 90 48 5B 02 C2 80 45 00 0A 80 48 00
01 81 80 48 00 5D 90 3C 34 3F 80 3C 00 74 90 47
5B 03 90 43 37 12 90 45 34 01 F0 80 45 00 45 80
47 00 45 90 45 44 4E 80 43 00 28 80 45 00 4C 90
48 3A 01 8F 90 41 34 01 B2 80 48 00 03 80 41 00
01 C8 90 45 41 01 A0 90 48 39 22 90 40 34 3E 80
45 00 04 90 40 5C 43 80 48 00 11 90 48 49 33 80
40 00 10 80 40 00 18 90 43 63 70 80 48 00 1C 90
45 42 01 87 80 45 00 27 80 43 00 01 EE 90 41 56
2D 90 43 45 2B 90 43 45 61 80 43 00 01 90 90 41
49 0C 80 41 00 2A 80 43 00 03 90 40 3E 01 AC 90
41 60 34 80 41 00 01 DD 80 40 00 5C 90 3E 49 0E
90 43 3C 0B 90 40 5D 2C 80 41 00 15 90 48 56 01
AE 80 43 00 06 90 43 39 3F 80 40 00 1E 80 3E 00
56 80 48 00 3F 80 43 00 44 90 40 5B 0B 90 40 3C
15 90 3E 56 01 A5 80 40 00 01 C8 80 40 00 2A 80
3E 00 07 90 3E 53 01 E3 80 3E 00 57 90 41 40 01
AB 80 41 00 18 90 41 61 01 EA 80 41 00 59 90 41
49 01 98 80 41 00 05 E1 90 40 5F 01 DA 90 47 4C
25 80 40 00 01 B4 80 47 00 01 93 90 45 60 18 90
48 42 0D 90 47 3E 4E 80 45 00 54 80 48 00 05 80
47 00 77 90 3E 34 45 90 3C 42 03 90 3C 54 1D 90
3E 62 33 90 48 5C 01 83 80 3C 00 23 80 3C 00 15
80 3E 00 01 B6 80 3E 00 1F 80 48 00 4A 90 43 3A
52 90 3C 57 78 80 43 00 01 A7 80 3C 00 01 91 90
41 37 10 90 47 3B 01 90 80 47 00 27 90 48 5D 01
A2 80 48 00 27 80 41 00 02 82 90 45 4B 02 EE 80
45 00 30 90 48 53 0A 90 47 43 01 D5 90 3E 33 3A
80 48 00 0A 80 47 00 01 CB 90 43 4A 4B 80 3E 00
4E 90 3E 3F 17 90 3C 4E 01 84 80 3C 00 06 80 3E
00 3C 80 43 00 03 DE 90 47 35 01 D3 80 47 00 72
90 3C 56 01 F0 80 3C 00 03 E5 90 45 62 01 92 90
3E 32 65 90 47 42 3B 80 3E 00 40 90 47 3F 2F 80
45 00 30 80 47 00 1B 90 3C 4D 17 80 47 00 43 80
3C 00 03 88 90 45 60 30 90 47 54 01 84 90 41 64
6D 90 45 3E 07 80 47 00 35 80 41 00 1A 80 45 00
01 BE 90 41 52 02 80 45 00 75 90 45 4E 51 80 41
00 01 8C 80 45 00 57 90 43 5F 01 AD 90 48 5A 01
B0 80 48 00 21 80 43 00 02 C2 90 41 59 15 90 43
61 02 87 90 48 4E 2B 80 43 00 6C 80 41 00 1E 90
3C 51 02 81 80 48 00 49 80 3C 00 0A BA 90 40 63
34 90 3E 3F 01 80 80 40 00 25 90 40 58 3D 80 3E
00 01 88 90 43 5B 6A 90 48 52 34 80 40 00 06 80
43 00 2A 90 3C 50 01 AC 90 41 34 5B 80 48 00 35
90 3C 47 49 80 3C 00 01 85 80 41 00 66 90 43 4B
20 80 3C 00 01 F0 80 43 00 01 FC 90 47 5D 58 80
47 00 01 86 90 48 44 45 80 48 00 04 BB 90 43 62
29 90 40 44 3B 80 43 00 02 B6 90 43 45 40 80 40
00 16 90 41 5F 7F 80 43 00 1B 90 40 39 50 80 41
00 01 A5 80 40 00 01 ED 90 3E 34 01 8B 90 41 4B
16 80 3E 00 01 A3 80 41 00 01 90 40 5B 54 80 40
00 1E 90 3C 4F 02 A0 80 3C 00 72 90 43 4B 27 90
40 49 3E 80 40 00 01 BC 80 43 00 09 AC 90 48 36
01 AB 80 48 00 01 CC 90 40 3B 02 CA 80 40 00 37
90 45 32 1D 90 43 52 45 90 41 44 0A 80 45 00 55
90 41 4E 19 90 3E 53 2A 80 41 00 3F 80 43 00 55
80 41 00 01 C5 80 3E 00 01 BA 90 40 4A 02 88 80
40 00 02 81 90 41 43 0A 90 40 43 58 80 40 00 41
80 41 00 06 90 41 46 02 CA 80 41 00 01 FA 90 43
53 02 A5 80 43 00 02 88 90 43 47 71 90 45 64 01
C2 80 43 00 64 80 45 00 01 80 90 3E 5F 12 90 45
60 01 AE 80 45 00 01 86 80 3E 00 01 84 90 45 33
46 90 3E 39 01 81 90 43 63 48 80 45 00 17 80 3E
00 22 80 43 00 2A 90 45 51 1B 90 41 32 60 80 45
00 11 90 40 40 0E 80 41 00 6E 80 40 00 03 D7 90
3C 38 2F 90 47 53 0F 90 3C 3A 3C 90 41 57 01 80
3C 00 30 80 47 00 01 DC 80 3C 00 03 90 3E 5D 07
90 3C 36 01 81 80 3C 00 3F 80 41 00 73 80 3E 00
4D 90 3E 52 52 80 3E 00 2C 90 47 37 3E 80 47 00
01 98 90 3C 63 13 90 45 4B 42 90 48 5B 01 81 80
45 00 7D 80 3C 00 01 A2 80 48 00 02 9C 90 3C 59
25 90 41 50 32 90 3C 4E 39 80 3C 00 5C 90 47 57
01 AC 80 41 00 29 80 3C 00 23 90 3C 61 01 9E 80
3C 00 3D 80 47 00 5F 90 41 59 66 90 47 51 37 90
3E 3D 3C 80 3E 00 2C 80 41 00 76 80 47 00 01 C9
90 3C 3E 57 80 3C 00 05 AF 90 3C 3C 53 90 45 4B
01 EB 80 3C 00 29 90 47 36 3A 90 3E 47 36 90 40
40 09 90 48 57 3C 80 45 00 02 80 48 00 2D 80 40
00 0A 80 3E 00 69 80 47 00 01 85 90 41 38 31 90
40 50 06 90 45 39 01 82 80 40 00 3A 90 48 40 50
80 41 00 20 80 45 00 02 9F 90 45 3E 29 80 48 00
01 BB 80 45 00 02 C3 90 45 34 01 93 90 43 63 25
80 45 00 02 9F 80 43 00 02 85 90 40 35 63 90 48
4A 01 BE 90 3C 5D 79 90 45 53 23 90 45 41 21 80
40 00 24 80 48 00 26 80 45 00 0E 80 45 00 01 8B
80 3C 00 03 99 90 3C 3A 01 F7 80 3C 00 01 F3 90
3C 3F 69 80 3C 00 02 8E 90 41 61 0C 90 3C 3D 44
80 3C 00 5E 80 41 00 04 EB 90 48 56 02 CF 90 43
49 03 80 48 00 01 99 90 41 39 01 90 80 43 00 07
80 41 00 01 FA 90 43 36 02 81 90 40 34 06 90 3E
62 1B 80 43 00 20 90 40 5D 4D 80 40 00 08 90 3C
60 27 80 40 00 01 E3 90 41 60 0F 80 3C 00 1D 90
41 38 03 80 3E 00 44 80 41 00 02 A7 80 41 00 65
90 47 64 09 90 40 49 48 90 43 59 5F 90 47 44 6F
80 43 00 17 90 40 40 0A 80 47 00 0B 80 40 00 08
80 47 00 02 F4 90 3E 3A 46 80 40 00 47 80 3E 00
02 8A 90 41 58 01 E4 80 41 00 01 AD 90 48 45 01
96 90 47 36 42 90 47 49 01 86 80 47 00 55 80 48
00 3D 80 47 00 04 90 3E 4B 01 A8 80 3E 00 14 90
45 44 06 90 45 4E 01 8E 80 45 00 42 80 45 00 27
90 3E 3E 7F 90 48 54 56 80 48 00 3D 80 3E 00 00
90 40 60 01 9F 90 40 45 19 80 40 00 01 92 90 40
61 01 A1 80 40 00 19 90 40 35 04 90 48 45 01 CE
80 40 00 27 90 43 5E 55 80 48 00 60 80 43 00 12
80 40 00 01 ED 90 43 57 5F 80 43 00 05 9B 90 3C
4B 01 80 80 3C 00 27 90 43 5A 06 90 45 56 47 80
43 00 01 D1 90 48 3A 20 80 45 00 02 9C 90 47 40
0B 90 48 60 70 80 48 00 5F 80 48 00 01 AB 80 47
00 64 90 3C 61 01 E7 80 3C 00 20 90 40 4A 08 90
47 36 1C 90 40 53 30 90 43 62 37 90 3C 64 7B 80
40 00 2C 80 47 00 3E 80 40 00 39 90 43 49 34 80
43 00 3B 80 3C 00 37 90 41 32 02 80 43 00 65 90
3C 5F 01 BF 80 41 00 01 93 90 3C 64 5F 80 3C 00
38 80 3C 00 5D 90 43 50 03 90 45 57 5E 90 3E 4D
19 90 41 58 27 80 43 00 7A 80 41 00 0E 90 41 59
3D 90 3E 5A 07 90 3C 4B 06 80 3E 00 2D 80 45 00
5E 80 3E 00 01 C4 80 41 00 09 80 3C 00 49 90 48
3B 09 90 41 42 01 B0 90 43 54 6E 80 41 00 2E 80
48 00 34 80 43 00 76 90 40 4C 16 90 41 3C 3E 90
45 4D 70 80 40 00 01 90 40 4C 6A 80 45 00 1C 90
43 46 21 80 41 00 41 80 40 00 01 AB 80 43 00 03
AF 90 3E 4A 0A 90 48 5E 01 DC 90 48 64 34 80 3E
00 01 AC 80 48 00 1E 80 48 00 06 A8 90 45 50 03
CE 80 45 00 01 A0 90 3E 55 02 A4 80 3E 00 01 86
90 3E 48 01 AD 90 47 46 5D 90 43 61 22 90 40 61
12 80 3E 00 26 80 47 00 02 B3 90 48 3F 1C 80 43
00 1E 80 40 00 01 90 90 48 57 01 8C 80 48 00 66
80 48 00 02 83 90 41 44 66 90 3C 48 3E 80 41 00
78 90 41 4E 35 80 3C 00 2D 90 43 3D 62 80 43 00
43 80 41 00 01 94 90 3E 4A 67 90 45 33 56 80 45
00 79 90 40 38 1B 80 3E 00 04 90 45 39 01 FA 90
3C 5E 28 90 43 48 33 90 41 5E 47 80 40 00 1C 80
45 00 2E 80 41 00 0C 80 43 00 42 90 47 39 09 90
47 3E 02 80 3C 00 01 96 90 3E 3B 04 80 47 00 11
90 47 5F 01 D3 80 47 00 01 DC 90 3C 5B 1C 80 3E
00 14 80 47 00 01 F2 90 48 38 74 80 3C 00 01 BF
90 47 34 0C 90 3E 39 01 97 80 48 00 6A 80 47 00
57 80 3E 00 02 B5 90 41 54 02 E1 90 45 43 42 80
41 00 01 97 90 45 63 01 8A 80 45 00 0C 80 45 00
21 90 3E 47 01 D3 80 3E 00 01 A5 90 45 56 7C 90
40 53 01 8A 80 45 00 74 90 3E 43 30 90 43 52 0A
90 3E 3B 57 80 40 00 0F 90 3C 63 4E 80 3E 00 2D
90 40 4C 64 80 3E 00 60 80 43 00 15 90 40 32 28
90 3C 57 24 80 3C 00 3E 90 47 61 2E 80 40 00 14
80 40 00 0B 90 47 55 1C 80 3C 00 01 AF 80 47 00
01 8E 90 3C 48 58 80 47 00 4A 80 3C 00 32 90 48
50 0F 90 40 53 69 90 3E 37 15 80 48 00 01 EB 80
3E 00 22 80 40 00 02 92 90 47 54 1D 90 3C 4A 58
90 48 42 01 8B 80 48 00 71 80 47 00 5F 80 3C 00
2B 90 48 45 01 AD 80 48 00 76 90 3E 50 01 C0 80
3E 00 02 E9 90 43 3C 60 90 41 53 01 92 90 47 5D
21 90 43 3D 07 90 40 3B 64 80 40 00 15 80 43 00
4B 90 40 35 3B 80 43 00 24 80 41 00 06 80 47 00
01 9D 90 43 5C 4B 80 43 00 56 80 40 00 50 90 45
34 01 93 90 48 63 0B 80 45 00 03 86 80 48 00 05
8B 90 3C 40 02 E7 80 3C 00 70 90 45 3F 18 90 43
3F 20 90 45 49 02 9E 80 45 00 5F 80 43 00 0A 80
45 00 01 98 90 45 5A 75 90 41 45 75 90 40 41 1C
80 45 00 03 80 41 00 3E 80 40 00 02 92 90 3E 3B
02 C0 80 3E 00 60 90 47 37 01 C8 80 47 00 04 B3
90 45 54 5D 90 45 33 01 C5 90 48 3D 07 80 45 00
2B 90 45 46 2A 90 48 60 3F 80 48 00 11 80 45 00
39 80 45 00 7B 90 41 3D 44 80 48 00 28 90 43 51
38 90 41 35 17 80 41 00 54 80 41 00 01 98 80 43
00 01 C1 90 43 5B 01 B8 80 43 00 01 FF 90 40 43
74 80 40 00 07 9B 90 41 59 01 B8 90 48 62 7C 80
41 00 01 92 90 3C 4D 01 87 80 48 00 58 90 40 59
1C 90 45 4D 01 BE 80 3C 00 4E 90 41 63 2D 80 45
00 10 80 40 00 02 A2 80 41 00 57 90 3C 60 01 D5
80 3C 00 04 8D 90 40 60 7F 90 3C 49 01 84 80 3C
00 31 80 40 00 05 B4 90 40 5E 02 BF 80 40 00 01
84 90 40 3D 01 84 90 47 4F 43 80 40 00 01 93 90
3E 5E 3E 80 3E 00 2B 80 47 00 49 90 47 3B 10 90
3E 5C 13 90 41 35 02 9F 80 41 00 4F 80 47 00 17
80 3E 00 1F 90 45 55 01 83 80 45 00 1E 90 48 40
64 80 48 00 01 AC 90 48 44 02 F1 80 48 00 06 A4
90 41 4E 01 90 80 41 00 5B 90 3C 37 61 90 45 3A
01 83 90 3C 43 0B 90 41 61 08 80 3C 00 01 A3 80
45 00 09 80 41 00 07 90 48 63 43 90 45 33 09 90
41 34 05 90 3C 3C 4C 80 3C 00 24 80 41 00 4B 80
3C 00 16 80 48 00 1A 80 45 00 6E 90 41 4B 01 D7
90 43 50 5B 80 41 00 1E 80 43 00 01 D0 90 3E 58
01 99 80 3E 00 1F 90 3C 43 3E 90 40 46 02 A2 80
40 00 70 80 3C 00 05 97 90 3C 58 02 EF 90 3E 54
5F 80 3C 00 0F 90 3C 3C 19 90 48 4E 02 AA 80 3E
00 17 80 48 00 71 80 3C 00 02 B6 90 3E 4A 02 A7
90 48 44 01 AA 80 3E 00 4C 80 48 00 01 8D 90 47
4E 77 90 41 55 01 E3 90 43 55 13 80 41 00 1B 80
47 00 08 90 3C 54 01 95 80 3C 00 48 90 45 52 57
80 43 00 2A 80 45 00 01 C4 90 40 5B 02 CC 90 41
36 65 80 41 00 23 80 40 00 01 99 90 45 3A 01 EA
90 40 59 33 80 45 00 21 90 48 5C 6B 80 48 00 01
E3 80 40 00 4D 90 41 33 46 90 45 48 68 80 41 00
01 B1 90 41 36 5A 80 45 00 02 A5 80 41 00 08 FE
90 3E 51 22 90 41 37 74 80 3E 00 2F 90 43 58 3C
80 43 00 01 C6 90 3E 50 34 80 41 00 2E 80 3E 00
10 90 40 3D 52 80 40 00 02 96 90 40 5A 02 E9 80
40 00 0C 99 90 40 57 03 E0 80 40 00 04 A4 90 48
53 02 A5 90 47 5D 03 80 48 00 5A 90 47 46 01 F7
90 3C 37 2E 80 47 00 1A 80 47 00 02 B0 80 3C 00
01 D1 90 47 5E 03 AD 80 47 00 3E 90 45 3A 1B 90
3C 54 5B 80 3C 00 4C 80 45 00 52 90 43 3A 0A 90
3E 3A 0D 90 48 3E 39 80 3E 00 5D 90 3E 38 32 90
43 3F 40 90 45 5B 15 90 41 47 21 90 40 41 76 80
43 00 05 80 48 00 5D 80 43 00 37 80 40 00 08 80
3E 00 18 80 41 00 0D 90 3E 53 3D 80 45 00 00 80
3E 00 01 9E 90 43 56 03 90 43 59 26 90 48 58 51
80 43 00 77 80 48 00 01 DD 80 43 00 66 90 48 33
01 D8 80 48 00 08 F6 90 47 45 02 E2 90 47 49 02
80 47 00 60 80 47 00 76 90 3E 37 02 D5 80 3E 00
01 F0 90 48 59 04 90 48 46 22 90 3C 3C 2F 80 48
00 01 DF 80 48 00 3D 80 3C 00 67 90 3C 3C 2E 90
3E 45 59 90 3E 3B 6D 80 3E 00 6E 80 3C 00 0A 80
3E 00 30 90 48 53 01 93 80 48 00 53 90 41 51 28
90 43 3B 1E 80 41 00 03 83 80 43 00 04 90 3E 4E
47 90 47 42 2D 90 3E 4F 21 90 41 5A 01 87 80 41
00 7F 80 47 00 3B 80 3E 00 3F 80 3E 00 06 A6 90
43 32 17 90 45 5E 01 A4 80 45 00 31 80 43 00 01
CF 90 40 33 49 90 41 52 31 80 40 00 03 85 80 41
00 01 F3 90 48 55 01 BC 90 45 51 56 90 40 3A 01
91 90 47 3B 27 80 48 00 01 90 47 5C 11 90 45 49
19 80 45 00 01 89 80 40 00 74 80 47 00 60 80 45
00 46 80 47 00 70 90 45 39 01 EC 80 45 00 01 CC
90 48 32 01 C2 90 47 48 01 BC 80 47 00 4C 80 48
00 05 F2 90 3E 37 7B 90 3E 38 36 80 3E 00 01 C6
90 41 3A 10 90 45 61 21 80 3E 00 33 80 45 00 66
90 45 62 26 80 41 00 01 D1 80 45 00 69 90 3C 34
4E 80 3C 00 10 90 45 43 01 B2 90 43 3E 6B 90 47
5B 56 80 47 00 1B 80 43 00 40 80 45 00 52 90 3C
48 02 85 90 3C 36 05 90 45 37 68 80 3C 00 01 9D
80 3C 00 0D 90 43 54 12 80 45 00 77 90 40 42 34
90 47 4C 0D 80 40 00 01 99 80 47 00 29 80 43 00
7C 90 3E 5C 34 90 3E 49 01 B7 80 3E 00 67 90 47
49 06 80 3E 00 01 CA 90 45 49 15 80 47 00 3F 90
47 41 7B 90 40 32 01 AE 90 47 47 2C 80 47 00 26
80 45 00 68 80 40 00 7B 80 47 00 01 DB 90 48 3D
01 D2 80 48 00 01 CA 90 3E 37 01 AA 80 3E 00 13
90 3E 33 0C 90 41 54 01 81 90 3E 46 01 85 80 3E
00 45 80 41 00 26 80 3E 00 59 90 43 39 02 EA 90
3E 41 34 80 43 00 02 8E 80 3E 00 60 90 3C 5C 01
93 80 3C 00 28 90 43 49 01 D6 90 3C 57 08 80 43
00 03 A0 90 47 49 15 90 41 34 16 80 3C 00 20 90
47 3A 44 80 41 00 58 80 47 00 01 D2 90 41 5B 09
80 47 00 01 C2 90 40 5F 0C 80 41 00 12 90 41 4E
39 80 40 00 18 80 41 00 04 D5 90 3C 43 5A 80 3C
00 02 D7 90 40 44 18 90 3E 56 6E 80 40 00 01 95
80 3E 00 05 EE 90 40 5A 01 BC 80 40 00 01 90 90
45 39 01 82 80 45 00 03 F1 90 41 51 39 90 48 57
12 80 41 00 02 D7 90 40 46 05 80 48 00 04 90 41
37 17 90 43 35 54 90 45 3B 12 90 41 3A 59 80 41
00 31 80 41 00 18 80 43 00 32 80 40 00 59 90 41
3A 5A 90 3C 48 3B 80 45 00 3A 80 41 00 78 80 3C
00 01 BE 90 43 5A 01 B1 80 43 00 16 90 3C 5F 01
9D 80 3C 00 02 A0 90 45 5D 01 82 90 47 60 6A 80
47 00 1D 90 40 35 46 80 40 00 05 80 45 00 45 90
3C 4F 02 8D 80 3C 00 01 80 90 3E 32 01 88 80 3E
00 02 A1 90 47 43 73 90 3E 4C 3A 80 47 00 02 F6
80 3E 00 3E 90 3C 42 0F 90 45 44 08 90 40 40 71
80 45 00 01 AA 90 3E 3A 66 80 3C 00 23 90 41 4B
0C 80 40 00 4C 80 3E 00 05 90 45 49 36 90 43 5B
1A 90 43 4C 08 90 40 3B 0B 90 43 50 1C 80 43 00
28 80 41 00 01 9A 80 45 00 6D 80 43 00 02 80 43
00 0F 80 40 00 03 B1 90 3E 5E 02 89 90 45 53 14
80 3E 00 3E 90 45 46 01 87 80 45 00 01 8F 90 3E
51 6B 80 45 00 01 D1 90 48 5D 39 90 47 3A 47 80
3E 00 00 90 48 3F 01 8C 80 48 00 35 80 48 00 01
85 80 47 00 01 A5 90 47 40 72 90 45 48 16 90 47
42 5F 80 47 00 51 80 47 00 02 80 80 45 00 34 90
3C 56 26 90 43 52 57 80 43 00 2C 90 41 5E 3A 90
43 51 07 80 3C 00 23 90 41 61 18 90 3C 60 39 80
41 00 01 89 90 41 5E 1F 80 43 00 13 80 41 00 01
BA 80 3C 00 16 90 47 32 42 80 41 00 01 C2 90 3E
54 48 90 40 40 1C 80 47 00 10 90 40 41 3B 80 40
00 65 90 3E 34 6E 90 45 5C 4C 80 3E 00 63 80 40
00 64 90 45 50 13 90 3C 36 37 80 45 00 0D 80 3E
00 02 C2 80 3C 00 0C 80 45 00 03 D8 90 45 58 32
90 47 48 6F 80 45 00 01 AB 90 40 5A 01 B8 80 47
00 40 80 40 00 01 EC 90 3E 37 0E 90 41 44 57 90
48 64 10 80 41 00 12 90 43 4D 59 80 3E 00 03 90
40 57 31 80 43 00 26 90 41 52 3E 90 41 45 0B 80
41 00 40 80 40 00 08 80 48 00 08 80 41 00 2F 90
45 54 03 A4 80 45 00 1E 90 3E 4C 01 80 90 41 61
01 8F 80 41 00 0F 80 3E 00 26 90 43 5E 38 90 41
41 01 C7 80 43 00 60 80 41 00 01 90 90 48 3F 23
90 48 45 76 80 48 00 0E 80 48 00 0E 90 3E 5C 01
9B 90 41 3E 01 9E 80 41 00 48 80 3E 00 12 90 43
34 5F 80 43 00 2E 90 40 64 01 B2 90 43 34 1C 90
3E 3C 33 80 40 00 25 80 3E 00 01 A3 80 43 00 03
EC 90 41 57 53 90 41 64 5F 80 41 00 10 90 48 58
02 93 90 47 37 20 80 41 00 1C 80 47 00 05 90 3C
46 01 80 48 00 1C 90 45 43 2F 90 45 4B 01 B8 90
41 38 47 80 41 00 28 80 3C 00 21 80 45 00 38 90
45 49 30 80 45 00 02 89 80 45 00 03 B3 90 40 4D
02 98 90 40 42 2F 80 40 00 51 80 40 00 02 C2 90
45 3C 01 90 80 45 00 58 90 47 52 01 D4 90 47 41
1C 80 47 00 02 B6 80 47 00 06 B8 90 3E 3D 02 D1
90 41 3A 3D 80 3E 00 20 90 41 5D 36 80 41 00 33
90 41 63 01 81 80 41 00 0C 90 3C 35 73 80 41 00
1F 80 3C 00 06 97 90 41 46 01 E2 90 41 49 32 80
41 00 7F 80 41 00 68 90 43 40 01 9D 90 3E 39 61
90 48 55 01 A0 80 43 00 01 90 45 38 0C 90 3C 5D
13 90 3E 61 2A 80 48 00 2F 80 3C 00 1C 90 41 3F
28 80 3E 00 18 80 3E 00 51 80 41 00 26 90 40 46
16 90 3C 4D 09 80 45 00 08 90 43 51 3E 90 41 64
72 90 40 50 1E 80 41 00 41 80 40 00 47 80 3C 00
1F 90 45 48 36 90 41 56 2B 80 43 00 69 80 41 00
0E 80 40 00 3A 80 45 00 03 F0 90 45 4C 4C 90 3E
5E 09 90 48 32 01 A2 80 3E 00 01 C9 80 45 00 3D
80 48 00 03 92 90 41 3D 02 DA 90 43 51 57 80 41
00 02 D6 80 43 00 35 90 40 53 02 8C 90 48 52 01
9F 80 40 00 23 80 48 00 4F 90 43 5C 01 D0 90 48
5F 03 90 48 33 05 90 40 55 07 80 43 00 72 80 48
00 34 80 40 00 20 90 45 4A 1F 80 48 00 01 8F 90
40 4F 25 90 3C 5D 57 90 45 47 19 80 40 00 29 80
45 00 2E 90 40 57 3A 80 3C 00 06 80 40 00 01 B0
80 45 00 4B 90 47 5D 01 F3 80 47 00 64 90 48 4F
3F 90 41 5E 2B 90 40 53 26 80 48 00 55 80 40 00
01 8B 80 41 00 0B 90 40 43 49 90 47 3F 0E 80 40
00 02 A8 90 47 5D 01 91 80 47 00 5D 80 47 00 06
B0 90 43 38 2A 90 47 41 31 90 3E 3C 71 90 47 5A
0F 80 43 00 14 80 3E 00 53 80 47 00 2B 90 3C 41
12 90 48 50 0F 90 41 45 4A 80 47 00 2E 80 48 00
01 E5 80 41 00 19 80 3C 00 01 C2 90 3E 56 61 90
45 45 44 90 40 60 1C 90 48 54 23 90 48 42 04 90
47 5E 07 80 45 00 17 80 40 00 2B 80 3E 00 01 CF
80 47 00 12 80 48 00 07 90 47 3F 2F 90 3C 57 29
80 48 00 03 80 47 00 01 AA 90 48 5C 3B 90 40 62
35 80 3C 00 01 94 80 40 00 01 C7 80 48 00 0B E3
90 43 49 02 CA 80 43 00 06 C8 90 40 46 59 80 40
00 1B 90 45 51 02 81 80 45 00 01 FD 90 40 55 01
82 90 48 43 53 80 40 00 7B 80 48 00 03 BB 90 3E
4F 03 B8 90 45 3A 18 80 3E 00 1F 90 3E 4C 01 BB
90 43 61 09 90 3E 39 12 90 45 4A 29 90 45 33 5F
80 3E 00 0B 80 45 00 02 80 3E 00 0E 90 48 42 39
90 47 5E 0A 80 45 00 28 90 3E 51 08 90 3E 5E 36
80 43 00 21 80 48 00 4B 80 3E 00 1A 80 45 00 62
80 47 00 64 90 3E 43 36 80 3E 00 53 90 48 51 10
90 43 3E 01 8D 90 48 48 7B 90 48 3F 0C 80 3E 00
0F 90 3C 35 10 80 48 00 2A 90 43 52 12 80 48 00
17 80 3C 00 28 90 3E 61 0E 80 43 00 53 80 3E 00
12 90 3C 52 1D 80 48 00 01 A0 80 43 00 74 90 3E
4D 7D 80 3C 00 01 80 80 3E 00 03 E6 90 3E 3E 49
90 43 57 4A 90 40 5C 02 90 3C 5E 34 80 3E 00 46
80 40 00 25 80 43 00 68 90 47 52 01 90 48 5C 15
90 48 3F 6F 80 3C 00 01 A5 80 47 00 16 80 48 00
01 9F 80 48 00 01 FF 90 45 54 01 DC 80 45 00 45
90 40 32 02 FE 80 40 00 02 CE 90 45 53 01 F2 90
3E 49 58 80 3E 00 13 80 45 00 03 D6 90 3E 64 01
A4 80 3E 00 3D 90 43 33 01 E2 80 43 00 23 90 43
5F 34 90 3C 52 41 90 48 5C 27 80 3C 00 0E 90 40
40 01 9A 90 43 5B 01 90 41 5F 1D 80 48 00 68 80
43 00 61 80 43 00 30 80 41 00 07 80 40 00 04 A6
90 45 4A 02 89 90 3C 46 6D 80 45 00 07 90 40 47
02 D1 80 3C 00 2F 80 40 00 03 FE 90 48 45 71 80
48 00 01 BE 90 3C 40 04 90 3E 39 0D 90 41 34 28
90 3C 49 55 90 3C 52 6B 90 41 46 6A 80 41 00 10
80 3E 00 01 80 3C 00 00 80 3C 00 08 90 41 3E 08
80 3C 00 64 80 41 00 01 84 80 41 00 19 90 47 58
01 9D 80 47 00 2B 90 48 3E 02 CA 80 48 00 03 93
90 3C 4D 57 80 3C 00 01 8B 90 45 36 48 90 41 34
01 9F 80 45 00 56 80 41 00 01 81 90 40 53 12 90
3C 56 01 D5 90 43 4C 01 A9 80 40 00 1F 80 3C 00
19 80 43 00 3B 90 3C 3F 01 D3 80 3C 00 01 CB 90
41 4C 14 90 41 5E 64 80 41 00 6E 90 48 62 12 80
41 00 03 9A 80 48 00 01 A9 90 47 4F 65 90 3E 3C
34 90 3C 4B 54 80 47 00 07 90 43 5F 05 80 3C 00
60 80 43 00 10 80 3E 00 02 B5 90 40 3C 39 90 45
49 70 90 3E 54 6D 80 40 00 0E 90 45 46 01 98 80
3E 00 14 90 43 50 1B 80 45 00 22 80 45 00 01 CC
80 43 00 63 90 41 33 1B 90 45 5E 01 80 90 43 60
2D 80 45 00 01 B7 80 41 00 3B 80 43 00 09 90 3C
45 49 80 3C 00 02 AA 90 3C 4F 01 C5 90 43 57 01
FE 80 3C 00 2E 80 43 00 32 90 40 4F 78 80 40 00
03 89 90 41 3B 01 9D 80 41 00 4F 90 43 64 24 90
48 62 38 90 40 4F 01 E7 80 43 00 43 90 48 47 3F
80 48 00 1A 80 48 00 4A 80 40 00 01 9D 90 3E 3D
06 90 45 38 01 DA 90 40 51 03 80 3E 00 18 80 45
00 04 90 3E 62 23 90 3E 53 6A 90 41 47 7B 90 40
36 02 80 3E 00 65 80 3E 00 01 80 41 00 11 80 40
00 15 80 40 00 12 90 48 5D 01 F3 80 48 00 04 90
3C 54 02 FE 80 3C 00 6F 90 40 45 1F 90 45 59 02
AC 80 45 00 38 80 40 00 01 F1 90 47 32 02 FE 80
47 00 05 B0 90 48 4B 01 C8 90 41 4A 6C 80 48 00
37 90 48 56 12 90 41 3E 41 80 41 00 01 85 80 41
00 02 90 40 62 01 94 90 41 56 2C 80 48 00 34 80
40 00 50 80 41 00 14 90 47 42 01 B1 90 48 52 01
B5 90 40 33 13 80 47 00 28 80 48 00 1E 80 40 00
1A 90 43 34 3B 90 43 61 01 B9 80 43 00 12 90 40
55 47 90 45 5C 01 8C 80 43 00 64 80 45 00 14 90
3E 44 2E 80 40 00 46 80 3E 00 02 A2 90 41 59 02
E7 80 41 00 78 90 47 64 48 90 41 43 77 80 41 00
03 80 47 00 03 CC 90 47 3D 03 91 80 47 00 31 90
41 4F 78 80 41 00 01 9F 90 43 5D 78 90 40 3E 71
90 45 3C 01 83 80 43 00 01 82 80 40 00 69 80 45
00 03 AC 90 47 36 01 A5 80 47 00 03 86 90 47 53
64 80 47 00 1A 90 48 53 5B 90 40 51 01 A6 80 48
00 22 80 40 00 2D 90 40 51 3F 80 40 00 02 C9 90
40 4C 01 B3 80 40 00 02 AD 90 45 43 03 D7 80 45
00 58 90 40 3D 01 AD 80 40 00 01 84 90 43 36 01
B5 90 40 4F 06 90 45 55 14 90 47 5B 63 90 45 36
06 80 45 00 28 90 40 4D 21 80 43 00 13 80 47 00
09 90 41 3C 01 8E 80 40 00 5B 80 40 00 3C 90 3E
50 39 80 45 00 30 80 3E 00 1F 80 41 00 01 8D 90
45 64 26 90 48 5B 2C 90 45 5A 06 80 45 00 4F 90
48 5D 23 80 45 00 01 EB 80 48 00 0E 80 48 00 28
90 3E 43 26 90 3E 40 65 80 3E 00 0D 90 40 3B 3E
80 40 00 01 A4 80 3E 00 05 B7 90 48 64 1E 90 40
36 2A 90 41 37 37 80 48 00 57 80 41 00 46 80 40
00 02 E0 90 3C 5E 02 95 90 3C 3D 02 90 45 4E 09
90 43 51 48 80 3C 00 36 90 41 3C 20 90 43 4B 03
80 43 00 64 90 43 51 5A 80 45 00 52 80 43 00 1D
80 3C 00 2B 90 41 5F 06 80 41 00 5D 80 43 00 01
CE 90 43 3D 01 92 80 41 00 1F 80 43 00 10 90 45
44 6F 90 45 33 7B 90 3C 55 1A 80 45 00 01 A0 90
40 3B 01 90 48 3D 1D 80 45 00 45 80 48 00 70 80
3C 00 2A 90 43 32 01 C2 80 40 00 5F 90 41 45 35
80 43 00 02 BB 80 41 00 01 C5 90 40 4E 01 EC 90
3E 5F 04 80 40 00 02 E3 80 3E 00 4A 90 40 47 01
DF 80 40 00 01 AD 90 3E 3C 01 CB 80 3E 00 01 80
90 40 60 01 8E 90 3E 57 0A 90 43 36 1F 90 43 4D
17 80 40 00 36 90 48 43 2E 90 45 33 35 80 3E 00
06 90 41 54 05 80 43 00 31 80 43 00 31 80 48 00
22 90 48 50 0A 80 41 00 18 80 45 00 08 90 3E 60
61 80 3E 00 02 CE 80 48 00 05 88 90 43 51 08 90
45 54 29 90 45 34 02 98 90 3E 3B 29 80 43 00 09
80 45 00 02 90 3E 4E 5D 80 45 00 6D 90 43 4E 2F
80 3E 00 56 80 3E 00 01 93 80 43 00 03 DA 90 45
3C 57 90 45 45 5D 80 45 00 01 ED 80 45 00 01 FC
90 47 32 03 DD 80 47 00 6C 90 3C 60 55 80 3C 00
02 B5 90 43 52 01 CA 80 43 00 16 90 43 5D 01 9F
80 43 00 77 90 3C 47 49 90 48 5A 33 90 3C 53 21
90 47 45 12 80 3C 00 01 8D 90 41 4A 01 80 47 00
32 80 3C 00 5D 80 48 00 01 AF 80 41 00 01 DA 90
3E 64 02 9F 90 3E 63 01 87 80 3E 00 76 90 40 4E
78 90 40 43 07 90 47 5E 56 80 3E 00 59 80 40 00
01 C0 80 47 00 40 80 40 00 07 90 47 5F 65 90 43
53 01 83 80 47 00 76 80 43 00 79 90 41 5B 5B 90
3C 4B 16 90 3C 60 3F 80 3C 00 6F 80 3C 00 53 80
41 00 01 E6 90 43 4C 36 90 3E 59 12 90 40 35 43
80 40 00 5F 90 3C 4C 0B 80 43 00 62 80 3C 00 21
90 48 42 50 80 3E 00 02 C1 90 40 3E 22 80 48 00
04 90 3C 41 01 C7 80 40 00 23 90 47 56 7A 80 3C
00 01 C2 80 47 00 01 B8 90 47 5D 01 90 48 36 01
C3 90 43 32 02 80 47 00 24 90 3C 3D 06 80 48 00
01 C1 90 41 32 27 80 3C 00 64 80 41 00 47 90 43
61 1C 80 43 00 02 A9 80 43 00 25 90 41 56 01 B9
90 3C 58 35 90 41 3F 1B 80 41 00 01 D9 80 41 00
01 A3 80 3C 00 01 F8 90 41 32 01 9C 80 41 00 01
EE 90 3C 52 20 90 43 40 62 80 3C 00 0E 90 43 5E
2F 80 43 00 01 B1 90 45 5B 01 ED 80 43 00 28 90
3E 3F 4B 90 43 4A 29 80 45 00 01 DD 80 43 00 37
80 3E 00 3B 90 40 55 5A 90 48 44 2A 90 48 41 21
80 40 00 01 85 80 48 00 1E 80 48 00 28 90 45 46
01 B9 80 45 00 03 AA 90 47 59 14 90 41 5D 01 8D
80 47 00 47 80 41 00 4F 90 3C 3B 02 A0 90 43 57
01 81 80 3C 00 00 90 48 63 01 A1 80 43 00 01 F8
80 48 00 02 9B 90 48 3D 01 9D 90 47 51 31 90 40
3A 16 80 48 00 5B 80 40 00 0A 90 45 43 01 8A 80
47 00 4D 80 45 00 02 D6 90 40 51 15 90 40 61 01
DE 90 3E 45 15 80 40 00 6F 90 48 62 0B 80 40 00
6A 90 47 5D 12 90 3C 5F 3A 80 47 00 2D 90 43 46
55 80 3E 00 12 80 43 00 76 80 48 00 2C 90 47 57
17 80 3C 00 4B 90 41 35 45 80 41 00 40 90 45 3D
3D 80 45 00 01 A1 80 47 00 65 90 45 4B 01 AE 90
41 5A 01 92 90 43 4B 1B 80 45 00 78 80 41 00 69
90 47 42 30 80 43 00 32 90 40 53 01 92 80 40 00
01 82 80 47 00 36 90 3C 5D 02 AE 80 3C 00 68 90
43 53 53 90 3C 3E 01 FE 80 43 00 71 80 3C 00 04
F4 90 43 61 17 90 48 5F 1A 90 48 33 4C 80 48 00
2A 90 40 33 58 80 48 00 22 80 43 00 01 C1 90 48
44 15 90 47 34 0D 80 40 00 4E 80 48 00 53 80 47
00 01 93 90 43 55 48 80 43 00 00 90 41 35 02 FE
80 41 00 02 98 90 45 59 02 94 90 3C 3A 44 90 3C
3F 2E 80 45 00 6B 90 3E 58 53 80 3C 00 02 80 3C
00 61 90 40 48 01 B9 90 48 5A 4D 80 3E 00 01 85
80 40 00 45 80 48 00 04 F2 90 3C 5B 01 B6 90 45
4E 66 80 3C 00 2D 90 41 5E 25 90 45 55 3C 90 45
5F 20 80 41 00 26 90 45 44 1B 90 48 54 2D 80 45
00 01 82 80 48 00 3D 80 45 00 1A 80 45 00 56 80
45 00 07 80 90 47 56 01 CF 80 47 00 1A 90 41 53
43 80 41 00 42 90 40 5F 01 C2 80 40 00 05 89 90
3E 51 02 82 90 48 57 33 80 3E 00 78 80 48 00 04
C0 90 43 35 01 F2 90 40 34 44 80 43 00 53 90 3C
5A 1E 80 40 00 01 FE 80 3C 00 55 90 47 33 03 8C
90 45 43 15 80 47 00 02 C3 80 45 00 05 AC 90 40
35 03 BF 80 40 00 01 B8 90 48 41 02 9C 90 43 58
0C 80 48 00 01 8D 90 47 59 1E 80 43 00 02 C6 90
43 3A 29 90 41 37 2A 80 47 00 0F 80 43 00 20 80
41 00 02 F0 90 45 5E 23 90 3C 53 01 8F 90 40 3F
72 80 45 00 01 91 80 3C 00 1A 90 40 50 56 90 45
48 04 80 40 00 02 90 80 40 00 01 95 80 45 00 01
B1 90 41 63 02 A5 90 47 51 01 A6 80 41 00 01 96
90 3E 43 77 80 47 00 02 92 90 3C 50 37 80 3E 00
4D 90 3C 3E 01 E2 80 3C 00 01 90 80 3C 00 7B 90
41 49 01 87 90 48 38 01 BB 80 48 00 57 80 41 00
03 93 90 47 5D 02 A3 90 3E 4B 60 80 47 00 04 90
45 52 01 8F 80 3E 00 02 AB 80 45 00 01 E3 90 48
50 01 91 90 43 49 01 88 80 48 00 02 85 80 43 00
01 99 90 47 5E 0A 90 3C 58 77 80 47 00 02 A5 80
3C 00 01 94 90 40 34 78 90 43 4E 01 B2 80 40 00
28 80 43 00 02 94 90 3E 3F 01 9C 90 3C 61 01 A4
80 3E 00 44 90 47 41 01 9F 80 3C 00 01 C4 90 43
54 21 80 47 00 2E 90 40 5D 6B 80 43 00 01 FA 80
40 00 04 FB 90 43 44 56 80 43 00 40 90 41 4D 02
8E 90 3E 3F 3E 90 3E 4F 5C 80 41 00 01 98 80 3E
00 01 90 3E 35 01 83 80 3E 00 56 90 43 37 74 80
43 00 5A 80 3E 00 07 90 3C 44 71 90 3C 48 01 8A
80 3C 00 12 80 3C 00 13 90 47 3E 52 90 3C 59 01
DA 80 47 00 27 90 40 55 21 90 40 46 42 80 40 00
3A 80 3C 00 2F 90 40 51 1D 80 40 00 01 9F 90 3E
4A 1A 80 40 00 22 80 3E 00 03 B4 90 45 5E 6C 90
45 40 54 80 45 00 32 90 43 51 01 92 80 43 00 01
82 80 45 00 01 E6 90 47 4B 32 90 41 4C 01 9B 90
40 42 1C 80 41 00 1E 80 47 00 48 80 40 00 04 DE
90 45 48 65 90 40 42 01 92 90 3C 32 2E 80 40 00
0C 80 45 00 01 CB 80 3C 00 38 90 40 5C 01 D5 80
40 00 02 93 90 47 4A 02 96 90 3C 62 43 80 47 00
2C 90 3C 32 18 80 3C 00 47 80 3C 00 4C 90 3C 37
02 94 80 3C 00 2B 90 45 57 56 80 45 00 58 90 43
4C 6D 90 3C 38 01 DD 90 47 5D 14 90 47 58 01 81
80 43 00 1C 80 3C 00 01 8B 80 47 00 4D 80 47 00
01 EA 90 47 51 03 DB 80 47 00 31 90 40 3D 50 80
40 00 05 DE 90 40 54 62 80 40 00 02 C6 90 3E 4C
02 C1 80 3E 00 01 E6 90 3C 64 02 DE 80 3C 00 04
C3 90 40 3B 01 F1 90 3C 48 3C 80 40 00 60 80 3C
00 46 90 3E 47 01 A9 80 3E 00 03 8A 90 3C 5E 71
90 3C 3A 02 C0 80 3C 00 42 90 3C 4C 06 90 40 58
4E 80 3C 00 10 80 40 00 01 B3 80 3C 00 01 B5 90
48 54 03 85 90 3E 5F 27 80 48 00 66 80 3E 00 01
BA 90 47 5A 01 AF 80 47 00 07 87 90 43 4E 01 F8
90 48 63 1D 80 43 00 6E 90 40 37 4F 80 40 00 27
80 48 00 01 F1 90 47 49 04 90 3C 34 6E 90 3E 4A
38 80 3C 00 21 80 3E 00 56 80 47 00 4C 90 3C 56
01 B2 90 41 57 2D 80 3C 00 01 A2 80 41 00 64 90
40 3C 02 A4 80 40 00 01 E6 90 41 45 4B 80 41 00
04 DE 90 47 38 1F 90 47 4D 20 90 3E 51 01 B3 80
47 00 2D 90 3C 4D 7E 80 47 00 2B 80 3E 00 34 90
3E 46 7A 80 3C 00 02 C8 80 3E 00 17 90 47 63 01
89 90 45 54 1E 90 43 34 58 80 43 00 38 90 47 5C
10 80 45 00 4E 80 47 00 5F 80 47 00 04 F7 90 3C
5D 4F 90 48 38 01 98 90 41 5F 5F 90 3E 37 1F 80
3C 00 1A 80 48 00 77 80 3E 00 15 90 3C 39 36 80
41 00 36 90 40 44 12 90 40 4B 6D 80 3C 00 18 80
40 00 01 82 90 41 33 01 B9 80 40 00 01 B7 80 41
00 6A 90 47 3C 22 90 47 5E 00 90 41 4C 6F 90 47
54 01 C2 80 41 00 04 90 48 3F 3E 80 47 00 13 80
47 00 02 80 47 00 1A 90 41 59 50 90 48 60 0E 90
3E 46 01 91 80 48 00 2B 80 41 00 01 C5 80 3E 00
50 80 48 00 54 90 40 34 62 90 40 62 3B 90 41 4F
44 80 40 00 3B 90 41 5F 01 8B 80 40 00 23 80 41
00 15 80 41 00 01 B9 90 3E 46 02 F5 80 3E 00 01
E7 90 41 4D 01 83 90 45 53 35 90 3E 4D 6B 90 3E
38 65 80 45 00 05 90 48 41 05 90 3C 50 05 80 3E
00 12 80 41 00 14 90 40 3D 49 80 3E 00 3B 90 3C
49 26 80 40 00 3E 80 48 00 01 B3 80 3C 00 51 80
3C 00 66 90 48 60 70 90 3C 52 70 90 3E 4F 10 90
3C 5F 0A 90 48 5A 01 9D 80 48 00 41 80 3C 00 13
80 48 00 02 80 3C 00 5B 80 3E 00 6C 90 3C 52 28
90 40 34 59 80 3C 00 13 90 45 4C 02 87 80 40 00
40 80 45 00 02 B1 90 41 64 01 C0 80 41 00 02 BB
90 41 56 5F 90 48 5F 01 D7 80 41 00 65 80 48 00
03 F5 90 3C 45 59 80 3C 00 0E 90 45 33 7E 90 40
38 22 90 40 5A 25 90 45 45 40 80 40 00 2B 90 48
4C 3C 80 45 00 02 80 48 00 03 80 40 00 27 90 3C
64 1F 80 45 00 16 90 3C 39 21 80 3C 00 29 80 3C
00 6E 90 48 55 48 80 48 00 03 CC 90 3E 47 01 8A
80 3E 00 04 90 3C 3A 54 90 40 4B 01 90 41 41 02
90 80 40 00 0E 80 3C 00 6C 90 48 42 32 80 41 00
28 80 48 00 03 DF 90 40 33 01 BB 90 3E 41 06 90
48 39 61 80 48 00 66 80 40 00 01 AA 80 3E 00 50
90 3C 54 5D 80 3C 00 00 90 3E 4C 01 BB 90 3C 4A
01 AA 90 48 5B 0A 80 3E 00 01 A2 90 48 61 27 80
3C 00 01 86 80 48 00 01 EF 80 48 00 01 B2 90 41
4E 79 80 41 00 2B 90 48 37 79 90 43 40 01 83 80
48 00 22 90 48 49 75 80 48 00 46 80 43 00 02 E2
90 48 53 01 84 80 48 00 04 9C 90 3C 32 01 F8 90
40 4D 06 90 3E 61 1A 90 45 49 46 80 40 00 22 80
3C 00 1D 80 45 00 01 8F 80 3E 00 2B 90 3C 44 78
80 3C 00 6A 90 41 35 03 CA 80 41 00 07 8B 90 3E
46 01 E2 80 3E 00 7C 90 3E 5C 01 BA 80 3E 00 06
A0 90 3E 5A 01 CA 80 3E 00 01 F7 90 47 42 01 E5
90 43 3B 0F 90 41 4A 0F 90 47 4B 67 80 47 00 58
90 48 49 5A 80 47 00 34 80 41 00 2D 90 45 4F 39
80 43 00 18 80 45 00 28 90 48 55 06 80 48 00 01
84 90 40 58 02 B3 90 45 49 12 80 48 00 3C 90 47
4D 13 80 40 00 17 80 45 00 65 80 47 00 01 8F 90
47 34 01 B3 90 3C 59 29 80 47 00 01 F2 80 3C 00
01 98 90 3C 35 49 90 3E 5C 4B 80 3C 00 02 B2 80
3E 00 04 90 43 4B 02 87 80 43 00 6D 90 3E 63 01
CA 90 43 44 57 80 43 00 16 80 3E 00 03 D3 90 3C
44 03 D3 80 3C 00 20 90 45 64 02 A5 90 40 61 06
80 45 00 00 90 43 56 01 ED 80 43 00 1F 80 40 00
01 A3 90 45 3D 69 80 45 00 02 D9 90 45 4C 02 93
90 3E 34 69 80 45 00 5A 80 3E 00 18 90 41 41 01
81 90 40 35 37 80 41 00 02 9B 90 3E 59 6D 80 40
00 01 A4 80 3E 00 7F 90 48 52 01 86 90 40 5F 01
EB 90 45 53 2C 80 48 00 31 80 45 00 0F 80 40 00
03 D4 90 45 4B 01 B1 90 3C 5A 01 8C 90 3E 5E 58
80 3E 00 0D 90 45 53 23 80 45 00 1C 80 45 00 18
90 48 37 08 90 48 38 1F 80 3C 00 0D 90 41 33 01
B9 80 41 00 51 80 48 00 01 89 80 48 00 0F 90 3E
50 01 83 80 3E 00 0A 9A 90 47 34 02 84 90 3E 36
01 9F 80 47 00 29 80 3E 00 06 EC 90 48 43 1B 90
48 47 61 80 48 00 2D 80 48 00 01 B6 90 48 5D 02
99 90 40 59 34 90 45 4C 3F 80 45 00 0E 80 48 00
47 80 40 00 7E 90 45 38 06 90 45 54 6A 80 45 00
6F 90 41 33 01 BA 80 45 00 51 80 41 00 01 BD 90
48 5F 01 B8 80 48 00 01 AC 90 41 4A 37 90 40 48
07 90 45 4B 7E 80 41 00 08 80 40 00 02 95 90 48
4A 02 90 43 64 42 80 45 00 61 90 3E 40 2D 90 45
51 3B 80 3E 00 29 80 45 00 5F 80 43 00 0E 80 48
00 01 FA 90 45 59 16 90 40 53 48 90 3C 42 0D 90
3E 61 07 90 3C 42 3F 90 41 52 0D 80 3C 00 03 90
43 33 2B 80 45 00 01 B1 80 43 00 34 80 40 00 1E
80 3E 00 2D 80 3C 00 40 90 45 56 02 90 41 41 04
90 3C 37 13 80 41 00 5A 80 45 00 06 90 3E 63 01
9B 80 3C 00 27 80 3E 00 2E 80 41 00 59 90 45 34
01 84 90 3C 43 7A 80 45 00 0E 90 48 4C 02 BD 80
3C 00 01 80 80 48 00 01 90 47 3E 43 80 47 00 02
E6 90 3C 53 0C 90 41 4F 1E 90 3E 4B 01 80 80 3E
00 1B 80 3C 00 39 80 41 00 02 AC 90 45 59 01 BC
80 45 00 3B 90 3E 54 01 9A 90 41 5B 55 90 45 44
26 80 3E 00 09 90 43 64 01 F3 90 40 54 13 80 45
00 45 80 41 00 1B 80 43 00 02 C2 80 40 00 13 90
3E 5E 79 80 3E 00 01 9A 90 3E 54 1C 90 48 56 3C
80 48 00 1B 90 45 3A 34 90 3C 40 1A 90 3E 5D 01
92 90 48 4C 06 80 3E 00 33 80 3C 00 23 80 48 00
08 90 40 37 21 80 45 00 0F 90 47 34 23 80 40 00
7E 90 40 4C 05 80 3E 00 01 84 80 40 00 03 80 47
00 02 8D 90 45 54 07 90 45 36 02 8A 80 45 00 79
90 3E 60 17 80 45 00 6D 90 41 44 41 80 3E 00 0D
90 45 32 01 EA 90 3C 42 43 80 41 00 13 80 45 00
1A 80 3C 00 01 81 90 43 44 02 90 43 4C 2C 90 3C
63 13 90 3C 4E 4B 90 3E 46 15 90 48 4C 01 94 80
43 00 01 90 43 60 09 90 3E 42 10 90 41 61 01 80
43 00 28 80 3C 00 2C 80 48 00 20 80 41 00 0D 80
3C 00 69 80 3E 00 5E 80 3E 00 4D 80 43 00 01 BD
90 41 5B 18 90 41 3C 01 99 80 41 00 02 A4 80 41
00 01 93 90 3E 48 21 90 47 3D 02 95 80 47 00 61
80 3E 00 01 9A 90 41 5A 01 E8 90 41 32 49 90 40
4E 2B 80 41 00 01 91 80 41 00 01 8A 80 40 00 05
90 47 5E 01 87 90 40 44 01 B6 80 40 00 02 90 3C
48 1B 80 47 00 01 C2 80 3C 00 1B 90 3C 32 01 A8
80 3C 00 01 E0 90 3E 41 50 80 3E 00 2B 90 48 59
01 A1 90 3E 3D 42 90 3E 3E 30 80 3E 00 01 96 90
45 50 13 90 43 56 13 80 48 00 16 90 3E 40 14 80
43 00 3F 80 45 00 55 90 41 4F 1B 80 3E 00 01 9F
80 3E 00 25 90 3E 33 01 90 90 40 36 50 80 41 00
25 90 43 39 2E 80 3E 00 40 80 43 00 7A 80 40 00
01 90 3E 3F 03 90 48 3B 37 90 40 49 01 A1 80 40
00 01 8A 80 48 00 4D 80 3E 00 03 F0 90 3E 46 02
D0 80 3E 00 04 E2 90 3C 5F 01 A1 80 3C 00 01 86
90 47 45 01 E0 80 47 00 03 89 90 45 61 02 BE 90
48 58 29 90 48 40 68 80 45 00 0D 90 43 4F 01 A2
80 48 00 14 80 48 00 02 80 80 43 00 02 89 90 40
60 50 80 40 00 02 C2 90 40 50 01 86 90 45 59 20
90 48 3F 4C 90 48 56 18 80 40 00 41 80 48 00 01
C4 80 45 00 01 83 80 48 00 3D 90 3C 3D 01 A6 90
43 4F 6C 80 3C 00 01 8F 80 43 00 06 90 48 49 01
9B 80 48 00 02 9B 90 3C 4C 02 91 80 3C 00 02 EE
90 47 4D 02 89 80 47 00 00 90 45 49 02 BD 90 41
63 03 80 45 00 69 90 3C 35 01 A3 90 41 48 69 80
41 00 57 80 3C 00 33 80 41 00 3D 90 47 32 02 ED
90 43 3E 2A 80 47 00 02 97 80 43 00 03 88 90 47
5E 01 E4 90 3C 57 57 80 47 00 02 F3 80 3C 00 01
DE 90 48 55 7F 90 43 3A 02 82 80 48 00 5E 80 43
00 53 90 48 3B 42 80 48 00 13 90 48 5C 77 90 3E
40 01 B5 80 3E 00 01 A8 80 48 00 01 9D 90 3E 39
01 C5 80 3E 00 0E 90 3C 4D 60 80 3C 00 01 A5 90
3E 63 52 90 40 3F 02 8A 80 3E 00 01 8F 80 40 00
01 B7 90 41 32 02 A6 80 41 00 02 EC 90 40 51 02
E3 80 40 00 02 E2 90 45 58 46 90 43 4A 4D 80 43
00 0A 90 47 49 70 80 45 00 74 80 47 00 34 90 45
5E 6B 90 45 4C 04 90 47 3C 12 80 45 00 5F 90 41
57 02 90 45 52 07 90 41 41 11 90 41 35 13 80 45
00 03 80 47 00 01 85 90 48 4C 56 80 41 00 06 80
45 00 6A 90 3C 4A 0B 90 40 46 1E 80 48 00 0C 80
41 00 0C 80 41 00 01 F0 80 3C 00 21 90 48 51 3E
80 40 00 1A 90 41 3D 5D 90 41 33 46 90 47 32 30
90 47 34 38 90 48 48 16 80 48 00 02 80 41 00 49
90 3C 48 2F 80 41 00 0D 90 3E 40 54 80 47 00 31
80 3C 00 25 80 48 00 28 80 3E 00 19 80 47 00 6C
90 41 56 50 80 41 00 01 8F 90 41 55 1B 90 41 3E
18 90 3C 62 02 CD 90 3C 33 4C 80 41 00 0F 80 3C
00 15 80 41 00 01 E4 80 3C 00 04 A6 90 43 57 22
90 43 43 01 9E 90 41 62 01 C0 80 43 00 16 80 43
00 14 90 40 41 14 80 41 00 01 D6 90 48 37 03 90
47 43 01 B2 90 3E 33 00 80 40 00 01 83 80 48 00
4C 80 47 00 2D 80 3E 00 01 C4 90 48 3F 01 FB 90
3C 35 01 BF 80 48 00 4D 90 3C 40 01 80 3C 00 02
82 90 3E 48 41 80 3C 00 02 A9 90 3E 60 39 80 3E
00 48 80 3E 00 02 9A 90 3E 4D 02 BE 90 48 3E 29
80 3E 00 45 90 41 35 01 F6 80 48 00 6C 80 41 00
03 C3 90 48 34 01 82 80 48 00 3B 90 3E 3F 01 98
80 3E 00 05 B4 90 3E 4C 27 90 41 35 1F 90 40 4D
2C 90 41 3B 03 90 47 63 43 80 41 00 14 80 40 00
01 83 90 3C 44 15 90 41 36 14 80 41 00 23 80 3E
00 09 90 48 3C 11 80 47 00 60 80 3C 00 01 8F 80
41 00 70 80 48 00 05 99 90 47 43 02 B7 90 48 63
01 9D 80 47 00 64 90 48 53 6A 80 48 00 13 80 48
00 01 C6 90 40 38 2F 90 3E 3A 78 80 40 00 02 85
80 3E 00 37 90 43 61 4B 90 3C 59 01 B4 90 48 4C
01 A3 80 3C 00 03 90 48 5D 0E 80 43 00 01 EC 80
48 00 29 80 48 00 63 90 3C 52 02 8B 90 3E 33 01
B3 80 3C 00 60 80 3E 00 06 89 90 45 3D 01 B1 90
45 4D 5D 80 45 00 01 83 80 45 00 73 90 47 3D 1F
90 47 40 01 B4 90 3C 32 3F 80 47 00 05 80 47 00
19 80 3C 00 03 C1 90 3E 53 01 87 80 3E 00 02 90
40 52 01 A8 90 48 54 46 90 3E 34 37 80 48 00 50
80 40 00 06 90 40 46 01 95 80 3E 00 3C 80 40 00
03 F2 90 47 4A 01 8F 90 41 5A 7C 80 47 00 65 90
3C 39 0E 90 40 4F 79 80 41 00 0F 90 3E 3E 01 88
90 43 5E 73 80 3E 00 0C 80 3C 00 1B 80 40 00 16
80 43 00 57 90 40 43 53 90 43 49 01 A8 90 3C 63
23 80 43 00 55 80 3C 00 31 80 40 00 6C 90 43 60
01 D2 90 47 5F 46 80 43 00 22 90 47 35 01 92 90
3C 5A 01 80 47 00 48 80 3C 00 01 81 90 48 47 60
80 47 00 01 82 90 43 3D 01 9D 80 43 00 19 80 48
00 01 E5 90 45 44 68 80 45 00 03 90 90 43 5F 55
80 43 00 01 F8 90 43 56 09 90 41 34 1B 90 41 4F
4D 80 41 00 29 90 47 4A 6B 80 47 00 01 98 80 41
00 21 90 3C 5E 13 80 43 00 02 9E 80 3C 00 01 80
90 3C 52 02 B4 90 47 61 76 80 3C 00 01 DF 90 43
3A 3E 80 47 00 01 94 90 3E 38 01 90 45 3C 01 8B
90 47 38 17 90 40 52 07 80 45 00 22 80 43 00 3B
80 40 00 01 D5 80 3E 00 7A 80 47 00 01 97 90 45
42 01 89 90 45 61 67 80 45 00 01 83 80 45 00 58
90 3E 5E 2D 90 45 54 01 C6 90 41 5E 3A 80 3E 00
1F 90 3C 33 43 80 45 00 0A 90 48 5C 17 80 41 00
01 82 80 3C 00 01 94 80 48 00 02 F5 90 48 3F 0F
90 47 50 01 A1 80 47 00 01 A6 80 48 00 3B 90 43
35 5F 90 3E 61 7B 90 48 4E 50 80 3E 00 55 90 48
42 54 80 43 00 4E 80 48 00 06 90 40 4D 2C 80 48
00 68 90 43 36 7F 90 40 3F 77 90 3C 40 02 90 3C
5A 29 80 40 00 03 80 40 00 5A 80 43 00 71 90 45
3F 4C 80 3C 00 64 80 45 00 1B 80 3C 00 4E 90 3C
44 01 B0 80 3C 00 01 A7 90 41 32 22 90 47 40 22
80 41 00 02 99 80 47 00 03 83 90 48 64 55 90 43
51 01 FE 80 48 00 01 B6 80 43 00 77 90 40 42 1A
90 43 5B 48 80 40 00 05 80 43 00 01 E2 90 43 43
02 D6 90 40 63 59 80 43 00 23 80 40 00 01 9F 90
40 45 55 80 40 00 01 B9 90 45 58 01 D5 90 3E 42
29 80 45 00 09 90 47 63 55 80 47 00 12 80 3E 00
5F 90 43 42 01 AD 80 43 00 74 90 43 46 01 AB 90
45 44 16 80 43 00 3F 80 45 00 01 FB 90 40 35 01
ED 90 40 64 35 80 40 00 02 A1 90 3C 5B 35 90 3C
5D 09 80 40 00 5E 90 48 3D 37 90 47 46 6B 80 3C
00 12 80 47 00 24 90 40 53 48 80 3C 00 1E 90 48
50 71 80 48 00 1D 80 48 00 01 CD 90 3C 33 01 80
40 00 03 A9 80 3C 00 01 EE 90 48 37 6C 80 48 00
35 90 3C 45 01 84 90 3E 3F 21 90 45 5F 6C 90 40
43 01 85 80 45 00 12 80 3E 00 03 90 48 61 18 80
3C 00 79 80 48 00 48 80 40 00 01 EC 90 3E 43 42
90 41 4F 01 9A 80 3E 00 75 90 45 4E 59 90 45 40
38 90 41 50 25 80 41 00 21 80 41 00 4D 90 41 35
66 80 45 00 01 80 80 45 00 01 E4 80 41 00 02 AB
90 3C 51 02 B7 80 3C 00 29 90 40 4F 03 C2 90 3E
4F 16 90 48 44 06 80 40 00 00 90 43 63 4B 80 48
00 01 CA 90 45 44 09 80 43 00 64 90 48 61 18 80
3E 00 62 80 48 00 1A 80 45 00 77 90 3C 45 01 BB
90 45 39 78 80 45 00 0E 80 3C 00 58 90 45 58 01
DE 80 45 00 02 FC 90 41 3F 48 90 43 45 01 B2 90
47 39 3E 80 41 00 11 80 43 00 01 B7 80 47 00 26
90 48 55 1E 90 43 51 49 90 43 3D 27 80 48 00 19
80 43 00 2C 90 3C 62 10 80 43 00 1D 90 40 37 2E
90 47 36 63 80 40 00 45 80 3C 00 01 EE 80 47 00
2C 90 40 36 01 9D 80 40 00 02 BD 90 3C 40 01 E3
80 3C 00 02 90 3E 43 02 B5 90 3C 52 55 80 3E 00
02 C7 80 3C 00 01 D9 90 3E 4B 02 87 80 3E 00 06
F7 90 48 5A 61 80 48 00 01 DA 90 40 48 76 90 3C
48 01 D7 80 40 00 01 86 90 40 61 74 80 3C 00 06
90 47 62 66 90 43 64 0B 80 40 00 01 CD 80 43 00
41 80 47 00 03 86 90 3C 34 5B 80 3C 00 01 D2 90
47 5B 5A 90 43 5E 20 80 47 00 22 90 45 5A 01 82
80 43 00 41 90 41 56 02 96 80 45 00 38 90 3C 34
42 80 41 00 02 AD 80 3C 00 02 8E 90 3C 32 0F 90
40 3E 77 80 3C 00 02 C1 80 40 00 6A 90 47 36 01
F2 80 47 00 03 EA 90 3E 3C 01 85 90 45 4B 42 80
3E 00 37 90 40 41 07 80 45 00 02 99 90 45 34 17
90 45 53 6D 80 45 00 31 80 40 00 01 B2 90 47 45
5B 80 45 00 42 80 47 00 01 84 90 3E 52 01 A1 90
41 43 01 BE 80 3E 00 01 BB 80 41 00 70 90 3E 51
01 F6 80 3E 00 01 F2 90 48 35 01 C5 80 48 00 02
A1 90 45 3B 0D 90 47 64 60 90 45 3E 01 D5 80 47
00 59 80 45 00 01 AD 80 45 00 45 90 43 5F 01 9F
80 43 00 09 90 40 36 02 C6 80 40 00 27 90 3C 62
28 90 3E 50 01 C2 80 3E 00 50 90 43 43 0E 80 3C
00 41 80 43 00 02 A7 90 41 60 5C 90 48 36 01 B6
90 41 5E 1B 80 41 00 0A 90 40 63 01 9E 80 48 00
59 80 41 00 4F 90 3E 49 57 90 3C 3D 33 80 40 00
2B 90 41 4B 02 A5 80 3E 00 4A 80 3C 00 2C 80 41
00 61 90 40 48 01 B7 90 3E 38 0A 80 40 00 01 8B
80 3E 00 0E 90 47 56 5F 90 40 58 2B 80 47 00 01
98 80 40 00 18 90 40 33 4F 90 3E 47 6F 90 3C 4F
18 80 3E 00 01 BD 80 40 00 01 A9 80 3C 00 03 AA
90 41 36 01 80 90 40 45 01 B5 80 41 00 17 90 3E
4E 01 B0 90 45 60 0F 90 3C 5C 1C 80 40 00 14 80
45 00 01 8F 80 3E 00 15 90 40 5A 44 80 3C 00 01
8A 80 40 00 28 90 45 55 65 80 45 00 02 DF 90 48
4C 01 BA 90 47 4E 4A 80 48 00 01 88 80 47 00 69
90 40 3F 4B 90 3E 4D 1E 80 40 00 22 80 3E 00 11
90 3C 56 02 84 80 3C 00 06 95 90 3C 47 08 90 47
4E 71 90 43 3B 50 80 43 00 47 80 47 00 07 80 3C
00 01 83 90 48 5F 1F 90 45 48 76 80 45 00 50 90
43 41 54 80 48 00 01 AA 80 43 00 03 A1 90 40 53
3C 80 40 00 14 90 43 59 01 94 90 40 5E 60 80 43
00 1A 80 40 00 01 EB 90 3C 35 75 90 48 58 07 90
43 51 6B 80 3C 00 02 A4 80 48 00 39 80 43 00 79
90 45 3D 02 8A 90 3E 4C 5D 90 40 46 0F 80 45 00
55 90 3E 4F 32 80 40 00 47 80 3E 00 01 86 80 3E
00 02 B2 90 3C 5F 01 84 90 47 42 01 98 80 47 00
16 80 3C 00 29 90 45 4B 01 FC 80 45 00 01 C9 90
47 5C 38 90 45 36 36 80 47 00 24 90 47 5E 4C 90
3C 4C 55 80 3C 00 01 C1 80 47 00 08 80 45 00 01
CF 90 40 49 01 F3 80 40 00 5C 90 40 44 03 AC 80
40 00 0A F7 90 47 54 42 90 3C 58 07 90 45 56 79
90 47 5B 01 88 80 3C 00 00 80 45 00 2D 80 47 00
22 80 47 00 03 D5 90 45 44 01 89 80 45 00 01 81
90 45 54 22 90 47 59 46 90 3E 57 01 BA 80 45 00
29 80 47 00 33 80 3E 00 04 9B 90 45 49 62 90 3C
37 18 80 45 00 1E 90 3E 47 01 84 80 3E 00 47 80
3C 00 02 A9 90 3C 3C 22 90 43 60 23 90 45 46 57
80 3C 00 4D 80 43 00 45 90 45 3A 6E 80 45 00 5E
80 45 00 01 89 90 45 3D 08 90 3E 3A 37 90 40 33
01 F4 80 3E 00 01 98 80 45 00 4E 90 40 57 00 80
40 00 01 90 40 53 65 80 40 00 02 A9 80 40 00 23
90 3C 62 68 90 47 33 21 90 45 5A 1B 80 3C 00 01
C7 90 47 34 18 90 47 54 2C 90 3C 54 1F 80 45 00
4E 80 47 00 01 8A 90 40 62 11 80 47 00 00 90 47
3C 37 80 47 00 01 90 3C 64 51 90 3E 5E 32 80 3C
00 02 80 40 00 48 80 3C 00 3E 80 47 00 44 80 3E
00 7D 90 47 3B 4A 90 3E 55 16 90 48 3F 2D 90 41
53 01 90 80 41 00 23 80 47 00 23 80 3E 00 28 80
48 00 22 90 43 63 02 C6 90 47 59 07 80 43 00 01
99 90 48 3F 77 80 47 00 1E 80 48 00 01 E1 90 45
48 1D 90 48 55 2E 90 40 37 32 80 48 00 02 A3 80
40 00 17 80 45 00 01 C6 90 47 33 01 98 90 43 52
08 80 47 00 1B 90 47 63 4B 80 47 00 4E 90 41 38
0C 80 43 00 03 B3 80 41 00 4A 90 40 5F 02 E4 80
40 00 01 C9 90 48 54 02 C3 80 48 00 21 90 45 4C
07 90 3C 4B 18 90 48 41 02 99 90 3C 3E 2F 80 3C
00 39 80 45 00 27 80 3C 00 1C 80 48 00 03 9E 90
40 56 01 D5 90 41 5E 33 90 41 51 32 80 40 00 01
FE 90 47 59 5B 80 41 00 14 80 47 00 05 90 3E 56
01 90 48 36 24 80 41 00 36 80 3E 00 01 E7 90 48
52 10 80 48 00 0A 90 40 5F 28 80 48 00 01 86 90
48 52 2C 80 40 00 01 A2 80 48 00 01 FD 90 48 62
33 90 3C 5F 01 AD 80 3C 00 0F 90 43 48 01 98 90
43 57 07 90 3E 45 21 80 43 00 05 80 48 00 12 90
47 32 01 C4 80 43 00 47 80 3E 00 01 D0 80 47 00
02 A5 90 45 44 4C 90 3E 5D 09 80 45 00 71 90 45
3A 01 F7 80 3E 00 01 A9 80 45 00 17 90 45 60 02
8A 80 45 00 04 A2 90 3E 5D 02 F3 80 3E 00 72 90
40 5C 2C 90 41 50 02 90 40 47 36 80 40 00 02 8A
90 48 38 58 80 40 00 17 80 41 00 0B 80 48 00 01
94 90 45 55 40 90 47 55 09 90 3C 36 2F 90 43 4E
60 80 3C 00 12 90 3E 54 01 80 47 00 08 90 45 42
69 80 3E 00 14 90 48 34 01 80 43 00 24 80 45 00
01 C1 90 41 48 04 80 45 00 64 80 41 00 1A 90 41
5D 4A 80 48 00 01 90 90 3E 4F 1E 90 48 52 0B 80
41 00 71 90 3E 3C 71 80 48 00 02 80 3E 00 13 80
3E 00 01 88 90 47 56 01 C9 80 47 00 13 90 3C 33
03 9D 90 40 56 40 80 3C 00 6B 90 47 46 11 90 47
3E 01 D5 80 47 00 14 90 48 4F 1E 90 48 41 06 80
40 00 6C 90 48 5D 3F 80 48 00 1E 80 47 00 3C 90
3C 35 0E 80 48 00 01 80 48 00 4C 80 3C 00 01 E5
90 45 5A 01 EA 80 45 00 69 90 3C 5F 01 9C 90 3C
32 43 80 3C 00 28 90 40 62 05 90 48 56 19 80 3C
00 56 90 3C 5A 23 80 40 00 01 B3 80 48 00 12 90
45 64 70 80 3C 00 52 90 41 3E 01 BE 80 45 00 01
97 90 41 4E 1E 80 41 00 01 C7 90 3C 55 34 80 41
00 01 A8 80 3C 00 01 8F 90 3C 39 08 90 41 3C 7D
80 41 00 01 BF 90 45 54 29 80 3C 00 3E 90 3E 63
4E 80 3E 00 04 90 41 47 1D 80 45 00 4F 80 41 00
01 D9 90 45 40 01 C8 90 3E 59 0A 80 45 00 5C 80
3E 00 01 EC 90 48 61 02 90 90 41 36 18 80 48 00
01 A5 90 45 3E 45 80 41 00 5C 80 45 00 01 AE 90
3C 37 1D 90 47 53 38 80 3C 00 46 90 43 3C 5C 80
47 00 2B 80 43 00 02 99 90 40 51 50 80 40 00 35
90 40 45 76 90 45 61 02 C8 80 40 00 4B 80 45 00
02 90 41 56 7D 80 41 00 06 90 43 5A 01 89 90 45
47 6F 80 43 00 01 8B 90 41 51 59 80 45 00 0F 80
41 00 03 9A 90 45 64 1E 90 40 42 5B 80 45 00 01
B7 90 45 4B 5E 80 40 00 01 E1 80 45 00 02 8D 90
40 53 02 E2 80 40 00 27 90 45 3C 01 B1 80 45 00
35 90 47 5C 03 A6 90 48 53 19 80 47 00 22 90 3E
3B 01 B4 80 48 00 01 DC 80 3E 00 01 A2 90 43 37
35 90 40 3F 01 9A 80 40 00 03 90 41 46 01 93 90
47 51 1C 80 43 00 49 90 47 4D 05 90 40 56 09 80
47 00 06 80 41 00 01 91 90 3C 35 19 80 47 00 6D
80 40 00 11 80 3C 00 01 AA 90 3E 40 03 9C 80 3E
00 02 90 90 47 40 39 90 3C 41 6F 80 3C 00 7C 80
47 00 01 F6 90 47 51 78 90 47 46 5C 80 47 00 01
A1 90 41 44 2F 90 48 4F 46 80 47 00 51 90 48 53
0A 80 48 00 01 A4 90 41 5C 38 80 41 00 01 81 80
48 00 3C 80 41 00 5B 90 3C 35 0B 90 3C 5C 6E 90
40 4D 01 8B 80 3C 00 42 80 3C 00 72 90 48 41 06
90 43 55 48 80 40 00 01 84 90 47 3A 02 80 48 00
70 80 43 00 01 A0 80 47 00 39 90 3C 44 55 90 45
40 01 93 80 3C 00 7D 90 48 40 01 C2 80 45 00 02
90 43 50 48 90 48 63 01 87 80 48 00 01 94 80 48
00 1E 80 43 00 13 90 3C 32 01 F6 80 3C 00 31 90
48 3A 26 90 3C 48 01 B0 90 3C 34 38 90 40 5F 12
90 3C 42 0C 80 3C 00 21 80 48 00 57 80 3C 00 01
9C 80 40 00 36 80 3C 00 0E 90 47 42 02 90 41 52
14 90 40 60 01 F6 80 47 00 6A 80 40 00 50 80 41
00 4F 90 41 54 01 AC 80 41 00 03 94 90 41 35 17
90 40 33 11 90 3E 3F 36 80 41 00 22 80 3E 00 14
90 40 46 69 80 40 00 0B 80 40 00 14 90 47 55 02
8F 80 47 00 01 90 43 61 01 D3 90 3C 4D 49 80 43
00 01 F1 90 40 39 01 8F 80 40 00 03 80 3C 00 01
E8 90 45 4B 02 9D 90 45 5A 40 80 45 00 20 90 47
4D 4A 90 48 3E 45 80 48 00 31 80 45 00 5F 90 48
58 51 80 47 00 08 80 48 00 01 DA 90 43 4B 01 B9
90 48 40 01 FE 90 41 51 1B 80 48 00 07 90 47 45
02 80 43 00 01 96 80 41 00 01 AD 90 43 53 30 80
47 00 28 90 45 59 68 80 45 00 01 AA 80 43 00 01
97 90 48 55 36 90 48 32 1B 90 43 57 01 99 80 48
00 20 80 48 00 31 80 43 00 04 CB 90 41 46 75 80
41 00 40 90 3C 4B 0C 90 3C 3E 12 90 47 55 4B 90
41 34 2D 80 3C 00 13 80 47 00 53 80 41 00 16 90
45 59 2E 90 43 3C 06 90 45 34 1E 90 3E 37 10 80
3C 00 01 94 80 45 00 06 90 40 38 25 80 45 00 01
90 47 32 0F 80 43 00 5F 80 3E 00 16 80 40 00 01
89 90 3C 45 26 90 41 3A 1A 80 3C 00 12 80 47 00
38 90 3E 33 01 D0 80 41 00 07 80 3E 00 01 C4 90
3C 44 1F 90 40 51 01 AA 90 40 56 28 80 3C 00 24
80 40 00 14 90 3E 64 02 9E 80 40 00 24 90 3C 5D
47 80 3E 00 2F 80 3C 00 26 90 48 4F 20 90 43 40
24 90 47 59 01 AB 80 43 00 6C 80 47 00 01 90 47
60 49 80 47 00 26 80 48 00 16 90 40 5D 1F 90 41
4D 77 80 41 00 01 EE 80 40 00 08 E7 90 47 3C 01
9E 90 45 59 02 9A 80 47 00 19 80 45 00 05 89 90
43 32 14 90 3C 64 01 E0 80 3C 00 14 80 43 00 02
C0 90 47 50 01 CA 80 47 00 66 90 45 3A 01 C4 90
41 45 70 90 40 38 36 80 45 00 16 80 40 00 77 80
41 00 01 E8 90 48 49 01 BA 80 48 00 03 95 90 45
57 40 90 47 61 02 EF 80 45 00 5B 80 47 00 05 98
90 48 45 5A 90 41 60 1D 80 48 00 1B 90 43 47 01
B0 80 43 00 01 B9 90 41 52 06 90 40 5F 31 80 41
00 55 80 40 00 60 80 41 00 5D 90 3C 38 14 90 47
5F 4C 80 47 00 01 83 80 3C 00 01 AF 90 48 48 01
C8 80 48 00 0F 90 48 3E 02 E5 80 48 00 20 90 48
40 01 CF 90 43 3E 01 E4 90 3E 39 15 80 48 00 57
80 43 00 6A 90 40 3C 71 80 3E 00 02 89 90 3E 3F
29 90 43 5A 1B 80 40 00 02 90 80 3E 00 01 80 43
00 03 9B 90 41 39 01 ED 90 3C 3A 03 80 41 00 01
FA 90 40 44 2C 80 3C 00 01 89 90 3E 62 04 80 40
00 01 81 90 47 5E 74 90 45 38 18 80 47 00 27 80
45 00 10 80 3E 00 0D 90 45 4F 1E 90 43 5C 01 AD
90 40 54 03 80 43 00 04 90 3C 40 2E 80 45 00 01
95 80 40 00 01 C6 90 48 50 45 80 3C 00 63 90 43
4C 01 DA 80 48 00 01 F5 80 43 00 02 8A 90 45 42
7D 90 40 39 01 D9 80 45 00 10 80 40 00 05 D3 90
3E 4D 02 EB 80 3E 00 08 BA 90 3E 4F 5C 80 3E 00
03 F3 90 40 3F 68 80 40 00 01 87 90 40 4C 3E 80
40 00 01 89 90 41 5B 03 AA 90 41 4C 16 80 41 00
01 C0 90 40 42 19 90 45 46 1A 90 48 42 01 8D 80
45 00 46 80 41 00 2F 80 48 00 5E 80 40 00 62 90
48 56 0D 90 40 4B 01 9A 80 48 00 06 90 3E 45 76
90 48 4D 72 80 48 00 50 80 40 00 65 80 3E 00 2D
90 43 37 01 CE 80 43 00 01 D8 90 3E 40 01 DA 90
43 39 37 90 45 3C 34 80 43 00 3E 80 3E 00 01 B6
90 3E 4A 01 B5 80 45 00 01 90 80 3E 00 01 B6 90
40 34 44 90 40 3B 45 80 40 00 28 90 47 49 70 90
41 37 03 80 40 00 17 90 47 51 59 90 43 3F 17 90
48 52 40 90 3C 34 25 80 47 00 44 90 40 4D 50 80
41 00 15 80 47 00 35 80 48 00 79 80 43 00 2F 80
3C 00 62 80 40 00 01 CD 90 41 5B 01 B6 90 41 61
01 90 80 41 00 2C 90 3C 4C 27 90 40 5A 74 90 40
46 40 80 40 00 12 80 41 00 01 80 90 40 4C 18 90
48 47 1E 80 3C 00 56 80 40 00 7A 80 40 00 75 90
3C 52 1C 80 48 00 06 90 48 45 02 89 80 3C 00 03
90 41 53 01 84 80 48 00 3C 90 40 41 01 E4 80 41
00 3D 90 41 49 03 90 41 46 18 80 40 00 16 90 41
50 17 80 41 00 09 90 40 51 02 90 90 41 32 0F 90
43 47 40 80 41 00 44 80 41 00 0B 80 40 00 09 80
41 00 01 E2 80 43 00 64 90 43 64 72 80 43 00 70
90 3E 35 03 90 45 42 3A 80 3E 00 2C 90 45 3D 1D
80 45 00 01 BD 90 48 64 36 80 45 00 02 A2 80 48
00 01 B1 90 43 46 01 B6 90 41 32 5D 80 43 00 02
99 80 41 00 1F 90 41 33 02 DA 90 40 35 46 80 41
00 5D 90 47 5B 41 80 40 00 39 90 48 51 1C 90 48
64 64 80 48 00 01 80 47 00 16 80 48 00 0D 95 90
41 43 02 82 90 45 3C 0A 90 3C 4C 25 80 41 00 02
84 90 45 5E 46 90 45 46 2F 80 45 00 16 80 45 00
1F 80 3C 00 05 80 45 00 07 BD 90 47 5B 33 90 48
4A 02 BD 80 47 00 60 80 48 00 03 94 90 40 62 66
80 40 00 07 FB 90 40 40 01 C7 80 40 00 0A 90 40
64 2F 90 43 52 01 C0 90 3E 49 12 90 40 5E 0A 80
40 00 01 B4 90 45 53 02 80 40 00 04 80 3E 00 15
90 3C 45 03 80 43 00 1F 90 45 3E 10 90 41 4E 07
80 45 00 20 80 3C 00 22 80 45 00 72 80 41 00 7B
90 45 61 42 90 41 5F 0B 90 3E 5E 01 A8 90 40 3C
38 90 3E 34 1B 90 47 3D 39 80 45 00 0C 80 41 00
4C 80 3E 00 04 90 3E 36 01 80 40 00 42 80 3E 00
00 90 3E 55 3B 90 3E 35 5B 80 3E 00 01 80 47 00
01 AA 80 3E 00 7B 80 3E 00 67 90 48 37 67 90 40
3E 55 80 40 00 24 80 48 00 48 90 43 63 01 BF 80
43 00 37 90 41 5E 33 90 3E 54 21 80 41 00 01 A8
90 47 32 0D 80 3E 00 01 C7 90 40 51 4E 90 40 49
32 80 47 00 21 90 43 3F 01 95 80 40 00 5F 80 40
00 3B 80 43 00 77 90 3C 5F 01 EF 90 41 40 01 F1
80 3C 00 55 90 41 47 0F 90 45 45 72 80 41 00 01
C6 80 41 00 28 80 45 00 37 90 47 58 03 9E 80 47
00 01 94 90 3E 3B 01 DE 90 3E 3B 22 80 3E 00 2C
80 3E 00 04 F7 90 48 64 03 A0 80 48 00 04 A9 90
40 61 20 90 41 58 1A 90 47 40 1B 90 3E 4B 01 92
90 3E 33 01 AC 80 41 00 16 80 47 00 20 80 40 00
01 90 45 35 34 80 3E 00 3F 80 3E 00 01 98 90 3E
4E 23 80 45 00 0B 90 47 57 5A 80 47 00 1C 90 41
36 44 90 47 52 6B 80 3E 00 01 93 80 41 00 53 80
47 00 44 90 41 4E 17 90 48 42 45 90 47 3C 01 8F
80 47 00 36 80 48 00 01 97 80 41 00 01 A4 90 3C
3A 70 90 48 41 25 90 47 52 02 81 80 3C 00 60 80
48 00 4E 80 47 00 20 90 43 3A 02 D2 90 41 48 26
80 43 00 02 81 80 41 00 0A 90 3E 42 2E 90 47 39
01 9B 80 3E 00 1A 80 47 00 01 E0 90 45 61 42 90
48 53 0A 80 45 00 01 E0 90 3E 4A 47 90 45 53 01
9E 80 48 00 01 84 80 3E 00 01 AF 80 45 00 03 8F
90 43 5E 46 80 43 00 03 E9 90 40 44 03 CA 80 40
00 19 90 40 5C 33 90 48 35 02 96 80 40 00 11 80
48 00 17 90 3C 5A 06 90 47 3E 3F 90 45 37 02 90
3E 46 13 90 3E 39 5E 80 3C 00 02 90 41 42 01 9B
80 3E 00 09 80 3E 00 29 90 40 56 10 80 47 00 06
80 45 00 69 90 48 47 18 80 41 00 01 F2 90 48 40
29 80 40 00 32 80 48 00 01 C7 80 48 00 01 C7 90
3C 40 7D 80 3C 00 01 AB 90 40 5E 23 90 40 52 0F
90 41 32 7E 80 40 00 17 80 40 00 01 C9 80 41 00
01 F0 90 48 41 4B 90 3E 4F 17 90 41 4F 59 80 3E
00 27 80 48 00 01 EC 80 41 00 01 FE 90 3C 33 01
E4 90 47 35 14 90 40 60 49 90 40 3F 30 80 47 00
0A 80 40 00 43 80 3C 00 15 80 40 00 03 E4 90 45
32 03 85 80 45 00 03 A7 90 43 5C 02 92 80 43 00
01 86 90 45 49 17 90 40 43 01 81 90 3E 44 51 80
3E 00 78 80 45 00 3A 80 40 00 44 90 48 60 15 90
43 3B 4A 80 48 00 01 A1 80 43 00 01 90 3E 4B 01
91 80 3E 00 01 CB 90 48 3F 02 AF 90 41 52 1B 80
48 00 01 D5 80 41 00 02 96 90 41 59 02 D4 80 41
00 28 90 43 54 1E 90 3E 4B 7B 90 41 44 07 90 48
5A 20 80 43 00 15 80 41 00 41 80 3E 00 01 D6 90
48 39 0E 90 43 4F 28 80 48 00 0B 80 48 00 38 90
41 41 2B 90 3E 3C 01 AB 80 41 00 41 80 43 00 7D
80 3E 00 07 BC 90 43 3C 01 A0 80 43 00 03 DA 90
40 61 12 90 40 61 53 90 3C 41 1A 80 40 00 01 EE
80 40 00 01 90 45 43 01 D1 80 3C 00 01 9B 90 3E
60 64 80 45 00 5F 80 3E 00 01 82 90 41 37 01 E7
80 41 00 01 90 45 57 11 90 48 51 01 C3 80 48 00
36 90 45 3C 23 80 45 00 01 CD 90 40 58 01 9B 90
3C 37 4B 80 45 00 6B 80 40 00 4F 80 3C 00 02 89
90 47 34 01 8D 80 47 00 1D 90 43 3F 08 90 3E 62
03 CF 80 43 00 0D 80 3E 00 12 90 48 51 01 94 90
3E 42 46 90 48 5F 17 90 3E 48 0E 90 3C 3C 4F 80
3E 00 10 80 48 00 36 90 3E 53 01 D6 80 3E 00 2B
80 3C 00 1F 80 48 00 32 80 3E 00 01 92 90 40 5D
78 90 43 61 01 8C 90 40 4C 01 81 80 40 00 20 80
40 00 5A 80 43 00 56 90 48 41 5A 80 48 00 02 AD
90 41 36 62 90 40 47 01 F4 90 41 47 76 90 48 4D
07 80 41 00 35 80 40 00 5C 80 41 00 01 BD 80 48
00 11 90 48 4C 03 A1 80 48 00 02 8D 90 48 4F 09
90 3C 4D 02 E4 80 48 00 07 80 3C 00 40 90 43 3C
01 D6 90 40 51 3B 90 47 39 01 A8 80 43 00 01 97
80 40 00 29 80 47 00 01 98 90 3C 3A 02 9F 90 47
44 3E 80 3C 00 01 A2 80 47 00 02 9D 90 41 62 01
84 80 41 00 12 90 41 4C 4C 80 41 00 1A 90 47 57
3E 90 48 5F 01 DA 80 48 00 19 80 47 00 68 90 43
38 5A 80 43 00 02 A7 90 47 55 01 A4 90 48 3F 56
80 47 00 01 84 80 48 00 18 90 48 54 02 C0 80 48
00 5F 90 47 4F 26 90 45 5F 01 A8 80 45 00 1C 80
47 00 03 CC 90 3C 5A 0F 90 40 58 24 90 45 5E 02
A0 80 3C 00 5F 80 40 00 4C 80 45 00 4E 90 48 62
3D 80 48 00 01 AC 90 45 42 01 E5 90 43 64 7A 80
45 00 01 95 80 43 00 07 C6 90 43 3C 3D 90 48 4A
01 BE 80 43 00 15 80 48 00 49 90 3C 48 01 DD 80
3C 00 01 8C 90 3C 4D 01 BB 80 3C 00 04 DD 90 3C
44 02 D3 80 3C 00 01 E8 90 41 53 01 FC 80 41 00
28 90 47 35 02 B0 90 45 36 77 80 47 00 01 A8 80
45 00 03 D3 90 41 5B 3F 90 41 45 5F 90 40 61 3C
80 41 00 1A 90 45 55 01 8F 90 41 61 13 90 40 50
09 90 3C 3C 36 80 45 00 09 80 41 00 04 80 3C 00
14 80 40 00 25 80 41 00 54 80 40 00 01 8D 90 3C
51 7C 90 41 35 68 90 45 45 5C 90 3C 5C 22 80 41
00 11 90 3E 60 54 80 45 00 01 80 3C 00 01 8D 90
3C 5E 58 80 3C 00 29 90 3E 60 2E 80 3E 00 06 90
3C 32 01 ED 80 3E 00 34 80 3C 00 01 A8 80 3C 00
52 90 47 56 01 AF 80 47 00 23 90 3C 3E 49 90 40
43 5F 80 40 00 01 AE 80 3C 00 01 C2 90 40 3E 01
BD 80 40 00 0A 90 45 53 01 9D 90 3E 4B 01 8F 90
3E 3E 5E 90 3C 47 23 80 3E 00 10 90 40 63 02 80
45 00 0B 80 3E 00 02 AE 80 3C 00 36 80 40 00 01
A6 90 3C 61 1E 90 45 62 01 A3 80 3C 00 01 FF 90
43 42 1E 80 45 00 66 90 3C 36 0D 90 41 5D 13 80
43 00 4B 90 47 3C 01 A5 80 41 00 03 80 3C 00 6A
90 40 5E 01 A0 80 47 00 74 90 48 5B 28 90 3C 4F
6A 80 3C 00 01 80 40 00 01 8E 90 43 5B 15 90 47
37 0F 90 3E 40 0A 80 48 00 01 C3 90 43 3A 25 80
3E 00 45 80 47 00 32 90 45 36 09 80 43 00 09 80
43 00 01 95 80 45 00 72 90 45 3D 01 83 90 40 4A
2D 90 45 52 2C 90 45 5B 11 80 45 00 4D 80 40 00
25 80 45 00 15 80 45 00 04 DF 90 45 44 02 A5 80
45 00 01 FE 90 47 3F 19 90 3C 34 01 CD 80 3C 00
1C 80 47 00 48 90 41 43 01 87 90 45 42 2C 90 40
5C 47 80 41 00 07 80 45 00 41 90 41 59 01 BC 90
3C 52 0B 80 40 00 01 B5 80 41 00 58 90 3C 43 27
80 3C 00 01 E2 80 3C 00 08 90 41 46 33 90 43 36
2E 90 43 63 01 FE 90 48 3E 1F 80 43 00 26 80 41
00 02 80 43 00 18 90 43 51 2D 80 48 00 13 80 43
00 1B 90 3C 41 42 80 3C 00 02 A0 90 3C 4D 01 A9
80 3C 00 01 FD 90 45 5B 11 90 3E 35 01 C8 80 3E
00 01 8C 80 45 00 07 90 90 3E 50 01 D1 90 3E 36
04 80 3E 00 0B 90 41 4F 3D 90 3E 41 1B 90 3C 39
01 80 90 3E 49 14 90 47 47 2B 80 41 00 4E 80 47
00 45 80 3C 00 00 80 3E 00 3C 80 3E 00 24 80 3E
00 0F 90 47 3F 01 83 80 47 00 6B 90 48 3D 01 C0
80 48 00 23 90 40 38 01 B7 90 48 39 3F 90 48 63
01 8D 80 40 00 44 80 48 00 29 90 47 40 5F 80 48
00 57 90 3E 41 66 80 3E 00 01 C1 80 47 00 01 C9
90 45 54 3C 80 45 00 4E 90 3E 58 67 90 47 4B 23
80 3E 00 01 B8 80 47 00 05 91 90 3E 63 02 D6 90
40 47 02 80 3E 00 01 9D 80 40 00 03 F7 90 40 41
02 A0 90 3E 32 57 90 40 34 2E 90 45 5C 2B 80 40
00 28 90 43 4E 19 80 45 00 24 80 3E 00 01 98 80
43 00 6B 80 40 00 39 90 43 47 01 A9 80 43 00 02
CD 90 3E 38 03 BC 80 3E 00 55 90 40 58 02 CE 80
40 00 70 90 3C 43 02 95 80 3C 00 05 90 48 5D 01
D2 80 48 00 36 90 40 3D 02 C8 80 40 00 01 81 90
41 38 02 9C 80 41 00 6B 90 45 4D 03 9D 80 45 00
0C 90 47 53 47 80 47 00 05 E3 90 40 5A 67 80 40
00 0B 90 40 4C 01 DE 80 40 00 1B 90 48 3A 2B 90
47 38 6C 80 48 00 02 A7 90 3E 41 1D 80 47 00 3A
90 48 5C 01 85 90 41 58 05 90 3E 43 7A 80 3E 00
26 80 41 00 0B 80 48 00 6B 80 3E 00 1A 90 41 43
01 AB 80 41 00 01 CB 90 43 46 58 90 41 5D 05 90
3E 5E 0E 80 43 00 01 8F 90 3E 48 15 90 45 45 5D
80 41 00 6D 80 3E 00 7E 80 3E 00 7D 80 45 00 01
CC 90 43 38 09 90 43 51 01 DE 90 43 36 19 90 3E
42 6B 80 43 00 05 80 43 00 0A 80 3E 00 6F 80 43
00 5F 90 3C 33 01 E0 80 3C 00 67 90 3E 64 01 D4
90 40 5C 06 80 3E 00 01 DB 90 43 3F 5A 80 40 00
02 EF 80 43 00 03 F0 90 3E 57 01 CC 90 48 62 01
F9 80 3E 00 65 80 48 00 03 E9 90 45 4B 6D 80 45
00 7D 90 3E 41 3D 80 3E 00 02 C8 90 43 3F 02 9D
80 43 00 01 E5 90 3C 3B 78 80 3C 00 62 90 41 4A
54 90 41 55 10 90 3E 5B 0D 80 41 00 38 90 45 48
31 90 41 48 58 90 48 59 26 80 41 00 57 80 48 00
0F 80 3E 00 23 90 43 57 27 80 45 00 5A 80 41 00
01 C2 80 43 00 02 A8 90 47 4A 01 94 90 43 5F 03
80 47 00 72 80 43 00 50 90 48 3D 4E 90 43 50 46
90 40 55 64 80 43 00 17 80 48 00 12 90 47 3D 17
90 45 40 28 80 40 00 01 AC 90 47 5A 62 90 3C 55
2D 80 47 00 15 80 45 00 41 80 47 00 22 80 3C 00
02 DA 90 40 59 01 B1 80 40 00 01 EC 90 3E 4C 1A
90 47 3E 3D 90 41 4E 02 C0 80 3E 00 12 80 47 00
51 80 41 00 04 A8 90 47 5E 46 90 3E 4E 1D 90 48
42 2D 80 47 00 76 80 3E 00 26 80 48 00 04 8B 90
40 38 3F 80 40 00 61 90 3C 33 43 90 3C 3A 67 90
41 43 02 80 3C 00 1C 80 3C 00 5F 80 41 00 10 90
41 5E 01 8F 80 41 00 03 83 90 47 42 01 D7 90 40
60 0A 80 47 00 5E 80 40 00 01 B6 90 45 52 05 90
3C 5B 59 90 48 3D 60 80 45 00 2F 80 3C 00 01 B1
80 48 00 02 9C 90 3C 53 01 B4 80 3C 00 55 90 41
4C 0A 90 41 59 01 EE 80 41 00 1C 80 41 00 38 90
48 3B 01 B9 80 48 00 19 90 3C 32 01 A8 90 43 64
4A 90 48 38 57 80 3C 00 78 90 40 50 5D 80 48 00
68 80 43 00 25 90 48 49 17 80 40 00 6F 90 43 50
02 CC 80 48 00 56 90 45 44 2A 80 43 00 01 C9 80
45 00 02 D7 90 41 4D 4A 90 3C 4E 47 90 3E 3F 61
80 41 00 25 80 3C 00 01 A9 80 3E 00 60 90 48 4F
30 90 47 60 23 90 45 42 07 90 43 4B 18 80 48 00
74 90 40 37 1E 80 47 00 10 80 45 00 02 A1 80 43
00 1D 90 48 4E 07 80 40 00 6B 80 48 00 72 90 41
3F 01 B4 80 41 00 01 AD 90 40 32 02 8D 80 40 00
03 C4 90 3C 34 15 90 48 5A 01 A5 90 45 37 57 80
45 00 59 80 3C 00 42 80 48 00 06 90 3E 5A 10 90
43 5D 01 85 80 3E 00 42 80 43 00 01 E5 90 43 36
22 90 40 40 07 90 43 61 74 90 40 44 34 80 43 00
10 80 43 00 2F 80 40 00 4E 80 40 00 36 90 3E 4E
01 F1 80 3E 00 3B 90 3E 40 0A 90 3C 5C 38 80 3E
00 5B 80 3C 00 24 90 43 5D 02 9C 80 43 00 01 8B
90 41 4C 01 F1 80 41 00 02 89 90 47 4D 3C 80 47
00 01 C7 90 48 54 27 90 40 4A 01 C6 80 40 00 01
9F 80 48 00 32 90 47 47 2F 90 3E 51 01 B3 90 40
3F 08 90 43 38 74 80 3E 00 26 80 43 00 00 90 45
3B 37 80 40 00 13 80 47 00 63 90 45 4F 1C 80 45
00 1C 90 43 4F 44 80 43 00 23 80 45 00 14 90 45
61 01 8F 80 45 00 46 90 3C 5E 01 97 90 40 32 4F
90 45 63 51 90 47 34 0B 90 47 49 1E 80 45 00 02
80 40 00 29 90 41 49 13 80 3C 00 01 A2 80 41 00
46 90 43 4A 59 80 47 00 0C 80 47 00 19 90 48 5B
01 E7 80 43 00 0E 80 48 00 03 E8 90 3E 52 02 A5
80 3E 00 01 A9 90 3C 62 4B 80 3C 00 2E 90 45 32
01 93 90 47 62 0C 90 45 3B 10 90 45 4D 0C 90 43
4C 59 90 47 36 10 80 45 00 01 87 90 41 3D 0E 80
45 00 03 80 47 00 16 90 43 51 5F 80 45 00 40 80
47 00 05 80 43 00 33 80 43 00 48 80 41 00 01 98
90 43 5B 02 80 80 43 00 01 D7 90 43 4B 01 A4 90
3C 52 66 80 43 00 0E 90 3C 46 45 80 3C 00 01 80
3C 00 7B 90 45 4C 21 90 47 54 02 80 80 45 00 77
90 3C 53 2E 80 47 00 3F 80 3C 00 02 92 90 45 32
79 90 45 36 01 A6 90 40 49 10 80 45 00 22 80 45
00 02 88 90 40 3D 61 80 40 00 48 80 40 00 03 99
90 3C 4A 02 F9 80 3C 00 02 9D 90 3E 4F 5B 90 3E
37 44 90 45 5A 50 80 45 00 25 80 3E 00 0B 90 48
38 0E 80 3E 00 34 80 48 00 1D 90 41 53 01 A0 80
41 00 02 C4 90 41 5A 67 80 41 00 01 FF 90 43 46
01 F7 80 43 00 01 9D 90 40 60 3C 90 47 63 64 80
40 00 0E 80 47 00 03 D2 90 43 5C 46 90 40 39 01
AC 90 47 4A 13 80 40 00 4C 80 43 00 02 91 80 47
00 02 E2 90 40 44 40 90 43 41 02 9D 80 43 00 3A
80 40 00 05 D0 90 45 56 2F 90 47 49 08 90 41 47
02 93 80 45 00 00 80 41 00 09 90 40 4C 62 80 47
00 40 80 40 00 01 CB 90 47 4C 02 A6 90 3E 4C 29
80 47 00 01 8E 80 3E 00 01 FE 90 3C 4A 01 81 90
3C 44 5B 90 3E 34 47 80 3C 00 01 A0 80 3C 00 18
80 3E 00 56 90 3E 4D 4B 90 40 4A 01 C9 80 3E 00
01 A7 80 40 00 6A 90 45 54 02 FD 80 45 00 02 E9
90 3C 5F 6F 80 3C 00 02 D5 90 3E 42 03 BA 80 3E
00 6D 90 3E 64 46 80 3E 00 01 D2 90 41 48 07 90
43 46 26 90 47 4B 7E 90 47 4B 6A 90 48 60 30 80
41 00 14 80 47 00 75 90 43 63 0C 80 43 00 48 80
48 00 50 80 47 00 70 80 43 00 04 93 90 40 35 45
90 40 54 01 D0 90 47 5C 3D 80 47 00 08 90 40 52
0F 80 40 00 06 90 40 33 42 80 40 00 20 80 40 00
3F 80 40 00 22 90 43 42 74 80 43 00 05 F2 90 3C
63 2C 90 47 38 01 B1 90 3C 54 59 80 47 00 28 80
3C 00 0C 80 3C 00 01 EC 90 3E 55 01 C3 80 3E 00
38 90 47 44 37 90 3C 62 0C 80 47 00 7F 80 3C 00
03 B7 90 3C 5F 15 90 3E 4C 4B 90 43 4C 7A 90 45
46 3A 80 3E 00 50 80 43 00 42 80 3C 00 77 80 45
00 01 B8 90 47 37 6E 90 48 5D 6B 90 43 45 23 90
40 38 1E 80 48 00 09 90 3C 4C 52 90 41 62 13 80
47 00 12 80 43 00 6A 90 47 43 07 80 41 00 05 90
45 41 51 80 47 00 1A 80 40 00 39 90 40 54 15 80
3C 00 01 8E 90 41 59 0F 80 45 00 2A 90 40 38 31
80 40 00 01 8B 90 3E 46 65 80 41 00 64 80 40 00
4E 80 3E 00 6F 90 40 5F 41 90 45 32 1C 90 3E 5A
19 90 48 34 6E 80 40 00 17 80 45 00 06 80 48 00
12 90 3E 5C 7D 90 47 4B 39 80 3E 00 43 80 3E 00
0C 80 47 00 28 90 41 3D 1A 90 43 52 54 80 41 00
40 90 45 64 19 90 3E 37 02 80 43 00 01 CA 80 3E
00 2B 90 3C 3D 01 A3 80 3C 00 0D 90 3C 4D 14 80
45 00 02 B8 80 3C 00 4F 90 41 5A 74 80 41 00 02
A2 90 48 55 15 90 41 4B 01 B3 90 41 40 3D 80 41
00 1D 80 48 00 02 90 41 39 61 80 41 00 38 90 48
63 33 80 41 00 5D 90 47 56 59 80 47 00 25 80 48
00 02 DC 90 43 59 2F 90 41 62 6B 90 47 35 01 8F
80 47 00 5E 80 41 00 1B 90 41 4B 06 80 43 00 03
C4 80 41 00 01 B9 90 43 3D 62 90 41 52 27 90 41
54 35 90 43 42 1F 80 41 00 67 80 41 00 0B 80 43
00 01 EB 80 43 00 57 90 47 5A 1A 90 48 39 01 A6
80 47 00 01 F6 80 48 00 2F 90 47 62 01 96 90 41
36 14 80 47 00 27 90 40 47 39 90 48 3E 3A 80 40
00 15 80 41 00 73 80 48 00 02 A0 90 3E 5C 26 90
43 41 6E 90 48 40 45 80 43 00 17 80 3E 00 2B 80
48 00 22 90 45 4C 70 90 43 40 6D 80 45 00 73 90
45 36 01 91 90 48 3C 41 80 43 00 01 9A 90 40 53
12 80 45 00 40 90 45 4D 3D 80 40 00 14 80 45 00
20 80 48 00 03 EA 90 3C 59 01 84 80 3C 00 02 83
90 43 34 42 90 3C 34 64 80 43 00 04 80 3C 00 10
90 41 5D 01 BC 90 45 32 63 90 43 57 07 90 43 4C
70 80 45 00 1F 80 43 00 15 80 41 00 01 83 80 43
00 19 90 45 3F 5A 90 40 4A 11 90 47 39 21 80 45
00 01 8B 80 47 00 04 80 40 00 03 8A 90 45 4F 01
F0 80 45 00 79 90 41 45 01 FC 80 41 00 13 90 3C
46 02 85 90 3C 58 60 80 3C 00 6E 80 3C 00 02 90
47 5F 3C 90 3E 46 01 8F 80 3E 00 01 F1 80 47 00
01 ED 90 3C 5F 09 90 43 39 02 E2 80 43 00 39 80
3C 00 16 90 47 5C 01 8A 80 47 00 01 E9 90 43 5F
01 C2 80 43 00 00 90 48 4B 77 80 48 00 31 90 3C
35 02 BF 80 3C 00 3D 90 43 61 42 90 43 33 01 D9
90 41 34 3B 90 47 45 02 80 43 00 29 90 48 3C 1C
80 41 00 0D 80 43 00 16 90 43 4D 20 80 47 00 01
98 80 48 00 5D 80 43 00 02 A1 90 43 35 01 F9 80
43 00 01 E5 90 41 3C 3C 90 3C 3F 01 D1 90 40 52
15 90 41 56 78 80 3C 00 04 80 41 00 01 90 3C 5B
30 80 41 00 15 80 40 00 2A 90 45 3E 02 89 80 3C
00 01 B8 90 43 3A 01 80 45 00 34 90 41 47 01 E2
80 41 00 0D 90 41 3A 76 80 43 00 18 90 45 45 17
80 41 00 02 DA 90 3C 61 08 80 45 00 71 80 3C 00
04 F3 90 3C 49 29 90 47 50 01 8E 80 3C 00 17 90
3E 40 34 80 47 00 01 90 90 45 4B 1B 90 45 47 4E
80 3E 00 01 99 80 45 00 09 90 41 55 17 80 45 00
01 C5 90 47 60 08 80 41 00 01 DC 80 47 00 04 92
90 3E 4C 32 90 43 34 35 80 3E 00 01 80 80 43 00
01 CC 90 43 3D 01 C2 80 43 00 01 93 90 45 55 5F
80 45 00 01 E1 90 43 51 4F 90 45 54 4D 90 47 5C
38 80 45 00 03 80 43 00 02 AA 80 47 00 01 EC 90
45 61 01 A7 90 41 61 01 99 80 41 00 7D 90 40 4F
20 80 45 00 2B 80 40 00 0A 90 47 47 01 B5 90 43
50 01 8F 90 48 3F 06 90 48 60 26 80 47 00 25 80
48 00 2A 90 3C 43 38 80 43 00 57 80 3C 00 62 80
48 00 04 F2 90 45 4E 02 9D 80 45 00 17 90 47 48
01 E1 80 47 00 47 90 47 56 70 90 45 46 18 90 41
52 4E 80 47 00 6C 80 45 00 14 90 48 59 53 90 47
5D 2A 80 48 00 35 80 47 00 5D 80 41 00 01 F4 90
43 44 01 A6 90 3C 47 5A 90 3E 41 0A 80 43 00 39
80 3C 00 01 B9 80 3E 00 02 93 90 43 45 01 94 90
47 57 5E 80 43 00 01 F3 90 48 55 58 80 47 00 7E
80 48 00 25 90 3E 3D 02 D3 90 43 45 42 90 41 50
48 80 3E 00 24 90 3C 47 37 90 43 5C 21 80 3C 00
6D 80 43 00 47 80 41 00 4C 90 47 33 18 80 43 00
60 80 47 00 77 90 3C 54 03 AC 80 3C 00 02 BE 90
47 5F 72 80 47 00 02 C1 90 48 35 24 90 47 4C 7F
90 47 3F 5E 80 47 00 55 80 47 00 1F 80 48 00 01
C7 90 45 62 5E 90 47 5F 4D 80 47 00 53 80 45 00
06 90 40 5C 02 80 80 40 00 13 90 47 3E 02 9C 80
47 00 02 FD 90 45 5F 01 9F 90 48 41 3D 80 45 00
3E 80 48 00 02 FF 90 43 42 01 C9 90 3E 3E 49 80
3E 00 03 80 43 00 72 90 43 58 73 90 3C 64 0C 90
43 53 77 80 43 00 01 C2 80 43 00 01 97 80 3C 00
01 90 90 43 5B 02 B0 90 45 40 23 80 43 00 17 90
43 47 70 80 45 00 21 90 3C 5B 01 A0 80 43 00 20
90 47 54 01 F8 80 3C 00 21 80 47 00 01 88 90 48
55 03 BE 80 48 00 27 90 43 52 55 90 47 59 01 81
80 47 00 01 AC 90 41 3E 22 80 43 00 34 80 41 00
02 B2 90 47 61 7D 90 43 41 01 C4 80 47 00 43 80
43 00 01 F4 90 43 59 7E 90 40 5D 01 AA 80 43 00
01 B2 80 40 00 6C 90 48 32 01 A3 80 48 00 2C 90
45 45 02 C6 80 45 00 70 90 3C 32 03 D8 80 3C 00
03 F6 90 3C 3F 44 80 3C 00 02 90 48 5B 02 99 80
48 00 02 DE 90 41 3B 02 8A 90 45 48 01 AF 80 41
00 01 FB 80 45 00 01 E0 90 41 42 7F 90 47 50 01
D7 80 41 00 34 90 40 58 24 80 47 00 02 DE 80 40
00 0C 90 47 57 01 BE 90 41 5C 17 90 3C 41 28 90
3C 3A 16 80 41 00 58 80 47 00 01 F7 80 3C 00 36
80 3C 00 77 90 48 64 02 C2 80 48 00 01 8D 90 48
45 02 AB 90 43 3F 0E 80 48 00 02 AA 90 43 46 1C
80 43 00 2F 80 43 00 01 83 90 47 45 6C 90 3E 64
71 80 47 00 5A 80 3E 00 07 90 3C 53 02 92 90 45
3B 35 80 3C 00 27 90 43 59 02 A5 90 3C 47 3B 90
3C 43 0D 80 45 00 1E 90 45 57 11 80 43 00 31 90
48 39 01 C8 80 3C 00 09 80 48 00 1F 90 41 3C 2A
80 45 00 12 80 3C 00 01 DF 90 3E 3A 01 83 80 41
00 55 80 3E 00 22 90 40 33 50 80 40 00 01 8F 90
45 62 01 C2 80 45 00 29 90 48 4D 60 90 40 3E 2E
80 48 00 17 90 41 5C 61 80 41 00 5F 80 40 00 01
BF 90 3C 54 77 90 48 63 02 CC 90 3C 57 06 80 3C
00 4C 80 48 00 01 80 90 43 5A 01 B1 90 3E 43 35
80 3C 00 2D 80 3E 00 1A 90 40 5F 19 80 43 00 16
90 40 35 01 B9 80 40 00 0F 90 48 48 38 80 40 00
32 80 48 00 03 E6 90 43 38 3F 90 40 33 02 F2 80
43 00 51 80 40 00 01 9E 90 43 5C 30 90 43 53 6F
90 3E 4B 4D 80 43 00 3E 80 3E 00 01 AC 80 43 00
01 90 43 4C 02 B2 90 3E 4F 01 A3 80 43 00 17 80
3E 00 04 FA 90 41 36 68 80 41 00 01 92 90 43 4F
01 8F 80 43 00 75 90 3E 3A 03 B2 80 3E 00 02 97
90 45 61 39 90 40 58 01 8D 80 40 00 21 80 45 00
01 E4 90 3C 4E 15 90 40 63 01 C4 80 40 00 58 80
3C 00 16 90 43 54 02 ED 80 43 00 0E 90 40 5D 01
AE 90 3C 46 02 AE 80 40 00 0D 80 3C 00 01 F8 90
41 4A 56 80 41 00 01 BF 90 45 5C 01 A6 90 3E 4F
0C 80 45 00 10 90 3E 36 01 8D 80 3E 00 71 80 3E
00 01 BF 90 41 62 01 C6 90 3C 3B 7B 80 41 00 11
80 3C 00 01 BF 90 43 4F 5E 90 40 48 45 80 43 00
01 AB 90 47 50 1F 90 3C 41 5F 80 40 00 0C 90 48
52 10 90 47 42 01 9A 80 48 00 29 80 3C 00 46 80
47 00 0F 90 3C 3D 01 A7 80 47 00 49 80 3C 00 02
E7 90 48 34 01 83 80 48 00 01 8E 90 43 49 01 C8
90 47 41 1C 80 43 00 36 80 47 00 02 C7 90 48 5D
3E 90 3C 64 02 9B 90 3C 34 31 80 48 00 11 90 43
34 18 80 3C 00 05 80 3C 00 03 BD 80 43 00 03 B5
90 3E 58 01 D5 80 3E 00 01 F7 90 3E 63 65 90 3E
59 1B 80 3E 00 7D 90 45 5A 3C 90 41 57 79 80 45
00 6C 80 41 00 24 80 3E 00 37 90 43 52 68 80 43
00 04 90 48 47 01 80 80 48 00 07 C5 90 47 60 73
90 41 43 68 80 47 00 50 80 41 00 01 B2 90 41 54
01 E0 80 41 00 03 8C 90 47 50 28 90 41 53 75 90
43 50 52 80 41 00 59 80 47 00 7A 80 43 00 06 A0
90 3E 51 33 90 3E 61 01 C3 80 3E 00 04 90 47 57
0D 80 3E 00 01 9C 90 47 3E 02 81 80 47 00 22 80
47 00 26 90 45 5C 01 EC 80 45 00 67 90 47 3E 02
B7 80 47 00 01 EE 90 3C 33 08 90 48 40 3B 90 41
3A 44 80 41 00 0E 90 47 4C 6A 80 3C 00 30 80 47
00 02 90 48 44 06 90 47 43 0D 80 48 00 01 FC 80
47 00 01 BD 80 48 00 68 90 41 5E 02 AE 90 40 57
1C 80 41 00 1D 90 40 52 7C 80 40 00 01 C7 80 40
00 07 90 3E 3B 7C 80 3E 00 01 A8 90 41 64 36 90
3C 5D 23 90 40 5E 19 80 3C 00 01 D4 80 41 00 04
90 3C 40 7F 80 3C 00 3F 80 40 00 01 E5 90 47 42
03 9F 80 47 00 01 DA 90 47 58 02 9A 80 47 00 33
90 3E 5D 69 80 3E 00 53 90 48 44 61 90 45 59 5A
80 45 00 6D 80 48 00 1A 90 48 35 4E 90 40 54 4C
90 3C 4A 1F 80 40 00 34 80 48 00 01 F1 80 3C 00
01 AF 90 40 38 01 AE 80 40 00 03 AF 90 41 54 02
F1 80 41 00 02 8D 90 40 45 02 89 80 40 00 03 83
90 43 56 01 9B 90 48 45 3F 80 48 00 01 98 80 43
00 2C 90 47 3B 03 D5 80 47 00 21 90 47 4F 01 D5
90 48 41 00 90 3C 37 51 90 43 33 20 80 48 00 7B
80 47 00 43 80 3C 00 47 90 47 4F 09 80 43 00 2E
90 40 52 7B 90 3C 48 3E 80 47 00 01 9A 90 48 5F
32 90 41 48 0B 80 40 00 18 80 3C 00 10 90 43 5C
66 90 43 62 5D 80 41 00 69 80 43 00 1C 80 48 00
01 A2 90 3E 36 38 90 40 4C 01 80 43 00 01 DA 80
40 00 01 90 47 57 3C 80 47 00 2B 80 3E 00 01 81
90 3C 5B 01 8F 90 3E 43 3A 90 47 37 01 A2 80 3C
00 5C 90 3C 44 06 80 3E 00 5E 80 47 00 02 D0 80
3C 00 01 9E 90 43 55 01 BE 90 47 4B 0F 90 3E 58
38 80 47 00 6D 80 43 00 03 90 3E 37 61 80 3E 00
01 A4 90 3C 4B 4C 80 3C 00 06 90 45 61 3A 80 3E
00 02 CA 90 43 44 49 80 45 00 74 90 45 49 24 80
43 00 0C 90 41 3D 01 A2 80 45 00 1C 90 45 43 01
8F 80 41 00 01 DD 80 45 00 01 E2 90 45 41 7F 90
47 58 73 80 45 00 01 A3 80 47 00 01 DD 90 3E 53
53 90 3C 52 01 84 90 48 39 55 90 41 56 59 80 3E
00 04 90 48 33 4F 80 48 00 45 80 3C 00 13 90 48
3B 1D 80 41 00 01 DE 80 48 00 43 80 48 00 2F 90
3C 52 01 8F 90 43 4E 15 90 48 40 30 90 3C 4E 01
8B 90 45 58 21 80 3C 00 3E 80 3C 00 11 90 47 53
06 80 43 00 5F 80 48 00 58 90 47 64 0F 80 45 00
01 FA 80 47 00 62 80 47 00 07 90 43 4D 02 CB 90
40 39 0D 80 43 00 01 A4 80 40 00 7C 90 3C 55 02
DF 80 3C 00 0C 90 43 4D 02 C6 90 40 48 30 90 45
63 3E 80 43 00 46 80 40 00 29 90 3C 57 63 90 47
5F 61 90 40 33 18 80 45 00 39 80 47 00 08 90 45
63 27 80 3C 00 01 C6 80 40 00 01 E3 90 41 61 0D
80 45 00 36 90 41 62 3F 80 41 00 7E 80 41 00 25
90 40 4D 02 80 90 40 50 01 84 80 40 00 12 90 45
64 26 90 40 5F 6F 80 40 00 0C 80 40 00 10 80 45
00 44 90 41 54 5C 90 41 60 01 D8 90 43 61 17 80
41 00 32 90 47 40 13 80 43 00 10 80 41 00 01 B4
80 47 00 64 90 3E 57 57 90 48 55 72 90 3C 48 07
90 3E 64 01 93 90 43 53 02 80 3E 00 27 80 48 00
0C 90 43 33 5F 90 48 34 05 80 43 00 17 80 43 00
15 80 3C 00 1F 80 3E 00 0E 80 48 00 04 A7 90 43
49 5F 90 47 45 01 8A 80 47 00 76 80 43 00 02 B1
90 45 4D 01 80 80 45 00 01 8A 90 3C 3A 29 90 48
4E 01 8E 90 45 64 02 80 48 00 0A 80 3C 00 02 F2
80 45 00 05 B0 90 48 36 01 C7 80 48 00 07 C8 90
40 3D 02 CE 90 3C 47 53 80 40 00 01 8C 80 3C 00
01 8C 90 40 47 03 9F 80 40 00 51 90 40 62 13 90
48 56 01 E6 90 3E 3E 6C 80 40 00 27 80 48 00 01
94 80 3E 00 0B 90 45 61 6A 90 43 49 50 80 43 00
2F 90 48 44 01 96 80 48 00 03 80 45 00 04 86 90
45 63 09 90 3E 4A 6D 80 45 00 6E 90 43 5E 35 90
40 47 1E 90 47 5E 1E 80 43 00 0A 80 3E 00 76 80
40 00 01 E6 80 47 00 01 BD 90 40 56 06 90 3E 4D
4C 80 3E 00 0F 90 43 3A 24 90 43 57 01 DA 80 43
00 6A 80 40 00 33 80 43 00 47 90 41 63 77 90 47
48 70 80 41 00 14 80 47 00 01 A5 90 43 4D 01 B6
80 43 00 52 90 48 4A 03 88 80 48 00 53 90 41 3A
01 B9 90 48 4A 01 E4 80 41 00 3C 80 48 00 03 A9
90 48 35 01 B7 80 48 00 01 BC 90 3C 32 01 99 80
3C 00 03 B7 90 47 3E 01 FC 80 47 00 03 D0 90 48
5C 35 90 3C 4E 01 B6 80 48 00 43 90 40 57 01 C8
80 3C 00 3D 80 40 00 34 90 43 49 02 AA 90 3E 4D
54 80 43 00 58 80 3E 00 0B 90 48 3F 01 CB 90 48
4D 01 8A 90 43 32 3D 80 48 00 0E 90 41 61 06 80
48 00 76 90 3E 41 3D 80 3E 00 0A 80 43 00 01 A6
80 41 00 2C 90 45 4F 71 90 3C 4E 46 90 41 45 01
E9 80 45 00 13 90 45 59 44 90 43 3A 3A 80 3C 00
08 80 41 00 16 80 43 00 02 9F 90 3E 62 0A 80 45
00 01 A3 80 3E 00 05 C7 90 43 32 02 D1 90 3E 56
10 90 48 32 69 80 43 00 07 80 3E 00 01 F0 80 48
00 60 90 41 5D 16 90 41 56 30 80 41 00 6A 90 40
37 32 90 45 64 18 90 3E 40 13 90 45 32 38 80 3E
00 61 80 45 00 08 80 41 00 48 80 40 00 7A 90 3C
45 0D 80 45 00 07 90 40 4D 3C 80 40 00 01 D3 80
3C 00 09 B7 90 41 33 5F 80 41 00 02 90 3C 5A 01
EF 90 41 58 0B 90 45 34 69 90 43 40 2D 80 3C 00
5B 80 45 00 7D 80 41 00 1E 90 47 62 08 90 3E 32
23 90 3E 35 52 80 47 00 2C 80 3E 00 0E 80 43 00
01 BD 80 3E 00 02 FD 90 45 5D 18 90 40 3C 02 97
80 45 00 1E 90 3C 3A 57 80 40 00 0E 90 3E 59 2B
80 3C 00 01 F9 90 41 55 01 80 3E 00 01 A3 80 41
00 5C 90 43 34 02 C7 80 43 00 01 B5 90 3E 52 01
D9 80 3E 00 03 F4 90 41 45 2A 90 41 52 4D 90 3C
50 31 90 40 45 07 90 3E 5C 0F 80 41 00 48 90 47
4E 09 80 41 00 2A 80 40 00 35 90 45 4C 27 90 45
4A 09 80 47 00 4A 80 3C 00 0F 80 45 00 0B 80 3E
00 40 90 40 4D 01 8C 80 40 00 6E 80 45 00 05 B9
90 47 3D 01 C1 80 47 00 02 C9 90 43 57 2E 90 48
47 01 C2 90 41 5E 18 90 47 41 28 80 43 00 60 90
41 62 18 80 48 00 20 80 41 00 4D 80 47 00 01 D5
80 41 00 01 E2 90 41 4B 01 8F 90 3E 62 05 90 45
59 43 80 41 00 01 93 80 45 00 01 D8 80 3E 00 02
B8 90 45 5E 01 B9 80 45 00 03 FD 90 3C 58 19 90
3C 3F 01 EF 90 48 39 1D 90 48 48 57 80 3C 00 28
80 3C 00 4B 80 48 00 0E 90 3E 63 29 80 48 00 01
86 90 3E 36 0E 80 3E 00 02 83 90 3E 58 01 B0 80
3E 00 2C 80 3E 00 75 90 40 55 02 CE 90 47 44 38
80 40 00 25 90 43 63 3F 90 48 3A 5F 80 43 00 15
90 47 5A 1A 80 47 00 2F 80 48 00 04 90 3E 4C 00
90 48 40 2C 90 47 56 4E 90 43 5E 00 90 43 33 13
80 48 00 0E 80 3E 00 6D 90 45 58 04 90 47 40 12
80 47 00 63 80 47 00 01 8C 80 47 00 14 80 43 00
0F 90 43 4C 01 90 3C 3B 06 80 43 00 1B 90 3C 41
30 90 43 45 08 90 47 60 04 80 3C 00 18 80 45 00
25 80 47 00 3D 80 43 00 1A 90 3C 37 01 9E 80 3C
00 2E 80 3C 00 1B 80 43 00 00 90 3C 49 55 90 43
39 01 EE 80 3C 00 64 80 43 00 3E 90 45 32 3A 90
3E 5C 12 80 45 00 1C 90 40 51 01 83 90 43 35 01
93 80 40 00 77 80 3E 00 25 90 3C 35 6B 90 43 36
01 80 3C 00 1C 80 43 00 5E 80 43 00 01 E7 90 3C
61 01 99 80 3C 00 20 90 41 5D 31 90 3E 4F 01 BD
90 41 3A 6B 80 41 00 1F 80 41 00 31 80 3E 00 51
90 40 51 02 E1 80 40 00 0A 90 45 43 2C 90 3E 4C
5D 80 45 00 02 8F 80 3E 00 01 90 90 45 36 1A 90
47 54 11 90 3E 3B 44 80 3E 00 01 80 45 00 75 80
47 00 16 90 47 5C 25 90 43 3C 49 80 43 00 6E 80
47 00 01 B4 90 43 42 01 93 90 43 55 65 90 48 60
28 90 40 49 24 80 43 00 4E 80 40 00 1A 80 43 00
13 90 45 5F 59 90 3C 3B 6B 90 3C 62 0F 80 3C 00
22 80 48 00 29 90 45 3F 1C 80 3C 00 01 90 3C 37
3B 80 45 00 62 80 45 00 02 90 43 56 3F 80 3C 00
1A 90 48 46 75 90 47 51 46 80 43 00 34 90 45 51
01 9D 80 48 00 07 80 45 00 12 90 40 37 4B 80 47
00 01 88 90 40 41 6F 80 40 00 07 80 40 00 2E 90
3E 40 6A 80 3E 00 02 FA 90 41 4E 4A 90 40 47 7F
80 41 00 75 90 48 5F 58 80 40 00 01 93 80 48 00
02 D8 90 45 55 01 82 90 48 61 66 90 48 53 01 CF
80 45 00 2D 80 48 00 16 80 48 00 01 D3 90 48 4F
46 80 48 00 38 90 3E 3C 01 C6 90 43 5C 70 80 3E
00 44 80 43 00 06 90 3E 37 44 80 3E 00 02 83 90
45 4D 02 8A 90 3C 47 60 90 40 56 1D 80 45 00 11
90 41 43 17 90 48 60 01 80 90 48 3A 46 80 3C 00
16 80 41 00 64 90 48 5E 37 90 3E 55 02 80 48 00
0B 80 40 00 4C 80 48 00 6F 90 48 4F 17 80 48 00
01 83 80 3E 00 17 90 48 33 01 9D 80 48 00 1D 90
40 56 1F 80 48 00 01 D5 80 40 00 69 90 48 49 01
81 80 48 00 02 FB 90 43 4E 4A 90 3C 40 6E 80 3C
00 6F 90 48 4F 16 80 43 00 02 FB 80 48 00 01 85
90 45 3A 01 A1 90 3E 4F 7F 90 3C 64 51 90 45 46
08 80 45 00 10 80 3E 00 10 80 3C 00 3B 90 48 53
26 80 45 00 3F 90 3E 41 74 80 3E 00 01 9A 90 47
59 41 80 47 00 26 80 48 00 1B 90 45 56 02 CA 90
3C 49 11 80 45 00 32 90 41 5C 01 A2 80 3C 00 01
E2 80 41 00 03 D8 90 3C 46 6E 80 3C 00 1C 90 3C
5C 6D 90 3E 40 01 A5 90 3C 56 14 80 3E 00 5B 80
3C 00 0B 90 40 4A 28 90 47 43 67 80 3C 00 01 C7
90 41 41 39 80 47 00 42 80 40 00 01 E3 90 3E 61
0F 90 45 3F 14 80 41 00 01 E6 90 41 56 26 90 41
5A 47 80 3E 00 07 90 41 36 4B 80 45 00 35 80 41
00 1B 80 41 00 02 95 90 45 47 24 80 41 00 06 90
47 59 19 80 45 00 02 9C 90 41 3D 01 9C 80 47 00
01 B5 80 41 00 01 9B 90 45 3F 5D 80 45 00 02 90
43 35 01 82 80 43 00 3C 90 40 4B 01 B2 90 41 5D
3F 90 47 43 67 80 47 00 62 80 40 00 01 C4 80 41
00 01 CE 90 41 5C 2D 90 47 32 3F 90 40 35 34 80
41 00 02 B1 80 47 00 25 80 40 00 6A 90 48 58 16
90 43 37 4B 80 48 00 24 90 45 3B 66 80 43 00 75
80 45 00 03 9A 90 43 57 01 C1 80 43 00 01 A1 90
45 48 01 E3 80 45 00 01 B6 90 47 60 01 A3 90 47
54 2B 80 47 00 0A 90 45 48 02 C5 80 47 00 36 90
3E 55 01 80 45 00 6A 80 3E 00 4A 90 41 36 5B 90
43 57 0D 80 41 00 01 B9 90 43 52 31 90 41 4D 01
D2 80 43 00 0E 80 41 00 39 90 48 40 4A 80 43 00
27 90 40 32 01 A7 80 40 00 69 80 48 00 6B 90 40
4C 02 D3 80 40 00 01 9C 90 47 42 28 90 48 51 30
80 47 00 01 9D 80 48 00 03 84 90 48 5F 37 90 40
5D 3E 80 40 00 4F 90 43 5F 40 80 48 00 40 90 3E
46 00 90 3E 3E 72 80 43 00 49 90 41 40 1D 90 41
3E 06 80 3E 00 7E 80 41 00 39 80 3E 00 79 80 41
00 01 9C 90 41 59 01 BB 80 41 00 01 87 90 48 41
01 8D 90 3C 3A 02 B4 80 48 00 01 A1 80 3C 00 7E
90 41 54 02 83 80 41 00 02 AB 90 45 38 02 D5 80
45 00 70 90 40 3C 01 CC 90 3E 63 01 86 80 3E 00
3F 80 40 00 5E 90 43 41 02 F2 80 43 00 0F 90 41
3C 01 EC 90 41 55 01 C5 80 41 00 2D 90 3C 4E 3A
90 45 64 69 80 41 00 02 90 41 37 20 90 43 37 21
80 45 00 5E 80 3C 00 01 D8 80 43 00 50 80 41 00
28 90 3E 56 03 8C 80 3E 00 4E 90 47 5B 01 94 90
40 5D 50 80 40 00 01 D0 80 47 00 02 C0 90 48 4A
01 9C 90 48 42 01 8C 90 3C 5E 31 80 48 00 23 80
3C 00 1C 90 48 41 05 80 48 00 7D 80 48 00 17 90
3C 44 49 90 43 60 44 90 41 5D 01 A5 80 43 00 59
80 3C 00 01 A2 80 41 00 05 8E 90 41 38 3C 90 45
3D 2B 90 41 5A 29 90 40 3D 78 80 41 00 01 89 80
45 00 10 80 41 00 06 90 3E 37 16 80 40 00 50 90
40 34 02 AC 80 3E 00 4A 80 40 00 05 9D 90 48 4E
26 90 40 33 02 9C 80 48 00 3A 80 40 00 04 FF 90
48 53 02 9A 80 48 00 01 91 90 43 48 64 80 43 00
02 D5 90 40 37 03 DF 80 40 00 06 C4 90 40 50 70
80 40 00 01 EB 90 48 44 01 95 90 3E 51 0D 80 48
00 01 FE 80 3E 00 03 8A 90 48 60 01 BF 90 47 4E
01 B6 80 47 00 28 80 48 00 05 F7 90 40 40 01 C4
90 47 43 01 B4 80 40 00 3B 90 41 59 51 80 47 00
01 86 90 48 3B 04 80 41 00 01 97 80 48 00 66 90
48 38 4A 80 48 00 07 92 90 41 3B 40 80 41 00 5A
90 48 62 51 90 40 3A 01 BF 90 48 54 6A 80 48 00
03 90 3E 3D 05 80 48 00 68 80 40 00 02 82 80 3E
00 01 83 90 48 4B 01 AB 90 43 58 70 80 43 00 05
90 3C 34 67 80 48 00 23 90 40 44 01 CB 90 47 4B
17 80 3C 00 6E 80 40 00 4A 90 47 4D 01 9E 80 47
00 02 98 80 47 00 01 93 90 43 49 03 BA 80 43 00
01 B6 90 40 4E 4F 90 41 4E 03 89 80 40 00 34 80
41 00 06 A4 90 3C 59 7B 90 43 56 01 81 80 43 00
0E 80 3C 00 03 D3 90 3C 58 01 B7 90 40 3B 01 84
80 3C 00 74 80 40 00 08 90 3C 4F 66 90 41 64 06
80 3C 00 02 C0 90 48 4F 47 90 48 4C 21 80 48 00
09 80 41 00 47 90 43 55 02 8A 80 43 00 3A 80 48
00 0A A9 90 47 48 2B 90 43 43 3C 90 48 3A 01 AC
90 43 53 15 80 47 00 77 90 3C 3E 29 80 43 00 56
80 48 00 2F 80 43 00 01 AB 80 3C 00 0C 90 43 5E
01 81 80 43 00 03 90 45 3E 02 A2 80 45 00 48 90
3E 41 01 C5 90 47 52 47 90 3E 54 6D 80 3E 00 26
80 3E 00 44 80 47 00 3C 90 41 49 0A 90 48 47 01
E4 80 48 00 12 80 41 00 1B 90 3C 41 02 CC 80 3C
00 50 90 47 53 41 90 48 4D 49 80 48 00 3A 90 40
3C 23 90 43 3F 5E 80 43 00 49 80 40 00 15 80 47
00 28 90 40 4B 51 80 40 00 1A 90 3C 47 59 90 43
41 01 D3 80 3C 00 62 90 40 5F 2F 90 40 40 23 90
3C 38 1B 80 43 00 42 90 48 47 6C 90 41 5F 45 90
48 41 1E 80 40 00 03 80 41 00 33 80 3C 00 10 80
40 00 11 90 41 39 29 80 48 00 33 90 3E 5A 5B 80
3E 00 4E 80 41 00 58 80 48 00 2C 90 3E 40 5C 80
3E 00 03 D8 90 40 43 62 90 40 5B 01 DC 80 40 00
01 9E 80 40 00 01 A3 90 41 4C 01 E3 90 47 54 02
80 41 00 01 BC 80 47 00 47 90 43 39 01 86 90 47
49 02 B7 80 43 00 33 80 47 00 01 D1 90 43 43 78
90 41 56 26 80 43 00 01 A7 90 41 41 10 80 41 00
0C 90 48 45 01 91 80 41 00 47 80 48 00 01 92 90
47 3A 60 90 43 64 1E 90 47 46 01 B5 80 43 00 1D
80 47 00 01 80 47 00 0C C4 90 48 4F 2E 90 45 43
01 BF 80 48 00 01 94 80 45 00 02 B6 90 45 4B 02
B5 80 45 00 03 90 45 45 68 90 3E 48 61 80 3E 00
7E 80 45 00 05 97 90 41 37 01 F5 90 43 3B 0D 80
41 00 5D 90 45 3B 73 90 47 52 69 80 43 00 49 80
45 00 27 80 47 00 03 B2 90 43 33 01 9C 90 47 4F
5B 80 43 00 02 BB 80 47 00 01 FA 90 3E 42 01 BD
90 48 4A 09 80 3E 00 01 93 90 43 5B 04 90 47 53
1C 80 48 00 01 BE 80 43 00 07 90 47 37 70 90 45
36 2D 80 47 00 0F 90 41 50 01 90 48 3B 28 90 48
43 27 80 41 00 24 90 41 5B 29 90 45 4B 0A 80 48
00 3A 80 41 00 02 80 47 00 3E 90 40 60 31 80 45
00 0B 90 41 36 1A 80 40 00 06 80 45 00 26 80 48
00 15 90 43 32 28 90 47 50 01 C2 80 41 00 11 80
47 00 46 90 48 35 2C 90 3E 58 2D 80 43 00 3E 90
40 5A 0E 90 45 3D 1B 80 3E 00 15 90 43 51 01 AE
80 45 00 18 80 48 00 3B 90 3C 36 49 80 40 00 2E
90 3C 58 41 90 41 58 23 80 43 00 1C 80 3C 00 65
80 3C 00 29 80 41 00 60 90 47 56 01 8C 80 47 00
01 DE 90 3E 61 29 90 45 5B 61 80 45 00 01 8E 90
48 46 01 8E 80 3E 00 52 90 41 4C 12 90 3E 43 4C
90 45 54 36 80 48 00 4E 80 45 00 10 90 47 4E 1C
80 3E 00 26 90 40 63 0A 90 47 55 4A 80 40 00 49
80 41 00 52 80 47 00 01 CF 80 47 00 03 88 90 3C
37 03 DF 80 3C 00 10 90 47 3A 01 BA 80 47 00 1C
90 40 43 05 90 41 33 28 90 3E 54 35 80 40 00 31
80 41 00 02 BA 80 3E 00 01 81 90 41 61 2A 90 45
5C 6E 80 45 00 01 DC 80 41 00 04 85 90 43 52 02
D6 80 43 00 01 BC 90 48 34 13 90 3E 3A 01 EB 80
3E 00 01 99 80 48 00 03 B4 90 45 54 01 C6 90 3C
38 1D 80 45 00 31 90 40 45 01 B2 80 40 00 42 80
3C 00 42 90 40 5B 02 EE 80 40 00 01 A0 90 40 4E
6E 90 43 46 58 80 40 00 01 90 40 5A 20 80 43 00
49 90 3C 3E 42 80 40 00 40 80 3C 00 01 D8 90 3C
57 7B 80 3C 00 1F 90 3E 57 01 A7 90 48 33 01 D2
90 45 51 27 90 3E 41 18 80 3E 00 05 80 48 00 52
90 48 3D 3F 80 45 00 2C 80 3E 00 60 80 48 00 01
DB 90 3C 64 61 90 47 4D 06 80 3C 00 02 AD 80 47
00 2D 90 45 59 33 90 48 58 01 E2 80 45 00 01 9E
80 48 00 01 C8 90 48 57 3A 90 40 33 30 80 48 00
01 E5 90 3C 56 01 81 80 40 00 01 C6 80 3C 00 05
8D 90 40 5B 35 90 40 3F 72 90 41 54 01 A7 80 40
00 01 88 80 40 00 49 80 41 00 01 B2 90 45 4F 47
90 3E 38 01 D3 80 3E 00 12 80 45 00 02 F4 90 40
40 6C 80 40 00 01 B1 90 43 59 4C 90 45 4D 02 A8
80 45 00 01 90 45 56 1C 80 43 00 30 90 3C 5A 78
80 3C 00 0E 90 47 48 0E 90 45 45 3D 80 47 00 3C
80 45 00 1F 80 45 00 17 90 3C 38 01 DF 80 3C 00
78 90 41 3E 01 C5 90 43 34 01 E9 80 41 00 01 BF
80 43 00 5D 90 3C 4E 45 80 3C 00 14 90 40 41 39
90 40 40 05 80 40 00 61 90 48 59 01 BD 80 40 00
1A 90 3E 4D 01 DB 80 48 00 37 80 3E 00 01 E7 90
48 53 6C 80 48 00 02 9C 90 3C 42 01 9B 90 45 45
6A 90 47 5D 1B 80 3C 00 76 90 40 4F 0F 90 45 5B
0F 90 3C 4D 20 90 45 49 59 80 40 00 0B 80 45 00
32 80 45 00 32 80 3C 00 36 90 45 5F 02 80 47 00
01 A3 80 45 00 01 90 80 45 00 01 EC 90 41 43 01
8E 90 45 38 59 90 41 50 16 90 47 42 32 80 41 00
4E 80 45 00 19 80 41 00 01 B2 90 47 36 35 80 47
00 61 80 47 00 04 80 90 40 34 01 CC 90 43 33 69
80 43 00 49 80 40 00 1E 90 45 50 0D 90 3C 64 03
90 80 3C 00 1A 80 45 00 2F 90 3E 3E 02 9C 80 3E
00 03 80 90 41 55 02 F9 80 41 00 7A 90 45 4E 61
90 41 42 01 9C 90 48 4E 75 80 48 00 4E 80 45 00
37 90 3E 33 0E 80 41 00 02 D4 80 3E 00 01 E8 90
3C 57 01 80 90 3E 41 14 80 3C 00 60 90 43 61 01
E7 90 47 4A 3D 90 47 53 22 80 3E 00 1D 80 47 00
06 90 3E 41 73 80 43 00 39 80 47 00 6B 80 3E 00
01 E0 90 40 61 04 90 48 33 05 90 47 5F 01 84 90
47 4D 01 8A 80 47 00 51 80 47 00 03 80 48 00 17
80 40 00 32 90 40 35 01 81 90 48 59 5A 80 40 00
01 F7 80 48 00 04 90 47 47 55 90 48 48 55 80 47
00 01 DC 80 48 00 01 C7 90 45 3D 4A 80 45 00 2D
90 41 55 0E 90 3C 34 02 FA 80 3C 00 2F 80 41 00
01 8E 90 40 5D 66 90 40 62 07 80 40 00 02 A9 90
41 63 01 AF 80 40 00 5B 80 41 00 09 90 47 44 73
80 47 00 03 F6 90 40 47 01 C4 90 3C 3C 01 8D 80
40 00 01 B4 90 43 57 08 80 3C 00 4F 90 47 58 44
90 3E 3E 5E 80 43 00 10 90 43 5E 54 80 43 00 0D
80 3E 00 01 A6 80 47 00 01 B5 90 48 32 01 A2 80
48 00 4C 90 48 55 56 80 48 00 01 CC 90 40 3E 01
82 90 40 5B 24 90 40 60 62 90 48 58 23 80 40 00
58 80 40 00 20 80 48 00 42 80 40 00 01 90 90 40
53 11 90 40 40 45 80 40 00 2D 90 47 3E 64 80 40
00 01 8F 80 47 00 38 90 40 47 16 90 40 4A 46 80
40 00 6C 90 45 5C 5F 90 41 3C 5A 80 40 00 01 A7
80 45 00 01 A2 80 41 00 02 B8 90 47 48 02 FA 80
47 00 02 BF 90 41 5D 16 90 45 4B 73 90 43 58 19
90 45 51 01 A6 90 47 45 21 80 43 00 04 80 41 00
23 80 45 00 02 90 3C 3B 03 80 45 00 52 80 47 00
5B 90 41 32 08 80 3C 00 03 85 90 3C 60 49 80 41
00 00 90 48 34 32 80 3C 00 69 90 45 5C 30 80 48
00 01 90 45 60 01 90 80 45 00 01 AF 90 48 55 44
80 45 00 03 80 48 00 1B 90 48 45 47 90 41 57 01
B8 90 45 42 45 80 48 00 01 93 90 47 39 11 80 45
00 3A 80 41 00 05 90 45 4C 2C 90 3E 3D 25 80 45
00 01 82 90 47 57 28 80 47 00 01 9A 80 3E 00 4D
80 47 00 7F 90 40 4D 32 90 41 3B 70 80 41 00 00
90 45 42 01 8F 80 40 00 01 AD 90 47 46 1A 90 41
4A 01 8A 80 45 00 16 90 3E 36 69 80 3E 00 1E 80
47 00 17 80 41 00 1A 90 3C 63 49 90 43 40 01 9C
80 43 00 16 80 3C 00 01 81 90 3C 54 01 D2 80 3C
00 11 90 3E 52 22 90 41 45 68 90 3C 46 41 90 47
4C 69 80 3E 00 6F 80 41 00 18 80 3C 00 68 80 47
00 6F 90 3C 5A 02 90 48 4F 1C 90 48 35 01 AF 80
48 00 25 80 48 00 01 83 80 3C 00 06 D6 90 43 54
48 90 40 52 01 F3 90 3C 55 14 80 43 00 26 80 40
00 01 A1 80 3C 00 01 E8 90 3C 49 78 90 48 58 45
80 3C 00 02 ED 80 48 00 18 90 43 4F 2F 90 3E 4E
23 90 40 42 28 80 43 00 34 80 3E 00 01 CF 80 40
00 05 90 45 4B 4E 80 45 00 04 A3 90 47 5F 0D 90
45 36 02 9F 80 45 00 1D 80 47 00 01 C0 90 43 37
01 DB 90 41 50 01 81 80 43 00 69 80 41 00 02 F4
90 47 48 01 9E 90 3E 5B 1C 90 3C 45 01 8F 80 3E
00 05 80 47 00 31 90 45 5B 01 CC 80 3C 00 01 B7
80 45 00 4F 90 48 48 02 90 47 64 14 90 48 47 78
80 48 00 11 90 3E 5E 50 80 48 00 01 80 47 00 02
83 90 45 4D 14 90 48 54 22 80 3E 00 10 80 45 00
7E 80 48 00 01 8D 90 3C 4A 03 D6 80 3C 00 03 CD
90 3E 56 61 90 40 3B 2C 80 3E 00 21 80 40 00 02
B4 90 3C 3B 01 A1 90 43 5F 1D 90 43 5E 4A 90 3E
56 32 80 43 00 23 80 3E 00 6F 80 3C 00 39 80 43
00 02 90 43 59 03 C1 80 43 00 03 F6 90 40 58 35
90 40 41 1D 90 48 41 09 80 40 00 01 9D 80 40 00
19 80 48 00 01 80 90 3C 62 01 D4 90 47 3F 01 91
80 47 00 2D 80 3C 00 13 90 43 32 02 A6 90 45 5A
1E 80 43 00 47 90 43 3C 4B 80 45 00 0D 80 43 00
06 90 47 5D 02 96 80 47 00 02 BB 90 45 40 01 E3
80 45 00 20 90 47 48 02 CD 80 47 00 04 EC 90 41
47 52 90 43 49 59 80 41 00 0C 90 47 53 33 80 43
00 01 A4 80 47 00 02 85 90 40 3C 2C 90 48 52 01
81 80 48 00 10 80 40 00 01 90 90 3E 3E 30 90 43
57 68 90 47 5F 59 90 48 4F 50 90 3C 5C 41 80 3E
00 04 80 43 00 2D 80 47 00 11 90 48 48 2F 80 3C
00 69 80 48 00 18 80 48 00 01 84 90 3C 3B 10 90
41 60 02 81 80 3C 00 40 80 41 00 04 91 90 47 57
30 90 47 35 43 80 47 00 01 8A 80 47 00 01 F8 90
47 54 01 CF 90 45 57 0F 80 47 00 64 90 41 4B 1F
80 45 00 36 80 41 00 01 FB 90 40 48 46 80 40 00
04 E2 90 43 54 01 DF 80 43 00 01 C6 90 45 49 25
90 41 61 19 80 45 00 36 80 41 00 39 90 43 58 01
99 90 40 4C 09 90 3C 5C 3B 90 45 47 5D 80 3C 00
55 80 40 00 3A 80 43 00 4C 80 45 00 0F 90 48 50
36 90 43 5F 45 80 48 00 03 80 43 00 03 88 90 40
46 1E 90 3E 48 01 A2 80 3E 00 53 80 40 00 05 AE
90 47 4B 15 90 3E 4E 01 9A 80 47 00 35 90 3C 54
49 80 3E 00 14 80 3C 00 01 C1 90 3C 5B 2B 90 41
45 01 97 80 3C 00 03 80 41 00 05 B8 90 47 42 03
88 90 48 38 35 80 47 00 01 B1 90 3C 5A 01 BF 80
48 00 01 93 90 45 3C 6A 80 3C 00 37 90 40 3B 31
90 3E 58 01 80 80 3E 00 15 80 45 00 34 80 40 00
01 D0 90 3C 35 2B 90 3E 5D 0D 90 43 56 01 8E 80
43 00 06 90 48 51 01 BE 80 3C 00 66 80 3E 00 01
81 80 48 00 7E 90 41 33 01 B8 90 47 4A 42 80 47
00 50 80 41 00 66 90 43 5E 54 80 43 00 51 90 45
53 01 9F 90 48 45 02 88 80 45 00 19 90 41 46 1E
80 48 00 01 A4 90 3C 3D 11 80 41 00 24 90 3E 49
01 9F 90 41 59 46 80 41 00 45 80 3C 00 01 80 80
3E 00 04 91 90 40 53 55 90 40 49 02 80 40 00 01
88 90 3C 45 01 F7 80 40 00 28 90 41 51 7A 80 3C
00 3B 90 48 52 0B 80 41 00 16 90 3E 64 6D 80 48
00 2E 80 3E 00 04 C8 90 48 46 01 E0 90 45 3C 36
80 48 00 01 9B 90 41 47 01 A5 80 41 00 48 80 45
00 02 C1 90 48 35 79 90 41 3D 0B 80 48 00 55 80
41 00 01 B2 90 41 61 01 83 80 41 00 43 90 41 64
1B 90 47 43 31 80 41 00 01 86 80 47 00 72 90 45
39 29 90 40 37 03 90 48 4B 5D 80 45 00 6F 80 40
00 09 90 48 45 1D 80 48 00 2D 80 48 00 26 90 3E
3A 01 8C 90 45 34 01 88 80 3E 00 73 80 45 00 01
D0 90 41 3D 26 90 3C 50 00 90 43 52 01 CC 90 40
60 28 90 3C 3C 0A 80 3C 00 36 80 41 00 22 80 3C
00 01 80 43 00 65 80 40 00 14 90 3E 37 03 A6 90
40 3D 0F 80 3E 00 1F 90 48 53 6A 90 43 5B 3A 80
48 00 0A 80 43 00 20 90 43 56 77 90 3C 63 56 80
40 00 0F 80 43 00 1F 80 3C 00 04 9E 90 41 52 02
A8 90 3C 3A 29 90 43 35 5B 80 3C 00 16 80 41 00
20 90 3C 50 0C 90 41 3F 05 90 48 45 0F 80 43 00
01 AA 80 41 00 01 80 80 48 00 5C 80 3C 00 32 90
48 47 33 90 3E 45 1D 90 47 44 02 93 80 48 00 1E
80 47 00 56 80 3E 00 01 F6 90 45 36 01 A8 80 45
00 01 D0 90 48 3F 03 96 80 48 00 04 B5 90 43 4C
6B 90 3E 4C 05 80 43 00 02 B9 90 43 60 13 90 3E
33 31 90 41 33 2E 80 3E 00 22 90 3C 3C 1B 80 43
00 57 90 3C 5B 18 80 41 00 3B 80 3E 00 4F 90 41
45 12 80 3C 00 02 80 3C 00 03 8B 80 41 00 01 9C
90 41 5B 01 C6 90 48 37 76 90 41 51 02 80 48 00
7D 90 3C 38 1D 80 41 00 58 90 41 58 0D 80 41 00
01 80 3C 00 01 DE 90 3E 38 7A 90 43 47 23 80 41
00 2F 80 3E 00 09 90 43 3A 0F 80 43 00 45 90 3C
54 09 90 3C 35 01 9E 90 40 4A 73 80 43 00 5C 80
3C 00 14 80 3C 00 01 A4 80 40 00 2E 90 48 53 51
90 3C 59 14 80 48 00 4C 90 41 51 01 BB 90 3C 53
11 90 47 4C 03 90 45 63 48 80 41 00 1E 80 3C 00
61 90 3E 50 37 80 3C 00 2A 80 45 00 76 80 47 00
12 80 3E 00 07 90 47 62 02 9F 80 47 00 43 90 41
33 13 90 48 54 41 90 3E 41 0C 80 41 00 41 90 45
47 31 80 3E 00 01 D1 80 48 00 11 90 43 38 01 8C
80 45 00 01 94 80 43 00 08 FC 90 3E 49 01 C5 80
3E 00 67 90 45 48 05 90 3C 4F 01 DA 90 48 32 1F
80 45 00 01 8C 80 48 00 4B 80 3C 00 05 9A 90 40
51 01 D2 80 40 00 03 89 90 45 51 01 86 80 45 00
06 AD 90 45 3E 44 90 47 48 01 FA 80 45 00 01 94
90 41 34 1D 80 47 00 01 81 90 3C 46 01 E3 80 41
00 01 B4 80 3C 00 39 90 41 4F 14 90 3C 45 76 80
41 00 7E 80 3C 00 01 88 90 48 4E 25 90 41 44 01
A7 80 41 00 01 CE 80 48 00 60 90 47 53 01 E6 90
41 34 01 88 80 47 00 2B 80 41 00 18 90 41 40 0C
90 47 3B 02 86 90 43 4B 45 80 47 00 14 80 41 00
1A 80 43 00 01 BA 90 40 4E 56 80 40 00 01 F6 90
3E 60 02 F6 80 3E 00 02 FE 90 45 51 72 80 45 00
13 90 43 3E 01 85 90 40 33 5D 90 48 60 15 90 3C
3C 45 80 43 00 1A 80 48 00 01 B5 80 40 00 7C 80
3C 00 02 A8 90 3E 5C 01 A0 80 3E 00 19 90 43 4D
58 90 41 63 23 80 43 00 01 C5 90 41 5C 10 80 41
00 01 C8 80 41 00 1D 90 45 4F 01 FD 80 45 00 47
90 41 64 73 90 45 3C 02 AE 90 3E 4B 10 80 45 00
07 80 41 00 77 80 3E 00 4B 90 41 63 01 90 48 4E
02 E4 90 43 53 22 80 41 00 21 80 48 00 7E 90 48
56 01 A8 80 43 00 01 EF 90 45 4E 18 80 48 00 01
BC 90 48 4B 24 90 48 37 4F 90 41 53 36 80 45 00
31 80 48 00 01 C2 80 48 00 30 90 47 46 78 80 41
00 02 81 80 47 00 04 CF 90 47 46 36 90 41 4C 1E
90 48 3E 01 DF 80 47 00 28 90 40 5B 41 80 41 00
47 80 48 00 02 B3 80 40 00 08 90 3E 38 3F 90 3E
3D 09 90 3C 3D 01 92 80 3E 00 10 90 45 55 57 90
40 4E 41 80 45 00 6A 80 3E 00 0B 80 3C 00 5E 90
3C 5D 01 80 80 40 00 5E 90 43 62 01 94 80 3C 00
01 DD 80 43 00 01 98 90 3C 3D 20 90 3C 36 75 90
47 32 01 8E 80 3C 00 02 90 45 57 13 80 3C 00 7C
80 45 00 42 80 47 00 01 9F 90 3C 41 42 80 3C 00
03 83 90 45 44 01 FD 90 48 55 01 D2 80 45 00 19
90 41 61 60 80 41 00 3E 90 43 4A 56 80 48 00 19
90 41 45 54 90 3E 55 01 90 80 3E 00 60 80 41 00
26 80 43 00 04 AD 90 48 55 01 AC 80 48 00 05 A2
90 3E 55 01 B9 90 3C 48 4E 90 41 4C 1E 90 47 64
32 80 3C 00 53 80 3E 00 01 9F 80 47 00 2C 90 41
4C 0E 90 48 4C 4C 80 41 00 4C 80 48 00 5B 80 41
00 64 90 3E 5D 01 87 80 3E 00 02 95 90 41 60 4F
80 41 00 03 96 90 40 5C 02 D0 80 40 00 77 90 48
59 20 90 45 56 2A 90 47 62 0B 80 48 00 21 90 47
58 01 A9 80 47 00 55 80 45 00 10 80 47 00 02 E4
90 3E 52 02 81 80 3E 00 01 84 90 3E 61 62 90 48
5F 3B 90 3E 46 46 80 48 00 0F 80 3E 00 50 80 3E
00 02 8F 90 3E 35 01 F4 80 3E 00 0D 90 40 41 01
96 90 47 41 30 80 40 00 02 A0 90 3C 46 18 80 47
00 02 A2 90 3E 56 0A 90 45 54 3F 80 3C 00 01 8C
80 3E 00 11 80 45 00 0F 90 3E 58 01 E9 90 3E 5C
16 90 41 54 59 80 41 00 1A 80 3E 00 66 90 43 3F
7F 90 40 64 2A 80 3E 00 01 D4 90 3C 52 07 80 43
00 10 90 48 38 17 80 40 00 41 80 48 00 2A 90 47
38 01 90 47 34 02 90 48 42 5E 80 3C 00 46 80 47
00 17 80 47 00 22 90 3E 44 01 E2 80 48 00 42 80
3E 00 68 90 43 4A 01 83 80 43 00 79 90 45 44 01
B0 90 48 5E 01 8A 80 48 00 66 80 45 00 00 90 47
5E 56 80 47 00 2F 90 48 44 01 A5 80 48 00 31 90
48 36 39 90 40 58 02 F8 80 48 00 33 90 48 47 0F
80 40 00 01 BA 90 48 4B 01 93 80 48 00 01 C3 90
3E 41 27 80 48 00 1E 80 3E 00 3D 90 43 43 6E 90
41 39 6D 80 43 00 5E 90 48 36 39 90 3C 46 01 8A
90 40 34 08 80 41 00 01 A9 90 3E 48 02 80 40 00
10 80 48 00 2E 80 3C 00 01 AA 80 3E 00 02 B8 90
41 64 01 88 90 48 36 01 A3 90 43 3F 4D 80 41 00
07 90 3E 64 2B 90 48 64 01 80 48 00 1D 90 48 44
43 80 43 00 27 80 48 00 01 AE 80 3E 00 39 80 48
00 63 90 3C 62 0E 90 3E 47 55 90 41 33 0B 90 40
40 58 80 3E 00 53 90 3E 5B 29 80 3C 00 2C 80 40
00 11 80 41 00 18 90 41 57 02 81 80 41 00 21 80
3E 00 04 90 43 51 4A 90 43 52 55 80 43 00 04 80
43 00 01 CF 90 40 46 79 90 3E 63 1B 80 40 00 29
90 3C 4E 01 AF 80 3C 00 6B 80 3E 00 06 9D 90 43
56 02 F3 90 41 38 01 80 43 00 01 99 80 41 00 01
E8 90 47 4B 0C 90 3E 43 5F 90 3C 3C 01 8A 80 47
00 4A 80 3C 00 01 8A 80 3E 00 3F 90 47 52 0E 90
3E 5C 2F 80 47 00 01 DC 90 47 43 48 80 47 00 79
80 3E 00 04 B9 90 48 47 01 EE 80 48 00 03 8B 90
47 3E 01 CF 90 47 50 01 D4 80 47 00 6F 90 40 4D
10 80 47 00 0D 90 3E 4E 6F 80 3E 00 01 CA 80 40
00 01 AD 90 41 33 02 B9 80 41 00 02 D0 90 45 38
03 93 80 45 00 67 90 40 40 19 90 3C 55 3C 80 3C
00 01 E3 80 40 00 01 B0 90 48 36 01 97 80 48 00
1E 90 47 50 02 D7 80 47 00 02 EA 90 40 35 76 80
40 00 1E 90 45 53 03 9D 80 45 00 02 90 48 40 2B
90 3E 55 62 80 3E 00 60 80 48 00 07 AA 90 40 58
01 B8 90 48 39 33 90 48 3C 45 80 48 00 3E 80 40
00 18 90 47 62 0B 90 48 36 01 9F 80 48 00 3F 90
3C 43 24 80 47 00 71 80 3C 00 28 90 48 32 2B 80
48 00 3F 90 40 5A 18 90 48 38 01 F2 90 40 4B 0D
80 48 00 5C 80 48 00 3D 80 40 00 1C 80 40 00 22
90 3E 46 03 85 80 3E 00 70 90 48 61 4A 80 48 00
76 90 48 57 45 80 48 00 02 86 90 3C 5F 01 A9 90
3C 33 01 D6 80 3C 00 1A 80 3C 00 28 90 40 57 0E
90 3E 56 42 80 40 00 01 9E 90 3C 5C 01 80 80 3E
00 3E 90 3E 51 4D 80 3E 00 2B 90 41 47 01 A0 80
3C 00 01 9A 80 41 00 62 90 40 5A 01 F9 90 48 3F
31 90 3C 50 60 80 40 00 01 92 90 3C 41 09 80 48
00 01 B2 90 48 33 26 80 3C 00 58 80 48 00 43 80
3C 00 01 98 90 41 39 5B 90 3C 38 46 80 3C 00 6F
90 47 5B 45 80 47 00 1F 80 41 00 00 90 45 48 01
C6 90 48 48 3A 80 45 00 22 90 3C 35 01 BA 80 48
00 44 90 3C 34 07 80 3C 00 22 90 3C 54 51 80 3C
00 15 90 3E 4E 2F 90 40 62 29 80 3C 00 62 80 40
00 01 D5 80 3E 00 2E 90 41 40 39 90 43 35 6B 80
43 00 4B 80 41 00 06 D1 90 43 34 08 90 47 5B 36
90 41 50 01 F0 80 47 00 23 90 43 58 2F 80 43 00
01 90 3C 64 4E 80 41 00 29 90 40 3C 01 86 80 43
00 01 8E 80 3C 00 1F 90 47 34 51 90 43 44 2F 80
40 00 17 90 3E 61 26 90 48 3F 66 80 43 00 50 80
47 00 7E 80 3E 00 2F 80 48 00 01 A6 90 41 61 01
BB 90 43 50 3D 80 41 00 10 90 3C 3F 4C 80 43 00
01 BB 90 45 3E 03 90 41 3C 75 80 45 00 33 80 3C
00 02 83 90 48 3A 2A 80 41 00 02 89 80 48 00 04
F4 90 3C 36 01 82 80 3C 00 2F 90 3C 43 21 90 48
5A 3D 90 3C 50 13 90 41 3F 01 A3 80 48 00 2A 80
3C 00 19 90 48 5A 01 93 80 3C 00 59 80 41 00 45
90 45 50 3B 90 41 47 11 80 48 00 02 CC 80 41 00
07 80 45 00 02 90 3E 37 0C 90 45 61 3A 80 3E 00
1B 90 41 56 6A 80 41 00 77 80 45 00 64 90 40 45
02 8A 90 3E 5D 01 A8 80 40 00 3B 80 3E 00 01 87
90 40 49 2A 90 45 50 51 90 3E 44 46 80 40 00 1B
80 45 00 21 90 3C 35 08 90 47 43 40 90 3E 40 09
80 47 00 1F 80 3E 00 01 80 80 3C 00 1F 90 3E 58
01 D4 80 3E 00 7F 80 3E 00 01 BD 90 3C 41 01 8B
90 48 59 07 90 48 60 53 80 3C 00 01 B6 80 48 00
18 80 48 00 03 B0 90 43 5B 32 90 45 4F 4B 80 43
00 2E 90 3E 32 01 9C 80 45 00 02 85 80 3E 00 01
8E 90 43 42 1A 90 3E 51 01 E8 80 43 00 01 82 80
3E 00 04 86 90 43 5E 50 90 48 41 67 80 43 00 02
BC 90 45 58 14 80 48 00 01 A9 90 41 55 01 85 90
43 3F 26 90 41 59 06 80 41 00 1A 80 43 00 19 80
45 00 12 90 41 3A 33 90 3E 54 1C 90 41 41 3B 80
41 00 01 90 3C 63 34 90 3E 3E 5F 80 41 00 19 80
3C 00 71 90 47 43 4A 80 3E 00 10 80 3E 00 06 80
41 00 02 C7 80 47 00 03 CA 90 45 34 36 90 45 60
01 D3 80 45 00 01 8E 90 3C 33 0C 80 45 00 06 90
43 62 01 85 80 43 00 3B 90 41 62 41 80 3C 00 01
EE 80 41 00 24 90 3E 50 03 DE 80 3E 00 01 AF 90
3C 3D 01 B5 90 48 56 5C 90 45 4D 54 80 3C 00 01
A3 80 48 00 42 90 47 4F 32 80 45 00 01 90 90 3E
33 05 90 48 56 63 90 41 50 06 80 48 00 1A 90 3E
42 44 80 3E 00 4E 80 47 00 38 90 47 32 7F 80 3E
00 60 80 41 00 5F 80 47 00 77 90 45 34 5A 90 40
46 00 80 45 00 01 D3 90 47 38 26 90 48 42 5B 80
40 00 17 80 47 00 79 80 48 00 66 90 43 5D 59 90
47 52 52 80 47 00 03 80 43 00 05 FE 90 41 36 40
80 41 00 01 BE 90 45 36 01 C8 80 45 00 37 90 41
52 0B 90 48 32 61 80 48 00 55 90 3C 3A 33 80 41
00 01 B2 90 47 32 11 80 3C 00 01 CB 80 47 00 04
B6 90 48 4C 02 D3 80 48 00 04 90 43 43 4D 80 43
00 5D 90 41 5B 02 C3 80 41 00 12 90 45 46 01 99
90 41 38 67 80 45 00 1C 80 41 00 01 FD 90 40 3F
03 8F 90 43 4E 00 80 40 00 02 AE 90 48 38 14 90
3C 64 60 80 43 00 01 86 90 41 3C 5A 80 48 00 0B
90 3E 58 0B 90 40 3B 4C 80 3C 00 01 DC 80 41 00
39 80 3E 00 77 80 40 00 02 B0 90 41 57 02 AB 80
41 00 05 86 90 41 4F 02 CF 80 41 00 01 B1 90 43
62 1C 90 3C 47 75 90 3C 42 67 80 3C 00 18 90 45
5A 4C 80 3C 00 79 80 43 00 22 90 41 37 33 80 45
00 6E 90 40 4F 5B 80 41 00 01 C3 80 40 00 01 BA
90 45 5F 27 90 41 57 37 80 45 00 20 90 41 5E 02
B7 80 41 00 10 80 41 00 02 96 90 43 3E 36 90 43
39 09 80 43 00 01 92 80 43 00 03 A1 90 3C 33 02
8D 80 3C 00 67 90 47 39 01 A1 80 47 00 02 A6 90
41 38 03 A3 80 41 00 02 91 90 48 3F 01 87 90 47
60 77 90 40 35 28 90 43 61 2E 80 48 00 54 80 47
00 01 B9 80 40 00 53 80 43 00 01 CB 90 45 39 02
B4 90 45 48 0A 80 45 00 03 89 80 45 00 72 90 40
36 02 90 45 3A 01 94 90 3C 5D 17 80 40 00 1B 90
43 3F 2D 80 45 00 3F 90 47 3F 67 80 43 00 0F 80
47 00 01 87 80 3C 00 0A 90 40 43 28 90 40 57 23
90 43 49 02 DC 80 43 00 34 80 40 00 0B 80 40 00
29 90 3E 59 01 D9 80 3E 00 10 90 45 4A 53 90 48
38 01 E3 80 45 00 47 80 48 00 28 90 3E 57 01 D6
90 43 4D 05 90 47 43 2B 80 3E 00 4F 90 41 64 6D
80 43 00 01 E3 80 47 00 20 80 41 00 06 87 90 3E
39 01 DC 90 47 56 17 90 45 57 0C 80 3E 00 54 80
45 00 5F 90 45 58 67 80 47 00 33 80 45 00 51 90
43 4B 01 AB 80 43 00 78 90 41 4C 01 84 80 41 00
01 8D 90 45 61 3F 90 45 3D 75 90 45 5C 3A 80 45
00 01 91 80 45 00 4A 80 45 00 14 90 43 5C 02 87
80 43 00 3F 90 45 5A 01 B7 90 48 4B 51 80 48 00
4E 90 3C 53 15 90 48 36 4A 90 43 58 17 80 45 00
01 8F 80 3C 00 2F 90 3E 4D 01 80 43 00 01 A0 80
48 00 02 B8 80 3E 00 04 D2 90 47 51 04 90 43 34
01 CA 80 47 00 05 90 45 5A 43 90 3C 41 53 80 43
00 18 80 45 00 02 BF 90 3C 54 21 80 3C 00 3E 80
3C 00 01 C1 90 47 58 2D 90 3E 4D 1C 80 47 00 02
AD 80 3E 00 03 BE 90 48 60 01 AD 80 48 00 47 90
48 36 01 AF 90 43 62 1D 90 3C 37 01 90 41 34 01
A8 90 41 51 2E 90 3C 42 02 80 3C 00 21 80 48 00
03 80 43 00 1B 90 48 5F 01 9E 90 48 3F 1C 80 41
00 0E 80 41 00 69 90 40 38 21 80 48 00 0D 90 41
57 3F 80 3C 00 1C 90 41 57 1C 80 41 00 2B 80 48
00 75 80 40 00 75 80 41 00 4E 90 3E 44 5D 90 41
56 01 AF 90 3C 32 3F 80 3E 00 13 80 41 00 02 A1
80 3C 00 02 C4 90 48 46 4A 80 48 00 01 86 90 40
4B 68 90 45 3F 18 90 48 50 33 90 45 35 43 80 40
00 05 90 40 3E 01 91 90 40 50 03 80 48 00 55 90
45 44 20 90 45 51 15 80 40 00 15 90 48 37 07 80
45 00 2B 80 45 00 27 80 40 00 30 90 40 47 25 80
45 00 4E 90 43 47 03 90 40 49 2D 80 45 00 19 80
40 00 00 80 40 00 5E 80 48 00 01 DB 80 43 00 72
90 3E 37 01 DB 90 3E 55 02 82 80 3E 00 01 9F 90
3E 36 3C 80 3E 00 01 9A 90 3C 54 58 80 3C 00 59
80 3E 00 01 9B 90 48 50 53 90 45 3E 06 90 43 55
1B 90 41 35 01 81 80 41 00 0A 90 45 52 03 80 48
00 72 80 45 00 3F 80 45 00 0C 80 43 00 01 C1 90
40 39 78 80 40 00 38 90 48 5C 56 80 48 00 1C 90
43 47 37 90 47 44 47 90 41 3F 02 98 80 43 00 10
80 47 00 62 80 41 00 01 90 40 44 01 B0 90 43 41
3D 90 41 48 39 90 43 34 29 80 40 00 5D 80 43 00
18 80 43 00 01 96 90 3C 59 56 80 41 00 01 A1 90
41 42 44 80 41 00 22 90 48 64 36 80 3C 00 1B 90
43 53 0A 90 3E 54 04 90 48 5C 02 90 3E 62 6C 80
3E 00 02 80 48 00 5F 90 40 53 1A 80 48 00 1E 80
3E 00 01 B0 80 43 00 01 80 80 40 00 2E 90 40 49
68 80 40 00 40 90 40 45 05 90 3C 36 21 90 3C 34
01 C0 80 3C 00 65 80 40 00 3E 80 3C 00 05 FA 90
3E 4A 50 90 41 44 3E 90 3E 61 01 85 90 48 35 3E
80 3E 00 10 90 47 4C 24 80 41 00 08 80 3E 00 2F
90 3E 60 01 CB 80 48 00 0D 80 47 00 52 80 3E 00
02 91 90 48 57 39 90 45 32 74 80 45 00 07 90 3E
33 07 80 48 00 42 90 3C 41 21 90 43 51 3C 80 43
00 73 90 48 44 52 80 3C 00 07 90 48 3E 66 80 3E
00 01 8A 80 48 00 3D 80 48 00 50 90 43 3A 50 90
3E 42 28 90 3C 48 01 9C 80 3C 00 7F 80 43 00 07
80 3E 00 68 90 3C 3E 01 C8 80 3C 00 01 BD 90 45
5A 4F 80 45 00 59 90 3E 55 01 E9 90 41 58 58 90
48 48 4C 80 3E 00 41 90 43 35 1D 90 47 33 47 80
43 00 19 80 41 00 6A 80 48 00 6A 80 47 00 04 90
3C 62 01 D4 80 3C 00 2B 90 45 60 64 80 45 00 06
90 40 54 01 80 80 40 00 02 92 90 43 5C 01 D0 80
43 00 01 A6 90 40 63 01 82 90 47 33 29 80 40 00
02 FE 80 47 00 1B 90 3C 53 19 90 45 37 01 A0 90
47 44 3C 80 45 00 17 80 47 00 3A 80 3C 00 01 CD
90 43 63 02 8B 80 43 00 5C 90 48 55 01 B1 80 48
00 7D 90 47 4E 01 A6 90 45 3A 20 90 3E 4C 07 80
47 00 01 9E 90 3C 48 79 80 45 00 69 90 41 5F 47
80 3E 00 02 80 41 00 25 80 3C 00 02 CC 90 45 5A
01 C0 90 48 32 70 80 45 00 52 80 48 00 20 90 48
62 02 E0 80 48 00 78 90 47 51 16 90 40 43 01 EE
90 3C 62 06 80 40 00 73 80 47 00 12 90 48 39 61
80 48 00 01 E6 80 3C 00 03 B2 90 47 52 02 AB 80
47 00 02 D9 90 43 4F 02 D6 80 43 00 4E 90 47 41
7B 90 43 50 01 A0 90 43 62 44 80 43 00 27 80 47
00 71 80 43 00 6C 90 43 5B 04 90 48 57 57 90 45
3B 01 D2 80 45 00 60 90 43 3B 3E 80 48 00 12 80
43 00 43 90 48 4D 2F 90 3C 34 77 90 43 3F 48 80
43 00 08 90 3C 34 25 80 3C 00 10 80 43 00 62 80
48 00 79 90 3C 38 59 80 3C 00 14 80 3C 00 62 90
3E 49 01 E7 80 3E 00 04 8F 90 3C 38 03 A2 80 3C
00 04 E0 90 41 4E 01 8F 90 48 4A 01 AA 80 41 00
4D 90 3C 3D 38 80 48 00 1D 90 43 39 02 BE 80 43
00 3C 80 3C 00 07 87 90 47 53 45 90 3C 47 01 8D
80 47 00 01 8F 80 3C 00 51 90 40 4E 5E 90 48 53
30 80 40 00 02 8B 90 3E 51 13 80 48 00 36 90 3C
36 25 90 3C 53 54 90 41 4E 01 97 90 41 47 6B 80
3E 00 03 80 41 00 07 80 3C 00 48 90 45 38 03 80
3C 00 01 BE 80 41 00 7B 80 45 00 04 87 90 41 5A
0B 90 40 39 70 80 40 00 01 B3 80 41 00 0A 90 43
35 01 97 90 48 45 01 BE 80 43 00 5F 90 45 47 55
90 48 38 67 80 48 00 01 82 90 47 54 7E 80 45 00
13 80 48 00 01 8F 80 47 00 09 90 3E 4E 7B 80 3E
00 01 A5 90 41 5D 13 90 3E 40 41 80 41 00 7A 90
43 34 13 80 3E 00 01 97 80 43 00 01 93 90 3E 50
26 90 3C 53 65 90 48 62 7A 80 48 00 35 80 3C 00
01 90 41 33 26 80 3E 00 24 90 48 5C 01 83 90 40
38 30 80 48 00 1D 80 41 00 01 99 80 40 00 01 AA
90 45 5E 01 F4 80 45 00 30 90 43 3C 75 80 43 00
02 FF 90 40 32 03 A1 80 40 00 01 86 90 45 47 01
90 90 3C 34 02 90 43 34 01 A1 80 3C 00 26 80 43
00 01 84 80 45 00 04 E8 90 45 4B 01 E6 90 48 62
38 90 47 54 03 80 45 00 01 A1 90 3C 3E 51 80 47
00 43 90 45 4F 18 80 48 00 0B 90 48 4A 27 80 45
00 17 90 41 36 03 80 3C 00 1F 90 3C 56 7F 80 48
00 01 8D 80 3C 00 5A 90 40 58 1C 80 41 00 15 90
43 3B 01 DB 80 40 00 01 B2 80 43 00 01 92 90 3C
5F 02 D0 80 3C 00 01 AC 90 3E 58 01 80 80 3E 00
69 90 47 5B 03 82 80 47 00 17 90 47 4E 03 84 90
45 4D 21 90 40 4D 13 80 47 00 01 FA 80 45 00 37
80 40 00 01 BF 90 40 5C 53 90 40 5A 01 E7 90 41
3D 05 80 40 00 6B 80 40 00 02 BC 80 41 00 03 C4
90 40 49 02 C0 80 40 00 02 DB 90 47 40 01 9E 80
47 00 06 B7 90 41 3A 01 86 90 41 35 0D 80 41 00
01 F3 90 40 3C 01 99 80 40 00 2F 80 41 00 01 8C
90 48 43 02 FE 80 48 00 57 90 40 44 02 D2 80 40
00 70 90 3C 4E 02 C3 80 3C 00 0C 90 3C 4E 47 80
3C 00 01 BC 90 45 43 01 CF 80 45 00 1B 90 3E 4F
02 F6 80 3E 00 02 B0 90 48 59 01 BD 80 48 00 29
90 3E 52 0C 90 48 42 01 87 90 45 46 03 90 3E 50
63 90 45 4C 01 8C 80 48 00 10 80 3E 00 14 90 3C
56 10 80 45 00 01 81 80 3E 00 1A 80 45 00 02 8C
80 3C 00 01 80 90 3E 40 2D 90 45 4C 3E 80 45 00
23 90 47 59 21 90 47 4B 73 80 47 00 16 90 48 50
10 90 40 55 3D 90 45 5B 01 80 3E 00 75 80 47 00
01 E0 80 48 00 14 80 45 00 14 80 40 00 55 90 3C
4A 02 B8 80 3C 00 63 90 45 49 4B 80 45 00 51 90
40 48 01 B9 80 40 00 01 96 90 47 55 7A 90 48 4F
4D 90 41 45 03 80 48 00 01 86 80 41 00 5E 80 47
00 4C 90 3E 49 02 90 43 44 4A 80 43 00 15 90 3C
56 44 90 45 3D 01 80 3C 00 01 85 80 45 00 3A 80
3E 00 30 90 47 3B 01 CF 80 47 00 03 D3 90 48 3F
01 8B 80 48 00 03 F5 90 43 60 01 B7 90 45 41 01
95 90 43 4C 5F 80 43 00 3F 80 45 00 66 90 45 39
04 90 3E 5A 0B 90 45 3D 5D 80 45 00 66 80 43 00
41 80 45 00 3E 80 3E 00 0D 90 47 59 01 EE 90 43
58 6B 80 47 00 01 AE 90 3E 32 23 80 43 00 02 A5
90 41 51 0E 80 3E 00 02 E0 80 41 00 4D 90 48 43
02 B2 80 48 00 29 90 47 41 01 85 80 47 00 03 A4
90 48 3B 43 90 40 49 7F 80 40 00 04 90 47 41 63
90 3E 48 01 B2 80 48 00 21 80 47 00 34 80 3E 00
03 83 90 3E 34 01 FF 90 41 40 29 90 47 3A 6A 80
3E 00 7A 90 3E 56 07 80 41 00 01 DF 80 47 00 5D
80 3E 00 04 90 3E 41 03 D9 80 3E 00 03 90 48 3F
01 8C 80 48 00 02 A6 90 3C 48 7B 90 3C 60 2A 90
48 52 07 80 3C 00 47 80 3C 00 12 90 3C 5C 76 80
48 00 04 90 3E 33 01 92 80 3C 00 7D 80 3E 00 05
D8 90 40 5D 01 E3 90 43 5E 12 80 40 00 02 D9 90
47 53 08 80 43 00 02 A5 90 40 4D 75 80 47 00 01
8B 80 40 00 13 90 40 4C 76 90 47 5D 57 90 3E 53
28 80 40 00 02 B2 80 47 00 3C 90 40 5A 03 90 48
5D 38 80 3E 00 6B 80 48 00 07 90 47 5E 01 F7 80
40 00 01 B5 80 47 00 01 E0 90 41 5E 19 90 3C 53
1C 90 47 44 43 80 3C 00 0F 90 3C 50 1B 80 41 00
01 B5 80 47 00 78 80 3C 00 02 AD 90 3E 64 02 8C
90 47 38 6C 80 3E 00 51 90 45 50 2D 90 43 59 01
C2 80 47 00 01 83 80 45 00 60 90 45 35 0A 80 43
00 78 80 45 00 15 90 48 35 08 90 41 43 23 90 47
3F 25 90 45 41 67 80 48 00 06 80 41 00 36 80 45
00 14 80 47 00 01 B4 90 48 5C 41 90 41 42 67 80
48 00 6B 80 41 00 02 92 90 48 3C 03 8E 80 48 00
0A 90 43 48 01 80 90 48 35 78 80 48 00 51 80 43
00 06 FB 90 47 51 01 EE 90 40 49 4D 90 3E 61 10
80 47 00 14 90 47 3B 24 90 43 34 2B 80 40 00 3F
90 40 32 01 95 80 40 00 32 80 3E 00 16 80 47 00
12 80 43 00 04 E2 90 43 4A 02 A3 80 43 00 37 90
40 58 3C 90 41 52 47 80 41 00 49 80 40 00 0C 90
3C 51 7B 90 43 59 20 80 3C 00 61 90 45 48 5E 80
45 00 01 83 80 43 00 01 91 90 40 61 01 E4 80 40
00 04 AA 90 3C 60 03 92 80 3C 00 02 8D 90 3E 3C
22 90 40 4A 49 90 45 35 4F 90 48 53 39 90 45 37
10 80 3E 00 18 80 48 00 2D 80 40 00 37 80 45 00
25 90 3C 40 39 80 45 00 5A 80 3C 00 05 D9 90 47
4B 01 86 90 47 3F 78 80 47 00 01 D7 80 47 00 06
A8 90 3E 3D 02 B7 80 3E 00 01 80 90 41 37 01 84
90 3E 5E 01 A5 90 48 4C 01 80 41 00 26 80 3E 00
23 90 3C 5B 5F 80 3C 00 01 A0 80 48 00 06 FC 90
43 4C 01 A7 80 43 00 04 CC 90 40 44 28 90 40 5C
34 90 47 41 16 90 45 56 78 80 40 00 01 80 80 40
00 04 80 45 00 27 80 47 00 01 A1 90 48 35 26 90
43 32 36 90 3C 3E 01 82 80 48 00 13 80 43 00 02
8E 90 48 55 0D 80 3C 00 39 90 40 41 01 BF 90 48
60 4F 80 40 00 07 80 48 00 01 82 80 48 00 02 83
90 3E 63 01 8B 80 3E 00 02 A0 90 43 4A 02 D0 90
41 62 20 80 43 00 6F 90 45 4E 01 96 80 45 00 01
87 80 41 00 01 90 3E 3C 01 AA 80 3E 00 64 90 3C
3F 4A 90 41 38 01 F7 80 41 00 01 96 80 3C 00 5A
90 3C 5A 3F 90 3C 4D 01 AE 80 3C 00 02 90 41 39
7F 80 3C 00 23 90 40 37 01 B0 80 41 00 05 90 41
5E 4A 90 43 54 11 90 47 4A 32 80 43 00 26 80 47
00 1B 90 47 41 2B 80 40 00 53 90 47 4C 27 90 43
44 08 80 41 00 0F 80 47 00 40 90 3E 60 0E 80 43
00 16 80 47 00 01 BA 90 3E 5B 40 80 3E 00 37 80
3E 00 01 91 90 47 4B 01 EC 90 41 3F 32 90 3E 4A
29 90 47 48 1A 80 47 00 59 90 3C 4C 29 80 41 00
20 90 3C 3D 07 80 3E 00 01 92 80 3C 00 0F 80 47
00 61 80 3C 00 02 CD 90 41 58 4D 80 41 00 01 99
90 3C 51 02 A7 80 3C 00 02 C1 90 41 48 4F 90 3C
5D 7F 90 41 64 57 80 41 00 3E 90 43 38 16 90 48
64 6A 80 3C 00 16 80 48 00 46 80 41 00 35 80 43
00 04 90 3E 4A 01 90 90 45 5D 5B 80 3E 00 01 CE
80 45 00 02 83 90 41 39 60 90 45 5B 3D 80 41 00
02 A1 90 47 46 29 80 45 00 0C 90 3C 41 64 80 47
00 5A 80 3C 00 05 97 90 41 3C 72 90 41 4B 26 90
45 41 13 90 41 64 01 D1 90 3E 53 53 80 41 00 05
80 3E 00 07 80 41 00 02 80 41 00 3B 80 45 00 07
B3 90 43 49 16 90 47 5F 54 90 40 51 2F 80 43 00
6B 80 47 00 02 AD 80 40 00 68 90 40 3D 01 90 47
47 01 AE 80 47 00 08 90 41 34 1E 90 45 62 16 80
40 00 13 80 41 00 02 B0 90 48 56 2C 80 45 00 1C
80 48 00 38 90 3C 3F 03 BF 80 3C 00 25 90 45 60
01 A5 90 43 4C 39 80 45 00 30 80 43 00 02 8E 90
3C 4B 51 90 47 59 53 80 3C 00 35 80 47 00 05 90
41 3B 01 FA 80 41 00 01 DB 90 40 3A 22 90 45 36
43 80 40 00 01 AC 80 45 00 01 AD 90 43 3B 01 89
90 41 58 2B 80 43 00 01 E6 90 40 35 02 80 41 00
6B 80 40 00 4F 90 45 62 3D 80 45 00 05 EF 90 3C
55 01 9B 90 3C 4B 3D 80 3C 00 21 80 3C 00 01 9B
90 45 63 54 90 40 51 36 90 43 59 0D 80 45 00 74
90 40 54 32 80 40 00 01 93 80 43 00 44 90 47 63
2B 80 40 00 17 80 47 00 01 94 90 45 60 5F 90 41
3A 01 FA 80 45 00 07 90 43 4D 1A 90 3E 4B 4D 80
43 00 34 80 41 00 11 80 3E 00 07 90 3C 3F 13 90
48 40 01 83 80 3C 00 01 CD 80 48 00 3D 90 41 3D
01 EE 80 41 00 23 90 48 5A 7B 80 48 00 02 FF 90
41 5E 02 CB 80 41 00 08 90 48 63 08 90 45 32 19
90 48 39 28 80 45 00 10 80 48 00 43 80 48 00 05
C9 90 48 36 7B 90 45 62 02 A4 90 43 63 24 80 48
00 23 80 45 00 7C 80 43 00 03 8C 90 41 4B 69 90
3E 4B 23 90 48 55 69 90 40 42 48 80 40 00 0D 80
3E 00 25 90 41 49 1E 90 41 5C 11 80 48 00 30 80
41 00 7A 90 40 47 38 80 41 00 76 80 41 00 13 80
40 00 01 DA 90 47 44 35 90 40 59 3C 80 40 00 0C
90 40 5C 01 FB 80 40 00 28 90 45 56 0E 80 47 00
1A 90 43 5B 02 8E 80 45 00 43 90 47 5A 3F 80 43
00 02 D0 80 47 00 01 85 90 3C 53 01 F1 80 3C 00
06 B6 90 48 50 1C 90 45 42 66 80 45 00 01 FA 90
43 46 2B 80 48 00 4D 90 47 44 3F 80 43 00 02 9B
80 47 00 01 B4 90 40 4F 26 90 48 44 67 80 48 00
0D 90 3C 34 02 90 80 3C 00 09 80 40 00 20 90 40
4B 02 A9 90 48 5D 52 80 40 00 27 90 45 3B 01 91
80 48 00 4C 80 45 00 48 90 3E 4D 72 90 3E 33 4E
90 40 4C 01 9F 80 3E 00 12 80 40 00 01 91 80 3E
00 06 CA 90 3E 4B 02 CF 80 3E 00 57 90 41 52 01
80 80 41 00 06 A6 90 45 39 01 86 90 3C 47 01 EA
90 3C 47 08 90 3E 57 13 80 45 00 0C 90 40 4F 6D
80 3C 00 2E 90 3C 37 0B 80 3E 00 01 9B 80 3C 00
01 94 80 40 00 0D 90 47 59 60 80 3C 00 16 90 45
49 02 96 80 45 00 22 80 47 00 02 E9 90 40 61 02
FE 90 40 37 15 80 40 00 70 90 48 5C 1F 90 43 41
06 80 40 00 36 80 48 00 02 8C 90 48 3E 36 90 48
4C 3F 80 43 00 72 80 48 00 59 90 40 5A 7F 80 48
00 33 80 40 00 27 90 48 54 6C 80 48 00 03 91 90
41 37 44 80 41 00 05 F0 90 3C 4E 01 B9 90 45 48
30 90 40 40 43 80 40 00 68 80 3C 00 01 90 48 35
2E 90 41 45 01 84 80 45 00 06 90 3E 61 6F 80 48
00 32 90 41 52 01 80 3E 00 29 80 41 00 01 BC 80
41 00 01 A2 90 3C 61 4B 90 3E 37 0D 90 40 5B 33
90 48 3B 33 80 3C 00 41 80 40 00 57 90 48 3A 37
80 3E 00 44 80 48 00 01 A6 80 48 00 3E 90 45 5D
01 F7 90 47 3A 02 80 45 00 01 B1 90 3C 55 01 B1
80 47 00 01 99 80 3C 00 2B 90 43 53 13 90 3C 44
74 90 43 40 0F 80 43 00 01 A8 80 43 00 14 90 45
42 15 90 3E 5C 08 80 3C 00 69 90 48 4D 01 9E 90
41 42 1C 90 3E 3B 25 80 3E 00 46 80 45 00 1D 90
3E 4D 77 80 48 00 43 90 43 54 25 80 41 00 50 80
3E 00 52 80 43 00 2E 80 3E 00 01 9A 90 40 5C 52
80 40 00 05 9A 90 43 4E 01 F5 90 43 43 01 89 90
48 42 46 80 43 00 01 E3 80 43 00 0B 80 48 00 71
90 3C 55 4D 90 40 4D 77 80 3C 00 09 80 40 00 07
B6 90 47 55 01 94 80 47 00 01 CC 90 3C 52 01 85
90 48 5A 3A 90 48 5B 17 90 43 61 46 90 48 42 0D
80 48 00 59 90 47 3A 38 80 48 00 04 80 3C 00 5E
80 48 00 1B 90 43 3C 23 80 43 00 01 8B 90 47 40
19 80 43 00 20 80 47 00 01 9E 80 47 00 05 F8 90
43 5A 57 90 48 55 01 C5 80 48 00 6F 80 43 00 4B
90 3C 4F 01 AE 80 3C 00 45 90 3C 35 4E 80 3C 00
03 CA 90 3E 44 04 90 41 5E 5F 80 3E 00 17 80 41
00 01 8F 90 48 3D 02 F5 80 48 00 03 90 40 60 48
90 48 48 01 8A 80 40 00 34 90 3E 47 01 9F 80 48
00 01 EC 80 3E 00 1E 90 41 52 54 80 41 00 4E 90
40 5F 56 90 3E 33 01 B7 80 40 00 02 89 80 3E 00
5B 90 47 34 02 B4 90 3C 53 59 80 47 00 01 EC 90
45 64 2A 80 3C 00 01 97 90 47 4C 15 90 40 3C 03
80 45 00 4D 90 3C 45 67 90 43 62 01 8C 80 3C 00
02 80 47 00 22 80 43 00 43 80 40 00 02 A9 90 47
51 74 80 47 00 0D 90 3E 33 32 90 45 34 43 80 45
00 02 9B 80 3E 00 6E 90 48 54 26 90 43 5A 01 95
90 40 48 1E 80 43 00 17 90 3E 37 13 90 40 62 4C
80 40 00 37 90 48 3A 2D 80 40 00 07 80 48 00 01
8D 80 3E 00 01 81 80 48 00 01 85 90 47 5E 2B 90
40 5A 4A 90 43 5F 6A 90 3E 61 44 80 3E 00 1F 90
47 40 06 90 43 4E 5F 90 45 5B 01 80 47 00 07 80
40 00 28 80 47 00 3A 80 43 00 54 80 45 00 0A 80
43 00 01 A7 90 40 5E 01 A2 80 40 00 46 90 3E 4E
02 DE 80 3E 00 01 C3 90 45 37 01 AA 90 47 40 06
80 45 00 52 80 47 00 01 D3 90 41 4A 52 80 41 00
62 90 43 3F 1E 90 3C 3F 01 81 90 48 3C 52 80 3C
00 1E 80 43 00 01 A0 90 48 5F 13 90 45 60 41 80
48 00 01 80 48 00 0C 90 3C 41 54 90 47 3F 60 80
3C 00 05 80 45 00 01 CB 90 3C 61 28 80 47 00 06
90 3E 43 5D 90 45 62 6F 80 3E 00 18 80 3C 00 01
A4 90 41 59 41 80 45 00 02 EA 80 41 00 02 AD 90
3C 33 01 9F 90 3C 57 77 80 3C 00 16 80 3C 00 15
90 40 5B 30 90 40 51 62 90 3C 49 60 80 40 00 08
90 40 4C 1E 80 40 00 41 90 40 36 03 80 3C 00 17
80 40 00 02 A9 80 40 00 01 B7 90 3C 58 65 90 43
54 53 80 3C 00 0B 80 43 00 01 A7 90 45 42 3E 90
3E 61 01 DB 80 45 00 5B 90 3C 5B 44 80 3C 00 0C
80 3E 00 02 98 90 3E 60 01 90 90 3E 59 6E 80 3E
00 3A 90 48 61 0E 80 3E 00 52 80 48 00 14 90 40
39 01 9E 80 40 00 2C 90 3E 3C 3F 90 40 3F 01 AE
90 48 44 02 80 40 00 5F 80 48 00 01 80 80 3E 00
5E 90 47 5D 2B 90 40 41 7D 90 3C 47 01 AB 80 47
00 1B 80 40 00 01 9A 90 3E 57 42 80 3C 00 42 90
45 37 01 90 80 3E 00 01 99 90 41 35 01 80 80 45
00 2E 80 41 00 74 90 47 3E 26 90 48 3D 02 B6 90
43 4B 3C 80 47 00 09 80 43 00 11 80 48 00 01 89
90 45 60 01 99 90 43 64 0F 80 45 00 6B 90 45 3F
01 8F 80 45 00 01 C0 80 43 00 06 AE 90 43 3C 46
80 43 00 05 D1 90 45 40 01 C6 80 45 00 78 90 3E
45 01 E7 80 3E 00 2B 90 41 3D 60 90 45 51 22 90
47 33 77 90 47 32 01 92 90 3C 61 1F 80 41 00 1D
80 47 00 54 80 45 00 03 80 3C 00 4B 80 47 00 41
90 41 4F 01 DB 90 43 39 12 90 48 54 10 80 41 00
15 90 3E 5F 40 80 3E 00 01 B3 80 43 00 4F 80 48
00 04 CE 90 3C 38 70 80 3C 00 0D 90 47 4F 01 86
80 47 00 01 B3 90 47 3B 39 90 45 63 53 90 48 4A
01 B0 80 47 00 40 80 48 00 62 80 45 00 03 FE 90
40 51 01 D2 80 40 00 01 A4 90 3E 48 6F 90 41 40
7F 80 41 00 09 80 3E 00 01 AE 90 3C 46 3F 90 48
42 40 90 45 3E 29 80 48 00 06 80 3C 00 14 80 45
00 02 E9 90 48 50 29 90 41 4E 03 99 80 48 00 33
90 45 61 07 80 41 00 01 EE 90 47 35 09 90 41 3E
01 93 80 45 00 07 80 41 00 02 80 47 00 47 90 41
5B 02 F8 80 41 00 01 CF 90 41 5A 01 96 80 41 00
02 C8 90 47 38 03 98 80 47 00 01 CC 90 47 3B 02
D6 90 3C 33 13 80 47 00 54 90 3E 40 02 99 90 45
4C 07 80 3C 00 3C 80 3E 00 02 CF 80 45 00 15 90
43 33 02 BC 90 40 4C 72 80 43 00 3C 90 48 61 7E
80 40 00 01 D5 80 48 00 0D 90 3C 52 01 EA 90 40
56 02 80 3C 00 04 90 48 60 01 84 80 40 00 38 90
45 45 7D 80 45 00 63 80 48 00 05 EB 90 40 61 01
9A 80 40 00 76 90 48 43 2A 90 45 3E 07 90 40 55
02 90 41 39 3A 80 45 00 5D 80 40 00 3C 80 48 00
7D 80 41 00 03 84 90 45 44 3E 90 41 5D 1D 90 45
4B 2B 80 41 00 7D 80 45 00 6F 90 3C 50 21 80 45
00 71 90 3E 4A 01 B2 80 3C 00 01 85 80 3E 00 04
9D 90 3E 53 10 90 3C 44 01 83 90 47 52 25 90 48
5A 40 80 47 00 6E 90 40 41 07 80 3E 00 0B 80 3C
00 01 86 80 48 00 01 FD 80 40 00 02 D8 90 41 56
01 81 90 43 43 46 80 41 00 6B 80 43 00 02 D7 90
3C 57 58 80 3C 00 08 90 41 4A 02 E0 90 3E 38 22
90 45 5E 18 80 41 00 01 A5 90 48 40 01 8A 80 45
00 34 80 48 00 0D 80 3E 00 02 88 90 3E 44 1A 90
41 3E 4D 80 3E 00 3D 90 43 4D 47 90 3E 49 15 80
43 00 0C 80 41 00 01 8F 90 45 44 75 80 3E 00 3E
80 45 00 77 90 3E 36 3C 90 45 3E 01 D1 80 45 00
42 80 3E 00 6F 90 47 5D 02 CD 90 3C 55 0D 80 47
00 40 90 41 64 01 81 80 3C 00 74 90 43 52 31 90
3E 44 51 80 41 00 01 B4 80 3E 00 01 81 80 43 00
2D 90 3E 34 09 90 43 49 40 80 43 00 02 99 90 47
51 09 80 3E 00 75 80 47 00 01 95 90 41 55 01 F0
80 41 00 19 90 41 47 47 80 41 00 01 F1 90 48 3D
3D 80 48 00 27 90 40 4F 36 90 48 42 37 80 40 00
01 FA 80 48 00 01 A0 90 45 47 02 B7 90 47 54 07
90 45 47 04 80 45 00 01 D7 80 47 00 2C 80 45 00
01 BA 90 41 55 01 8E 90 40 35 02 80 41 00 3C 90
41 5E 19 80 40 00 3B 90 47 43 01 DD 80 41 00 01
D5 80 47 00 07 90 3E 4A 02 F2 80 3E 00 09 90 41
53 03 88 80 41 00 0A 90 3C 55 02 AD 90 43 5B 00
90 47 62 01 A4 80 3C 00 05 80 43 00 01 D8 80 47
00 02 B1 90 48 42 01 C3 90 45 52 75 90 48 57 03
80 48 00 5B 90 41 3D 13 80 48 00 6A 80 45 00 1D
90 45 45 37 90 48 41 2C 80 45 00 47 90 3C 50 2A
80 41 00 34 80 48 00 02 A5 80 3C 00 03 AD 90 45
39 3D 80 45 00 53 90 40 54 78 90 45 5B 6C 80 40
00 26 80 45 00 56 90 45 51 02 BD 90 40 4F 10 80
45 00 01 FF 90 45 42 12 80 40 00 4F 90 48 61 79
80 48 00 3E 90 48 51 6C 80 45 00 2F 80 48 00 67
90 45 40 02 A0 90 45 63 1B 80 45 00 4A 90 41 39
01 BC 90 43 44 3A 80 41 00 72 80 45 00 01 D0 90
3C 41 53 80 43 00 1B 80 3C 00 01 B6 90 47 5E 38
90 47 5B 35 80 47 00 02 87 90 40 56 56 80 47 00
17 80 40 00 02 92 90 45 46 5C 80 45 00 18 90 3E
48 01 EA 80 3E 00 01 C3 90 3E 64 16 90 3C 4A 30
90 45 4D 0C 80 3C 00 05 90 43 64 1C 80 3E 00 01
8E 90 43 3C 6E 90 43 43 12 80 43 00 37 80 43 00
49 80 45 00 73 80 43 00 02 AD 90 47 3A 01 D7 90
41 3B 23 80 47 00 6D 90 41 41 19 90 48 47 2C 90
45 53 1F 80 41 00 05 90 3C 5F 20 80 41 00 01 81
80 3C 00 34 80 48 00 01 E0 80 45 00 0C 90 41 64
03 96 80 41 00 01 DE 90 45 47 01 A1 80 45 00 70
90 41 62 01 F4 90 3C 5B 73 90 40 3B 37 80 41 00
01 D7 80 40 00 44 80 3C 00 7B 90 48 64 1E 90 43
59 2E 90 41 34 01 93 80 43 00 28 80 48 00 33 90
47 4C 25 80 41 00 02 CF 80 47 00 04 90 3E 4B 02
87 90 3C 46 3E 80 3E 00 47 90 47 36 52 90 41 55
46 80 41 00 33 80 47 00 20 80 3C 00 03 FF 90 3C
3C 4E 90 40 48 7E 80 3C 00 16 90 3E 53 19 90 41
54 54 80 41 00 2D 80 3E 00 16 80 40 00 79 90 3C
41 32 90 40 60 71 90 48 50 54 80 48 00 3A 80 3C
00 77 90 3E 58 22 80 40 00 02 AF 80 3E 00 56 90
45 43 01 A6 90 3E 60 4D 90 47 54 11 90 43 55 0E
90 40 5D 01 90 41 45 04 90 41 32 3D 80 47 00 00
80 41 00 1A 90 47 4B 01 80 45 00 21 80 41 00 12
80 40 00 00 90 48 55 62 80 48 00 23 80 3E 00 45
80 43 00 01 9F 80 47 00 01 C3 90 40 34 00 90 43
33 02 90 90 48 54 1A 80 40 00 14 80 43 00 02 96
90 47 47 61 80 48 00 02 A0 80 47 00 61 90 48 5C
01 91 80 48 00 65 90 3E 4C 22 90 41 3B 01 B5 80
41 00 01 A2 90 48 58 5D 80 3E 00 31 90 40 43 5D
90 3E 3E 01 93 80 40 00 20 80 3E 00 0A 90 41 4D
2B 80 48 00 3E 80 41 00 06 A5 90 41 60 01 90 80
41 00 04 EC 90 3E 32 17 90 47 57 02 B3 80 47 00
01 94 80 3E 00 49 90 3C 4D 01 C5 80 3C 00 01 A3
90 40 3F 4B 90 48 59 01 E2 80 48 00 31 80 40 00
01 BB 90 45 5D 03 BD 80 45 00 14 90 41 50 03 D8
80 41 00 7E 90 41 50 74 90 43 38 1F 80 41 00 01
A4 80 43 00 01 D8 90 45 5D 03 98 90 3E 62 27 80
45 00 26 90 45 4F 01 83 80 45 00 03 80 3E 00 01
9B 90 3C 4E 01 BF 80 3C 00 11 90 48 64 56 90 48
52 61 90 3E 56 0C 80 48 00 18 80 48 00 48 90 48
38 72 80 48 00 40 90 3E 41 51 80 3E 00 24 80 3E
00 52 90 40 4D 01 AC 90 40 64 01 96 90 40 4E 7E
80 40 00 40 80 40 00 34 80 40 00 53 90 47 5D 01
A1 90 3C 54 29 80 47 00 01 83 80 3C 00 0A 90 41
61 3C 80 41 00 38 90 48 62 01 C8 90 47 5E 2A 90
47 38 19 90 3C 5A 48 90 41 39 3A 90 41 62 10 90
41 60 3E 80 48 00 20 80 47 00 11 80 41 00 25 80
47 00 01 A5 80 41 00 03 80 3C 00 0C 90 43 52 66
80 43 00 05 90 47 5A 14 80 41 00 01 B0 90 3E 60
3E 80 47 00 29 80 3E 00 4D 90 40 36 09 90 48 33
02 BE 80 40 00 5E 90 47 63 26 80 48 00 01 E1 80
47 00 30 90 40 52 02 8A 90 43 50 01 CB 80 40 00
5B 80 43 00 01 83 90 3E 3F 01 F4 90 47 32 2E 80
3E 00 0F 90 47 57 01 B8 90 47 4E 11 80 47 00 1C
80 47 00 3C 90 43 4B 01 A6 90 47 3A 0A 90 47 52
24 90 3E 44 51 90 40 5F 28 80 43 00 1E 80 47 00
05 80 47 00 2F 90 3E 61 20 80 3E 00 01 B2 80 47
00 4D 80 3E 00 03 80 40 00 0F 90 45 53 49 80 45
00 02 D7 90 48 4C 47 90 48 5B 0A 90 45 5C 52 90
3E 37 04 90 40 32 68 80 3E 00 23 80 48 00 29 80
45 00 18 80 48 00 2F 80 40 00 7A 90 41 53 53 80
41 00 03 A0 90 43 36 01 8F 90 3C 55 60 80 43 00
7E 80 3C 00 14 90 3E 41 4E 80 3E 00 75 90 3E 52
01 CB 80 3E 00 01 DA 90 3E 35 03 88 90 47 37 4C
80 3E 00 01 B6 80 47 00 20 90 43 32 19 90 48 54
01 B8 90 47 60 69 80 43 00 1D 80 48 00 44 80 47
00 03 A3 90 40 42 01 BB 90 3E 61 01 B0 90 3C 5E
0E 80 3E 00 16 80 40 00 49 90 47 41 71 80 3C 00
31 90 40 40 2B 80 47 00 76 90 45 40 53 80 40 00
01 84 80 45 00 50 90 40 4A 02 F5 80 40 00 06 BB
90 3E 33 01 91 90 45 32 6F 90 3C 42 79 80 3E 00
0B 80 3C 00 68 90 3C 4C 23 80 45 00 00 90 47 4F
01 AA 90 43 44 6F 80 47 00 68 80 3C 00 1A 80 43
00 04 B2 90 43 34 6A 90 45 5D 75 90 3C 63 01 85
80 3C 00 2A 80 43 00 16 80 45 00 01 E9 90 3E 5D
04 90 40 3F 3B 90 3C 62 33 80 40 00 2E 90 43 50
4A 80 3E 00 1A 80 43 00 39 80 3C 00 01 C5 90 48
36 42 90 45 5F 01 C5 80 45 00 4C 90 40 5F 23 80
48 00 01 E3 90 3E 3D 01 B3 80 40 00 02 89 80 3E
00 4E 90 45 4C 0F 90 3E 53 33 80 45 00 01 8E 90
45 43 61 80 3E 00 21 90 47 44 20 90 47 34 37 80
45 00 58 90 41 3D 12 90 40 5B 01 99 80 41 00 5D
80 47 00 10 80 47 00 01 97 80 40 00 66 90 43 36
01 CD 90 3C 39 01 D4 90 41 5E 23 80 43 00 1A 90
41 4F 09 90 3E 53 28 80 3C 00 0F 90 3E 44 01 AA
80 41 00 03 80 41 00 01 9A 80 3E 00 16 80 3E 00
17 90 3E 33 1F 90 43 5A 24 90 3E 58 6F 80 3E 00
34 80 3E 00 01 EF 80 43 00 04 E2 90 3C 5D 47 90
47 54 01 8D 80 3C 00 1D 90 43 58 01 E9 80 43 00
1E 80 47 00 6E 90 45 5E 6B 90 40 49 01 8B 90 3C
44 08 90 48 54 01 82 80 45 00 16 80 3C 00 35 90
41 38 39 80 40 00 18 90 40 5A 4C 80 48 00 3C 90
48 4E 0A 90 41 41 75 80 41 00 34 80 48 00 43 80
41 00 02 80 40 00 32 90 47 4B 2C 90 48 4F 01 8B
90 40 54 23 90 40 5A 6C 90 41 41 63 80 48 00 1F
80 47 00 09 80 41 00 7F 80 40 00 03 80 40 00 01
97 90 40 37 01 99 80 40 00 01 DA 90 3C 39 02 AB
90 47 5A 47 80 3C 00 01 88 90 47 5A 34 80 47 00
1A 90 3E 56 01 8B 90 43 3D 01 90 47 5F 61 80 47
00 29 90 47 5E 0A 80 43 00 01 90 3C 56 02 80 47
00 2A 80 3E 00 01 8C 90 41 32 01 87 90 43 40 39
90 43 5B 01 80 3C 00 38 80 47 00 75 80 41 00 04
90 41 3B 2E 80 43 00 40 90 47 42 17 80 43 00 01
80 80 41 00 0E 90 3C 63 56 80 3C 00 71 80 47 00
02 A9 90 40 41 01 C4 90 41 62 16 80 40 00 43 90
3C 44 5A 90 43 59 23 80 41 00 01 8C 80 43 00 07
90 3C 49 4B 80 3C 00 01 96 90 48 3E 01 DF 80 3C
00 29 90 47 40 01 AA 90 43 32 23 80 48 00 4B 80
43 00 09 80 47 00 03 B3 90 3E 51 5D 90 45 61 2D
80 3E 00 01 E5 90 40 4B 01 BA 80 45 00 42 90 45
48 29 90 40 61 01 85 80 40 00 01 BE 90 41 49 0B
80 45 00 23 90 43 3D 23 80 41 00 21 80 40 00 02
D8 90 43 36 26 90 41 3F 12 80 43 00 19 90 45 62
01 DF 90 45 4E 6F 80 43 00 2F 80 41 00 0A 90 3E
4A 4D 80 45 00 05 80 3E 00 38 80 45 00 01 A2 90
3E 4B 02 99 80 3E 00 02 D8 90 45 4A 1B 90 43 3C
02 FA 80 43 00 14 80 45 00 01 BE 90 48 4B 01 B0
80 48 00 03 9A 90 47 38 01 E5 90 3E 35 01 E9 80
47 00 49 80 3E 00 34 90 3E 5D 16 90 3C 4D 6F 80
3E 00 4F 80 3C 00 02 D6 90 43 44 02 AB 80 43 00
04 B3 90 48 38 01 83 80 48 00 02 B8 90 40 60 6B
80 40 00 02 A3 90 3E 32 01 BE 80 3E 00 01 A8 90
48 46 01 AE 80 48 00 0D 90 41 38 01 AC 90 45 35
0E 80 41 00 70 80 45 00 4D 90 41 5A 01 9A 80 41
00 20 90 48 35 02 9D 90 3C 3C 01 93 80 48 00 19
80 3C 00 55 90 45 44 01 B6 80 45 00 0D 90 48 39
03 A8 80 48 00 04 97 90 48 54 01 F9 80 48 00 04
C7 90 3E 5D 03 99 80 3E 00 03 B5 90 41 3B 01 DA
90 43 4F 01 BB 80 43 00 19 80 41 00 01 AD 90 3C
57 02 9F 90 40 45 22 80 3C 00 6D 80 40 00 03 90
43 64 65 90 41 53 3D 80 41 00 02 AD 80 43 00 01
D9 90 47 56 02 88 80 47 00 02 BC 90 3C 33 09 90
48 43 01 DF 80 3C 00 12 80 48 00 04 D0 90 40 52
1E 90 41 5C 39 90 47 53 27 90 40 45 6D 80 41 00
01 9A 80 40 00 03 80 47 00 4A 90 48 4C 43 80 40
00 3C 90 47 53 1F 90 45 64 58 80 45 00 01 BB 80
48 00 0B 80 47 00 02 9A 90 48 5E 69 90 47 38 20
90 3E 5C 4B 90 40 41 08 80 48 00 4D 80 47 00 01
87 90 48 3E 01 80 3E 00 3E 80 40 00 01 81 80 48
00 01 B3 90 47 5A 08 90 3C 50 01 9C 80 47 00 0F
80 3C 00 03 C7 90 3E 58 27 90 41 42 01 91 90 45
3A 42 80 3E 00 0E 90 3C 46 68 80 41 00 6A 80 3C
00 01 A2 80 45 00 75 90 43 5E 5D 90 45 34 15 90
45 62 4A 80 43 00 34 80 45 00 01 88 90 43 52 06
80 45 00 41 80 43 00 02 E7 90 40 5E 12 90 47 4F
09 90 3C 46 61 90 47 5E 01 CB 90 48 64 2D 80 3C
00 10 80 47 00 04 80 40 00 67 80 47 00 01 A4 80
48 00 03 F8 90 3C 3D 23 90 40 4A 6C 80 40 00 4E
80 3C 00 0F 90 3E 36 53 90 47 4A 59 80 3E 00 0A
90 3C 36 4B 90 40 64 0D 80 3C 00 01 99 90 40 39
05 80 47 00 01 A1 90 45 44 21 90 40 4B 3C 80 40
00 47 80 40 00 01 BC 90 40 4A 2D 80 45 00 44 90
3E 47 02 80 40 00 01 8D 80 40 00 01 84 80 3E 00
01 F4 90 45 5F 4A 90 47 41 2C 80 45 00 32 80 47
00 01 A6 90 40 4B 02 9B 90 45 5A 36 80 40 00 01
F7 80 45 00 03 B9 90 41 42 27 90 43 33 52 80 43
00 1B 90 3C 43 01 F3 80 3C 00 24 80 41 00 02 B0
90 3E 64 2E 90 45 4B 01 CF 80 45 00 01 D1 80 3E
00 01 A4 90 45 64 5D 80 45 00 01 BE 90 48 4A 25
90 47 48 5E 90 40 4F 55 80 47 00 36 80 48 00 21
90 40 3D 01 CD 90 48 5F 34 80 40 00 01 88 80 40
00 01 C2 80 48 00 04 F5 90 45 51 01 B6 90 40 42
06 90 43 53 2A 80 45 00 56 80 43 00 01 E9 90 48
4F 29 90 43 4E 00 80 40 00 01 85 80 43 00 73 90
48 45 12 80 48 00 02 83 80 48 00 5B 90 3C 61 1F
90 41 34 11 90 3E 48 3D 80 41 00 0C 90 48 59 01
D3 80 3E 00 2C 80 3C 00 01 A8 80 48 00 01 D8 90
48 4F 02 B8 80 48 00 04 BF 90 45 47 09 90 48 5E
02 AF 80 45 00 18 80 48 00 02 CB 90 48 60 1D 90
3C 53 01 BB 90 3C 3A 40 80 48 00 22 80 3C 00 3E
90 47 42 40 80 3C 00 01 B4 90 45 34 36 90 3E 34
13 80 45 00 78 80 3E 00 02 80 47 00 5F 90 3C 57
6E 90 45 63 01 A5 80 3C 00 31 90 45 64 01 F3 80
45 00 04 90 41 4B 02 90 40 3F 1E 90 40 42 01 83
80 40 00 11 80 41 00 1F 80 45 00 41 90 43 36 01
B9 80 40 00 67 90 48 55 06 90 47 49 47 90 48 51
03 80 43 00 79 80 48 00 01 99 80 47 00 13 90 47
3B 1F 80 48 00 13 90 45 54 40 80 47 00 7C 80 45
00 4C 90 3C 55 01 AF 90 41 54 4A 80 3C 00 50 90
40 62 44 80 41 00 42 90 48 4D 40 90 41 48 1D 80
40 00 24 80 48 00 58 90 47 46 18 80 41 00 30 90
41 3D 01 83 80 47 00 01 A3 80 41 00 5D 90 48 38
02 EF 90 3E 56 06 80 48 00 03 88 80 3E 00 04 FB
90 3E 45 55 80 3E 00 02 8C 90 43 60 25 90 48 62
57 80 43 00 1B 90 48 3D 3A 90 43 45 3B 90 3C 36
3A 80 48 00 15 80 48 00 6D 80 3C 00 09 90 3E 4D
74 90 3E 3E 02 80 43 00 2B 80 3E 00 02 E7 90 45
54 26 80 3E 00 01 8D 80 45 00 02 C5 90 3E 50 01
AD 90 3E 5F 31 80 3E 00 05 90 43 47 67 90 48 47
01 9A 80 3E 00 38 80 48 00 54 80 43 00 19 90 41
32 2B 90 41 52 2F 80 41 00 08 90 43 51 2F 80 41
00 02 F1 80 43 00 01 E1 90 47 52 01 98 90 41 38
09 90 3E 45 0C 90 41 3C 47 80 41 00 01 81 80 47
00 1A 90 3E 5A 0F 80 41 00 12 90 41 35 73 90 40
62 25 90 45 3C 2E 80 3E 00 55 80 40 00 01 84 90
3C 48 0C 80 41 00 0C 80 3E 00 3D 80 45 00 01 C3
90 3E 59 6E 80 3C 00 01 82 90 48 58 01 AF 80 3E
00 3A 80 48 00 07 A6 90 47 53 2F 90 40 5D 6C 80
40 00 01 C3 80 47 00 04 D9 90 45 37 01 AA 90 45
4B 36 80 45 00 04 90 3C 47 01 89 80 3C 00 57 80
45 00 01 DF 90 45 5A 45 90 41 41 5D 90 47 51 01
A7 80 45 00 39 90 3E 41 75 80 3E 00 12 80 41 00
23 80 47 00 01 D2 90 3E 4D 02 A4 90 41 59 01 82
90 40 5F 02 80 3E 00 01 EE 80 40 00 1F 80 41 00
01 E3 90 3E 46 03 99 90 41 37 24 80 3E 00 01 C1
80 41 00 01 CC 90 41 42 47 80 41 00 01 87 90 3E
54 01 E0 80 3E 00 18 90 40 59 73 90 43 37 62 80
40 00 01 8E 80 43 00 01 DC 90 3C 41 71 90 43 59
57 90 40 42 01 80 80 3C 00 01 96 90 3C 48 33 80
40 00 0D 80 43 00 27 80 3C 00 01 92 90 3E 4A 65
80 3E 00 01 9C 90 43 41 57 90 45 44 5A 80 43 00
01 91 90 48 57 22 90 3C 41 0F 80 45 00 3D 80 3C
00 01 B8 80 48 00 01 8C 90 41 51 50 80 41 00 01
B2 90 45 46 02 AE 90 3C 37 19 80 45 00 6A 90 45
3F 1C 80 3C 00 03 8F 80 45 00 25 90 41 46 01 CF
90 3C 53 01 92 80 41 00 0B 90 3E 3E 01 80 80 3C
00 07 80 3E 00 26 90 48 5A 1A 90 41 43 01 EF 80
48 00 44 90 43 60 01 82 80 41 00 5B 80 43 00 6C
90 3C 42 42 90 43 5D 44 80 3C 00 3F 90 43 36 4C
90 3E 59 48 90 48 5E 12 80 43 00 53 90 3C 50 01
80 43 00 54 80 3C 00 33 80 3E 00 3F 80 48 00 04
8C 90 48 3D 01 D2 80 48 00 19 90 41 4B 09 90 3C
47 7C 80 3C 00 02 A7 80 41 00 55 90 3C 34 27 90
48 55 5C 80 48 00 0A 90 43 34 39 90 48 64 55 80
43 00 01 B8 80 48 00 07 80 3C 00 07 A4 90 40 61
1F 90 3C 5C 51 90 3E 33 18 80 3C 00 0A 90 3E 48
4D 80 40 00 49 80 3E 00 63 80 3E 00 03 CE 90 48
35 63 90 3C 52 01 EF 80 48 00 6A 80 3C 00 03 8B
90 45 35 02 FC 80 45 00 02 AC 90 45 36 02 EC 90
3C 5E 24 80 45 00 01 9C 90 3C 47 3C 90 43 52 20
80 3C 00 63 80 3C 00 0A 90 47 45 04 90 43 32 46
90 48 44 01 A6 80 43 00 28 90 40 57 27 80 43 00
26 80 47 00 1A 80 40 00 08 80 48 00 01 E4 90 43
5A 16 90 47 48 26 90 48 4D 01 B5 90 41 3D 15 90
40 40 1F 80 47 00 2D 90 48 44 01 80 43 00 0D 90
45 5C 18 80 48 00 60 80 45 00 38 80 40 00 52 80
48 00 2D 80 41 00 06 FB 90 3C 59 01 B0 80 3C 00
19 90 47 40 11 90 40 36 35 90 47 49 12 80 40 00
4B 90 47 55 34 80 47 00 01 BD 90 3C 3B 01 80 47
00 4D 80 47 00 01 F0 90 3C 4C 2B 90 48 64 03 80
3C 00 01 80 80 48 00 11 80 3C 00 3F 90 43 54 01
D3 90 48 61 21 80 43 00 32 80 48 00 04 FA 90 47
4D 02 80 80 47 00 03 A5 90 41 44 53 90 3E 4C 01
92 80 41 00 02 C0 80 3E 00 77 90 43 46 03 9F 80
43 00 1B 90 45 51 01 A0 90 43 3C 02 9C 80 43 00
08 80 45 00 30 90 3E 47 01 8B 90 40 3A 7B 80 3E
00 01 B4 90 45 3F 05 80 40 00 57 90 3C 4F 01 BA
80 45 00 01 CB 90 45 60 43 80 3C 00 01 96 80 45
00 01 86 90 48 55 6B 80 48 00 66 90 48 60 01 93
90 3C 35 64 80 3C 00 73 80 48 00 03 87 90 47 5A
03 E0 80 47 00 6D 90 48 4C 45 90 40 42 63 80 48
00 44 80 40 00 05 FF 90 40 52 56 80 40 00 01 90
90 3C 37 02 C5 90 45 4A 15 80 3C 00 79 80 45 00
16 90 43 52 69 90 3E 4E 01 B1 90 48 47 4B 90 3E
60 2A 90 40 5E 22 80 43 00 01 83 80 3E 00 34 80
3E 00 01 8A 80 48 00 1E 80 40 00 02 DC 90 3E 37
45 90 48 5B 01 D4 80 3E 00 7C 90 3E 60 7F 80 48
00 01 A1 80 3E 00 01 DC 90 48 58 01 8D 90 41 43
27 90 3C 34 1B 80 41 00 03 80 48 00 01 9C 80 3C
00 02 BF 90 47 50 0D 90 43 52 79 80 47 00 79 90
3C 3C 01 D9 90 47 52 08 80 43 00 01 C5 80 47 00
2B 80 3C 00 01 A5 90 40 53 5F 80 40 00 75 90 48
4D 05 90 45 40 63 90 48 5B 14 90 3C 4C 06 80 48
00 66 80 48 00 4C 80 45 00 01 C8 90 47 60 0F 80
3C 00 53 90 40 4D 03 90 48 46 65 80 40 00 12 90
41 5D 6E 80 48 00 3C 80 47 00 01 B2 90 45 3B 29
80 41 00 3A 80 45 00 2A 90 3C 52 02 8D 80 3C 00
14 90 40 47 35 90 48 42 02 C9 90 41 33 14 80 48
00 4C 80 40 00 01 A1 90 43 35 1E 90 41 38 27 80
43 00 43 80 41 00 01 A2 80 41 00 53 90 43 4C 51
80 43 00 30 90 48 49 02 DC 80 48 00 05 C2 90 48
64 01 91 80 48 00 17 90 45 47 1D 90 48 37 01 F5
90 48 4D 1D 80 45 00 01 A5 80 48 00 01 B7 90 3C
4A 00 90 45 50 5E 80 48 00 2C 90 45 34 01 92 80
45 00 47 90 48 5E 1A 90 40 4D 01 80 45 00 0A 80
3C 00 02 A4 80 48 00 29 80 40 00 02 C9 90 48 4A
51 80 48 00 04 FD 90 47 4A 08 90 48 53 01 8A 90
45 4E 08 90 48 59 38 80 45 00 01 A7 80 47 00 5C
80 48 00 0A 80 48 00 3E 90 43 59 03 CC 80 43 00
03 9E 90 43 46 01 F4 80 43 00 01 96 90 45 36 01
E5 80 45 00 01 F5 90 47 61 01 F0 80 47 00 02 EB
90 47 51 0A 90 40 4B 67 80 40 00 0D 90 3E 61 02
90 40 45 5D 80 47 00 01 AB 90 47 3B 08 80 3E 00
14 90 40 57 43 80 40 00 01 80 40 00 66 90 3C 32
1D 90 3E 3B 0E 90 48 4D 20 90 3C 5C 3A 80 47 00
10 80 3C 00 1A 80 3E 00 62 80 3C 00 01 8E 90 40
5A 0C 80 48 00 7F 80 40 00 05 A0 90 3E 56 23 90
47 46 54 90 3E 5A 0C 90 43 50 01 87 90 45 3D 16
80 47 00 0A 80 3E 00 19 80 43 00 39 80 45 00 1F
80 3E 00 01 96 90 3C 45 01 90 80 3C 00 01 94 90
45 37 54 80 45 00 08 90 41 51 02 D3 90 45 4D 13
90 48 3D 2C 90 43 3A 25 80 45 00 0B 80 41 00 02
90 3E 33 33 90 40 4F 5E 90 40 3C 08 90 41 42 4B
80 40 00 05 80 43 00 38 80 48 00 4B 80 3E 00 22
80 40 00 3A 90 45 63 01 A2 80 41 00 79 80 45 00
0E 90 47 4F 41 90 43 63 01 99 90 43 35 59 90 48
53 22 90 48 51 15 80 47 00 6D 80 43 00 55 80 48
00 5B 80 48 00 16 80 43 00 03 D5 90 41 57 78 80
41 00 03 90 3E 5F 20 90 40 53 03 95 80 40 00 0F
80 3E 00 02 B2 90 41 60 01 C2 80 41 00 03 AC 90
45 54 01 CC 80 45 00 01 8A 90 45 33 02 9E 90 3C
55 3C 80 45 00 01 80 3C 00 05 9F 90 3E 4D 01 F6
80 3E 00 05 E2 90 45 43 78 90 3E 53 46 80 45 00
01 94 90 43 55 7B 90 41 5E 01 80 43 00 5D 80 3E
00 02 80 80 41 00 03 BF 90 45 58 74 80 45 00 02
C7 90 3C 43 2D 90 3E 37 01 EC 80 3C 00 6A 80 3E
00 14 90 3E 5E 01 A3 80 3E 00 01 A0 90 41 4F 11
90 47 62 01 B3 80 41 00 01 9D 90 3E 56 22 80 47
00 02 BD 90 40 38 63 80 3E 00 4D 80 40 00 01 8F
90 43 46 03 BE 80 43 00 05 C3 90 41 62 0B 90 48
5D 02 CE 80 48 00 48 80 41 00 02 AD 90 40 62 01
CA 80 40 00 03 86 90 3E 49 17 90 43 5A 6B 80 3E
00 01 BF 90 3C 36 01 9B 80 43 00 19 90 3C 37 2B
90 43 43 32 90 45 3B 70 80 3C 00 29 80 45 00 01
CE 80 3C 00 46 80 43 00 20 90 41 5F 34 90 3C 4D
01 BA 80 41 00 54 80 3C 00 09 90 43 54 0B 90 43
61 01 A2 80 43 00 29 80 43 00 6F 90 43 45 4B 80
43 00 63 90 48 38 0C 90 3E 4D 01 86 80 48 00 01
97 90 3C 39 1C 90 45 3A 02 80 3E 00 06 90 48 33
01 B4 80 45 00 69 90 40 3E 26 90 45 50 3C 80 3C
00 58 80 48 00 55 80 40 00 27 80 45 00 03 FB 90
41 36 01 F6 90 45 62 01 A9 80 41 00 39 80 45 00
03 89 90 47 5A 02 A6 80 47 00 01 9A 90 43 3A 01
85 80 43 00 03 C8 90 3E 47 01 B4 90 45 3C 1D 80
3E 00 01 8E 90 3E 55 01 82 90 47 41 15 80 45 00
01 9C 80 3E 00 0C 90 47 55 4C 80 47 00 02 E5 80
47 00 02 9D 90 3E 39 01 99 80 3E 00 3C 90 41 4C
3C 80 41 00 03 E6 90 40 50 01 AA 90 3C 36 33 80
40 00 02 97 90 41 39 60 80 3C 00 7C 80 41 00 23
90 47 4C 03 96 80 47 00 61 90 3E 58 01 C3 90 43
35 01 C6 80 3E 00 08 90 48 32 01 92 80 48 00 04
80 43 00 01 EA 90 40 58 01 9C 90 45 44 3F 80 45
00 15 90 43 34 70 90 3E 44 13 80 40 00 78 90 3C
64 39 80 3E 00 65 80 43 00 74 80 3C 00 01 B6 90
47 40 4D 90 47 39 2A 80 47 00 12 90 43 37 01 E9
80 43 00 0E 80 47 00 04 90 90 43 33 01 A1 90 48
63 23 90 43 5C 2E 90 3C 36 5D 80 48 00 06 80 3C
00 55 80 43 00 01 A0 80 43 00 01 C8 90 48 5E 02
98 90 48 4D 01 8B 80 48 00 3A 80 48 00 02 D2 90
47 32 2F 90 3E 55 01 EF 90 41 51 2D 80 3E 00 07
80 47 00 01 D4 90 41 5F 0D 90 3C 5F 38 80 41 00
24 80 3C 00 54 90 41 45 6B 80 41 00 27 80 41 00
01 C6 90 3E 55 13 90 47 47 60 80 3E 00 58 80 47
00 03 9D 90 3C 3A 02 C9 90 45 3A 63 80 3C 00 4F
90 41 51 05 90 40 5E 01 DD 80 45 00 47 80 40 00
6C 80 41 00 4B 90 43 58 03 A7 90 3C 40 15 80 43
00 36 80 3C 00 2D 90 3C 3B 01 DC 80 3C 00 2C 90
47 58 0E 90 43 63 60 80 47 00 36 80 43 00 1D 90
40 58 10 90 48 50 57 80 48 00 23 80 40 00 02 C2
90 3C 32 74 80 3C 00 02 F6 90 3C 55 15 90 41 3C
01 97 80 3C 00 55 90 3E 5E 01 F0 80 41 00 3E 90
48 4A 02 90 3E 51 4C 90 45 3D 52 80 3E 00 1F 80
3E 00 2F 90 40 63 35 90 40 5F 1D 90 43 49 49 80
48 00 72 80 45 00 2F 80 40 00 41 80 40 00 01 A3
80 43 00 1D 90 41 64 01 C2 80 41 00 5C 90 48 40
02 CC 80 48 00 01 81 90 41 59 5E 90 40 64 08 80
41 00 4C 90 45 62 56 90 48 5F 36 80 40 00 35 90
41 5D 46 80 48 00 29 90 47 37 4C 90 45 63 22 90
41 38 16 80 45 00 05 80 41 00 1C 80 47 00 4B 80
45 00 22 80 41 00 01 8C 90 3E 41 7C 80 3E 00 01
80 90 3E 37 02 8F 90 40 37 3F 90 3C 32 01 90 3C
39 26 90 41 60 05 80 40 00 28 80 3E 00 6C 80 3C
00 06 90 41 3D 34 80 3C 00 2A 80 41 00 1A 80 41
00 01 C7 90 47 40 6C 80 47 00 44 90 47 62 01 A7
80 47 00 0C 90 48 5E 20 90 48 3C 01 9C 90 3E 41
11 80 48 00 01 F6 80 48 00 28 90 3C 45 15 90 3E
43 3A 90 3E 5D 28 80 3E 00 0C 90 40 5E 01 8C 80
3C 00 12 80 3E 00 56 80 40 00 17 80 3E 00 2E 90
41 53 2D 90 43 3D 02 96 80 41 00 48 80 43 00 78
90 45 5E 26 90 3E 3F 01 80 90 3E 41 01 97 80 3E
00 4B 80 3E 00 15 80 45 00 03 E3 90 3C 62 01 80
90 47 5A 72 80 47 00 01 ED 80 3C 00 06 C9 90 3E
4C 01 8B 90 41 4F 34 80 3E 00 01 B2 80 41 00 03
CD 90 47 56 02 AE 80 47 00 02 CA 90 43 3E 01 98
90 47 64 10 90 45 40 30 80 43 00 68 80 45 00 0F
90 3C 3D 01 89 90 48 5D 19 80 47 00 01 98 80 3C
00 6C 90 41 58 4F 80 41 00 2C 80 48 00 0A 90 3E
43 46 90 47 35 31 90 47 47 01 99 80 3E 00 30 80
47 00 2A 90 40 43 01 98 80 47 00 49 90 40 4B 46
90 48 5D 3D 80 40 00 44 80 40 00 01 B3 80 48 00
01 B4 90 45 34 56 90 41 52 0D 90 3E 5E 01 9E 80
45 00 6A 90 3C 46 1D 80 41 00 0D 80 3E 00 02 B4
90 41 5F 56 80 41 00 1D 80 3C 00 03 8C 90 48 5F
02 91 80 48 00 0F 90 45 3F 68 90 43 51 16 90 3C
37 01 9F 80 45 00 16 90 43 49 58 80 43 00 09 90
3C 4C 60 80 3C 00 3A 80 43 00 01 B2 80 3C 00 02
90 90 45 46 01 96 90 48 5D 01 A8 90 3E 59 38 80
45 00 01 8C 80 48 00 08 80 3E 00 01 C0 90 3C 43
03 C7 80 3C 00 02 9C 90 41 45 02 CD 80 41 00 07
81 90 41 46 0A 90 48 3D 3F 80 41 00 02 AF 80 48
00 01 8A 90 45 46 6E 90 47 62 01 C4 80 47 00 12
80 45 00 17 90 41 46 01 F8 80 41 00 01 E4 90 3E
3E 02 C6 80 3E 00 79 90 41 49 73 90 40 4E 00 90
3E 47 45 90 43 4B 0F 80 41 00 74 80 3E 00 01 B0
80 43 00 64 80 40 00 16 90 41 62 03 9E 80 41 00
03 98 90 48 5F 59 90 41 60 48 80 41 00 13 80 48
00 03 FC 90 47 50 1A 90 45 64 34 80 47 00 01 B1
90 47 3B 01 C5 80 45 00 6C 80 47 00 02 A9 90 3C
43 01 E5 90 41 59 01 97 90 48 43 10 90 41 59 1B
80 3C 00 01 80 80 41 00 57 90 41 5A 15 90 40 3D
44 80 48 00 04 80 40 00 39 80 41 00 20 80 41 00
01 AA 90 45 3C 01 AC 80 45 00 01 AA 90 3C 40 02
D9 80 3C 00 5F 90 43 48 62 80 43 00 31 90 48 3C
56 90 45 5D 5E 90 3C 54 25 90 40 5E 01 B2 80 45
00 22 90 40 36 20 80 48 00 26 80 40 00 05 80 3C
00 29 80 40 00 01 A7 90 3C 5D 25 90 40 5A 3C 80
3C 00 42 80 40 00 59 90 3C 33 0E 90 43 41 02 93
80 3C 00 01 A4 80 43 00 03 E2 90 41 5E 01 C0 80
41 00 02 91 90 3C 53 01 BB 80 3C 00 02 A3 90 40
44 02 AB 80 40 00 01 C1 90 3E 3E 0B 90 3E 48 39
90 43 50 28 80 3E 00 01 91 90 3E 51 5F 80 43 00
70 80 3E 00 32 90 48 46 7E 90 3E 5F 12 80 3E 00
1C 80 48 00 01 91 90 41 39 2E 80 3E 00 02 EC 80
41 00 04 88 90 41 40 02 A8 80 41 00 4E 90 48 37
03 90 3C 3B 02 A8 80 48 00 29 90 43 62 1D 90 45
5D 0E 80 3C 00 01 90 80 45 00 50 80 43 00 24 90
41 61 01 D9 90 40 5F 13 80 41 00 43 80 40 00 49
90 48 5F 01 FC 80 48 00 03 9F 90 43 42 51 90 41
46 19 90 48 5F 4C 80 48 00 13 80 41 00 2E 90 48
61 15 80 43 00 40 80 48 00 2A 90 40 5B 01 8B 90
43 59 5D 90 48 5F 5F 90 48 42 0D 80 43 00 05 80
40 00 01 95 90 3C 54 3C 80 3C 00 01 9A 80 48 00
07 80 48 00 3F 90 3E 37 01 F9 90 41 41 2B 80 3E
00 01 D7 90 43 51 05 80 41 00 31 90 45 63 53 80
43 00 31 90 47 50 66 80 45 00 26 80 47 00 49 90
41 55 21 90 47 4B 01 86 80 47 00 53 80 41 00 02
A0 90 45 41 74 80 45 00 4F 90 48 58 01 A6 80 48
00 76 90 41 53 21 90 45 3D 3C 80 45 00 2B 90 48
5A 01 8B 80 41 00 1B 90 47 61 01 FC 80 48 00 01
DD 80 47 00 04 88 90 45 3B 41 90 48 61 1A 80 45
00 71 90 48 4D 19 80 48 00 7E 90 41 62 44 90 45
4F 01 90 80 45 00 23 80 48 00 29 80 41 00 01 DC
90 48 60 02 95 90 3E 4F 6F 90 48 34 42 80 48 00
7E 90 48 5A 01 81 80 3E 00 0B 90 43 56 10 90 41
5C 1C 80 48 00 4D 90 3E 46 3D 80 48 00 03 80 43
00 71 90 3E 64 2F 80 3E 00 7D 80 41 00 01 D1 80
3E 00 36 90 45 5B 01 95 90 3E 53 7F 80 3E 00 36
80 45 00 03 A7 90 48 4E 01 B1 80 48 00 02 8F 90
41 46 01 93 80 41 00 01 C7 90 3C 33 3C 90 3E 5A
13 90 3E 34 03 80 3C 00 02 89 90 3E 3D 09 90 3C
5A 0B 90 45 34 0E 80 3E 00 01 90 45 4A 09 90 47
45 37 80 45 00 31 80 45 00 0A 80 3E 00 10 80 47
00 08 80 3E 00 2A 80 3C 00 03 81 90 40 3C 02 F3
80 40 00 06 AE 90 47 56 02 E7 80 47 00 08 A7 90
40 37 70 90 3C 4F 14 80 40 00 02 9A 90 47 44 05
90 45 3F 01 8F 80 47 00 0B 80 3C 00 01 D1 90 48
32 1D 80 45 00 7F 80 48 00 56 90 3E 54 01 F3 80
3E 00 02 E1 90 43 5F 1E 90 48 5C 01 84 90 3E 57
0A 90 47 44 2E 80 43 00 61 90 41 57 2A 80 3E 00
1D 80 41 00 65 80 48 00 03 80 47 00 02 CD 90 45
32 1C 90 43 5A 01 C0 80 43 00 01 80 90 45 63 5C
80 45 00 0C 80 45 00 1B 90 40 59 6A 80 40 00 5A
90 45 48 01 90 48 4B 6E 80 48 00 52 90 41 49 01
8F 90 43 35 51 80 45 00 0A 80 41 00 2E 90 3C 62
4F 80 43 00 28 80 3C 00 02 9F 90 41 35 01 E4 80
41 00 01 E0 90 48 59 01 C4 90 40 59 24 90 41 4C
0E 90 3E 48 46 80 48 00 4E 90 43 5E 45 80 41 00
54 80 3E 00 0F 80 40 00 60 80 43 00 69 90 3C 3C
31 90 3E 3A 03 AA 80 3C 00 08 80 3E 00 51 90 47
3C 01 8C 90 40 5F 1A 90 45 63 3D 90 45 50 18 80
47 00 61 80 40 00 37 80 45 00 04 80 45 00 02 AD
90 43 5E 01 A3 80 43 00 01 EA 90 45 47 01 B0 80
45 00 02 CB 90 3C 38 7F 80 3C 00 7A 90 47 5A 01
F6 90 45 53 1B 90 40 41 67 90 43 5F 25 90 48 60
25 80 47 00 74 80 43 00 29 80 45 00 1C 80 48 00
34 90 3C 4A 24 80 40 00 04 90 40 35 01 80 90 48
5F 01 B2 80 3C 00 05 90 47 42 49 80 40 00 01 B3
80 48 00 01 CB 80 47 00 01 BD 90 41 5B 06 90 3C
3B 40 90 3E 54 01 98 80 3C 00 34 80 3E 00 6A 80
41 00 01 B0 90 48 33 2B 90 40 33 10 90 3C 43 7D
80 48 00 56 80 40 00 29 80 3C 00 02 90 90 40 5B
01 B6 90 47 4C 01 DA 80 47 00 0B 80 40 00 08 A8
90 47 48 01 8F 90 3E 37 30 80 47 00 2E 80 3E 00
01 CD 90 48 39 02 A2 80 48 00 39 90 45 5F 01 9D
90 41 37 01 93 80 45 00 60 80 41 00 2B 90 3E 54
7D 90 45 47 01 C1 80 3E 00 01 DA 80 45 00 09 90
48 47 01 D1 80 48 00 25 90 3E 4F 03 8C 80 3E 00
02 A4 90 40 53 02 B3 80 40 00 01 90 90 45 60 15
90 3E 59 5C 80 3E 00 3A 80 45 00 01 9C 90 48 40
01 D6 80 48 00 17 90 40 40 23 90 3C 47 22 80 40
00 01 E1 80 3C 00 03 B1 90 41 33 01 E2 80 41 00
01 DE 90 3C 5B 02 89 90 41 46 23 90 48 41 5C 80
3C 00 29 90 40 47 37 80 48 00 41 80 41 00 61 80
40 00 39 90 43 4D 70 90 41 58 52 90 41 55 6F 80
41 00 01 82 90 41 4A 08 80 41 00 0B 80 43 00 01
91 90 3E 52 56 80 41 00 44 90 41 3A 0A 90 48 3E
66 80 48 00 45 90 41 4B 1B 80 41 00 41 80 3E 00
01 85 90 3E 60 7C 80 3E 00 0B 80 41 00 02 C2 90
3C 58 7B 90 47 47 4A 90 40 4C 63 90 40 36 06 80
3C 00 1B 90 41 64 22 80 40 00 21 80 40 00 11 90
43 3B 69 80 47 00 30 80 43 00 01 A7 80 41 00 01
C4 90 43 43 29 90 3C 64 57 80 43 00 3D 90 43 39
1A 80 3C 00 01 83 80 43 00 04 C6 90 3C 62 38 90
48 4F 4D 90 45 64 17 80 3C 00 69 90 3E 45 5B 90
43 4F 41 90 41 5D 13 90 40 4A 1C 90 3E 4D 44 80
48 00 0E 80 45 00 13 80 41 00 01 80 3E 00 10 90
43 36 1D 80 43 00 1B 80 40 00 57 80 43 00 20 80
3E 00 7E 90 3E 50 6A 90 47 51 01 AC 90 3E 5D 21
80 3E 00 72 80 3E 00 59 80 47 00 07 9A 90 3E 4A
3A 90 45 39 01 CE 90 3C 55 77 80 45 00 25 80 3C
00 22 80 3E 00 25 90 3E 4B 1B 90 47 4D 01 FD 80
3E 00 1C 90 40 53 74 90 48 63 1A 80 47 00 01 BF
80 40 00 54 80 48 00 02 BD 90 40 43 03 90 3C 57
62 90 40 57 01 A2 80 40 00 01 C9 80 40 00 03 80
3C 00 01 BB 90 3C 62 72 80 3C 00 1A 90 48 63 48
80 48 00 04 E8 90 40 58 27 90 47 64 50 80 40 00
01 87 90 48 63 5A 90 43 37 0D 90 43 51 2E 80 48
00 34 80 43 00 18 80 47 00 01 9B 80 43 00 23 90
43 3A 02 98 90 43 63 01 8F 80 43 00 24 80 43 00
02 F6 90 43 36 01 E1 90 40 4B 42 90 48 48 05 90
45 3A 06 80 43 00 4A 80 40 00 01 B6 80 45 00 74
80 48 00 05 BE 90 3C 58 5F 80 3C 00 01 DB 90 48
4D 22 90 41 56 08 90 3C 5E 4E 80 48 00 67 90 40
3E 07 80 3C 00 01 BD 90 3C 51 3D 80 41 00 01 D6
80 3C 00 02 80 40 00 75 90 3C 51 02 9C 90 45 48
01 AB 90 48 46 15 80 3C 00 01 8C 80 45 00 50 90
40 58 23 90 40 32 0D 90 45 5A 74 80 48 00 1C 80
40 00 4B 80 40 00 01 E8 80 45 00 01 85 90 3C 42
06 90 48 4E 1D 90 3E 3B 01 FA 80 3E 00 5F 80 3C
00 2F 80 48 00 06 9D 90 3E 51 55 90 45 5C 05 80
3E 00 02 D7 80 45 00 22 90 45 48 5A 80 45 00 6E
90 45 32 17 90 48 44 47 80 45 00 21 90 47 3A 01
8E 80 47 00 3B 90 45 3D 3E 90 47 52 28 80 48 00
2C 90 45 5B 79 90 3C 42 06 80 45 00 0D 80 45 00
0D 90 43 56 1B 80 47 00 01 94 90 43 35 0E 80 3C
00 36 90 3E 5D 10 90 3C 59 21 80 43 00 01 8D 80
3E 00 1D 80 43 00 3A 80 3C 00 0C 90 48 4E 01 90
90 3E 5D 01 90 43 5B 2D 90 41 4B 14 80 43 00 68
80 48 00 63 80 41 00 1A 80 3E 00 56 90 45 3B 01
B6 80 45 00 06 FE 90 3C 4F 01 D1 80 3C 00 06 90
90 3E 54 01 CC 90 40 4D 23 80 3E 00 03 95 90 47
4C 21 80 40 00 6E 90 3E 3E 01 A1 80 3E 00 6B 80
47 00 60 90 47 63 0C 90 41 53 15 90 40 54 50 80
41 00 6B 80 47 00 30 90 3C 40 01 99 80 40 00 02
81 90 47 4B 46 80 3C 00 06 90 43 3C 01 91 90 48
4D 35 80 47 00 3D 80 43 00 27 80 48 00 03 D1 90
43 61 7C 90 3E 37 1F 90 41 4B 12 80 43 00 0E 80
3E 00 01 A9 90 45 3C 50 80 41 00 01 80 90 3C 3B
40 90 48 63 54 80 48 00 79 80 45 00 01 9C 80 3C
00 02 8F 90 40 61 24 90 3E 5A 33 80 40 00 02 9F
90 48 59 42 90 43 48 0A 80 3E 00 6F 90 3E 5F 14
90 48 37 15 80 48 00 13 80 43 00 4D 90 48 42 01
A5 80 48 00 03 80 48 00 59 80 3E 00 11 90 43 63
02 D3 80 43 00 1C 90 3C 48 01 D3 80 3C 00 01 8F
90 47 42 0E 90 3E 5B 47 80 3E 00 01 BC 80 47 00
04 C0 90 48 4C 03 92 80 48 00 02 84 90 3E 56 02
90 80 3E 00 04 AE 90 40 58 75 90 40 49 01 BF 90
3E 38 23 80 40 00 2B 80 40 00 01 AF 90 41 4E 75
80 41 00 49 80 3E 00 4E 90 43 38 53 90 3C 4C 48
90 45 42 0A 80 3C 00 7E 90 40 48 23 80 43 00 01
83 80 45 00 02 83 80 40 00 07 90 3C 63 1B 90 43
55 19 90 3E 5A 47 90 3E 59 2F 90 43 61 48 80 3E
00 69 80 43 00 01 82 80 3C 00 07 80 43 00 22 80
3E 00 04 A4 90 3E 3D 3C 90 47 4E 59 80 3E 00 46
80 47 00 02 A3 90 3C 33 69 90 40 5F 01 B9 90 48
4E 2F 80 3C 00 17 80 40 00 78 90 43 4E 01 80 48
00 03 BA 80 43 00 08 EF 90 3E 62 41 90 43 3B 57
80 43 00 02 A4 80 3E 00 76 90 47 54 54 80 47 00
03 81 90 47 5A 02 85 90 45 62 25 80 47 00 02 B1
80 45 00 01 D6 90 40 51 57 90 45 3A 3A 90 48 34
01 8C 80 45 00 01 C1 80 40 00 78 80 48 00 01 EE
90 48 32 01 8A 90 48 32 30 90 47 63 01 FE 80 48
00 09 80 47 00 0A 90 3E 52 4F 80 48 00 71 90 40
39 1A 90 45 45 01 A8 80 45 00 4A 80 40 00 03 80
3E 00 02 F8 90 48 4C 40 90 43 48 01 8E 90 48 35
01 85 80 48 00 53 90 3E 4F 22 80 43 00 23 90 47
4A 1C 80 3E 00 04 80 48 00 6C 80 47 00 02 FC 90
41 43 22 90 47 33 08 90 47 3F 03 90 48 46 01 A7
80 48 00 22 80 41 00 01 8B 80 47 00 11 80 47 00
06 DF 90 45 38 20 90 41 35 01 97 80 45 00 15 90
47 36 12 90 3C 49 42 80 47 00 70 80 41 00 01 B5
80 3C 00 02 BF 90 41 49 51 90 40 50 08 80 41 00
01 D1 90 47 5A 3B 90 40 5F 1E 90 47 3D 2D 90 43
64 74 80 40 00 16 80 47 00 17 90 41 4C 01 C3 90
45 5D 1C 80 43 00 07 80 40 00 16 80 47 00 6D 80
41 00 5A 90 3E 64 01 9C 80 45 00 00 90 45 52 20
80 3E 00 12 90 45 45 45 90 45 35 6C 90 3C 36 01
83 80 45 00 0E 80 45 00 04 80 45 00 01 EA 80 3C
00 03 B0 90 48 42 43 90 3E 34 33 80 48 00 68 90
3C 59 2A 90 43 3F 17 90 48 4E 45 80 3E 00 3C 80
3C 00 01 E7 80 43 00 2F 90 40 38 29 80 48 00 61
80 40 00 01 EE 90 43 36 03 BC 80 43 00 6B 90 45
56 01 94 90 41 4F 3F 80 45 00 01 FF 80 41 00 40
90 3E 48 03 BB 80 3E 00 3D 90 3C 5E 16 90 41 35
7E 90 45 47 40 90 45 45 31 80 45 00 42 80 3C 00
09 80 45 00 2F 80 41 00 01 FB 90 3C 35 0B 90 3E
37 69 80 3E 00 36 80 3C 00 02 EE 90 43 4F 38 90
43 36 0A 90 48 5F 01 85 80 48 00 15 90 3C 5C 01
89 90 45 50 06 80 43 00 01 90 41 64 3A 80 43 00
1A 90 45 46 13 80 3C 00 2B 80 41 00 02 B2 80 45
00 27 90 3C 3A 03 80 45 00 01 C5 80 3C 00 02 BD
90 47 41 18 90 48 35 6E 90 47 35 04 80 47 00 36
90 43 41 3D 80 47 00 5C 90 47 4E 5D 80 43 00 05
80 48 00 56 90 45 41 3D 90 41 60 3C 80 45 00 40
80 47 00 01 91 80 41 00 01 ED 90 41 38 08 90 47
56 5C 90 48 4D 01 D5 80 48 00 7A 90 3E 4F 29 80
41 00 09 80 47 00 26 80 3E 00 33 90 45 5B 02 AD
80 45 00 63 90 43 4B 01 80 80 43 00 01 FF 90 41
49 02 D1 80 41 00 01 C9 90 48 4A 01 B5 90 40 3C
3C 90 3C 55 5C 90 40 4D 12 80 48 00 2B 80 40 00
73 80 40 00 0D 90 48 45 01 80 3C 00 01 86 90 41
5A 77 80 41 00 3A 80 48 00 3B 90 48 5D 04 90 3E
62 69 80 3E 00 30 80 48 00 02 BE 90 47 35 7A 80
47 00 03 F4 90 40 38 01 D5 90 41 60 46 80 40 00
21 90 45 3A 65 80 41 00 1C 90 48 39 16 80 45 00
26 90 40 3C 58 90 3C 42 01 A2 80 40 00 27 80 3C
00 32 80 48 00 03 C4 90 3E 3D 03 93 80 3E 00 04
B8 90 40 43 02 C3 90 40 4E 07 80 40 00 0A 90 45
36 2F 80 40 00 69 90 41 46 00 80 45 00 07 90 40
58 01 8A 80 41 00 26 80 40 00 01 C9 90 43 37 23
90 45 4D 01 D8 80 45 00 01 BF 80 43 00 03 B0 90
3C 5F 1B 90 43 56 79 80 43 00 01 DE 80 3C 00 05
83 90 40 4B 01 FA 90 3C 3D 3D 80 40 00 3A 90 48
4A 6F 80 48 00 32 80 3C 00 6B 90 47 5B 01 CB 90
41 51 01 9B 90 41 46 0B 80 47 00 50 80 41 00 17
80 41 00 70 90 48 62 02 8A 90 43 45 19 90 3C 33
08 80 48 00 02 B9 90 3E 38 14 80 3C 00 00 90 3C
33 6D 80 43 00 01 A0 80 3C 00 76 90 3C 59 2A 80
3E 00 01 CC 90 43 35 6C 90 47 3E 19 80 3C 00 25
80 43 00 00 80 47 00 12 90 3C 58 01 F8 80 3C 00
03 D3 90 45 63 2C 90 41 60 67 90 45 44 2D 80 41
00 0C 90 3C 5F 01 F6 80 45 00 2B 90 3C 41 1D 90
41 63 1D 80 3C 00 25 80 3C 00 0D 80 45 00 59 90
3C 58 01 EB 80 41 00 01 C0 80 3C 00 03 C2 90 41
54 4D 90 3C 62 44 90 48 32 26 80 3C 00 06 90 45
4F 52 80 45 00 23 80 41 00 49 90 43 52 40 90 47
63 4E 80 48 00 01 A8 80 47 00 44 80 43 00 7C 90
40 4C 68 80 40 00 0D 90 47 34 42 90 48 4B 01 97
90 47 4C 6C 80 47 00 13 90 48 4A 27 80 48 00 19
90 47 56 3F 80 47 00 60 80 48 00 01 DB 90 3E 41
2A 80 47 00 01 C8 80 3E 00 5A 90 45 5B 02 A0 90
40 46 4A 80 45 00 23 80 40 00 01 9A 90 3E 4A 01
DC 80 3E 00 35 90 3E 34 41 80 3E 00 3B 90 41 5F
02 F8 80 41 00 02 90 40 39 03 91 80 40 00 08 B7
90 45 45 01 9A 90 47 4C 01 9F 90 3C 46 38 80 45
00 63 80 47 00 01 FC 80 3C 00 1D 90 45 40 56 80
45 00 03 F6 90 40 4F 10 90 3C 5B 01 8B 90 45 44
57 80 40 00 35 90 41 34 65 90 3C 5A 16 80 3C 00
1C 80 45 00 4B 80 41 00 2C 90 41 3C 33 80 3C 00
02 85 90 41 43 34 80 41 00 05 90 3E 45 04 90 40
58 45 90 3C 41 3D 80 40 00 04 90 41 3C 3F 80 3C
00 63 80 3E 00 05 90 3C 3F 10 80 41 00 1B 80 41
00 4D 90 45 53 51 80 3C 00 43 80 45 00 02 C9 90
41 44 04 90 43 62 4F 90 43 4D 1D 90 47 32 50 80
47 00 40 80 43 00 41 80 41 00 01 F0 80 43 00 01
EE 90 3E 63 01 90 80 3E 00 0E 90 43 62 4E 90 41
4E 1E 90 3C 37 5F 80 41 00 01 B2 80 43 00 0F 90
3E 41 7D 80 3C 00 01 88 90 3E 5F 2F 80 3E 00 2D
90 41 53 65 80 41 00 01 9F 80 3E 00 54 90 3E 4F
02 BF 90 3E 46 14 80 3E 00 02 85 90 43 51 32 80
3E 00 67 80 43 00 01 8F 90 3E 35 41 90 3C 45 19
80 3E 00 51 90 43 62 01 99 90 47 44 07 80 3C 00
07 90 45 3B 01 E6 80 43 00 32 80 47 00 01 BB 80
45 00 35 90 3E 50 02 8E 80 3E 00 02 97 90 3C 49
3E 90 40 5B 01 85 80 3C 00 75 80 40 00 43 90 3E
42 1F 90 3C 63 01 8A 80 3E 00 2E 80 3C 00 02 98
90 41 5D 5A 90 45 42 02 83 80 45 00 01 83 80 41
00 01 BB 90 3E 4F 03 E0 80 3E 00 03 A1 90 47 5B
02 A7 90 3E 35 3B 90 48 51 1A 80 47 00 57 80 3E
00 0D 80 48 00 01 D9 90 40 33 02 F9 80 40 00 03
D4 90 3C 62 01 8C 90 3C 4C 71 90 47 42 1B 80 3C
00 05 80 3C 00 35 90 41 50 0B 90 3C 45 4A 80 47
00 21 90 40 60 01 B2 90 45 4D 32 80 40 00 41 80
3C 00 18 80 41 00 19 80 45 00 06 D0 90 3E 4D 25
90 40 4E 02 A8 80 3E 00 07 80 40 00 02 FD 90 48
5E 02 AD 90 47 4C 01 81 80 48 00 2C 90 40 34 6D
80 47 00 01 90 48 45 01 BE 80 48 00 01 96 80 40
00 3B 90 41 39 49 80 41 00 1E 90 3C 5C 02 94 90
41 41 59 80 3C 00 6F 90 45 4B 4D 90 48 42 5B 90
43 5F 1D 80 45 00 25 80 41 00 01 90 43 4C 12 80
48 00 01 89 90 47 43 01 84 80 43 00 01 80 80 43
00 4B 80 47 00 04 A3 90 43 5A 01 AD 90 3C 4B 26
90 40 47 6C 90 3E 5E 09 80 43 00 05 80 40 00 01
DA 80 3C 00 1C 90 3C 33 01 A5 90 45 61 03 80 3E
00 23 80 3C 00 02 84 90 47 39 1C 90 48 55 2E 80
45 00 04 90 41 33 01 9F 80 48 00 60 80 47 00 36
90 41 53 3B 80 41 00 01 B1 90 41 51 01 8F 90 3C
36 08 80 41 00 01 8A 80 41 00 01 FD 90 3C 50 17
80 3C 00 01 8B 80 3C 00 0C 90 40 3A 6F 90 40 52
01 E1 80 40 00 07 90 3E 3A 4D 90 45 5B 4A 80 40
00 6F 80 3E 00 01 84 90 48 32 01 97 80 45 00 01
B7 80 48 00 04 9E 90 45 4F 02 A1 90 3C 4C 21 90
47 59 3F 80 45 00 51 90 3C 45 41 80 47 00 07 80
3C 00 01 98 90 3E 4C 1C 80 3C 00 01 D6 90 41 5C
0F 90 3C 52 3A 80 41 00 7F 80 3E 00 6F 90 40 63
1B 90 45 32 60 80 40 00 05 80 3C 00 2C 80 45 00
29 90 40 33 01 82 90 3E 5C 21 90 48 56 77 90 45
4B 11 90 3E 63 1C 80 3E 00 32 80 3E 00 0B 80 45
00 33 80 40 00 30 80 48 00 01 C5 90 41 32 38 90
43 50 01 B2 80 41 00 01 A0 80 43 00 2C 90 47 5C
01 AC 90 45 51 01 C1 80 47 00 62 90 43 40 2F 80
45 00 01 F9 90 47 5D 3B 90 40 35 69 80 43 00 01
8A 90 3E 35 11 90 3C 63 54 80 40 00 04 80 47 00
02 8D 90 48 38 34 80 3E 00 34 80 3C 00 1C 80 48
00 01 C8 90 48 61 02 98 80 48 00 01 F5 90 3C 37
01 8F 90 48 53 03 80 3C 00 4E 90 47 3F 3F 90 3E
38 7A 80 47 00 01 BC 80 48 00 6D 80 3E 00 03 CD
90 40 34 77 80 40 00 02 80 90 3C 3C 01 FB 80 3C
00 12 90 41 39 57 80 41 00 02 9C 90 43 58 01 B2
90 47 4A 32 90 40 4E 46 80 40 00 04 90 3C 4C 19
80 43 00 3E 90 47 38 09 80 47 00 02 80 80 47 00
6E 80 3C 00 3F 90 3C 3A 03 90 3E 5B 4A 90 43 5B
01 80 80 3E 00 01 91 80 3C 00 33 80 43 00 07 AD
90 40 3F 01 9E 90 47 3A 01 AF 80 40 00 40 90 47
53 57 80 47 00 7B 80 47 00 2C 90 45 50 6D 80 45
00 01 9F 90 45 5D 01 EC 80 45 00 04 86 90 48 58
01 A6 80 48 00 40 90 47 5F 0B 90 47 33 01 80 90
3E 32 50 80 47 00 5C 80 3E 00 2C 90 3E 44 25 80
47 00 01 E5 80 3E 00 03 C1 90 43 63 01 9F 80 43
00 68 90 47 55 01 A4 90 41 3D 4D 90 47 40 3E 80
47 00 02 AF 80 47 00 20 80 41 00 14 90 41 43 02
C4 80 41 00 12 90 3E 51 25 90 47 3F 60 80 47 00
2D 80 3E 00 46 90 43 49 03 A4 80 43 00 01 E8 90
48 5A 56 90 47 4D 69 90 47 58 0F 80 47 00 64 80
48 00 48 90 43 48 01 E6 80 47 00 79 80 43 00 03
CD 90 47 59 01 81 80 47 00 03 C8 90 47 51 02 99
80 47 00 02 8A 90 41 5E 2E 90 45 38 49 80 41 00
6B 90 47 3F 3E 80 45 00 01 84 90 48 41 7D 80 47
00 3F 80 48 00 02 F3 90 47 5A 4D 90 47 61 01 BC
80 47 00 1A 80 47 00 03 E0 90 47 4F 01 C8 80 47
00 01 F0 90 40 50 1A 90 45 45 3E 80 45 00 01 E6
90 45 55 27 80 40 00 3B 90 40 5C 54 80 40 00 02
90 41 3F 0D 80 45 00 1C 90 45 57 75 80 45 00 64
80 41 00 65 90 47 58 66 90 48 49 01 B9 80 47 00
69 90 41 45 1D 90 3C 40 10 80 48 00 01 E3 90 3C
3E 18 80 41 00 6E 80 3C 00 01 C9 80 3C 00 79 90
3E 38 31 90 3E 3A 63 90 45 41 7F 90 41 46 0A 80
3E 00 50 80 3E 00 01 A5 80 41 00 49 80 45 00 03
D8 90 3E 53 01 BB 90 40 48 3F 90 41 64 01 90 80
3E 00 01 9B 80 41 00 24 90 45 59 44 80 40 00 02
90 80 45 00 05 A8 90 47 57 01 BE 90 3E 3C 0C 80
47 00 01 83 80 3E 00 04 BE 90 43 5A 53 80 43 00
02 BC 90 3E 36 03 9C 80 3E 00 01 8A 90 41 43 5C
90 48 57 18 90 40 47 45 80 41 00 5B 90 47 47 01
88 80 48 00 3C 80 40 00 42 80 47 00 01 94 90 3C
37 0F 90 47 38 01 DA 80 47 00 1A 90 45 48 69 80
45 00 44 80 3C 00 16 90 3C 61 01 A8 90 48 56 01
E0 80 48 00 32 80 3C 00 4F 90 43 5A 6D 90 40 32
01 82 90 48 5C 0A 80 43 00 75 80 48 00 0A 80 40
00 02 91 90 40 32 1E 90 3C 51 04 90 3C 60 7F 90
45 56 2A 80 40 00 21 80 45 00 23 80 3C 00 6C 90
45 5A 04 80 3C 00 03 C3 90 47 4F 18 80 45 00 2F
80 47 00 07 99 90 47 34 01 AB 80 47 00 0E 90 48
47 30 90 40 38 64 90 45 35 01 9A 80 40 00 5B 80
45 00 0D 80 48 00 73 90 40 33 5E 90 40 4A 02 90
80 40 00 4B 80 40 00 23 90 43 52 2D 90 3C 3A 13
90 3C 45 6C 80 43 00 4F 80 3C 00 01 FF 80 3C 00
01 D7 90 47 44 03 90 41 5C 02 8F 90 3C 44 64 80
41 00 1C 80 47 00 01 CE 80 3C 00 11 90 3E 41 44
90 43 40 01 A2 90 3E 62 65 80 3E 00 42 80 43 00
01 87 80 3E 00 31 90 3E 34 6A 90 45 32 01 E5 80
3E 00 7B 80 45 00 06 D1 90 3E 62 02 85 80 3E 00
03 C3 90 40 4B 48 90 47 43 20 90 45 54 26 90 3E
57 5C 90 45 5D 1A 80 40 00 01 9E 80 3E 00 27 80
47 00 75 80 45 00 08 80 45 00 01 C1 90 48 64 02
A0 90 40 34 01 93 80 48 00 00 90 43 56 34 90 45
52 06 90 45 52 3E 80 40 00 71 90 41 51 3A 80 45
00 01 87 80 43 00 04 80 45 00 19 80 41 00 6B 90
3C 4E 22 90 40 39 28 80 3C 00 01 BE 80 40 00 07
D2 90 45 4A 03 CB 80 45 00 01 8C 90 47 62 01 A9
80 47 00 02 A8 90 3E 52 0E 90 47 4F 06 90 45 62
73 80 45 00 1D 80 47 00 6D 80 3E 00 02 C7 90 41
54 03 90 40 37 4C 80 41 00 28 80 40 00 07 A0 90
48 4D 01 82 90 45 63 66 90 45 33 17 80 45 00 45
80 48 00 01 BE 90 43 55 30 80 45 00 09 90 41 33
12 80 43 00 01 C6 80 41 00 02 90 41 3E 01 FB 90
3E 43 14 80 41 00 47 90 45 37 01 91 90 3C 50 66
90 45 4E 05 80 3E 00 0D 80 45 00 6B 80 3C 00 02
D8 80 45 00 03 90 41 54 0A 90 3E 55 01 98 80 41
00 01 AC 90 45 57 4E 90 43 45 18 80 3E 00 36 90
41 42 39 80 45 00 23 90 47 36 38 80 43 00 05 90
48 32 01 DC 80 41 00 76 80 47 00 4C 80 48 00 6E
90 47 44 54 90 41 39 27 80 47 00 42 90 48 42 6A
90 3E 3F 4E 90 43 4F 19 80 48 00 13 80 3E 00 41
80 41 00 52 90 43 38 7C 80 43 00 62 90 40 5A 31
90 40 3F 01 96 80 43 00 0C 90 45 42 75 80 40 00
10 90 47 3E 39 90 47 3A 0E 90 43 58 24 80 40 00
25 90 3E 45 28 80 45 00 39 80 43 00 5F 80 47 00
2E 80 3E 00 21 90 45 45 1D 90 45 4D 24 80 47 00
58 90 41 4C 01 8D 80 45 00 5E 90 40 37 23 80 45
00 01 BF 80 41 00 07 90 48 4F 01 DC 80 40 00 1F
80 48 00 70 90 47 4D 01 84 90 3E 50 01 83 90 40
3D 07 90 41 52 54 80 3E 00 13 90 45 54 2F 80 47
00 0F 80 41 00 33 80 45 00 27 90 48 4A 33 90 43
47 01 A4 80 40 00 04 90 41 5E 24 80 48 00 72 90
43 48 33 80 43 00 48 80 43 00 01 84 90 3E 3B 2B
80 41 00 06 90 45 56 7D 90 40 4E 01 92 80 3E 00
0D 80 45 00 01 8E 90 43 3B 51 90 47 4B 1E 80 40
00 01 FB 80 43 00 48 80 47 00 06 A6 90 43 5F 45
90 48 3A 01 B6 90 3C 5F 15 80 43 00 28 80 48 00
02 A5 90 3E 37 36 80 3C 00 41 90 48 4E 20 80 3E
00 07 90 48 4C 77 90 40 61 01 DC 90 43 3C 20 80
48 00 1F 80 40 00 10 80 48 00 55 80 43 00 04 DD
90 3C 4E 44 80 3C 00 5A 90 48 42 67 80 48 00 01
84 90 43 52 02 A2 80 43 00 04 8E 90 3E 59 63 90
47 42 01 CE 80 3E 00 56 90 43 59 01 80 80 43 00
0E 80 47 00 01 B1 90 45 4F 45 90 43 62 28 90 43
3F 19 90 45 3D 3A 80 43 00 01 B4 80 43 00 0D 90
3E 52 08 90 47 5A 3A 80 45 00 70 80 45 00 01 9F
80 3E 00 45 80 47 00 66 90 43 4E 17 90 43 41 01
B8 90 40 45 63 80 40 00 68 90 48 57 20 80 43 00
18 80 43 00 28 90 45 33 01 C7 90 41 59 36 90 40
5B 03 80 45 00 4B 80 48 00 10 90 3C 4F 01 82 80
3C 00 15 90 41 53 1E 80 41 00 49 90 48 3D 28 80
41 00 57 80 40 00 0D 90 41 35 28 80 48 00 01 81
90 3C 42 67 80 41 00 62 90 3C 45 01 8A 80 3C 00
01 81 80 3C 00 06 8C 90 45 56 1E 90 47 5C 49 90
48 5E 61 80 45 00 2B 90 48 55 0B 90 48 47 69 90
45 57 1D 90 41 3E 04 80 47 00 02 80 48 00 12 80
48 00 04 90 3C 62 18 80 45 00 48 80 41 00 17 90
41 5F 32 80 3C 00 05 90 47 4E 15 80 48 00 28 80
41 00 02 C1 90 45 5E 2D 90 43 3D 2D 80 47 00 1D
90 48 60 32 90 41 4C 23 80 43 00 1F 80 48 00 31
90 3C 5C 36 80 41 00 6C 80 45 00 78 90 3C 48 33
90 3C 62 1C 80 3C 00 1B 90 3C 4F 0E 80 3C 00 34
80 3C 00 0A 90 3C 62 1B 90 3C 40 01 C7 80 3C 00
39 80 3C 00 01 90 48 50 3C 80 48 00 4F 80 3C 00
3C 90 43 4F 45 90 3E 59 16 80 43 00 01 F6 80 3E
00 1F 90 45 63 02 E2 80 45 00 02 F1 90 48 59 01
94 90 47 52 01 98 80 48 00 01 D7 80 47 00 22 90
3E 59 57 90 48 3D 0B 90 40 35 3A 80 3E 00 07 80
48 00 1B 90 40 5A 47 80 40 00 02 B0 80 40 00 26
90 40 60 33 90 3C 42 01 DE 80 40 00 01 90 80 3C
00 09 90 40 5B 44 80 40 00 77 90 40 62 6E 80 40
00 02 E0 90 48 43 3A 90 3C 4D 01 D2 80 48 00 5E
80 3C 00 4D 90 45 5E 02 90 43 37 45 90 45 59 20
90 3E 3D 19 80 45 00 2D 80 45 00 51 80 3E 00 01
80 43 00 26 90 41 52 02 9B 90 3C 35 1A 80 41 00
01 90 48 54 5B 90 41 52 1C 80 48 00 01 F5 90 40
57 1F 80 41 00 0D 90 47 49 1E 80 3C 00 01 80 80
47 00 03 80 40 00 02 8A 90 3C 4C 01 F6 80 3C 00
01 84 90 3E 32 01 81 90 3C 46 27 90 3E 5C 21 80
3E 00 01 84 80 3C 00 01 89 80 3E 00 7C 90 3C 3B
5A 90 41 58 02 B2 80 3C 00 36 80 41 00 19 90 47
53 03 9B 90 41 5D 06 80 47 00 23 90 40 46 01 95
80 40 00 58 90 47 3A 24 90 47 55 06 90 3E 5C 17
80 41 00 01 82 80 47 00 01 C1 80 47 00 57 80 3E
00 01 99 90 47 4C 01 B5 80 47 00 42 90 47 40 09
90 47 50 79 90 41 38 59 80 41 00 6E 90 3E 3F 25
80 47 00 0E 80 47 00 02 8E 80 3E 00 05 E6 90 3C
34 02 89 90 40 4E 19 90 48 37 77 80 3C 00 23 90
40 34 2C 80 40 00 01 C6 80 48 00 01 93 80 40 00
02 A1 90 47 3E 01 BB 80 47 00 3D 90 45 38 56 80
45 00 6B 90 48 3B 02 B6 80 48 00 27 90 47 37 30
90 47 46 59 80 47 00 59 80 47 00 01 EB 90 43 60
03 E0 80 43 00 06 A4 90 41 50 3C 90 3E 33 63 80
41 00 12 90 43 5D 07 90 40 56 30 80 3E 00 28 80
43 00 06 80 40 00 08 90 48 52 01 A0 90 40 5A 10
90 47 4E 68 80 48 00 42 90 48 4C 6B 80 48 00 15
90 43 32 10 80 40 00 43 90 41 51 07 80 43 00 18
80 47 00 02 9E 80 41 00 06 89 90 41 4D 4A 80 41
00 02 B5 90 47 54 47 90 3C 52 09 90 3C 5E 57 80
3C 00 78 80 47 00 28 80 3C 00 14 90 48 3B 10 90
3C 60 0F 90 40 45 05 90 41 52 38 80 3C 00 30 80
40 00 01 8F 80 48 00 01 C6 80 41 00 1B 90 45 4C
03 A6 80 45 00 03 CA 90 45 5D 1D 90 45 53 2D 90
48 4F 02 85 80 48 00 28 90 40 52 05 80 45 00 33
80 45 00 31 90 48 4F 5D 80 40 00 04 90 45 49 02
B0 80 45 00 4C 80 48 00 7F 90 47 5E 67 80 47 00
02 CA 90 40 5F 01 BF 90 3E 36 01 CB 80 40 00 01
86 80 3E 00 3D 90 45 5A 02 90 90 47 33 15 90 40
51 2A 90 3E 47 48 80 47 00 2E 80 45 00 2F 80 40
00 5C 90 47 54 44 80 3E 00 54 80 47 00 01 97 90
48 61 39 90 3E 5E 61 90 3E 3D 38 80 48 00 42 90
41 4B 26 90 40 34 0F 80 3E 00 01 AB 80 3E 00 65
80 41 00 01 BE 80 40 00 05 E4 90 40 55 0E 90 48
63 61 90 43 61 01 C0 90 3C 49 52 80 40 00 12 80
48 00 01 A1 80 43 00 0E 90 47 63 01 B5 80 3C 00
75 90 45 45 1B 90 3C 61 46 80 47 00 1C 90 41 3B
19 80 3C 00 13 90 3E 59 0A 80 45 00 01 8E 80 3E
00 01 9E 80 41 00 01 D9 90 3E 3F 03 B5 80 3E 00
6A 90 47 52 7C 90 45 58 08 90 48 58 11 80 47 00
20 90 3C 38 45 90 43 37 3F 80 48 00 55 80 3C 00
02 80 45 00 5E 90 3E 55 3D 80 3E 00 5E 80 43 00
04 F1 90 40 61 01 C8 90 43 5B 6F 80 40 00 53 90
41 46 3B 90 43 64 5A 80 43 00 08 80 41 00 02 95
90 3E 4D 4F 80 43 00 74 90 45 51 01 99 80 45 00
04 80 3E 00 2F 90 41 47 68 80 41 00 0F 90 3C 5D
02 AD 80 3C 00 50 90 40 39 01 E7 80 40 00 25 90
43 4E 01 B6 80 43 00 01 99 90 47 3B 01 82 90 43
44 47 80 47 00 1F 90 3C 55 02 A8 80 43 00 6F 80
3C 00 05 DD 90 45 44 46 90 3E 52 6C 90 40 35 01
86 80 45 00 10 80 3E 00 01 93 90 40 61 6A 90 3E
52 46 80 40 00 60 80 40 00 7D 80 3E 00 01 F4 90
43 59 02 84 80 43 00 01 83 90 48 32 00 90 45 50
2A 90 3C 41 06 90 40 62 01 90 47 40 3D 80 47 00
16 80 48 00 56 80 3C 00 70 80 45 00 05 90 47 50
30 90 45 53 70 80 40 00 6A 90 48 3A 10 80 47 00
1D 80 45 00 3A 80 48 00 01 99 90 48 64 77 90 45
35 5B 80 48 00 01 E5 80 45 00 2F 90 45 59 01 FB
90 3C 4D 01 83 90 3E 49 2B 80 45 00 01 AB 80 3C
00 01 E3 80 3E 00 01 AA 90 40 3A 4D 90 40 45 02
91 80 40 00 29 80 40 00 61 90 3E 36 35 90 41 3E
50 80 3E 00 48 80 41 00 03 B6 90 48 3E 14 90 41
47 39 80 48 00 0F 80 41 00 01 FD 90 43 47 05 90
40 37 7F 80 43 00 08 80 40 00 64 90 40 59 02 BF
80 40 00 01 84 90 3E 62 01 A3 80 3E 00 01 AF 90
41 48 0A 90 3E 62 01 97 90 48 32 25 90 47 3D 2F
80 3E 00 3E 80 48 00 01 85 80 41 00 44 80 47 00
04 B5 90 48 5A 38 90 3C 44 02 A2 80 48 00 5E 80
3C 00 38 90 40 61 3B 90 40 46 10 90 3C 41 18 90
41 33 18 80 40 00 34 80 3C 00 04 90 45 52 5E 80
45 00 6A 80 40 00 01 A9 80 41 00 24 90 48 3C 49
90 40 57 0A 80 48 00 01 E4 90 45 36 01 B9 80 40
00 27 90 3C 3A 01 94 80 45 00 19 90 41 4B 02 9A
80 3C 00 11 80 41 00 01 9F 90 48 61 01 92 80 48
00 05 CF 90 41 55 02 C8 80 41 00 02 AE 90 45 63
01 E9 80 45 00 34 90 48 38 32 90 45 5E 66 80 48
00 01 9F 80 45 00 01 E3 90 41 63 1F 90 48 5E 5E
80 48 00 01 DF 80 41 00 50 90 41 4C 01 8E 80 41
00 03 8B 90 3C 36 01 DB 90 40 4D 01 C0 80 3C 00
72 90 3E 58 71 80 40 00 1F 80 3E 00 02 B9 90 43
48 01 9A 80 43 00 04 90 90 3C 3C 01 84 80 3C 00
35 90 40 32 03 8D 80 40 00 5A 90 3C 40 4F 90 41
5E 08 90 3C 61 25 80 3C 00 27 80 41 00 24 90 48
38 63 80 48 00 0B 80 3C 00 02 89 90 3C 50 01 C5
90 43 3F 7C 90 3E 55 30 80 3C 00 09 80 43 00 1D
80 3E 00 01 BC 90 41 64 75 90 48 59 22 80 41 00
4F 80 48 00 0B C1 90 48 32 7E 90 48 56 02 D7 80
48 00 01 87 80 48 00 03 90 40 63 02 CC 80 40 00
08 90 40 3E 09 90 45 52 77 90 43 4F 0E 80 45 00
01 A9 80 40 00 01 D2 80 43 00 23 90 48 36 02 F4
80 48 00 02 95 90 40 3D 03 A0 80 40 00 05 90 3C
57 0E 90 48 46 60 90 45 61 5A 80 3C 00 01 CF 80
45 00 33 90 45 59 09 80 48 00 7C 90 47 38 1E 90
48 33 67 80 47 00 0F 90 43 64 35 80 45 00 02 91
80 48 00 17 80 43 00 05 90 41 5E 44 80 41 00 05
C3 90 43 52 07 90 3C 60 5B 80 43 00 60 90 48 50
25 80 3C 00 3D 90 43 35 01 AC 80 43 00 7F 80 48
00 01 DF 90 40 4E 6E 80 40 00 0C 90 3E 33 1C 90
3C 5B 01 F3 80 3C 00 01 8A 80 3E 00 01 CE 90 47
4D 01 82 80 47 00 3C 90 43 3A 25 90 3C 38 07 90
43 62 1D 80 43 00 53 90 40 59 13 90 43 3F 06 80
3C 00 2F 90 43 49 01 80 80 43 00 31 90 40 44 2B
80 43 00 07 90 48 49 1D 80 43 00 48 80 40 00 33
80 48 00 01 C0 80 40 00 29 90 40 34 01 D4 90 41
35 01 92 80 40 00 01 8C 90 40 49 6C 80 40 00 3F
80 41 00 01 8F 90 41 4B 02 84 80 41 00 1F 90 47
4C 01 98 80 47 00 01 E1 90 48 3F 03 90 43 5C 02
B6 80 43 00 4F 80 48 00 03 83 90 41 60 14 90 43
61 38 80 41 00 02 CB 90 40 44 5B 80 43 00 0A 90
45 46 01 A2 80 40 00 01 82 80 45 00 0F 90 45 5D
01 80 90 47 3A 1A 90 3C 32 37 80 45 00 67 80 47
00 0E 90 45 38 3D 90 40 5B 1B 90 41 36 0D 80 3C
00 1A 80 45 00 02 B3 80 40 00 46 80 41 00 0A 91
90 41 4A 02 99 80 41 00 5A 90 48 61 01 A3 90 41
33 01 A1 80 41 00 1B 80 48 00 0B 90 47 37 08 90
3E 40 54 90 40 61 01 C9 80 40 00 70 80 3E 00 35
80 47 00 65 90 41 39 47 80 41 00 03 90 90 43 47
01 DB 90 47 46 01 B4 80 43 00 3A 80 47 00 39 90
3E 58 03 A8 80 3E 00 01 D9 90 47 34 33 90 48 34
1D 80 47 00 02 D9 90 40 5A 14 80 48 00 35 90 40
5E 01 EC 80 40 00 1B 90 40 3E 4B 80 40 00 01 93
80 40 00 38 90 47 49 3E 80 47 00 04 87 90 43 5D
7A 80 43 00 00 90 3E 62 01 8D 90 40 58 06 90 40
4D 07 90 43 58 7C 80 40 00 28 80 43 00 6C 90 48
37 07 80 3E 00 19 90 48 41 7D 90 3E 40 1E 80 40
00 0D 80 48 00 47 80 48 00 01 9C 90 43 3A 24 80
3E 00 12 90 3C 55 01 A3 90 45 4A 7C 80 43 00 3F
80 45 00 68 80 3C 00 02 91 90 41 4B 01 A2 90 3C
4A 01 84 80 41 00 02 9F 80 3C 00 6D 90 47 48 12
90 3C 3D 1C 90 3C 60 48 90 41 56 4E 90 48 59 48
80 3C 00 04 80 41 00 56 80 47 00 08 80 3C 00 58
90 47 56 0E 80 48 00 55 90 40 4C 17 80 47 00 26
80 40 00 01 89 90 3E 4E 71 90 45 62 01 BC 80 3E
00 25 80 45 00 54 90 40 45 01 F3 80 40 00 02 AB
90 41 64 01 92 90 3E 4D 01 AA 90 47 5E 75 80 41
00 60 80 47 00 2F 80 3E 00 5B 90 47 52 15 90 43
4E 01 F6 90 41 41 3C 80 47 00 5D 80 43 00 3F 90
48 5D 02 80 80 41 00 01 BB 80 48 00 03 D4 90 3C
58 03 89 80 3C 00 02 B2 90 3C 4B 02 DA 80 3C 00
01 83 90 41 4E 01 A0 90 47 5C 19 90 41 61 01 96
80 41 00 2F 80 47 00 3D 80 41 00 03 DE 90 48 63
01 EF 90 48 4E 01 80 80 48 00 31 80 48 00 04 A4
90 41 34 21 90 3C 57 01 C0 80 3C 00 01 96 80 41
00 01 BA 90 3C 5D 42 80 3C 00 01 CB 90 3E 3F 55
90 43 4C 01 A4 80 3E 00 01 E0 90 3C 53 01 80 43
00 42 80 3C 00 3C 90 43 40 02 80 90 45 45 01 99
80 43 00 0D 80 45 00 6D 90 3C 39 01 B7 80 3C 00
40 90 3E 5D 01 D0 80 3E 00 02 F9 90 45 5A 02 A1
80 45 00 02 A8 90 3C 3C 03 84 80 3C 00 01 E3 90
43 4A 10 90 43 32 40 80 43 00 4B 90 41 63 40 90
3C 54 6E 80 43 00 01 80 3C 00 01 99 80 41 00 02
C4 90 47 3E 15 90 47 5D 24 90 3C 4A 67 80 47 00
27 90 41 57 01 B3 80 3C 00 19 90 3E 5A 1E 80 47
00 13 80 41 00 49 80 3E 00 04 B7 90 40 43 01 85
90 40 4E 07 90 43 42 50 80 40 00 7F 80 40 00 2D
80 43 00 04 DC 90 40 5E 03 86 80 40 00 50 90 43
63 4D 90 45 40 01 C4 90 47 4F 46 80 43 00 31 80
47 00 04 90 40 4F 1C 80 45 00 7F 90 40 53 03 80
40 00 02 87 80 40 00 04 90 45 3B 01 AA 90 40 55
01 A1 90 3C 52 01 88 80 45 00 16 90 40 45 68 90
48 32 03 80 40 00 47 80 3C 00 57 80 48 00 47 90
40 58 2B 80 40 00 1A 80 40 00 03 8E 90 48 4C 4F
90 47 5A 71 80 48 00 01 8A 90 45 39 01 8D 80 47
00 08 90 45 44 02 84 80 45 00 1B 90 45 3B 48 80
45 00 11 90 43 3D 72 90 45 39 02 80 45 00 01 A4
90 47 59 48 80 43 00 17 90 48 60 5C 80 45 00 1C
90 41 48 23 90 47 33 1E 90 41 34 2E 90 41 54 26
80 47 00 05 80 48 00 2B 80 41 00 01 A5 80 41 00
1D 90 3C 60 4C 80 47 00 48 80 41 00 02 96 80 3C
00 0C 90 41 39 76 80 41 00 14 90 47 44 42 80 47
00 01 80 90 48 4C 01 A3 90 48 51 01 AF 90 3E 64
2A 80 48 00 26 80 48 00 08 90 43 56 02 96 80 43
00 31 80 3E 00 02 90 40 3C 3D 90 45 60 11 90 40
64 64 80 40 00 0C 80 45 00 3B 90 48 36 01 B7 90
3C 48 20 80 40 00 01 90 40 5F 0F 80 48 00 0E 80
3C 00 02 EF 80 40 00 02 B2 90 43 43 4E 90 3E 4E
16 90 3E 59 69 90 3C 44 01 E1 80 43 00 11 80 3E
00 03 80 3C 00 47 80 3E 00 20 90 40 49 59 80 40
00 03 D7 90 3E 60 01 F1 80 3E 00 3E 90 43 57 26
90 48 32 3C 90 48 46 01 B2 80 48 00 39 80 43 00
03 80 48 00 02 F5 90 3E 5B 5E 90 41 62 01 8E 90
45 61 23 80 3E 00 41 80 45 00 27 90 41 5B 56 80
41 00 50 80 41 00 3B 90 40 55 63 90 43 44 01 B5
90 41 5A 41 80 40 00 18 90 3C 59 62 90 3C 63 01
80 43 00 09 80 41 00 02 80 3C 00 2B 90 47 58 3D
90 3C 39 05 90 45 4F 42 80 47 00 01 90 45 44 3F
80 3C 00 50 80 45 00 2F 80 45 00 58 80 3C 00 30
90 3E 33 02 E3 90 40 3D 46 80 3E 00 02 90 41 44
01 87 90 41 56 46 80 41 00 30 80 40 00 01 A1 90
45 36 07 80 41 00 03 C0 80 45 00 01 99 90 43 3E
02 CA 80 43 00 01 90 45 38 01 90 90 3E 35 01 C8
80 3E 00 5A 80 45 00 02 F7 90 3E 51 0E 90 45 5A
01 89 80 3E 00 01 C2 80 45 00 01 8A 90 47 4B 01
C3 90 48 51 0D 80 47 00 01 AC 90 3C 60 59 90 3C
37 7C 90 3C 4E 1B 90 43 36 2C 80 48 00 14 80 3C
00 01 87 80 3C 00 3E 80 3C 00 4C 80 43 00 04 B3
90 41 61 4D 90 3C 3D 7B 80 41 00 60 80 3C 00 1C
90 41 56 3D 80 41 00 04 A8 90 43 57 03 C2 80 43
00 64 90 3E 40 01 C9 80 3E 00 45 90 40 4B 01 B6
90 41 58 12 80 40 00 03 AD 80 41 00 1F 90 3C 39
4D 80 3C 00 05 8E 90 45 47 2C 90 48 51 01 8F 80
48 00 50 90 3C 5D 04 80 45 00 02 9E 80 3C 00 05
89 90 40 63 01 83 90 48 62 2A 80 40 00 01 E5 90
48 48 2E 80 48 00 34 90 47 62 03 80 48 00 01 9E
90 40 5C 01 97 80 47 00 70 90 3E 5F 17 80 40 00
7D 80 3E 00 30 90 43 4C 41 90 48 5F 01 DE 90 40
56 3D 80 40 00 25 80 43 00 25 80 48 00 01 F6 90
3C 37 7C 90 43 3F 21 80 3C 00 02 C1 90 40 45 31
80 43 00 41 90 43 63 04 90 48 3B 17 90 3E 62 57
80 40 00 01 8C 90 40 54 03 80 48 00 71 80 40 00
24 80 43 00 06 90 45 40 1C 90 45 3B 40 80 3E 00
44 80 45 00 02 B2 80 45 00 01 DD 90 45 3D 5A 90
45 3F 01 C2 90 40 40 48 80 45 00 4E 80 45 00 5E
80 40 00 09 90 3E 44 50 80 3E 00 05 D6 90 3E 55
01 A3 80 3E 00 3D 90 40 5A 03 B7 80 40 00 01 CE
90 40 4D 09 90 48 4A 11 90 40 4B 0C 90 48 57 20
80 48 00 06 80 40 00 25 90 3C 4D 2F 90 43 56 61
90 40 64 14 80 48 00 05 80 40 00 74 80 43 00 14
80 3C 00 01 A5 90 3E 46 11 80 40 00 01 BF 90 45
43 6A 80 45 00 01 80 80 3E 00 03 9C 90 48 57 01
CA 80 48 00 03 AB 90 3C 56 74 90 48 60 42 90 48
62 52 80 48 00 60 90 3E 3A 13 80 3C 00 3E 80 3E
00 01 A2 80 48 00 03 8C 90 40 53 01 B0 80 40 00
71 90 40 5C 01 93 80 40 00 01 DD 90 40 62 01 A5
90 45 3B 01 80 40 00 2B 90 43 3E 14 90 41 38 58
90 3E 57 13 80 45 00 01 EE 80 3E 00 29 80 41 00
47 80 43 00 02 FC 90 45 3F 2D 90 40 49 12 90 43
47 09 90 40 35 4F 90 45 3C 10 80 40 00 6D 80 40
00 01 91 80 45 00 33 80 43 00 01 90 40 49 01 8F
80 45 00 0F 90 48 43 0F 90 48 5F 59 80 40 00 62
80 48 00 01 91 80 48 00 03 86 90 47 37 01 83 80
47 00 03 90 43 40 30 90 47 5F 04 90 3C 62 15 90
48 41 45 90 48 37 36 80 47 00 11 80 48 00 29 80
43 00 3F 80 3C 00 16 80 48 00 2E 90 41 48 01 A3
90 47 34 1B 90 40 61 46 80 40 00 01 90 80 47 00
36 80 41 00 03 BB 90 45 46 01 B4 90 40 5A 01 8D
90 40 62 44 90 3E 5C 17 80 40 00 1A 80 45 00 01
9C 80 40 00 18 90 47 5F 41 80 3E 00 4C 90 47 41
09 90 40 56 74 90 48 4B 29 90 47 3E 46 80 47 00
3B 80 40 00 06 80 47 00 44 90 41 63 07 80 47 00
3C 80 41 00 01 A4 80 48 00 01 D9 90 3E 59 75 90
47 63 24 90 45 5E 58 80 3E 00 11 80 45 00 0C 80
47 00 17 90 40 45 01 B7 90 43 32 33 90 3E 43 3C
80 43 00 15 80 40 00 2D 90 48 38 01 C7 80 48 00
71 80 3E 00 01 8A 90 47 46 01 A6 80 47 00 02 E3
90 43 38 03 CA 80 43 00 01 E4 90 3E 43 01 BF 80
3E 00 01 C8 90 40 3B 23 90 47 33 53 80 40 00 29
90 41 38 6E 90 47 3E 1E 80 41 00 5A 80 47 00 21
90 40 40 54 80 47 00 75 90 3E 4F 4C 80 40 00 02
B3 90 40 3B 56 80 3E 00 01 85 80 40 00 0E 90 47
4F 3E 90 45 3A 4F 80 45 00 12 90 45 53 6A 80 47
00 01 93 80 45 00 01 8A 90 40 56 01 BF 80 40 00
3A 90 41 62 03 90 3E 3F 07 90 43 32 1C 90 45 43
07 90 3E 59 6A 80 43 00 70 80 3E 00 01 80 3E 00
3E 80 41 00 4A 80 45 00 02 D3 90 48 61 02 EF 90
3C 43 31 90 45 3C 2F 80 48 00 4D 80 3C 00 38 80
45 00 25 90 43 43 02 BC 80 43 00 6B 90 48 35 02
A4 90 45 5E 5E 80 48 00 20 90 41 35 70 90 43 62
7A 80 45 00 26 90 43 51 02 90 48 59 01 82 80 41
00 39 80 43 00 2D 80 48 00 01 98 80 43 00 01 C4
90 40 5C 01 C5 80 40 00 04 CF 90 40 38 15 90 45
36 02 83 90 47 52 29 80 40 00 30 90 48 5A 23 90
41 3F 3F 80 45 00 02 90 41 5A 5C 80 48 00 19 80
41 00 1B 80 47 00 01 84 90 41 3A 75 90 3C 3F 08
80 41 00 4E 90 3C 38 5B 80 41 00 03 80 3C 00 01
82 90 48 5A 01 80 3C 00 26 90 3C 4E 3B 90 48 5A
07 90 40 35 76 80 48 00 25 80 40 00 01 93 80 48
00 48 80 3C 00 2D 90 3C 57 01 F7 80 3C 00 24 90
40 52 03 8E 80 40 00 02 F6 90 43 3C 34 90 43 46
7D 90 3C 5F 0E 80 43 00 08 80 43 00 21 90 45 59
20 90 43 36 23 90 43 5D 3D 80 45 00 54 80 43 00
3A 90 47 55 71 80 3C 00 52 80 43 00 02 85 80 47
00 4E 90 45 53 01 FC 80 45 00 07 90 48 52 18 90
45 38 26 80 48 00 7D 80 45 00 02 A6 90 48 49 02
B3 90 41 5D 28 80 48 00 12 90 3E 47 49 80 3E 00
41 80 41 00 02 C1 90 45 4E 02 90 41 35 01 89 90
40 53 09 90 47 51 1A 80 45 00 01 B6 80 47 00 19
80 41 00 2B 90 3E 5B 03 90 43 53 01 84 80 40 00
36 90 48 57 2E 90 45 42 04 80 3E 00 11 80 43 00
01 81 90 43 5B 40 80 43 00 0B 90 41 44 0D 80 45
00 3B 80 48 00 05 90 3E 5C 01 BE 90 40 42 3D 80
41 00 33 90 43 4C 04 90 43 56 69 90 48 5F 36 80
3E 00 55 80 43 00 5E 80 43 00 15 80 40 00 1D 80
48 00 01 9D 90 40 58 1B 90 48 41 7E 90 41 57 1A
80 40 00 52 90 40 59 2C 90 45 57 1C 80 41 00 42
90 41 55 14 90 41 3D 08 80 40 00 11 80 48 00 28
90 48 5B 6A 80 48 00 18 80 45 00 6C 90 43 5A 5C
80 41 00 3E 80 43 00 12 80 41 00 01 D1 90 47 3E
0F 90 43 3C 6F 90 43 5E 7B 80 43 00 50 80 47 00
10 90 43 36 39 80 43 00 1F 90 45 5A 01 D7 80 45
00 01 A5 80 43 00 07 C9 90 45 41 03 8E 80 45 00
01 84 90 48 55 1E 90 47 5E 01 A6 90 41 3F 01 B4
80 47 00 2E 80 48 00 01 A3 80 41 00 07 90 40 4F
01 C4 80 40 00 03 97 90 45 34 75 90 41 60 6A 90
43 63 21 90 3E 32 01 D7 80 45 00 49 80 41 00 0D
80 3E 00 46 80 43 00 01 FD 90 48 58 3D 90 45 4B
01 C3 80 45 00 08 80 48 00 01 C6 90 43 39 3E 80
43 00 67 90 40 4B 4C 90 43 51 1C 90 45 5C 5B 80
40 00 01 B6 90 40 45 1E 80 43 00 01 9E 80 45 00
70 80 40 00 6B 90 3C 35 02 83 90 3E 3F 6E 90 41
54 20 80 3C 00 23 80 3E 00 01 FD 80 41 00 71 90
41 3B 02 ED 80 41 00 03 BF 90 48 4F 68 80 48 00
04 D7 90 45 33 78 90 40 3F 06 90 40 63 01 B0 80
40 00 43 80 45 00 68 90 45 33 16 80 40 00 40 90
3E 32 01 A8 80 3E 00 01 B0 80 45 00 2B 90 3E 44
17 90 48 55 78 90 3E 34 5A 80 48 00 71 90 48 56
25 80 3E 00 26 80 48 00 20 80 3E 00 02 B7 90 3C
3B 1A 90 48 5E 4A 80 3C 00 16 80 48 00 01 8E 90
45 4C 44 80 45 00 03 D8 90 45 3F 51 90 3E 43 01
BC 80 45 00 01 B0 90 43 5C 13 90 45 4C 10 80 3E
00 47 90 3C 52 35 80 43 00 33 90 43 4A 01 86 80
43 00 1B 80 45 00 23 80 3C 00 03 8F 90 47 45 5C
90 3E 53 01 B5 90 47 36 2C 90 43 49 2E 80 47 00
01 8E 80 47 00 0B 80 3E 00 52 80 43 00 01 E9 90
45 5C 42 90 41 62 14 80 45 00 54 80 41 00 01 9C
90 45 37 01 88 90 48 54 48 80 48 00 1F 90 43 39
01 D5 80 43 00 12 80 45 00 7A 90 41 5E 01 D2 80
41 00 03 82 90 40 64 3F 90 43 48 01 C6 90 3C 54
01 94 80 3C 00 2E 80 40 00 3B 80 43 00 03 83 90
47 33 01 83 90 43 38 01 A1 90 48 57 68 80 47 00
26 90 3C 3E 50 90 45 5F 4D 80 45 00 0B 80 43 00
10 90 43 46 3D 80 48 00 2D 90 43 3B 7D 80 3C 00
01 86 90 48 59 17 80 43 00 01 BC 80 43 00 01 97
80 48 00 01 8C 90 41 41 01 95 90 48 46 40 80 41
00 01 AE 90 40 51 34 80 48 00 4D 90 47 44 21 90
47 44 4C 80 40 00 01 8A 90 40 48 66 90 3E 3A 44
80 47 00 2A 80 47 00 01 9C 80 3E 00 2F 80 40 00
01 C5 90 45 37 01 AA 80 45 00 01 D3 90 3E 54 3D
80 3E 00 06 C6 90 3C 3D 21 90 47 44 43 80 47 00
48 90 43 5A 4B 80 43 00 02 80 3C 00 65 90 48 63
01 81 80 48 00 0E 90 47 36 5D 90 48 4F 02 DD 80
48 00 07 80 47 00 01 EA 90 3C 57 02 81 80 3C 00
01 86 90 43 55 01 86 90 43 47 01 E9 80 43 00 1F
90 45 3A 18 80 43 00 01 A0 80 45 00 01 88 90 40
5B 30 90 40 46 01 E9 80 40 00 01 87 80 40 00 37
90 41 57 26 90 3E 46 6C 90 43 59 07 80 41 00 09
90 3C 34 6D 90 48 64 02 80 3E 00 37 90 3E 3F 09
80 3C 00 1B 90 41 44 10 80 43 00 47 80 41 00 01
9B 80 48 00 4E 90 43 3A 5F 80 3E 00 1B 90 41 3B
40 90 48 34 18 80 43 00 7E 80 48 00 01 A8 80 41
00 1F 90 40 4F 4A 90 3E 50 07 90 43 53 03 90 43
3C 01 8E 80 43 00 0E 80 3E 00 3D 80 40 00 53 80
43 00 75 90 3C 42 28 90 48 34 03 89 80 3C 00 25
80 48 00 01 89 90 41 38 03 83 80 41 00 02 B0 90
3E 60 45 80 3E 00 03 CB 90 47 4B 23 90 3E 3D 7B
90 45 63 43 80 47 00 6E 80 45 00 1A 90 45 3A 44
80 3E 00 01 9B 90 3C 64 2B 90 40 64 13 80 45 00
17 80 3C 00 7D 80 40 00 01 CC 90 40 44 01 AD 80
40 00 12 90 48 48 02 F2 80 48 00 13 90 48 54 7D
80 48 00 03 B7 90 3E 64 50 80 3E 00 01 92 90 40
36 02 8B 80 40 00 01 EE 90 41 57 56 90 41 53 02
F9 80 41 00 58 90 40 39 0E 80 41 00 76 90 3E 41
67 80 40 00 61 80 3E 00 01 A4 90 40 4C 01 84 90
41 4B 3C 80 41 00 01 E5 90 48 44 04 80 40 00 13
90 40 5E 02 A5 80 48 00 28 80 40 00 06 A9 90 3C
63 01 99 90 47 61 53 80 47 00 5B 90 45 49 4B 80
45 00 0F 80 3C 00 01 86 90 43 44 53 80 43 00 01
CD 90 40 4E 51 90 3C 5A 7E 80 40 00 05 90 41 55
75 80 3C 00 02 C7 90 45 54 21 80 41 00 33 90 41
3D 61 90 47 44 62 80 45 00 1B 80 47 00 01 98 80
41 00 7F 90 41 61 01 FE 90 41 56 70 80 41 00 48
90 48 4B 31 80 41 00 38 90 3E 54 01 89 90 3E 5B
50 90 3E 62 3A 80 3E 00 1A 80 48 00 62 90 48 5D
51 80 3E 00 03 90 43 3C 01 D5 80 3E 00 3D 80 43
00 63 80 48 00 03 87 90 3C 41 01 93 90 40 62 0E
80 3C 00 01 DA 90 40 39 1E 90 48 55 01 8F 90 48
5D 0B 80 48 00 1E 80 40 00 42 80 40 00 01 92 80
48 00 03 D3 90 40 33 48 80 40 00 65 90 47 39 03
8E 80 47 00 03 AA 90 40 54 58 90 41 52 11 90 48
42 40 90 43 50 1E 80 40 00 4A 80 43 00 1C 80 48
00 01 A6 90 47 4F 47 80 41 00 02 A1 90 41 5F 56
80 47 00 01 A0 80 41 00 02 96 90 40 54 01 E7 80
40 00 1E 90 3C 39 44 80 3C 00 31 90 48 64 64 90
48 52 38 80 48 00 1A 90 40 53 21 90 3C 55 66 80
3C 00 01 A5 80 48 00 25 80 40 00 2B 90 3E 5E 01
B6 90 43 43 01 B5 80 3E 00 01 B9 80 43 00 3F 90
45 3D 65 80 45 00 4E 90 47 5D 4B 80 47 00 0B C7
90 48 49 01 F6 90 3E 34 17 90 40 56 0C 90 3E 4B
66 80 3E 00 4F 80 48 00 01 C1 80 3E 00 35 80 40
00 01 B2 90 48 3C 01 BE 90 45 42 3C 80 45 00 3B
80 48 00 01 E0 90 40 5E 11 90 47 3F 02 EB 80 47
00 57 80 40 00 01 C1 90 48 4D 1C 90 47 51 66 80
48 00 02 A5 80 47 00 67 90 41 4A 6A 90 43 40 51
90 48 3D 01 EB 80 48 00 23 90 3C 49 16 80 41 00
32 80 43 00 01 8C 80 3C 00 6C 90 40 32 5A 90 3C
58 2D 80 40 00 68 80 3C 00 01 CC 90 48 3F 01 91
80 48 00 01 E0 90 43 64 02 85 90 40 36 06 80 43
00 27 90 3C 37 01 A1 80 40 00 3D 90 47 5E 24 90
43 5B 0E 80 3C 00 36 80 47 00 0B 90 3E 56 1A 90
40 57 45 80 43 00 36 80 3E 00 2B 90 3E 60 34 80
40 00 20 90 41 5C 01 E2 80 41 00 28 80 3E 00 40
90 3E 42 02 AC 80 3E 00 32 90 3E 57 01 B8 90 3C
57 01 C6 80 3E 00 48 80 3C 00 01 9F 90 3E 3E 42
90 3C 52 0A 90 43 5C 68 80 43 00 10 80 3E 00 05
90 45 3A 30 90 41 51 01 A5 80 45 00 1E 90 3C 5F
25 80 41 00 14 80 3C 00 01 B2 80 3C 00 02 C2 90
40 50 01 AD 90 3E 43 01 A0 90 47 52 04 80 40 00
42 90 43 51 1C 80 47 00 41 80 43 00 01 87 80 3E
00 19 90 3C 4A 00 90 40 64 01 CE 80 3C 00 16 80
40 00 01 CE 90 43 41 64 90 3C 4A 19 80 43 00 43
90 45 62 02 D8 80 45 00 1D 80 3C 00 41 90 40 64
02 E9 80 40 00 79 90 45 3A 01 94 80 45 00 01 EA
90 40 51 63 80 40 00 05 A7 90 43 56 02 97 90 3E
46 01 90 40 48 5C 90 43 43 06 80 43 00 05 80 40
00 01 A1 80 3E 00 01 80 43 00 5D 90 3C 54 01 87
90 3E 4E 01 8D 80 3C 00 23 90 47 3F 01 94 80 47
00 28 80 3E 00 05 A7 90 3C 3B 02 9B 80 3C 00 7B
90 47 5F 01 F9 90 43 53 3A 80 47 00 0E 90 3E 5B
0B 90 3E 3D 56 80 43 00 01 81 90 47 4F 08 80 3E
00 37 80 47 00 40 90 45 4B 32 90 47 58 0A 80 45
00 27 80 3E 00 43 80 47 00 2B 90 3E 5E 01 8F 80
3E 00 16 90 40 60 13 90 43 5A 01 A9 80 43 00 01
80 40 00 02 A8 90 45 39 01 E3 80 45 00 01 E8 90
41 3A 01 BE 90 40 56 4B 80 41 00 01 BC 90 43 63
37 80 40 00 01 E4 80 43 00 04 80 90 45 5A 01 86
90 43 5D 2E 80 45 00 02 A3 80 43 00 02 B0 90 47
3C 01 99 80 47 00 02 97 90 43 48 01 AB 80 43 00
04 85 90 3C 57 5B 80 3C 00 2E 90 40 54 2A 90 45
38 1E 90 41 35 14 80 40 00 01 92 90 41 41 1A 90
3C 51 2A 80 45 00 59 90 47 37 0D 80 41 00 59 90
3E 3C 1A 80 41 00 0C 80 3C 00 01 96 80 3E 00 0E
90 48 3A 3F 90 41 55 10 80 47 00 28 90 41 42 02
82 80 41 00 06 80 41 00 36 80 48 00 01 A6 90 45
64 3D 90 41 48 79 90 45 4D 56 80 41 00 3A 90 41
59 5F 80 45 00 12 90 3E 32 44 90 43 4D 0F 80 45
00 0F 80 41 00 01 A2 80 43 00 01 98 80 3E 00 00
90 40 4E 01 A8 90 43 54 01 85 80 43 00 38 90 45
3E 70 80 40 00 01 81 80 45 00 02 E1 90 41 61 6C
90 45 40 5E 80 41 00 01 B9 90 43 46 56 80 45 00
3C 90 40 38 01 F4 80 40 00 39 80 43 00 01 F7 90
43 32 60 80 43 00 02 9B 90 3E 42 01 B3 90 45 40
74 80 3E 00 02 C3 80 45 00 03 8E 90 48 59 01 8B
80 48 00 02 E3 90 47 52 7B 90 3E 3C 4A 90 40 47
01 A2 80 47 00 1D 80 3E 00 57 90 41 62 30 80 40
00 16 90 3E 5F 58 80 3E 00 01 E6 80 41 00 02 D3
90 3E 61 01 EE 80 3E 00 02 AB 90 3C 50 3E 80 3C
00 07 AC 90 3E 4B 01 FA 80 3E 00 08 90 40 45 2C
90 3C 56 33 90 40 58 01 AA 80 40 00 12 80 3C 00
77 80 40 00 57 90 43 34 01 B2 90 43 3B 5B 90 43
38 12 80 43 00 46 80 43 00 66 80 43 00 00 90 47
5C 0F 90 41 48 01 BA 80 47 00 01 93 80 41 00 67
90 48 39 01 8E 90 43 3C 03 80 48 00 61 80 43 00
48 90 40 5D 03 8D 80 40 00 03 F1 90 41 53 01 E1
90 43 4D 2F 80 41 00 01 9E 90 43 48 53 80 43 00
3A 90 43 4F 09 90 40 5B 01 85 80 40 00 6A 80 43
00 0E 80 43 00 5C 90 40 32 01 B0 80 40 00 06 B3
90 45 49 01 A4 90 3E 64 02 9C 90 40 41 16 80 45
00 5A 80 3E 00 21 90 47 43 54 80 47 00 5E 80 40
00 02 D3 90 45 34 33 90 47 3B 01 B8 90 40 4A 49
90 48 5F 2C 80 45 00 21 90 48 3E 5E 90 40 56 23
80 47 00 31 80 40 00 4F 80 40 00 43 90 3E 43 07
80 48 00 46 80 48 00 66 90 43 60 01 D5 90 48 3E
14 80 3E 00 0B 80 43 00 02 80 90 41 42 01 9D 80
48 00 46 90 45 60 34 80 41 00 01 F4 90 48 3F 5C
80 48 00 1E 80 45 00 02 90 90 48 5B 01 A8 90 43
5F 52 80 43 00 04 80 48 00 02 AA 90 41 36 01 D1
80 41 00 01 A7 90 41 53 01 84 90 40 5F 01 96 90
3C 52 34 80 40 00 45 80 3C 00 02 80 41 00 3C 90
43 41 68 90 3E 3A 21 90 41 5A 2B 90 48 34 58 80
3E 00 41 90 3E 3B 3A 80 48 00 0E 80 3E 00 2A 80
43 00 47 80 41 00 1E 90 40 4A 01 CE 80 40 00 17
90 3C 51 02 94 80 3C 00 45 90 43 3C 09 90 3C 43
69 90 47 35 23 80 3C 00 01 81 80 43 00 01 D1 80
47 00 03 F3 90 40 40 02 E8 90 3E 59 29 80 40 00
66 90 45 62 18 90 47 5D 56 90 43 4B 1B 80 47 00
3D 90 3E 33 1D 80 3E 00 1D 90 3E 5C 45 80 45 00
63 90 3E 3E 0E 80 3E 00 01 95 80 43 00 04 80 3E
00 3A 90 40 3A 08 80 3E 00 01 98 90 40 3D 6B 80
40 00 01 80 90 48 3C 2B 80 40 00 55 80 48 00 02
96 90 3E 34 61 80 3E 00 24 90 48 44 01 CD 90 45
3C 57 90 45 36 01 98 80 48 00 01 CB 80 45 00 23
90 47 32 03 80 45 00 02 B0 90 41 59 2F 80 47 00
01 87 80 41 00 11 90 43 34 13 90 45 41 02 E3 80
45 00 07 80 43 00 13 90 45 46 55 80 45 00 01 A2
90 45 55 02 F8 80 45 00 3F 90 3E 5B 01 E8 90 40
49 02 90 3C 47 5C 80 3C 00 19 80 40 00 55 90 43
59 1A 80 3E 00 7C 90 3E 3B 65 80 43 00 01 F6 80
3E 00 2C 90 48 46 01 AB 90 45 39 72 90 40 50 2B
90 3C 41 13 80 48 00 74 80 3C 00 04 80 45 00 01
F2 80 40 00 02 9B 90 43 3E 01 86 90 40 45 01 84
90 45 37 79 80 45 00 07 80 40 00 19 80 43 00 6C
90 43 44 01 B5 90 3C 54 4A 90 45 48 5A 80 3C 00
6B 80 43 00 15 90 40 43 01 89 90 43 52 52 80 43
00 25 80 45 00 29 90 48 4B 7B 80 40 00 01 FF 80
48 00 01 BE 90 3C 3E 02 9D 80 3C 00 72 90 3C 64
0D 90 48 64 61 80 48 00 5E 80 3C 00 24 90 45 5F
02 9C 90 41 49 29 80 45 00 4C 80 41 00 01 D9 90
41 38 02 8E 80 41 00 04 B4 90 48 5E 02 94 90 45
37 57 80 48 00 01 86 90 48 57 5C 90 45 3E 27 80
48 00 67 80 45 00 0E 90 41 33 72 90 48 56 6A 80
45 00 05 80 48 00 27 80 41 00 03 CA 90 3C 5B 03
C1 80 3C 00 76 90 43 48 02 AF 90 40 64 5F 80 43
00 79 90 41 64 01 AA 80 40 00 3F 90 47 37 01 95
80 41 00 02 C4 80 47 00 4F 90 45 34 1B 90 43 4D
1D 90 47 59 31 90 43 35 2C 80 45 00 48 80 47 00
15 90 40 5B 00 80 43 00 02 80 80 43 00 1E 90 40
5F 03 90 43 52 22 90 3C 4F 20 80 40 00 4F 90 3C
48 01 BA 80 40 00 32 80 43 00 16 80 3C 00 2A 80
3C 00 12 90 43 41 49 90 3E 58 41 90 41 58 56 80
41 00 29 80 3E 00 01 9E 80 43 00 06 F7 90 40 5C
6F 90 3E 4C 3C 80 40 00 03 80 3E 00 4F 90 45 54
01 C2 90 47 54 41 90 41 3E 01 BE 90 3C 3B 09 80
45 00 01 8F 80 3C 00 39 80 47 00 50 80 41 00 02
C4 90 43 64 2A 90 47 5E 41 80 47 00 50 90 41 51
01 AD 80 41 00 35 80 43 00 5B 90 47 40 03 81 80
47 00 03 AB 90 43 3E 01 83 90 43 60 53 80 43 00
2F 80 43 00 6C 90 45 3F 42 90 43 46 06 90 40 59
33 90 45 53 30 80 40 00 25 80 45 00 6C 80 45 00
58 90 3C 3F 01 8E 80 43 00 02 84 80 3C 00 6A 90
45 59 01 D8 80 45 00 08 90 48 4D 02 F0 80 48 00
61 90 40 57 7B 90 47 53 5D 80 47 00 30 80 40 00
01 85 90 48 44 17 90 43 57 01 C0 80 48 00 52 90
48 51 7E 80 43 00 16 90 47 3C 41 80 48 00 01 C6
80 47 00 01 D3 90 45 35 65 80 45 00 01 E4 90 3E
3D 01 9F 90 48 50 37 90 45 45 2F 90 47 49 5A 80
45 00 14 80 3E 00 1C 80 48 00 01 E7 80 47 00 02
EE 90 43 3C 75 90 40 4E 52 90 45 54 62 80 40 00
16 80 45 00 5A 80 43 00 05 F4 90 3E 57 1A 90 40
58 3E 80 3E 00 6A 80 40 00 6D 90 41 48 60 80 41
00 27 90 45 53 02 F8 90 40 56 4A 80 45 00 01 85
90 45 5A 6F 80 40 00 0D 90 41 5E 20 80 45 00 02
A2 80 41 00 22 90 47 46 5E 90 3E 3A 02 FE 80 47
00 15 80 3E 00 01 95 90 47 63 02 95 80 47 00 06
89 90 43 3A 02 98 80 43 00 03 B2 90 3E 43 32 90
3C 37 2C 90 48 45 01 84 80 3E 00 79 80 3C 00 53
80 48 00 01 D3 90 48 4A 56 80 48 00 02 AD 90 45
3B 58 80 45 00 2F 90 48 5B 7E 80 48 00 04 90 41
44 01 CD 90 40 51 11 90 47 48 6E 80 41 00 0C 80
47 00 01 80 80 40 00 02 F8 90 43 5D 3C 90 41 42
01 FB 90 40 35 31 80 43 00 01 97 80 41 00 1D 80
40 00 1D 90 48 56 01 AB 90 3E 3A 5A 90 40 3F 58
80 48 00 7D 80 40 00 01 80 3E 00 55 90 41 40 46
80 41 00 7D 90 3E 38 01 C1 90 3C 4D 7A 90 40 48
30 80 3E 00 3F 80 3C 00 01 CC 80 40 00 47 90 43
42 29 90 40 49 40 80 43 00 16 90 3C 57 01 AD 80
40 00 25 90 41 3D 06 90 48 4F 01 8C 80 3C 00 31
80 41 00 5F 80 48 00 01 82 90 41 3D 01 B4 80 41
00 04 F1 90 41 3D 7C 90 3E 3D 6B 90 41 58 01 9E
80 3E 00 10 80 41 00 01 B2 80 41 00 5D 90 48 34
19 90 48 56 01 D3 80 48 00 50 80 48 00 01 F3 90
47 63 02 C8 80 47 00 01 FF 90 43 5B 39 90 41 39
3C 80 41 00 48 80 43 00 0C 90 47 3E 03 90 80 47
00 0D 90 43 5A 78 90 40 39 7E 80 40 00 01 9C 80
43 00 0B 90 47 37 01 D6 80 47 00 02 CE 90 45 46
2F 90 41 36 44 90 43 37 13 90 40 5C 0D 80 45 00
27 80 43 00 2C 80 40 00 01 9E 90 47 45 70 80 41
00 1D 80 47 00 03 DD 90 41 43 01 C8 80 41 00 02
DF 90 48 5A 64 80 48 00 05 A1 90 48 4E 5D 80 48
00 02 B2 90 48 5A 1A 90 3C 46 16 90 40 35 02 8A
90 3C 5E 0A 80 3C 00 1A 80 40 00 01 81 80 48 00
7F 90 3C 45 11 90 47 4D 03 80 3C 00 0C 90 48 5D
02 9D 90 3C 62 05 80 48 00 2E 80 3C 00 5C 80 47
00 37 80 3C 00 02 DA 90 47 5F 26 90 40 4B 2C 80
47 00 02 93 90 43 4C 45 80 40 00 01 D0 90 48 4E
15 80 43 00 01 D6 90 47 63 16 90 45 3D 01 AE 80
48 00 27 80 47 00 01 82 80 45 00 01 FA 90 47 64
35 90 40 36 09 90 43 46 02 C5 90 47 34 02 80 47
00 11 80 40 00 0A 90 3C 47 2C 80 43 00 01 BC 80
47 00 34 80 3C 00 01 C6 90 41 4E 24 90 3C 60 4B
80 41 00 02 E6 80 3C 00 01 CB 90 45 5A 02 84 90
48 3C 01 90 45 4F 22 90 45 59 42 90 3E 4B 3A 80
45 00 51 80 48 00 63 80 3E 00 2F 80 45 00 40 80
45 00 5E 90 43 57 4A 80 43 00 03 A8 90 43 55 01
B1 90 45 51 44 90 43 55 4A 90 41 4A 13 80 43 00
42 80 45 00 0B 80 43 00 35 90 3E 39 23 80 41 00
01 D5 80 3E 00 7D 90 3C 4D 01 8A 90 40 64 01 AB
80 3C 00 03 90 43 4F 01 AD 80 40 00 19 90 41 50
29 90 3E 4E 6A 90 47 51 0B 80 43 00 77 80 3E 00
01 99 80 41 00 14 80 47 00 28 90 40 52 01 8F 90
41 46 3B 90 43 35 5A 80 40 00 12 90 40 39 3F 80
43 00 2E 80 40 00 3F 90 3E 3C 1D 80 41 00 01 88
80 3E 00 36 90 48 39 02 99 90 3C 38 03 90 45 4F
01 B9 80 48 00 30 90 45 63 21 80 45 00 01 8E 80
3C 00 01 82 80 45 00 03 92 90 48 57 4F 90 48 33
01 84 80 48 00 3A 90 48 56 63 90 3C 52 0D 90 3E
43 34 80 48 00 26 90 3E 56 38 80 48 00 5D 80 3C
00 62 90 48 45 06 80 3E 00 31 80 3E 00 58 80 48
00 09 89 90 45 40 01 8D 90 47 42 31 90 43 47 01
84 80 47 00 10 90 40 59 16 80 45 00 01 E9 90 47
43 46 80 43 00 01 8C 80 40 00 01 B4 90 3E 55 41
90 41 33 16 80 47 00 71 90 40 32 14 90 48 44 3F
80 3E 00 01 B4 80 48 00 37 80 40 00 10 80 41 00
01 C9 90 47 38 03 9C 80 47 00 01 BF 90 45 59 4D
90 3C 62 01 C0 90 48 45 01 86 80 3C 00 0F 80 45
00 22 90 41 61 0F 80 48 00 01 8A 90 41 3A 06 90
3E 5F 40 80 3E 00 01 D8 80 41 00 01 96 80 41 00
02 AB 90 47 4D 08 90 3E 49 3C 90 41 4C 40 80 41
00 07 90 3C 3F 0D 90 47 3F 11 90 45 50 0F 80 47
00 01 D9 80 45 00 2C 80 3E 00 3B 80 3C 00 68 90
43 57 09 80 47 00 01 D8 80 43 00 01 FD 90 47 57
02 83 80 47 00 11 90 48 61 01 B8 80 48 00 08 90
48 40 01 EE 90 48 48 6F 80 48 00 02 E0 80 48 00
01 81 90 45 5B 5A 90 47 3A 01 92 80 47 00 26 90
43 59 0E 90 3C 3C 76 80 3C 00 3F 90 41 4C 09 80
45 00 27 80 43 00 6F 90 47 56 63 80 47 00 43 80
41 00 07 90 3C 5E 0D 90 3C 58 4E 80 3C 00 01 C2
90 3C 38 69 90 45 4A 2D 80 3C 00 15 80 3C 00 58
90 47 4C 1D 90 41 38 44 90 47 5D 0C 80 45 00 01
EB 80 47 00 0E 90 45 50 05 80 41 00 07 90 3E 4A
52 80 47 00 54 80 3E 00 01 CF 80 45 00 01 FC 90
3E 41 68 80 3E 00 01 BE 90 48 4D 01 E3 90 48 4A
03 90 47 37 73 80 48 00 48 80 48 00 67 90 48 5F
6C 90 43 34 13 90 41 60 02 80 47 00 2A 90 45 4D
26 80 43 00 0B 80 41 00 03 90 3C 46 71 80 3C 00
16 80 45 00 0A 80 48 00 0D 90 47 4B 01 C6 90 40
43 05 90 43 32 3A 80 47 00 7A 80 40 00 01 CA 90
3C 3D 4C 80 43 00 0A 90 43 37 3F 90 48 5D 17 90
40 39 68 90 47 35 0D 80 48 00 01 96 90 47 5D 0A
80 3C 00 27 90 48 45 20 80 47 00 04 80 43 00 39
80 40 00 5B 80 47 00 01 96 90 48 33 0B 90 3C 58
0F 80 48 00 01 A4 80 3C 00 01 E8 80 48 00 05 B2
90 48 3C 5B 90 47 44 41 80 48 00 3A 80 47 00 01
8E 90 3E 61 2E 90 40 50 7D 80 3E 00 0E 80 40 00
01 B9 90 41 59 01 9B 90 47 62 01 8A 80 41 00 09
80 47 00 3B 90 40 48 2B 90 40 32 07 90 40 44 01
D1 80 40 00 01 98 90 40 3B 04 90 48 56 04 80 40
00 3C 80 40 00 55 80 40 00 01 9B 90 45 40 6D 80
48 00 02 B8 80 45 00 01 B0 90 47 38 01 91 90 47
61 01 EF 80 47 00 01 A7 90 3E 3A 48 80 47 00 2D
80 3E 00 02 B5 90 40 5A 01 AF 80 40 00 01 8A 90
45 42 01 F4 90 3C 48 4D 80 45 00 02 8C 90 3E 33
14 90 3C 42 4C 80 3C 00 01 CD 90 45 4D 09 80 3E
00 01 90 40 3F 6D 90 43 60 2A 80 3C 00 40 80 43
00 01 AC 80 45 00 47 80 40 00 02 E3 90 48 58 01
E0 80 48 00 0C 90 3C 34 59 90 3E 60 17 90 45 39
2E 90 43 39 63 90 48 60 2F 80 3C 00 0A 80 43 00
1C 80 45 00 21 90 3C 35 4A 80 3E 00 35 80 3C 00
01 E4 80 48 00 03 93 90 3C 54 01 BB 80 3C 00 3B
90 40 4D 20 90 48 55 01 C9 90 48 32 0F 90 3C 5A
01 C4 80 40 00 44 80 48 00 26 80 48 00 7E 80 3C
00 30 90 45 3D 5A 80 45 00 02 95 90 45 5E 61 90
41 5D 01 B0 90 43 55 18 80 45 00 72 80 43 00 02
80 41 00 61 90 3E 4D 6B 90 48 45 10 90 47 3F 5E
90 47 4A 1D 80 3E 00 7F 90 48 5E 01 BA 80 48 00
09 80 47 00 0A 80 47 00 01 8C 80 48 00 03 A4 90
47 3D 01 C4 80 47 00 4C 90 43 56 01 A4 90 41 50
61 80 43 00 3C 80 41 00 61 90 3E 3D 01 90 80 3E
00 07 F9 90 3E 52 01 B6 80 3E 00 03 D7 90 43 3D
02 9A 80 43 00 03 B1 90 43 4F 01 FF 80 43 00 08
8C 90 45 48 02 AE 80 45 00 01 A5 90 3E 3A 01 B2
80 3E 00 02 DB 90 3E 36 68 90 48 42 19 90 3C 32
5B 80 48 00 42 90 45 62 79 80 3E 00 64 90 3E 44
07 80 45 00 22 80 3C 00 32 90 47 4F 01 98 90 41
4A 01 8B 80 41 00 06 80 47 00 27 80 3E 00 01 D4
90 43 4B 42 80 43 00 73 90 3E 3F 25 90 40 58 01
A0 90 40 4E 05 80 3E 00 02 84 80 40 00 11 90 3E
48 06 80 40 00 01 E7 80 3E 00 01 BA 90 3E 33 03
84 80 3E 00 06 F8 90 40 4B 7A 90 43 3C 22 80 40
00 3A 80 43 00 06 89 90 3E 3E 2C 90 47 34 01 E0
90 45 34 68 80 45 00 18 80 47 00 48 80 3E 00 04
C6 90 3C 55 30 90 40 51 70 80 40 00 59 80 3C 00
0A 90 40 39 0C 90 40 5C 01 8D 80 40 00 01 C7 80
40 00 02 DE 90 48 50 02 85 90 40 3D 2E 80 48 00
01 84 80 40 00 52 90 3E 5A 01 99 90 41 3D 5A 80
41 00 55 80 3E 00 03 D8 90 45 5A 02 E3 90 3C 38
12 90 45 41 52 80 3C 00 01 80 45 00 17 80 45 00
01 AC 90 3C 53 1C 90 45 4E 01 CE 80 3C 00 1C 90
40 5C 11 90 48 48 07 80 45 00 45 90 45 60 08 80
40 00 21 90 41 47 09 80 48 00 28 90 43 37 4B 80
45 00 01 82 80 41 00 49 80 43 00 65 90 3C 32 51
90 48 54 01 E3 80 3C 00 0D 90 41 5B 6C 90 40 63
1D 80 48 00 79 80 41 00 01 C5 80 40 00 03 E7 90
45 5F 49 80 45 00 02 CF 90 48 5A 1E 90 47 48 01
F7 90 48 42 3D 80 48 00 51 80 47 00 38 80 48 00
01 B6 90 40 35 01 B9 90 41 3D 01 81 80 40 00 17
90 3E 61 6B 90 3C 5B 51 90 45 44 01 80 80 41 00
43 80 3E 00 32 90 3C 48 04 90 47 60 24 80 3C 00
42 80 45 00 0A 80 47 00 7C 90 3C 39 5B 80 3C 00
01 B2 90 3E 42 04 80 3C 00 01 8D 90 3E 5D 01 83
80 3E 00 03 90 43 37 09 90 3E 43 3D 80 3E 00 3F
80 3E 00 01 F3 90 3E 38 07 90 3E 36 11 80 43 00
01 BF 80 3E 00 10 90 45 5B 7F 80 3E 00 01 A0 90
45 34 44 80 45 00 5C 80 45 00 06 AA 90 48 54 0C
90 45 3C 01 86 80 45 00 39 80 48 00 04 FC 90 3C
4C 01 8E 90 3E 36 6C 80 3C 00 57 80 3E 00 62 90
43 48 61 90 3E 43 2F 80 43 00 02 B6 80 3E 00 01
BC 90 43 55 71 90 48 49 44 90 48 3E 09 90 3E 3B
20 90 47 52 37 90 3E 41 51 80 43 00 2B 80 48 00
3E 80 48 00 18 80 3E 00 20 90 41 50 35 80 47 00
01 B4 80 3E 00 29 90 40 60 1D 80 41 00 2E 80 40
00 40 90 41 5E 01 E1 90 40 58 64 80 40 00 01 9B
80 41 00 02 AD 90 3C 55 46 80 3C 00 5B 90 40 56
34 90 41 4E 02 E9 80 40 00 38 80 41 00 6A 90 45
41 09 90 3E 4B 01 BF 80 3E 00 30 80 45 00 6E 90
40 59 01 90 40 40 58 80 40 00 08 80 40 00 02 C1
90 48 51 02 80 80 48 00 02 84 90 43 50 01 BC 80
43 00 03 BF 90 48 59 5F 90 45 62 16 90 41 44 53
80 48 00 04 80 45 00 01 C7 80 41 00 76 90 40 5F
01 93 90 48 34 03 90 3E 64 03 90 3E 5A 5A 90 3C
57 63 90 48 5E 03 80 40 00 3D 80 48 00 1D 80 48
00 1F 80 3E 00 47 80 3E 00 79 80 3C 00 5D 90 3E
5A 1B 90 41 4E 6A 90 3E 38 0F 90 3C 59 33 80 3E
00 04 80 3E 00 39 90 3E 3B 30 80 41 00 10 90 40
33 01 9E 80 3E 00 13 80 3C 00 01 CB 80 40 00 04
AF 90 47 58 01 9C 90 48 56 15 90 48 43 06 80 47
00 01 82 80 48 00 02 9F 80 48 00 1D 90 40 51 01
CF 90 3C 4A 01 F0 80 40 00 4C 80 3C 00 01 A4 90
41 36 03 A4 90 43 42 09 80 41 00 01 92 90 43 40
32 80 43 00 2F 80 43 00 01 DF 90 41 33 01 C0 90
43 49 01 F6 80 41 00 3A 90 48 52 28 90 48 38 0C
90 45 37 3F 80 48 00 35 80 43 00 2A 90 3C 4D 01
DA 90 40 59 0D 80 45 00 0F 80 48 00 4D 80 3C 00
5A 90 43 39 70 80 40 00 01 F9 80 43 00 02 DB 90
40 57 39 90 48 53 57 80 40 00 21 80 48 00 5B 90
3E 4C 01 F9 80 3E 00 4F 90 40 56 03 CF 80 40 00
0D 90 40 48 01 CC 80 40 00 03 A9 90 48 4C 3B 90
3E 3A 3E 80 3E 00 3B 80 48 00 01 A0 90 43 42 63
90 40 54 04 90 43 40 3E 80 43 00 1D 80 40 00 1A
80 43 00 02 AD 90 41 33 01 92 80 41 00 01 CB 90
45 5F 48 80 45 00 01 CE 90 3C 3A 01 80 90 3E 4C
36 90 45 4B 02 97 80 3C 00 2D 80 45 00 2E 80 3E
00 6C 90 45 46 11 90 40 56 63 80 45 00 7F 80 40
00 01 9A 90 47 42 02 B6 80 47 00 02 B2 90 40 60
01 AD 80 40 00 01 84 90 47 63 78 80 47 00 78 90
3C 3B 02 95 80 3C 00 03 F6 90 41 3E 02 B0 80 41
00 07 90 45 64 5C 80 45 00 04 B5 90 3E 48 50 90
40 45 49 90 45 3E 6B 80 45 00 01 C8 80 3E 00 03
80 40 00 30 90 48 4E 02 8D 90 45 48 01 8A 80 48
00 01 FB 90 47 34 2E 80 45 00 01 87 90 41 54 7E
80 41 00 04 80 47 00 03 AA 90 40 4A 02 FB 90 48
51 3E 80 40 00 01 99 80 48 00 07 D0 90 48 3E 7E
90 43 5A 01 E2 90 3C 56 2D 80 48 00 58 90 43 36
0E 80 43 00 41 80 43 00 12 90 41 5C 01 8B 90 47
3B 07 80 3C 00 0B 90 43 3A 1E 80 41 00 39 90 43
39 7A 80 43 00 3E 90 43 52 49 80 43 00 15 80 47
00 5C 80 43 00 65 90 3C 4B 09 90 41 42 0C 90 40
5D 01 B9 80 3C 00 08 90 45 33 03 80 40 00 01 AE
80 41 00 02 8B 80 45 00 01 C6 90 45 50 01 8A 80
45 00 02 85 90 41 53 54 80 41 00 45 90 48 42 01
8F 90 40 5B 01 E5 80 48 00 33 80 40 00 02 8E 90
41 3F 72 90 43 4C 0E 80 41 00 02 AD 80 43 00 01
89 90 3C 5E 01 DB 80 3C 00 2A 90 3C 5E 01 A8 80
3C 00 01 88 90 47 50 01 FD 80 47 00 04 AC 90 3E
4A 54 80 3E 00 01 8B 90 47 3D 01 F3 80 47 00 01
97 90 48 47 4B 80 48 00 01 9B 90 43 41 55 90 40
57 3A 90 40 54 37 80 40 00 3B 80 40 00 49 80 43
00 5A 90 43 39 68 90 45 3C 75 80 45 00 01 F7 80
43 00 02 D0 90 41 62 02 9D 90 48 43 73 80 41 00
01 FB 80 48 00 02 F2 90 41 4A 01 C9 90 43 3A 40
80 41 00 44 80 43 00 18 90 40 47 43 90 47 50 01
B2 80 40 00 0E 90 48 5E 4A 90 45 3F 14 80 47 00
27 80 48 00 03 8C 80 45 00 03 E1 90 47 4F 03 C4
80 47 00 3C 90 3C 38 01 C1 80 3C 00 08 90 48 37
01 ED 80 48 00 02 AF 90 41 36 02 A4 90 41 5E 1C
90 3C 59 47 80 41 00 16 80 41 00 36 90 48 55 0D
80 3C 00 01 FB 90 47 63 45 80 48 00 31 80 47 00
62 90 45 47 31 90 3E 57 2A 90 45 47 23 90 45 58
47 90 3C 43 16 80 45 00 01 9E 80 45 00 74 80 3E
00 04 90 43 4B 29 80 3C 00 3D 80 45 00 4C 90 40
4D 01 A0 80 43 00 24 80 40 00 04 81 90 48 59 01
B9 90 3E 46 15 90 3C 5F 24 90 48 40 28 90 3E 38
1A 80 48 00 28 80 48 00 02 90 43 3F 01 93 80 43
00 41 80 3E 00 26 90 48 45 02 80 3E 00 32 80 3C
00 01 C8 80 48 00 01 81 90 45 52 40 90 3E 44 70
80 45 00 01 86 80 3E 00 0A 90 3E 35 01 F4 80 3E
00 02 DA 90 40 53 01 F9 80 40 00 5C 90 3E 43 01
BF 80 3E 00 01 C1 90 43 62 03 B0 90 40 4E 30 80
43 00 7F 90 40 5F 09 90 3C 39 4D 90 40 53 6E 80
40 00 46 80 3C 00 06 90 43 45 43 80 40 00 38 80
40 00 01 8C 90 45 3D 0D 80 43 00 01 BF 90 3E 46
01 EB 80 45 00 02 90 41 5D 18 90 47 64 3A 80 3E
00 02 89 80 41 00 03 80 47 00 60 90 3C 3A 25 90
43 47 1F 90 45 33 22 90 48 51 20 80 43 00 2D 90
40 37 41 90 40 3A 20 90 43 5E 77 80 48 00 01 80
43 00 16 80 3C 00 64 80 40 00 1D 80 45 00 1D 80
40 00 01 81 90 47 45 02 F5 80 47 00 4D 90 3C 46
24 90 41 3A 4B 80 41 00 4D 90 3C 4C 41 90 45 5B
49 90 3E 58 36 80 3C 00 14 90 3E 36 36 80 3C 00
60 80 45 00 31 80 3E 00 2C 90 43 3A 76 90 41 48
20 80 3E 00 01 8F 90 40 38 3D 90 43 52 35 80 43
00 1A 80 41 00 33 90 41 55 1A 90 40 3F 36 90 43
3A 0E 80 43 00 26 80 41 00 1D 80 40 00 31 80 43
00 01 8F 90 41 3F 4D 80 40 00 01 EC 80 41 00 01
CE 90 40 4C 30 90 41 56 60 80 41 00 5A 90 40 39
21 90 47 48 01 AC 80 40 00 03 90 41 40 23 80 40
00 68 90 43 4F 01 80 47 00 11 80 41 00 03 90 3E
4A 06 90 3E 4E 43 80 43 00 6B 90 3E 62 63 90 40
44 04 80 3E 00 44 80 3E 00 01 E7 80 3E 00 2E 80
40 00 04 89 90 41 5D 03 C2 80 41 00 7A 90 48 54
19 90 40 38 28 80 48 00 24 90 45 53 73 80 40 00
01 DA 80 45 00 6C 90 45 57 4C 90 3E 37 02 A4 80
45 00 4C 90 48 4F 1E 80 3E 00 01 D8 80 48 00 01
F9 90 47 45 01 C6 90 48 40 69 90 40 5C 14 80 47
00 49 90 41 4D 13 90 43 3E 42 80 40 00 0B 90 47
53 0C 90 41 4F 15 80 48 00 07 90 47 61 37 80 41
00 02 80 41 00 05 90 48 4E 0B 90 45 4E 04 90 3E
4A 1D 80 43 00 7E 80 45 00 07 80 3E 00 7E 80 47
00 15 80 48 00 0E 90 41 5F 11 80 47 00 01 C0 80
41 00 02 EA 90 48 41 01 CE 80 48 00 03 93 90 41
41 77 90 41 56 3F 90 47 49 20 90 3E 34 4B 90 43
56 3E 80 41 00 46 90 40 4D 0A 80 41 00 0F 80 43
00 19 80 3E 00 1A 80 40 00 77 80 47 00 06 A2 90
41 34 02 B6 90 43 52 5C 80 41 00 02 AB 90 41 46
14 80 43 00 01 9D 80 41 00 02 C8 90 40 4F 18 90
45 5D 1D 90 3C 61 01 83 80 3C 00 2B 90 43 3B 32
80 40 00 0E 80 45 00 02 F3 80 43 00 28 90 3E 43
57 80 3E 00 7E 90 43 41 03 90 45 58 7D 80 43 00
5B 90 43 3E 69 80 45 00 64 80 43 00 05 A5 90 47
49 43 80 47 00 02 EC 90 3E 51 0F 90 3C 3C 01 F6
80 3C 00 20 80 3E 00 65 90 47 3E 01 CD 80 47 00
02 90 90 40 34 01 D0 80 40 00 01 88 90 3E 42 01
9A 90 45 3E 1B 80 3E 00 6A 90 41 3B 06 80 45 00
02 DC 80 41 00 02 BC 90 48 59 01 8A 80 48 00 07
B0 90 47 5A 42 90 41 58 06 90 3E 44 12 90 41 33
70 90 43 53 25 80 41 00 04 80 3E 00 01 BA 90 41
59 1D 80 43 00 16 80 47 00 19 80 41 00 01 C5 90
45 45 06 80 41 00 21 90 48 32 4F 80 48 00 01 C8
80 45 00 04 C3 90 48 5A 01 CF 90 40 4F 04 90 43
36 49 80 40 00 38 80 48 00 02 C0 80 43 00 03 AD
90 41 4E 03 92 80 41 00 02 9B 90 41 4D 02 DC 80
41 00 02 A5 90 3C 39 01 80 90 45 52 15 80 3C 00
02 B8 80 45 00 03 D8 90 3C 4A 69 90 43 46 4C 80
3C 00 02 96 80 43 00 02 EF 90 48 43 73 80 48 00
6D 90 47 63 01 BA 90 43 48 5E 90 40 59 0B 80 47
00 05 90 3E 60 21 80 43 00 64 90 3C 40 13 90 48
64 18 90 3C 4A 0E 90 45 3C 11 80 40 00 17 80 3E
00 2C 80 45 00 0B 80 48 00 4F 90 48 39 01 BE 90
47 45 02 80 3C 00 06 90 47 61 2F 80 3C 00 3F 90
40 50 3A 90 47 3E 32 80 48 00 09 80 47 00 27 90
3E 59 08 90 45 41 17 80 47 00 2B 90 41 55 0C 80
3E 00 16 80 40 00 1D 80 47 00 01 D5 80 45 00 67
80 41 00 01 A1 90 48 37 42 90 43 42 01 8E 80 43
00 2A 90 3C 36 62 80 48 00 62 80 3C 00 47 90 45
45 57 80 45 00 45 90 40 4E 02 E0 90 43 56 00 80
40 00 5E 90 45 62 0B 90 47 5D 51 80 43 00 01 AC
80 45 00 01 DF 80 47 00 01 C2 90 3C 3F 77 80 3C
00 6C 90 45 36 02 A0 80 45 00 52 90 45 55 37 90
48 52 26 90 45 53 36 90 47 34 01 9D 80 47 00 25
80 45 00 51 80 48 00 3E 80 45 00 02 F9 90 3E 63
1E 90 47 58 46 90 48 3E 02 C3 80 3E 00 0D 80 47
00 06 90 3E 35 24 80 48 00 05 90 3E 3F 66 80 3E
00 02 8F 80 3E 00 15 90 43 39 44 80 43 00 01 9C
90 3C 56 05 90 3E 61 24 90 48 32 1F 90 3C 46 41
80 3E 00 01 9B 80 48 00 08 80 3C 00 29 90 3E 46
25 80 3C 00 01 A8 90 43 32 01 BC 90 47 49 2A 80
43 00 07 80 3E 00 08 90 3E 50 01 8D 80 3E 00 15
90 41 3F 09 90 3E 59 6E 80 41 00 2F 80 47 00 02
81 90 40 51 3B 90 47 51 07 80 3E 00 51 80 40 00
01 D9 80 47 00 02 9A 90 48 57 31 90 48 34 6A 90
40 5F 52 80 48 00 1F 80 40 00 60 90 41 59 34 80
48 00 02 AB 80 41 00 01 90 90 48 4D 7D 80 48 00
12 90 47 34 03 96 80 47 00 03 8D 90 45 44 3C 80
45 00 01 C9 90 3C 4C 04 90 48 45 01 8B 90 40 60
0F 90 3E 5C 75 90 41 56 4A 80 3E 00 05 80 48 00
03 80 40 00 06 80 3C 00 01 ED 80 41 00 03 C0 90
40 48 0B 90 45 60 50 90 3E 44 2C 80 40 00 01 FE
80 3E 00 06 90 3C 3A 21 80 45 00 45 90 47 38 57
80 3C 00 22 90 47 50 02 80 47 00 48 90 48 3B 01
B4 80 48 00 01 C3 80 47 00 06 8E 90 45 5E 40 80
45 00 7F 90 43 5D 02 C3 80 43 00 05 80 90 47 43
01 89 90 47 5E 0B 80 47 00 02 8B 90 3E 34 01 B0
80 47 00 20 90 47 32 49 80 3E 00 43 80 47 00 4C
90 43 42 01 A4 80 43 00 02 9A 90 45 45 33 90 40
4E 02 ED 80 45 00 6B 80 40 00 7D 90 40 53 01 FD
90 48 55 55 80 40 00 35 90 47 4F 01 C1 80 47 00
01 80 80 48 00 19 90 3E 55 01 87 90 40 5E 01 A5
80 40 00 13 80 3E 00 01 BE 90 41 43 1A 90 45 35
01 B5 80 41 00 0A 90 47 49 2B 80 45 00 6D 80 47
00 01 96 90 43 38 02 AF 80 43 00 01 EC 90 45 35
01 BF 80 45 00 17 90 47 45 12 90 45 4C 02 AF 80
47 00 28 80 45 00 4B 90 48 4E 01 94 80 48 00 02
C3 90 47 34 02 C0 80 47 00 04 DA 90 45 41 1A 90
45 4A 01 96 80 45 00 3F 80 45 00 7A 90 3C 50 34
90 45 41 60 90 47 63 6D 80 47 00 34 90 41 48 4E
80 45 00 32 80 3C 00 0A 80 41 00 01 DF 90 45 50
1C 90 3E 55 50 80 3E 00 0C 90 48 38 1F 80 45 00
01 A9 90 47 43 7A 80 48 00 01 96 80 47 00 02 EB
90 47 4F 27 90 48 42 7A 90 48 42 1A 90 47 55 2D
80 48 00 3F 90 43 56 33 80 48 00 2E 80 47 00 15
90 40 37 19 80 47 00 7C 80 40 00 26 90 48 45 3D
80 48 00 15 90 48 43 09 80 43 00 19 90 43 5B 0A
90 45 3C 1D 80 48 00 01 C3 80 45 00 03 80 43 00
26 90 41 5A 7C 80 41 00 01 EE 90 40 3A 48 90 43
3D 3F 80 43 00 21 90 45 37 15 90 40 43 18 90 43
51 46 80 45 00 18 90 48 48 40 80 48 00 04 80 40
00 0F 80 43 00 34 80 40 00 01 F7 90 3E 59 01 84
80 3E 00 02 C7 90 3E 4A 01 A1 90 45 5F 01 B9 80
3E 00 03 80 45 00 75 90 40 55 53 90 47 47 44 90
47 4A 15 80 40 00 14 90 40 38 64 90 40 52 12 80
40 00 1A 80 47 00 01 8F 80 40 00 58 80 47 00 01
E7 90 40 4D 01 88 80 40 00 01 AD 90 47 3F 0E 90
48 51 18 90 3C 44 01 BB 80 48 00 74 80 47 00 06
80 3C 00 10 90 3E 51 2E 90 3C 5A 34 90 45 4D 31
80 3C 00 1C 80 3E 00 01 E5 90 43 57 5E 80 45 00
20 90 3E 5B 13 90 3C 3E 18 90 40 53 5A 80 3E 00
0C 80 3C 00 1F 80 43 00 02 BE 80 40 00 77 90 40
5A 6F 90 43 36 13 90 3C 47 05 90 40 5D 58 80 43
00 4D 90 40 47 1A 90 40 35 00 90 47 46 1F 80 3C
00 32 80 40 00 3B 90 41 50 25 80 40 00 06 90 3E
5F 6F 80 40 00 22 80 3E 00 62 80 40 00 29 80 47
00 44 90 3C 61 3A 80 41 00 27 80 3C 00 02 AD 90
45 51 01 B3 90 3E 41 26 90 41 4F 01 D5 80 45 00
3A 80 41 00 15 90 47 43 01 85 80 3E 00 01 A3 90
47 5F 01 89 80 47 00 0C 90 3C 4A 7F 80 3C 00 56
80 47 00 44 90 40 63 57 90 40 58 01 AC 90 3C 55
1C 80 40 00 79 80 3C 00 01 9D 80 40 00 08 BB 90
3C 47 77 90 45 40 5E 80 3C 00 2B 90 3C 3E 02 90
45 3E 01 8E 80 3C 00 2B 90 48 3F 16 80 45 00 50
80 48 00 36 80 45 00 01 AF 90 3C 55 5A 90 48 50
47 80 48 00 01 F2 80 3C 00 5B 90 45 44 03 BC 80
45 00 01 BF 90 43 35 5F 80 43 00 01 FA 90 47 3E
35 90 43 4C 6B 90 40 48 41 80 40 00 4D 80 43 00
11 80 47 00 64 90 40 58 01 C8 80 40 00 28 90 45
62 3F 90 43 3C 06 90 43 64 01 8D 80 43 00 36 80
45 00 13 90 48 41 53 80 43 00 01 B3 90 41 4E 44
80 48 00 02 82 90 3E 40 08 80 41 00 02 D1 80 3E
00 01 D3 90 48 36 5A 90 3E 4C 01 95 90 45 58 29
90 40 46 01 92 80 3E 00 0B 80 48 00 0D 80 40 00
4A 80 45 00 05 8C 90 47 58 0C 90 43 45 37 80 47
00 02 86 90 41 5A 57 80 43 00 27 90 41 3F 01 8A
80 41 00 7B 90 3C 4B 1E 90 3E 38 70 80 3E 00 2E
80 41 00 01 8A 80 3C 00 01 B5 90 3C 3F 06 90 40
53 4A 90 41 61 53 90 48 4A 4E 80 40 00 19 90 45
3D 01 80 3C 00 0F 90 45 45 17 90 43 5D 1B 80 41
00 0C 80 45 00 17 90 3E 36 01 EA 80 43 00 11 80
45 00 07 80 48 00 41 80 3E 00 02 FB 90 3E 38 5D
80 3E 00 01 83 90 3E 39 01 A3 90 48 35 3C 80 48
00 01 E2 80 3E 00 15 90 45 52 16 90 41 5E 01 8C
80 45 00 24 80 41 00 6C 90 3C 63 78 80 3C 00 0C
90 40 5E 3F 90 45 57 02 BA 80 40 00 58 80 45 00
01 FE 90 43 55 03 B6 90 40 3F 10 80 43 00 03 C6
80 40 00 01 BC 90 45 56 62 90 40 40 77 80 45 00
5B 90 43 5C 1E 90 48 36 0C 90 3C 44 34 80 43 00
6B 80 3C 00 1B 80 40 00 20 80 48 00 63 90 45 55
02 C3 90 45 46 3F 80 45 00 01 90 47 50 01 98 90
3C 51 26 80 45 00 2A 80 47 00 19 90 47 32 01 E5
80 47 00 01 82 80 3C 00 6B 90 45 3E 01 D6 90 41
53 48 80 45 00 0A 80 41 00 02 83 90 48 46 02 DD
80 48 00 0A EA 90 47 57 01 DC 80 47 00 02 EC 90
41 46 3F 90 3E 5D 32 90 45 3A 66 80 3E 00 7D 90
40 45 05 80 41 00 71 80 40 00 3D 80 45 00 01 DC
90 3E 4E 01 C9 90 45 59 1D 80 3E 00 22 80 45 00
02 AF 90 41 3C 03 D1 80 41 00 03 98 90 47 44 01
93 90 48 41 0B 90 41 54 01 A5 80 47 00 58 80 48
00 2A 80 41 00 04 BA 90 48 32 03 97 80 48 00 01
8B 90 45 5B 01 C9 80 45 00 5A 90 45 4F 72 90 45
50 5E 90 3E 42 51 80 45 00 46 90 3C 40 24 80 45
00 27 80 3E 00 54 80 3C 00 79 90 48 64 43 90 41
3B 76 90 48 5A 55 80 41 00 45 80 48 00 03 80 48
00 01 9C 90 47 35 6C 90 45 3F 4D 90 41 60 45 80
41 00 06 80 47 00 70 90 43 5F 7B 80 45 00 79 80
43 00 12 90 40 58 01 BF 90 41 5A 0E 80 40 00 13
90 3C 5B 13 90 40 36 48 80 3C 00 11 80 41 00 01
8B 80 40 00 02 8E 90 43 3A 03 8E 80 43 00 01 B0
90 40 37 5B 80 40 00 09 90 3E 34 02 87 80 3E 00
3F 90 48 3C 14 90 41 32 57 80 41 00 02 C0 80 48
00 02 9C 90 41 5E 02 CF 80 41 00 01 AF 90 48 54
12 90 41 44 01 8A 90 43 4F 04 90 40 43 7F 80 48
00 48 80 41 00 4D 90 40 40 1E 80 43 00 3D 80 40
00 01 C7 90 40 52 4F 80 40 00 13 80 40 00 01 81
90 43 5F 07 90 45 61 09 90 45 57 54 90 41 38 2C
80 45 00 23 80 45 00 01 A3 80 43 00 0B 80 41 00
02 9F 90 40 4C 36 90 41 48 50 80 41 00 79 90 48
4F 35 80 40 00 02 CE 80 48 00 2E 90 3E 3A 01 B4
90 40 5B 01 D8 80 3E 00 45 80 40 00 0A 86 90 43
37 10 90 48 5E 02 90 3C 5C 46 90 45 3B 41 80 48
00 6A 90 41 63 28 90 41 36 09 80 45 00 0A 80 43
00 69 90 48 41 33 80 3C 00 01 B2 80 41 00 54 80
41 00 64 80 48 00 02 CC 90 45 3E 02 EA 90 48 35
27 80 45 00 53 90 40 48 03 80 48 00 27 90 3C 3A
01 88 80 3C 00 01 EF 80 40 00 05 FE 90 43 52 02
B9 90 45 54 7E 80 43 00 0C 80 45 00 04 E2 90 48
48 22 90 41 4B 61 80 41 00 14 90 45 32 04 80 48
00 01 8E 80 45 00 02 C8 90 45 37 0C 90 41 53 69
90 40 52 64 90 3C 63 0B 80 40 00 5F 80 45 00 7A
80 3C 00 0E 80 41 00 02 C4 90 3C 39 01 A3 80 3C
00 01 F2 90 43 33 03 80 80 43 00 01 9B 90 48 49
01 A2 80 48 00 05 96 90 43 52 3D 80 43 00 08 85
90 48 32 03 AB 80 48 00 07 90 45 5B 02 F1 90 43
51 42 80 45 00 2E 90 41 3C 01 8D 80 43 00 01 C1
80 41 00 00 90 41 58 03 C7 80 41 00 03 C6 90 45
62 6D 90 40 5A 59 80 40 00 7E 80 45 00 25 90 40
55 01 99 80 40 00 01 E7 90 41 34 01 90 41 3D 6B
80 41 00 11 90 41 43 57 90 3C 4C 01 E0 90 47 4A
11 80 41 00 1B 90 48 5F 32 80 41 00 03 80 47 00
3A 90 48 3F 63 80 3C 00 7B 90 43 62 2F 80 48 00
01 CA 80 48 00 15 80 43 00 01 B3 90 3E 37 58 90
41 53 7D 80 41 00 7B 80 3E 00 01 B7 90 3E 3D 6B
80 3E 00 03 83 90 41 40 02 A2 80 41 00 02 F4 90
3C 42 01 F4 90 48 39 42 80 3C 00 26 90 3E 33 7D
90 40 35 3B 80 3E 00 6C 80 48 00 01 C3 80 40 00
03 DC 90 43 53 54 90 40 37 01 A1 80 43 00 01 DE
80 40 00 04 CE 90 47 46 02 FA 90 3C 60 3D 80 47
00 35 80 3C 00 6F 90 48 5C 02 86 80 48 00 08 F9
90 45 3D 7C 80 45 00 02 E4 90 3E 5F 03 D3 80 3E
00 03 DD 90 41 3E 15 90 47 42 03 98 80 47 00 15
80 41 00 01 BD 90 40 38 7D 90 47 44 64 90 40 39
1A 80 40 00 01 81 80 47 00 29 90 3E 33 43 80 3E
00 01 C9 80 40 00 01 FA 90 43 49 01 DE 90 40 46
22 80 43 00 76 90 3E 44 01 A6 80 40 00 34 90 48
53 19 80 3E 00 3A 90 41 43 60 80 48 00 08 90 3E
4F 70 90 43 4B 59 90 43 49 0D 90 45 43 2F 80 41
00 7F 80 45 00 06 80 3E 00 1F 80 43 00 01 8F 90
3E 46 1D 80 43 00 01 90 40 5D 01 89 80 3E 00 4D
90 43 3C 35 80 40 00 01 9D 90 43 57 09 80 43 00
7A 90 3C 45 3A 90 43 54 01 AC 80 43 00 03 80 43
00 16 80 3C 00 17 90 3E 4D 01 A0 90 43 42 07 90
48 60 18 80 3E 00 6C 80 43 00 0D 80 48 00 70 90
3E 3F 01 9C 90 47 3A 01 F3 80 3E 00 27 80 47 00
15 90 3E 54 01 E6 80 3E 00 03 83 90 48 51 01 9A
90 47 5E 4A 80 47 00 47 90 41 58 01 86 80 48 00
02 A0 90 45 47 2C 80 41 00 01 C5 80 45 00 04 E6
90 3C 5C 02 9C 90 45 4A 03 80 3C 00 26 90 47 4A
01 EA 90 45 3B 10 80 47 00 0B 90 48 38 69 80 45
00 36 90 41 51 01 80 45 00 02 94 90 47 60 03 80
48 00 01 B9 90 3E 5A 06 80 41 00 3E 90 41 48 01
89 80 47 00 69 80 41 00 26 80 3E 00 0E 90 3C 3B
0C 90 43 5B 65 80 3C 00 78 80 43 00 05 D1 90 3C
35 01 92 80 3C 00 6D 90 45 59 2B 90 3C 45 01 96
90 48 4A 1D 80 3C 00 3F 80 45 00 21 80 48 00 2B
90 48 58 02 DB 80 48 00 3F 90 3E 52 03 BA 80 3E
00 01 90 41 43 03 8B 80 41 00 03 94 90 3E 57 01
E7 90 3C 54 2B 90 41 5E 01 88 80 3E 00 2E 80 41
00 6C 80 3C 00 02 8E 90 48 3B 01 8C 90 3E 52 01
9D 80 48 00 01 9E 90 3E 34 68 80 3E 00 4C 90 43
55 38 90 40 48 31 80 43 00 60 90 45 5D 20 80 3E
00 01 BE 80 40 00 01 FB 80 45 00 76 90 41 5B 01
D1 90 3E 36 13 90 48 5B 2C 90 45 38 6C 90 47 5B
19 80 41 00 2D 80 47 00 1D 80 3E 00 09 90 47 55
01 A2 80 45 00 37 80 48 00 01 82 80 47 00 29 90
41 4B 13 90 41 52 02 B8 80 41 00 4C 80 41 00 02
9B 90 3E 62 1D 90 45 49 01 C9 80 45 00 2F 90 47
5B 2C 90 3C 40 53 80 3E 00 55 80 3C 00 02 90 3E
36 7D 80 47 00 01 C8 80 3E 00 5C 90 48 3A 15 90
3E 58 01 8E 80 3E 00 09 80 48 00 06 95 90 3C 46
01 EB 90 3C 43 30 90 48 54 1D 90 41 50 4C 80 3C
00 13 80 41 00 36 80 3C 00 3A 90 45 3F 41 80 48
00 13 90 47 4F 01 A5 80 45 00 01 87 90 3E 4F 01
A0 80 47 00 5F 90 3E 44 01 8F 90 43 55 15 80 3E
00 01 B6 80 43 00 06 80 3E 00 36 90 43 4F 69 90
43 33 20 90 41 32 01 B0 80 41 00 33 80 43 00 2A
90 3E 52 06 80 43 00 02 EB 80 3E 00 3F 90 43 47
01 A2 80 43 00 02 9A 90 41 62 02 D1 80 41 00 04
90 41 3A 01 DB 80 41 00 05 9B 90 47 4D 7A 80 47
00 06 93 90 43 58 01 CC 90 47 38 62 90 40 60 12
80 47 00 37 80 43 00 2C 90 3E 5C 3F 80 40 00 2D
80 3E 00 3B 90 45 3C 66 80 45 00 01 A0 90 3E 4C
25 90 48 33 42 80 3E 00 10 80 48 00 15 90 40 49
5D 80 40 00 4E 90 40 53 03 B1 90 45 59 02 80 40
00 0B 90 48 32 30 90 47 60 4A 80 45 00 57 80 47
00 0A 90 40 37 01 BA 80 48 00 17 80 40 00 41 90
45 5A 20 90 47 3C 4E 80 45 00 01 D1 80 47 00 62
90 45 3F 02 BD 80 45 00 1F 90 41 43 01 A9 80 41
00 64 90 40 35 02 87 80 40 00 0B 90 47 5D 27 90
47 3F 01 87 90 40 47 4C 80 40 00 03 80 47 00 4E
90 3C 55 01 96 90 41 55 15 80 47 00 34 80 3C 00
3E 80 41 00 0A 90 47 59 03 B4 80 47 00 6A 90 3E
64 4B 80 3E 00 42 90 47 3D 29 90 41 58 53 90 41
64 1F 90 47 3A 11 90 3C 45 58 80 41 00 00 80 47
00 0B 80 47 00 01 A8 80 41 00 5F 80 3C 00 01 AA
90 43 34 1F 90 43 56 01 A1 80 43 00 1D 80 43 00
01 C6 90 47 5A 79 80 47 00 02 FB 90 45 51 01 EE
80 45 00 01 B7 90 41 45 49 90 3E 5B 58 90 47 47
27 80 41 00 2C 90 3C 38 01 80 90 48 40 22 80 3E
00 3F 90 40 38 27 90 3C 54 08 90 3C 4F 10 80 47
00 66 80 3C 00 0F 80 40 00 69 80 3C 00 2A 80 48
00 1C 90 40 33 13 90 45 63 28 80 3C 00 01 EF 90
3C 3B 59 80 45 00 4E 80 40 00 0E 80 3C 00 02 BB
90 43 46 0B 90 43 3E 03 BC 80 43 00 14 80 43 00
03 C6 90 3E 3F 01 D0 90 3C 62 43 80 3E 00 48 80
3C 00 01 A2 90 47 5A 08 90 40 3E 1A 90 45 3D 01
93 80 45 00 01 92 80 40 00 07 80 47 00 01 CE 90
3E 4E 20 90 3C 33 1E 90 41 49 01 94 80 3E 00 01
8C 80 3C 00 2F 80 41 00 5E 90 45 42 02 94 90 40
4D 01 C4 80 45 00 1E 80 40 00 02 EE 90 43 32 09
90 40 62 02 80 80 40 00 58 90 40 3B 7B 80 43 00
01 C5 80 40 00 03 90 41 52 01 8F 90 3C 4F 14 90
47 63 18 90 45 51 1F 80 41 00 29 90 3C 5B 30 80
3C 00 35 80 3C 00 01 96 90 3C 4F 25 80 47 00 42
80 45 00 12 90 47 5D 5D 90 3C 44 1C 80 3C 00 14
80 47 00 01 F1 80 3C 00 30 90 3C 46 56 90 43 35
3B 90 43 57 01 B8 80 43 00 3D 80 43 00 09 80 3C
00 32 90 40 3A 03 A7 80 40 00 03 81 90 3E 57 43
90 3E 63 1F 80 3E 00 21 90 40 3D 40 80 40 00 2B
90 43 4B 3C 80 3E 00 01 90 3E 4C 01 BD 80 43 00
76 80 3E 00 3F 90 3E 4B 01 80 80 3E 00 01 B1 90
40 3E 6C 80 40 00 52 90 41 49 01 EA 80 41 00 1B
90 3C 54 02 8C 90 47 3A 2B 80 3C 00 11 90 47 56
01 87 90 3C 5F 15 90 45 59 60 80 3C 00 07 80 47
00 04 80 47 00 02 A2 90 48 63 04 90 43 57 13 80
45 00 29 80 48 00 01 F0 90 47 54 2C 80 43 00 46
90 41 36 4B 80 47 00 01 8F 80 41 00 02 D3 90 3E
46 5E 90 43 3D 5B 90 40 62 2B 80 3E 00 2E 80 40
00 16 80 43 00 01 B7 90 40 45 01 FE 90 3C 63 54
80 40 00 44 90 48 41 32 80 3C 00 01 FA 90 40 41
0B 80 48 00 02 CB 90 40 40 1C 80 40 00 5B 80 40
00 01 92 90 45 3C 4A 90 43 4D 01 90 3E 4B 1D 80
45 00 74 90 48 38 7D 80 3E 00 01 80 48 00 36 80
43 00 51 90 47 4D 01 96 90 41 4E 02 90 3E 58 6C
90 3E 53 4B 80 47 00 01 8F 90 3C 37 22 80 3E 00
6B 80 41 00 29 80 3E 00 6F 90 45 64 6D 80 3C 00
45 90 3C 38 41 80 45 00 3A 90 40 3D 01 BE 80 3C
00 01 BD 90 3E 4B 0E 90 40 46 08 80 40 00 40 80
40 00 02 85 80 3E 00 1D 90 43 53 75 80 43 00 3E
90 40 51 16 90 47 4A 28 90 48 35 49 90 47 3E 01
A8 80 47 00 23 80 47 00 04 90 45 60 45 80 40 00
22 80 48 00 01 B4 90 45 61 01 91 80 45 00 01 DD
80 45 00 22 90 47 62 01 81 80 47 00 01 89 90 45
51 5A 90 3E 5F 0F 80 45 00 02 8C 80 3E 00 03 B2
90 43 4B 01 D9 80 43 00 2C 90 43 39 38 90 43 5F
45 80 43 00 17 90 48 46 61 90 47 59 50 90 48 43
23 80 43 00 03 90 40 56 33 80 48 00 01 8D 80 47
00 14 80 40 00 09 90 40 5E 17 90 3E 64 64 80 3E
00 33 80 48 00 18 80 40 00 67 90 41 58 2D 90 40
57 2A 80 41 00 3E 90 43 38 59 90 3C 35 01 83 80
40 00 0B 80 3C 00 06 80 43 00 47 90 45 52 01 83
90 3C 4F 01 88 90 3E 41 19 80 3C 00 6E 90 41 47
2A 90 43 45 06 80 45 00 47 90 3E 46 55 80 3E 00
2F 80 41 00 42 80 3E 00 68 90 48 52 05 80 43 00
01 AE 90 3E 55 09 80 48 00 01 82 90 3C 63 38 90
47 5A 18 80 3C 00 45 90 45 52 17 80 47 00 0A 80
3E 00 38 90 47 40 1F 80 45 00 56 90 3C 57 01 C1
80 47 00 17 90 45 60 01 86 80 3C 00 04 90 3C 45
02 C6 80 45 00 65 80 3C 00 1F 90 45 5D 02 84 90
3C 63 23 90 3E 49 50 90 41 52 10 80 45 00 01 88
80 3C 00 15 90 3E 47 01 C8 80 3E 00 06 80 3E 00
28 90 3E 5F 3C 80 41 00 02 D8 80 3E 00 01 BB 90
43 58 01 96 80 43 00 28 90 43 59 01 A0 90 43 4D
01 97 80 43 00 01 E6 80 43 00 01 F8 90 43 4B 01
AE 90 48 58 2B 80 43 00 11 90 3C 5C 57 90 3C 64
75 80 3C 00 0C 80 3C 00 23 90 45 34 60 80 48 00
01 A6 90 3C 52 1E 80 45 00 65 90 47 5E 18 80 3C
00 60 80 47 00 01 8C 90 3E 61 01 85 90 40 60 7B
90 43 54 0C 80 40 00 63 80 3E 00 63 90 43 4B 4A
90 41 4D 00 80 43 00 01 BA 80 43 00 01 9E 90 47
53 47 80 41 00 1E 90 41 32 45 80 41 00 2A 90 3E
62 01 DC 80 47 00 58 90 47 4B 01 84 80 3E 00 20
90 45 33 4A 80 47 00 72 90 45 3E 70 80 45 00 35
90 41 36 30 80 45 00 2C 90 41 5D 11 80 41 00 01
F1 80 41 00 01 85 90 48 42 1A 90 3C 5D 49 90 45
42 01 8B 80 48 00 6F 80 3C 00 12 90 3E 48 3D 80
45 00 02 90 40 5D 55 90 48 40 01 83 80 40 00 69
80 3E 00 52 90 3C 44 0A 90 45 4E 3A 90 3C 56 0C
80 3C 00 48 80 48 00 2C 80 45 00 3F 90 3E 41 35
90 48 52 22 80 3C 00 01 89 80 48 00 6E 90 40 34
45 80 3E 00 01 AA 80 40 00 01 BA 90 3C 54 48 90
43 61 01 C1 90 3C 44 32 80 43 00 34 80 3C 00 01
81 90 3C 48 1A 80 3C 00 01 C1 80 3C 00 01 E3 90
48 4F 61 80 48 00 04 C4 90 41 5D 68 90 48 40 01
90 47 40 33 80 41 00 12 90 43 59 01 9F 90 43 48
24 80 47 00 1F 80 43 00 43 80 48 00 7D 80 43 00
7B 90 47 62 71 80 47 00 02 E7 90 3E 45 56 80 3E
00 43 90 45 5A 03 84 90 47 47 38 80 45 00 02 FA
80 47 00 02 C7 90 48 3D 16 90 45 56 22 90 43 4C
01 E5 80 45 00 02 90 40 3B 2E 80 43 00 4C 80 48
00 18 90 3C 42 27 90 3C 5A 56 80 3C 00 0A 80 40
00 01 8A 80 3C 00 04 90 3E 5A 02 CC 80 3E 00 03
C1 90 47 4F 11 90 3C 51 52 90 41 38 31 80 47 00
0E 90 3C 5B 10 90 40 4B 01 8F 80 3C 00 41 80 41
00 62 80 3C 00 33 80 40 00 67 90 41 47 01 CB 90
43 3B 47 90 48 4E 14 80 41 00 3E 80 43 00 6F 90
45 36 34 90 3E 3A 39 80 48 00 03 80 45 00 01 DD
90 47 5C 04 80 3E 00 01 92 90 43 40 4D 90 41 32
08 90 48 51 0A 90 3C 47 39 80 47 00 2C 90 47 4A
23 90 48 5A 24 80 48 00 2D 80 48 00 56 80 41 00
2F 80 43 00 11 80 3C 00 43 80 47 00 05 85 90 47
5F 01 8F 80 47 00 02 B0 90 3E 64 01 9A 80 3E 00
01 86 90 3E 35 7B 90 41 54 3A 80 3E 00 02 F7 80
41 00 2B 90 41 5E 02 9B 80 41 00 36 90 41 33 01
BE 90 45 5C 13 80 41 00 02 8A 80 45 00 02 FA 90
48 36 01 CB 80 48 00 01 93 90 41 3D 01 A8 80 41
00 01 8C 90 3C 57 01 AC 90 3C 4E 4E 90 41 34 01
88 80 41 00 06 80 3C 00 01 90 3E 33 53 80 3C 00
56 80 3E 00 65 90 43 43 02 BB 90 3C 61 54 80 43
00 01 A1 90 43 64 39 80 3C 00 01 AB 90 45 5A 7B
80 45 00 1E 90 47 38 1E 80 43 00 01 FD 80 47 00
53 90 3E 58 0C 90 45 4A 59 90 3C 62 01 9D 80 45
00 17 80 3E 00 01 FC 80 3C 00 01 E6 90 3C 43 61
90 47 37 3E 90 3C 3E 2A 80 47 00 79 80 3C 00 69
90 45 46 46 80 3C 00 01 A2 90 3E 5D 25 80 45 00
46 80 3E 00 05 D8 90 41 64 01 CF 90 47 49 59 80
47 00 4C 80 41 00 01 85 90 3E 59 3B 90 45 4E 4F
80 3E 00 3D 90 41 55 39 80 45 00 5A 90 40 3F 0A
90 41 5E 1D 80 41 00 12 90 47 51 67 80 41 00 01
DB 80 40 00 01 85 80 47 00 07 AA 90 3E 35 47 90
3E 5B 22 90 43 5A 65 80 43 00 01 BE 80 3E 00 37
80 3E 00 0E 90 3C 36 01 8A 90 3E 61 15 80 3C 00
01 AE 90 3C 49 52 80 3C 00 14 80 3E 00 3D 90 3C
63 4F 90 3C 37 4B 90 45 48 01 AF 80 3C 00 01 83
80 3C 00 1F 80 45 00 01 8D 90 40 39 36 90 48 5A
33 90 3E 62 23 80 48 00 45 90 40 38 01 97 80 40
00 0C 80 3E 00 52 80 40 00 07 90 3E 45 01 BA 90
41 40 01 9F 80 3E 00 33 80 41 00 2F 90 3E 57 41
80 3E 00 02 F2 90 43 48 02 ED 80 43 00 38 90 45
5E 75 90 41 35 0F 80 45 00 11 90 3C 4C 01 B1 90
47 5F 59 80 3C 00 20 90 41 4C 33 90 45 50 35 90
43 62 01 80 41 00 0F 80 45 00 02 90 45 55 46 80
45 00 2E 90 40 57 0D 80 43 00 21 80 47 00 2F 80
40 00 0A 80 41 00 05 A9 90 48 57 01 8B 90 43 39
55 80 48 00 01 EE 90 41 3B 52 80 43 00 01 A3 90
45 57 34 80 41 00 17 90 43 61 28 90 41 4F 62 80
45 00 1C 90 41 56 5E 80 41 00 2C 80 43 00 02 C6
80 41 00 02 D7 90 40 35 47 90 41 61 7F 80 40 00
62 90 3E 57 3D 80 41 00 04 90 48 56 02 82 80 3E
00 12 90 40 60 4A 80 48 00 52 90 40 32 17 90 40
44 6B 80 40 00 01 AF 80 40 00 2A 80 40 00 01 DB
90 3E 34 3F 90 43 39 09 90 45 4B 01 E2 80 3E 00
4D 80 43 00 0E 80 45 00 43 90 48 32 03 86 80 48
00 03 90 40 51 02 9A 80 40 00 07 90 3C 35 01 87
80 3C 00 02 CF 90 3C 34 02 D5 80 3C 00 06 90 45
63 23 90 3C 48 23 90 40 64 10 90 40 5E 01 89 80
3C 00 08 90 40 36 03 80 40 00 44 80 45 00 28 80
40 00 0B 80 40 00 01 C6 90 43 49 02 C6 90 41 5A
41 80 41 00 42 80 43 00 01 DB 90 45 55 25 90 43
5E 2C 90 43 61 09 90 48 61 04 90 47 54 0D 90 48
3C 0A 80 43 00 41 80 48 00 1E 90 48 60 31 80 48
00 0D 80 43 00 01 80 47 00 01 93 90 3C 32 1E 80
45 00 01 99 80 48 00 01 A4 80 3C 00 04 FD 90 3C
51 01 85 80 3C 00 03 C4 90 43 38 01 FD 90 45 57
1B 90 40 3F 1A 90 40 3F 2B 90 43 5D 60 80 43 00
33 80 40 00 4A 80 43 00 2E 80 40 00 02 90 41 3C
26 80 45 00 09 90 47 32 02 A7 90 47 4E 31 80 41
00 06 80 47 00 73 80 47 00 02 A8 90 41 54 01 FF
80 41 00 21 90 41 54 01 80 90 43 4B 41 90 43 51
01 AE 80 41 00 0F 90 47 43 1F 80 43 00 24 80 43
00 2E 90 45 43 01 97 80 45 00 14 90 3E 44 40 90
41 54 2E 80 47 00 20 80 41 00 0D 80 3E 00 4B 90
43 3A 02 88 90 3C 3D 01 B4 80 43 00 2F 90 40 4A
6C 80 3C 00 0F 90 47 63 01 B5 80 47 00 6C 80 40
00 05 90 3C 3D 01 98 80 3C 00 3D 90 43 48 01 9C
80 43 00 01 F5 90 45 51 02 EF 80 45 00 26 90 40
58 47 80 40 00 06 81 90 41 32 01 A0 90 41 62 5B
90 40 33 01 80 90 41 4B 22 80 41 00 75 90 45 53
0B 80 40 00 2A 80 41 00 2B 90 47 3F 02 80 41 00
22 80 45 00 3D 90 48 45 69 80 47 00 02 CB 90 48
57 05 80 48 00 02 A8 80 48 00 02 90 41 4A 0B 90
3E 40 4B 80 41 00 3D 90 43 35 2B 90 45 58 01 CC
80 3E 00 01 97 80 45 00 51 80 43 00 69 90 47 62
5C 80 47 00 02 9A 90 40 34 01 86 90 40 42 40 80
40 00 01 A2 80 40 00 21 90 47 4C 01 C4 90 3E 5B
62 90 47 38 48 80 47 00 4F 80 47 00 17 80 3E 00
58 90 3E 47 52 80 3E 00 01 BF 90 45 4B 02 90 47
52 6A 80 45 00 74 80 47 00 01 BA 90 47 41 56 90
40 58 2E 80 47 00 01 B1 80 40 00 23 90 41 5E 01
E3 90 3C 48 01 94 80 41 00 0F 80 3C 00 2B 90 43
3C 02 99 80 43 00 23 90 3E 55 01 D9 90 47 53 0A
90 43 33 72 80 43 00 4A 80 3E 00 43 80 47 00 01
8D 90 43 5E 31 90 3C 54 49 80 43 00 4D 80 3C 00
05 8C 90 40 3A 02 CF 80 40 00 03 B1 90 47 5C 5B
90 41 35 70 90 43 49 01 94 90 48 35 23 80 47 00
00 80 41 00 5B 80 43 00 0C 90 45 64 1B 80 48 00
01 88 80 45 00 03 8B 90 3E 64 01 D9 90 41 36 1D
90 48 32 1E 90 3E 49 2C 80 48 00 2D 80 41 00 08
90 43 32 4A 80 3E 00 01 80 3E 00 2C 90 3C 43 75
80 43 00 01 9A 80 3C 00 34 90 47 59 01 B7 80 47
00 05 A2 90 3E 38 01 C7 90 47 4C 54 80 47 00 42
80 3E 00 73 90 45 51 27 90 3C 4F 73 80 45 00 06
90 45 45 01 DC 80 45 00 55 90 47 56 18 80 3C 00
01 D7 80 47 00 09 B6 90 3C 64 58 80 3C 00 03 B1
90 47 36 40 80 47 00 47 90 3E 3E 10 90 3E 3E 2A
90 48 38 48 80 3E 00 57 80 48 00 4F 80 3E 00 03
EF 90 43 4E 02 AF 90 3C 32 36 80 43 00 02 DD 80
3C 00 01 99 90 3C 39 7C 90 3E 4F 5E 80 3C 00 01
8D 90 43 51 25 80 3E 00 02 B3 80 43 00 02 B0 90
40 40 01 C3 90 47 34 01 8D 80 40 00 59 80 47 00
0A 90 40 37 01 CE 90 48 57 01 97 80 40 00 21 90
3E 51 38 90 3C 4F 3C 80 48 00 1C 90 48 5B 01 9A
80 3C 00 14 80 3E 00 2A 90 48 54 01 9E 80 48 00
30 80 48 00 71 90 41 51 01 9A 90 48 3E 01 DC 80
41 00 01 B9 80 48 00 07 CF 90 47 3E 01 9C 90 43
4A 28 80 47 00 7E 90 40 4B 55 80 40 00 4B 80 43
00 45 90 40 57 67 90 43 3A 25 80 40 00 01 A8 90
43 56 01 A6 80 43 00 02 AA 80 43 00 01 90 3E 32
06 90 48 5C 01 F1 80 48 00 50 80 3E 00 14 90 45
50 57 80 45 00 5C 90 40 44 2C 90 43 4D 68 80 40
00 01 D9 90 47 37 3B 80 43 00 01 88 90 3C 38 71
90 3C 4D 0B 80 47 00 2A 80 3C 00 01 AA 90 3C 62
3D 80 3C 00 01 A4 80 3C 00 01 B7 90 3E 55 36 90
40 51 70 90 40 5B 01 9B 80 40 00 51 80 3E 00 01
E9 80 40 00 41 90 47 53 01 81 90 45 61 01 9E 90
41 40 2C 80 47 00 61 80 45 00 0E 80 41 00 14 90
48 49 01 90 90 45 52 01 AF 80 45 00 6C 90 3C 3F
11 80 48 00 03 94 80 3C 00 16 90 40 41 6A 90 3E
37 3C 90 3E 54 01 BC 80 40 00 6C 80 3E 00 39 90
40 47 3D 80 3E 00 02 CD 80 40 00 23 90 43 58 33
90 48 4F 45 80 48 00 13 90 3E 4F 01 8B 80 3E 00
01 A1 80 43 00 01 9D 90 48 45 02 AA 80 48 00 02
C7 90 47 45 45 90 43 36 20 90 48 4E 52 90 41 5A
10 90 47 41 10 80 47 00 48 80 41 00 03 80 47 00
01 ED 90 47 51 09 80 43 00 16 80 48 00 25 80 47
00 02 CB 90 41 52 02 D2 80 41 00 04 E4 90 43 5B
02 90 40 5A 01 8A 90 3C 3B 0C 90 3C 64 65 80 43
00 22 90 3E 44 18 90 3C 48 73 80 40 00 40 80 3C
00 10 80 3C 00 68 80 3C 00 2D 90 43 51 07 90 3E
40 45 80 3E 00 01 F5 80 43 00 01 97 80 3E 00 37
90 47 3F 0B 90 3C 45 01 80 90 43 54 13 90 45 4C
31 80 43 00 2A 90 48 59 3B 90 3C 52 2C 80 3C 00
05 90 45 61 07 80 48 00 52 80 47 00 7A 80 45 00
1A 80 45 00 1A 80 3C 00 0F 90 48 44 01 AE 80 48
00 01 BA 90 40 45 01 DF 90 43 47 01 88 80 40 00
02 D5 80 43 00 7E 90 48 38 5D 90 43 4F 01 B5 80
48 00 01 BA 80 43 00 01 D2 90 43 41 01 D0 90 3E
3C 75 90 3E 44 14 90 43 37 09 80 3E 00 6B 80 43
00 6E 90 47 35 6D 90 41 43 62 80 3E 00 09 80 43
00 44 80 41 00 34 80 47 00 02 E4 90 48 46 01 BA
90 45 36 15 80 48 00 71 80 45 00 33 90 40 4A 01
FE 80 40 00 01 94 90 3E 55 01 90 45 3D 6A 80 3E
00 2B 90 48 4E 02 90 43 4E 01 9E 80 43 00 19 90
45 40 1F 80 48 00 62 80 45 00 4F 90 3C 33 01 C4
80 45 00 56 90 41 4E 21 80 3C 00 0B 90 3C 5A 01
BC 90 43 52 22 80 41 00 72 80 3C 00 02 CC 80 43
00 08 CB 90 40 39 7F 90 47 45 3B 90 41 5A 6A 80
40 00 34 80 47 00 02 BF 80 41 00 2C 90 47 41 55
90 40 59 4C 80 47 00 14 80 40 00 3B 90 45 4F 61
90 47 3A 48 90 45 5A 01 8B 90 43 60 79 80 45 00
3A 90 3E 35 0B 80 43 00 05 80 47 00 38 90 3C 59
1C 90 43 59 2C 80 45 00 26 80 3C 00 01 DC 80 43
00 01 80 3E 00 02 94 90 43 38 02 81 80 43 00 06
BA 90 45 5C 01 95 90 40 3E 01 CA 90 47 43 2F 80
45 00 3E 80 40 00 0F 80 47 00 37 90 41 4F 02 B2
90 40 62 1A 80 41 00 27 80 40 00 10 90 43 60 46
90 45 56 0B 80 43 00 01 98 90 43 42 4E 80 45 00
02 91 80 43 00 02 9C 90 45 32 01 AC 80 45 00 02
B7 90 48 4B 3B 90 48 61 01 82 90 3C 4D 45 80 48
00 11 90 47 49 04 80 48 00 6E 80 47 00 00 80 3C
00 02 9C 90 40 3D 4B 90 41 33 4F 80 40 00 24 80
41 00 15 90 3E 4C 02 D0 80 3E 00 02 A7 90 40 44
2D 90 41 51 01 AB 80 41 00 14 90 41 61 01 C9 80
41 00 1B 80 40 00 02 DA 90 40 5E 6D 90 41 35 2B
80 40 00 7F 90 40 50 13 80 41 00 14 90 43 63 01
85 90 43 4F 0C 80 40 00 31 90 43 5E 01 CB 80 43
00 4A 80 43 00 6E 80 43 00 04 A0 90 45 4C 4A 90
3C 5D 60 80 3C 00 01 B1 80 45 00 01 80 90 45 60
02 9A 80 45 00 01 F1 90 3C 4A 64 90 40 5C 2D 90
41 39 3D 80 3C 00 1B 90 40 48 23 90 43 4C 01 B6
80 40 00 30 80 40 00 3D 90 47 4C 07 80 41 00 0E
80 43 00 16 90 3C 45 01 BC 90 47 3B 7A 90 48 5B
35 80 47 00 29 80 47 00 0F 80 3C 00 01 F0 90 45
5A 20 90 40 5B 34 80 48 00 07 90 40 61 59 80 40
00 24 80 45 00 26 80 40 00 01 87 90 3C 5D 55 90
48 47 01 C8 80 48 00 5D 80 3C 00 05 90 90 45 3A
7B 80 45 00 01 E1 90 3E 38 5C 90 40 33 25 90 47
39 1D 80 3E 00 78 90 43 43 42 90 47 5B 5C 80 47
00 19 90 48 3A 0D 80 40 00 20 90 45 43 0D 80 47
00 05 80 48 00 0B 90 41 4C 44 80 43 00 62 80 41
00 38 90 48 61 14 80 45 00 50 80 48 00 07 A9 90
3C 35 30 90 43 5A 01 CA 80 43 00 41 80 3C 00 62
90 43 32 01 E8 90 3C 5F 01 A4 80 43 00 09 90 45
53 01 DA 90 45 3F 41 80 3C 00 29 80 45 00 6C 80
45 00 7A 90 40 4F 01 90 80 40 00 02 CD 90 41 5F
2D 90 47 3B 62 80 41 00 02 86 80 47 00 02 E5 90
3E 60 02 90 47 35 01 99 90 43 4E 40 80 43 00 03
80 3E 00 01 8E 80 47 00 4A 90 48 3A 01 92 90 48
59 1D 90 3E 51 0A 90 41 56 7E 90 41 47 14 80 3E
00 31 90 48 40 0C 80 48 00 12 80 41 00 21 80 41
00 01 AC 80 48 00 48 90 43 52 1A 80 48 00 01 F6
90 45 34 6E 80 45 00 07 80 43 00 01 AF 90 47 37
31 90 43 63 5B 80 43 00 01 8C 80 47 00 41 90 3C
60 01 DA 80 3C 00 01 98 90 48 5F 01 E1 90 3E 34
01 AE 80 48 00 6E 90 43 3C 1F 90 45 41 19 80 3E
00 2B 90 3E 38 01 8D 80 43 00 2C 80 3E 00 20 80
45 00 03 90 3E 4D 56 80 3E 00 66 90 45 5D 03 A7
80 45 00 2E 90 45 57 02 DA 80 45 00 01 CB 90 48
53 01 C8 90 41 38 6E 80 48 00 01 B9 90 45 34 6B
90 47 39 34 80 41 00 01 B1 90 48 45 18 80 45 00
01 93 90 3C 32 45 80 3C 00 02 80 47 00 5C 90 45
4B 5A 80 48 00 6D 90 48 5A 05 80 45 00 02 98 80
48 00 42 90 43 3E 5C 90 41 37 13 80 43 00 72 80
41 00 02 F6 90 48 44 10 90 41 35 31 90 48 4A 2B
90 45 57 46 80 48 00 00 90 3C 4E 21 90 41 4B 32
80 3C 00 32 80 48 00 0D 90 41 5F 0A 90 3C 3F 3C
80 41 00 17 80 41 00 10 80 45 00 01 C2 80 41 00
7F 80 3C 00 02 D7 90 43 3D 24 90 3C 56 01 C8 80
3C 00 7E 80 43 00 02 90 47 61 1E 90 47 5C 02 C2
90 3C 4F 2F 80 47 00 2D 80 47 00 02 E3 80 3C 00
3B 90 40 64 03 B9 80 40 00 02 A7 90 41 4E 28 90
45 37 01 A1 80 41 00 77 80 45 00 05 90 47 63 3D
90 43 60 6E 80 47 00 02 99 80 43 00 01 D0 90 3E
52 01 C1 80 3E 00 02 AC 90 43 63 6F 90 48 61 0F
90 41 54 76 80 48 00 26 80 41 00 33 90 47 53 04
90 3E 36 2C 80 43 00 6F 80 3E 00 01 80 47 00 03
C3 90 47 3A 01 9B 90 3E 4F 0C 90 43 45 0D 90 3E
5F 15 80 47 00 01 A4 80 3E 00 08 80 3E 00 63 80
43 00 04 9A 90 45 39 4E 90 3E 63 07 80 45 00 01
85 90 43 47 01 80 90 40 59 3F 80 43 00 59 80 40
00 05 80 3E 00 06 A0 90 40 60 01 D1 80 40 00 41
90 43 61 02 EF 90 3E 56 6B 80 43 00 7C 90 45 5C
0B 80 3E 00 02 8D 80 45 00 37 90 41 36 01 C0 90
45 57 78 80 41 00 02 C7 90 45 51 0C 80 45 00 23
90 47 5A 27 90 47 3F 01 C0 80 45 00 40 80 47 00
01 9B 80 47 00 01 F5 90 47 46 0B 90 47 61 32 80
47 00 14 80 47 00 28 90 41 39 01 E4 90 40 62 62
80 41 00 1A 90 40 41 30 80 40 00 00 90 3C 44 01
9D 80 40 00 01 D2 80 3C 00 01 94 90 40 55 47 90
47 4F 36 90 45 49 02 90 48 3F 1E 80 47 00 5A 80
45 00 13 80 48 00 21 80 40 00 71 90 3C 39 01 E3
80 3C 00 4F 90 3E 33 60 90 3C 51 02 D2 90 40 5C
20 80 3E 00 59 80 3C 00 05 90 43 3E 01 92 90 43
32 62 80 43 00 08 80 40 00 5E 90 47 34 26 80 43
00 23 90 47 56 02 BC 90 45 62 1B 80 47 00 1C 80
47 00 01 AC 80 45 00 01 B7 90 40 63 55 90 48 48
40 90 47 47 01 9A 80 40 00 13 80 47 00 01 D5 80
48 00 01 D4 90 3C 5B 46 80 3C 00 20 90 41 5D 01
88 80 41 00 1E 90 3C 58 02 A2 80 3C 00 11 90 45
4F 32 90 41 4D 40 80 41 00 7C 80 45 00 01 A1 90
41 50 57 80 41 00 02 AF 90 45 3A 03 9B 80 45 00
3E 90 3E 64 4B 90 3E 37 1E 90 40 46 01 88 80 3E
00 06 90 47 5F 23 80 3E 00 02 94 80 40 00 3E 90
48 59 3E 80 47 00 03 9A 80 48 00 01 8B 90 40 55
4D 90 48 62 02 B0 90 40 56 24 80 48 00 06 80 40
00 01 C0 80 40 00 01 FD 90 41 64 79 90 48 62 01
C1 80 41 00 01 80 48 00 06 CF 90 45 49 02 D7 80
45 00 03 FF 90 3C 5A 02 90 80 3C 00 01 D3 90 43
3C 02 9E 90 47 35 47 90 45 3F 31 80 43 00 60 80
47 00 42 80 45 00 01 F2 90 3C 37 01 B0 80 3C 00
02 DA 90 45 46 01 87 90 3C 62 71 80 45 00 02 88
80 3C 00 2E 90 41 42 3B 90 47 5E 7E 90 40 60 01
86 90 40 38 38 80 41 00 13 80 47 00 4A 80 40 00
7D 90 40 47 13 90 3C 4B 1F 80 40 00 01 8E 90 3E
50 00 90 47 40 61 90 48 59 10 80 3C 00 21 80 47
00 19 80 40 00 76 80 48 00 29 80 3E 00 04 A7 90
3C 35 3C 90 43 3C 01 DB 80 3C 00 2F 80 43 00 02
CF 90 3C 34 01 93 90 48 63 78 80 3C 00 30 90 48
5C 6F 90 3C 60 09 80 48 00 03 90 40 4E 36 80 48
00 22 90 41 47 19 90 47 60 2D 80 3C 00 10 90 3C
34 06 90 48 5D 01 AB 80 48 00 46 80 40 00 09 80
47 00 4D 80 3C 00 21 80 41 00 56 90 3E 3F 01 EF
80 3E 00 01 9A 90 3C 62 01 E7 90 47 36 62 90 41
3F 0A 80 3C 00 01 82 80 41 00 68 90 47 41 42 90
40 3C 18 80 47 00 02 D4 80 40 00 1E 80 47 00 02
AF 90 3C 38 21 90 48 50 46 80 3C 00 01 CD 90 41
61 76 80 48 00 46 90 45 3C 14 80 41 00 59 90 3E
3E 24 90 45 49 16 90 40 3C 01 90 43 63 3C 80 45
00 70 80 43 00 4A 80 3E 00 14 80 45 00 01 A0 90
47 44 16 80 40 00 01 95 80 47 00 01 A2 90 3C 4F
01 9C 80 3C 00 04 C1 90 40 63 62 80 40 00 03 B3
90 47 34 56 90 3E 39 04 80 47 00 01 DB 80 3E 00
3D 90 3E 35 6D 90 45 39 13 90 48 43 17 90 48 54
01 85 90 3C 32 32 80 45 00 14 80 3E 00 38 80 48
00 47 80 48 00 03 80 3C 00 02 8D 90 45 56 01 A0
90 47 5B 01 EE 90 3C 3C 15 80 45 00 12 80 47 00
46 80 3C 00 01 D1 90 41 4F 00 90 3C 45 02 A7 80
41 00 67 80 3C 00 01 D9 90 3C 48 03 90 43 46 32
90 40 39 1E 80 3C 00 01 8C 80 40 00 01 B0 80 43
00 01 90 40 3E 02 B4 80 40 00 3E 90 48 59 67 90
45 5A 3C 90 3C 54 73 80 48 00 1C 80 45 00 17 90
43 42 77 80 3C 00 01 8E 90 45 38 23 80 43 00 62
80 45 00 03 DB 90 40 5E 02 D7 90 40 53 0E 80 40
00 39 80 40 00 01 B5 90 48 63 01 8B 80 48 00 62
90 3C 58 70 90 41 49 01 9E 80 3C 00 31 80 41 00
01 99 90 41 64 01 A4 90 47 3D 77 80 41 00 01 8F
90 3E 5A 3C 90 41 5A 46 80 47 00 01 AB 80 3E 00
01 EC 80 41 00 01 F6 90 3E 5F 35 90 3C 61 01 D6
80 3C 00 14 80 3E 00 02 A4 90 47 5F 66 80 47 00
03 BC 90 3E 5A 02 8B 90 41 52 01 A5 80 3E 00 5D
90 3C 64 01 A4 80 41 00 78 90 3C 33 02 90 47 54
01 8E 90 3C 33 04 80 47 00 24 80 3C 00 18 90 41
33 01 C0 90 43 54 36 80 3C 00 24 80 3C 00 01 80
41 00 02 80 43 00 6F 90 40 4B 01 D0 90 41 32 40
80 40 00 15 80 41 00 04 D1 90 47 52 64 80 47 00
01 FD 90 40 3A 68 80 40 00 45 90 40 4A 01 F3 80
40 00 01 92 90 47 37 24 90 3E 3E 2B 90 45 3A 08
80 47 00 01 BB 80 45 00 1D 90 41 47 1C 80 3E 00
50 80 41 00 03 E0 90 45 53 01 B8 90 45 39 2E 80
45 00 01 98 90 47 4D 34 90 43 37 01 84 80 45 00
01 C2 80 47 00 05 80 43 00 31 90 3C 5F 01 9F 80
3C 00 03 9A 90 3E 54 02 ED 90 48 49 30 80 3E 00
78 90 3C 60 3B 90 3E 38 1A 80 48 00 01 D1 90 47
5F 19 80 3C 00 74 80 3E 00 02 A0 80 47 00 02 C0
90 43 5F 02 CB 90 3E 59 44 80 43 00 76 90 45 3B
5A 80 3E 00 70 90 47 51 3C 80 47 00 22 90 47 62
20 90 47 3D 24 90 43 49 04 80 47 00 0F 80 45 00
7B 80 43 00 01 C4 80 47 00 03 90 45 5B 01 FB 90
3C 3A 06 90 43 34 01 83 80 45 00 01 A3 80 3C 00
40 80 43 00 34 90 43 41 01 D3 90 3C 42 56 90 41
53 07 90 48 52 2B 80 43 00 0C 80 3C 00 01 AB 90
45 4F 43 90 40 3B 19 80 45 00 63 80 48 00 0D 80
41 00 01 8D 90 45 64 21 80 40 00 1E 80 45 00 09
90 40 5D 41 90 43 40 01 E5 80 40 00 32 80 43 00
03 FA 90 45 54 02 B5 80 45 00 05 9B 90 3C 3E 2E
90 41 40 02 B4 80 41 00 25 80 3C 00 7E 90 45 34
02 C3 90 3E 39 62 80 45 00 06 90 3E 47 1A 80 3E
00 02 8C 80 3E 00 14 90 43 45 01 DE 80 43 00 6B
90 40 33 1C 90 45 3D 03 99 80 40 00 04 80 45 00
02 CD 90 45 45 29 90 3E 48 05 90 41 46 57 90 3E
58 5C 80 41 00 0A 90 45 5D 31 80 3E 00 4B 80 3E
00 14 80 45 00 30 90 45 42 3E 80 45 00 15 80 45
00 01 89 90 45 61 02 86 80 45 00 02 F4 90 41 4F
02 B3 80 41 00 38 90 45 59 59 90 3C 5C 3C 90 41
59 03 90 47 52 0B 80 3C 00 7F 80 47 00 30 80 41
00 27 80 45 00 2D 90 48 61 54 80 48 00 01 AD 90
3C 43 02 CE 90 3E 3E 33 90 40 5F 5E 80 3C 00 01
E3 80 40 00 10 80 3E 00 75 90 3E 4D 66 80 3E 00
01 A0 90 45 5B 02 B0 90 48 4D 49 80 48 00 10 90
43 4C 11 80 45 00 01 94 80 43 00 3F 90 43 3E 01
C0 90 47 57 01 92 90 41 56 2C 80 43 00 33 80 41
00 01 82 80 47 00 1F 90 40 3F 02 A4 80 40 00 3C
90 47 49 33 90 43 42 73 80 43 00 70 90 43 3E 66
80 47 00 7F 80 43 00 2C 90 3E 63 03 AF 80 3E 00
03 B4 90 45 3E 2E 90 3C 5A 45 90 48 4B 1A 90 41
46 0C 80 3C 00 37 80 45 00 0F 80 48 00 69 90 43
50 12 90 41 5D 01 9F 80 41 00 24 90 41 53 20 80
41 00 0B 90 43 37 51 80 41 00 01 86 80 43 00 4F
80 43 00 4C 90 3E 3B 60 90 41 42 76 80 41 00 3D
80 3E 00 09 90 40 4D 02 81 90 40 36 1F 90 43 3C
10 80 40 00 01 A5 80 40 00 01 84 90 48 59 3C 80
43 00 24 80 48 00 01 BB 90 40 4D 01 84 90 48 64
44 90 3C 41 4A 90 47 47 03 80 40 00 60 80 3C 00
07 90 41 5A 01 C8 80 48 00 0C 90 43 62 28 90 40
36 22 90 47 62 10 80 43 00 26 90 41 42 03 90 3E
38 12 80 47 00 1F 90 3E 47 25 80 41 00 2C 80 41
00 0C 80 3E 00 01 90 41 3D 2E 90 45 50 69 80 45
00 1F 80 3E 00 04 80 40 00 18 90 48 48 1B 80 47
00 34 90 43 35 6E 80 48 00 03 80 41 00 21 90 3C
57 01 8F 90 47 3D 5F 80 43 00 31 80 47 00 0D 90
47 51 04 80 3C 00 40 90 43 39 01 8B 80 43 00 01
E4 80 47 00 0C D7 90 3C 5B 01 90 47 53 6A 80 3C
00 2F 90 41 39 01 9A 80 41 00 2C 80 47 00 49 90
3C 47 35 90 47 3F 01 FB 80 3C 00 56 90 3E 50 01
86 80 47 00 62 90 45 37 5E 90 48 5B 09 80 45 00
67 80 3E 00 7A 90 3C 4F 75 90 41 34 5C 80 48 00
6E 80 41 00 35 80 3C 00 03 F1 90 47 56 01 E1 80
47 00 0E 90 47 5E 02 DC 80 47 00 02 B4 90 47 4C
62 90 40 39 01 91 80 40 00 54 80 47 00 02 B0 90
40 3F 02 90 41 39 5D 80 40 00 02 ED 80 41 00 01
AF 90 47 49 01 9C 80 47 00 02 90 47 62 03 AC 80
47 00 05 AB 90 3C 64 4C 90 3E 57 52 80 3E 00 02
8B 80 3C 00 01 EA 90 3C 3C 03 AA 80 3C 00 01 A4
90 3E 5E 02 B4 80 3E 00 7A 90 3E 38 03 90 47 33
3F 80 47 00 02 E3 80 3E 00 2D 90 47 50 37 90 3C
47 01 8A 80 47 00 01 CA 90 47 5D 42 80 3C 00 77
80 47 00 02 8A 90 40 39 02 8A 80 40 00 40 90 3E
47 2B 90 3E 51 66 80 3E 00 77 90 41 41 48 80 3E
00 01 CD 80 41 00 02 CD 90 3C 63 01 A5 80 3C 00
16 90 47 5E 01 8B 80 47 00 02 EE 90 41 50 2E 90
47 54 17 90 3C 61 20 90 3E 4A 0D 90 45 4C 00 80
41 00 75 80 45 00 0F 90 48 3C 01 80 47 00 28 90
47 39 36 80 48 00 05 80 3C 00 5C 80 3E 00 12 90
45 59 42 80 45 00 02 80 47 00 01 DA 90 47 5F 45
90 41 56 7E 80 41 00 01 93 90 41 54 58 80 41 00
2B 80 47 00 64 90 41 38 49 90 45 45 01 99 80 45
00 01 A6 80 41 00 26 90 45 62 26 90 45 39 01 87
90 40 3C 4A 80 45 00 01 B3 80 40 00 10 80 45 00
02 91 90 41 3C 51 90 43 45 16 90 41 5C 44 80 41
00 32 80 43 00 01 B0 90 40 39 4B 90 41 5C 32 80
40 00 01 80 41 00 1B 90 3E 3E 4E 80 41 00 01 F3
80 3E 00 1D 90 40 62 66 80 40 00 05 94 90 40 3A
3D 80 40 00 0A CB 90 43 4F 01 91 90 3E 64 31 80
43 00 01 90 90 3E 37 6D 80 3E 00 30 90 45 35 43
90 43 4A 29 80 3E 00 01 8B 80 43 00 01 AC 80 45
00 02 87 90 43 42 5D 90 40 5F 6A 80 43 00 5C 80
40 00 3E 90 3E 40 1F 90 43 49 21 80 3E 00 49 80
43 00 01 A4 90 40 49 43 90 48 54 20 90 40 50 13
90 3E 46 3F 80 40 00 29 80 40 00 19 90 41 35 01
EE 90 3C 5B 0A 80 41 00 17 80 48 00 2F 80 3E 00
02 A6 80 3C 00 01 FE 90 47 61 67 90 43 4D 1B 80
47 00 02 A6 90 47 62 4E 80 43 00 02 BB 80 47 00
02 CC 90 41 35 04 90 47 4F 01 80 90 41 47 01 85
80 41 00 3F 90 41 52 1E 80 47 00 00 80 41 00 4E
80 41 00 02 C9 90 43 3D 03 CB 80 43 00 03 D1 90
43 5F 01 EC 80 43 00 04 F0 90 47 3A 3A 90 47 58
57 80 47 00 02 AE 90 48 4A 03 90 45 4A 1A 80 47
00 28 80 45 00 45 80 48 00 15 90 47 4D 01 D2 80
47 00 02 B9 90 48 5E 01 96 80 48 00 03 C2 90 48
5C 01 9C 80 48 00 49 90 43 54 01 CE 90 43 4F 01
90 80 43 00 01 86 90 41 4D 01 A4 80 43 00 01 FE
80 41 00 40 90 43 55 7F 90 43 40 4B 80 43 00 01
8B 90 45 50 2C 80 43 00 01 E4 80 45 00 02 EA 90
48 3A 01 D0 90 43 4F 39 90 48 59 05 90 3E 55 01
90 40 48 66 80 3E 00 01 80 43 00 0B 80 48 00 58
80 40 00 1F 90 45 61 37 80 48 00 05 90 47 5C 01
8A 90 47 56 3A 80 45 00 0F 80 47 00 6A 90 43 4E
01 E8 80 47 00 21 90 3E 46 05 80 43 00 5E 90 41
39 01 CB 80 3E 00 3B 80 41 00 6B 90 41 3B 01 CB
80 41 00 25 90 47 3E 35 90 40 46 4A 80 40 00 24
90 41 54 1E 80 47 00 02 E3 80 41 00 74 90 45 3D
01 94 90 48 4B 01 C9 80 45 00 01 87 90 41 42 79
80 48 00 02 88 80 41 00 14 90 48 3A 03 83 80 48
00 02 AD 90 3C 4C 1C 90 47 5D 01 C4 80 3C 00 0D
90 45 3F 4D 90 47 32 2D 80 47 00 01 84 80 45 00
01 C3 80 47 00 07 90 3C 47 01 C9 90 47 5D 13 80
3C 00 5A 90 40 4D 07 90 43 49 01 89 80 43 00 1C
80 40 00 43 90 41 4A 52 80 47 00 36 80 41 00 02
90 41 50 28 90 47 51 45 80 41 00 7F 90 48 49 01
FB 80 47 00 32 90 40 34 01 AA 80 48 00 49 90 48
53 53 80 40 00 01 F2 80 48 00 5A 90 41 3E 47 80
41 00 7C 90 45 54 74 80 45 00 02 AA 90 45 39 02
D5 90 3E 43 1C 80 45 00 7C 90 3C 5B 10 80 3E 00
7A 90 45 3A 18 80 3C 00 38 80 45 00 52 90 45 3F
03 A8 90 41 3E 07 80 45 00 02 A1 80 41 00 36 90
43 60 4B 80 43 00 11 90 3E 3A 01 F7 80 3E 00 30
90 43 4D 42 90 3E 51 25 90 40 60 27 90 41 4B 0C
90 41 5B 41 90 40 59 57 80 43 00 64 80 41 00 0A
80 40 00 02 90 47 4C 0F 90 47 33 61 80 3E 00 10
80 40 00 27 80 47 00 1A 80 41 00 01 FF 90 48 4F
18 80 47 00 03 90 80 48 00 42 90 45 35 58 80 45
00 01 92 90 41 3B 01 E0 90 48 45 01 82 80 41 00
5B 90 3C 32 01 8C 80 48 00 20 90 41 64 01 81 80
3C 00 01 EA 80 41 00 02 EB 90 3E 5A 01 92 90 3C
41 5D 80 3C 00 1A 80 3E 00 02 90 45 60 26 90 40
5F 31 90 3C 42 01 98 80 40 00 24 80 45 00 1A 90
3C 36 0A 80 3C 00 02 FE 80 3C 00 02 B5 90 3E 3D
38 90 40 3D 01 96 90 3E 59 69 90 41 3C 51 80 3E
00 26 90 43 3E 64 80 40 00 03 80 41 00 01 8A 80
3E 00 28 80 43 00 01 A9 90 45 5F 01 E5 90 47 59
24 80 45 00 63 80 47 00 3A 90 48 52 5E 90 47 43
44 80 47 00 23 80 48 00 78 90 40 42 01 B4 80 40
00 40 90 40 40 02 C2 90 40 42 01 80 40 00 01 D1
90 41 47 70 80 40 00 01 96 80 41 00 02 9F 90 3E
3B 01 85 80 3E 00 02 BB 90 3E 5E 01 AE 80 3E 00
06 90 3C 4D 75 80 3C 00 1A 90 47 56 02 9F 80 47
00 18 90 41 46 04 90 40 5F 4D 90 45 5F 02 AE 80
40 00 3E 80 41 00 62 80 45 00 64 90 43 3A 03 B1
80 43 00 19 90 43 56 01 8C 90 47 34 01 B1 80 47
00 34 80 43 00 02 F8 90 40 4B 01 CD 90 48 36 47
80 40 00 0D 90 41 5A 01 90 41 54 02 E5 80 48 00
4B 80 41 00 25 80 41 00 2A 90 48 32 4C 80 48 00
01 B1 90 43 57 01 BD 80 43 00 7D 90 41 50 2C 90
48 32 2F 80 41 00 01 84 90 41 3C 42 80 41 00 5C
80 48 00 67 90 47 50 0F 90 3E 3E 59 90 47 3F 68
80 3E 00 51 80 47 00 73 80 47 00 3D 90 47 4E 6B
90 45 39 33 80 47 00 02 D4 80 45 00 05 90 43 5D
02 CB 90 45 48 1A 90 47 40 12 80 43 00 02 9D 90
45 5C 1B 90 3C 34 07 80 47 00 06 80 45 00 7A 80
3C 00 1E 90 3C 4B 69 80 45 00 3E 80 3C 00 02 E4
90 40 3A 01 C8 80 40 00 01 C6 90 41 61 73 80 41
00 01 FA 90 45 5D 5B 80 45 00 02 B3 90 3E 64 01
9A 90 3C 5F 36 80 3E 00 0E 90 40 47 75 90 45 36
01 AE 90 3C 4D 2D 90 48 4F 0C 90 3C 3B 22 80 3C
00 06 80 45 00 53 80 40 00 73 90 48 43 11 80 3C
00 05 80 3C 00 58 90 48 3C 2E 80 48 00 69 80 48
00 19 80 48 00 1F 90 41 5D 01 82 80 41 00 02 E2
90 3C 49 57 90 3C 59 18 90 45 42 09 90 3E 5D 03
90 3C 40 3D 90 3C 45 0B 80 3E 00 4B 80 45 00 48
80 3C 00 10 90 40 3A 44 80 3C 00 18 80 3C 00 3A
80 40 00 21 80 3C 00 01 80 90 3E 5E 13 90 45 5C
01 87 80 45 00 0D 80 3E 00 01 8B 90 41 5F 6B 80
41 00 01 F3 90 48 37 02 81 90 43 3C 23 80 48 00
21 90 45 57 04 90 3C 62 02 A6 80 45 00 2A 80 3C
00 23 80 43 00 01 C4 90 43 55 22 90 48 41 25 80
43 00 7D 90 47 3B 28 80 48 00 12 90 48 3B 01 A5
90 40 3D 56 80 47 00 01 8C 80 48 00 01 B1 80 40
00 01 9C 90 41 42 01 A3 90 45 4B 01 F8 90 47 49
10 80 41 00 1D 80 45 00 02 D1 90 48 3F 2C 80 47
00 43 80 48 00 01 87 90 3E 57 01 86 90 3C 55 01
87 80 3E 00 60 90 41 5F 3F 80 41 00 11 90 3E 51
05 80 3C 00 23 90 48 43 01 E6 90 41 37 16 80 3E
00 33 80 41 00 0C 90 47 4C 2C 90 3E 48 0F 80 48
00 46 80 3E 00 36 80 47 00 01 8B 90 43 3C 34 90
47 47 1E 80 43 00 01 B1 90 47 59 01 8C 80 47 00
27 80 47 00 02 B4 90 3C 5D 01 89 90 48 5C 02 94
80 48 00 29 80 3C 00 01 B8 90 43 51 70 80 43 00
63 90 45 36 69 90 47 5D 01 9B 80 47 00 4B 80 45
00 13 90 40 5E 02 8B 90 40 50 34 90 3C 36 32 80
40 00 18 80 40 00 78 80 3C 00 50 90 45 59 15 90
48 4E 01 D3 90 43 54 3B 80 48 00 3D 90 40 42 47
80 45 00 01 84 80 43 00 76 90 41 3D 17 80 40 00
2A 90 41 62 01 B5 80 41 00 01 98 80 41 00 03 D1
90 48 42 22 90 43 38 01 8A 80 43 00 01 8D 80 48
00 04 84 90 40 53 50 90 3E 4B 4B 90 48 4E 1F 80
40 00 79 80 3E 00 0E 80 48 00 3B 90 3E 44 3D 90
40 47 75 80 40 00 02 87 80 3E 00 01 FB 90 40 34
02 A9 80 40 00 03 E4 90 3E 5F 01 9E 90 3C 44 0B
90 3C 4F 01 91 90 41 55 17 80 3C 00 26 80 3E 00
1D 80 3C 00 01 82 90 3C 40 2E 90 3E 33 0F 90 40
46 3E 80 40 00 4D 80 3C 00 06 90 41 3A 0D 80 41
00 32 80 41 00 31 90 40 50 08 80 3E 00 01 FC 80
40 00 01 AA 90 3E 51 02 97 80 3E 00 74 90 41 4A
01 C6 90 47 5B 18 80 41 00 04 90 48 5B 01 98 90
45 50 10 80 48 00 3D 80 47 00 01 A0 90 47 32 17
80 45 00 42 90 3E 4E 4D 80 3E 00 63 90 45 34 2E
80 47 00 01 A5 90 43 42 73 80 45 00 01 83 80 43
00 01 90 47 3F 02 9E 80 47 00 4F 90 43 5A 01 E4
90 43 3B 14 90 47 39 5D 90 40 43 21 90 43 36 1E
80 43 00 31 80 47 00 12 80 43 00 1E 90 3C 3E 21
80 43 00 48 80 3C 00 42 90 40 56 1E 80 40 00 01
A6 90 40 57 32 80 40 00 27 80 40 00 13 90 3E 4E
3B 90 47 37 01 92 80 47 00 5D 90 3C 3D 16 80 3E
00 4A 90 43 61 01 BA 80 3C 00 46 90 3E 4D 01 8C
80 43 00 02 90 40 45 01 A2 80 3E 00 01 A6 90 47
39 52 80 47 00 10 80 40 00 02 93 90 47 41 02 90
3C 57 02 98 90 47 60 12 90 41 3F 41 80 47 00 71
80 3C 00 03 80 41 00 01 EB 90 40 45 1E 80 47 00
01 B2 80 40 00 7B 90 40 58 01 BE 80 40 00 07 D3
90 48 58 47 90 3C 3A 4B 90 43 34 36 80 48 00 3B
90 48 54 42 80 43 00 1C 90 3C 48 07 80 3C 00 51
80 3C 00 2C 80 48 00 01 D3 90 48 48 0B 90 40 58
36 90 48 33 68 80 48 00 05 90 41 52 15 80 40 00
1E 90 3C 32 25 90 41 4E 33 90 41 5F 06 80 48 00
16 90 41 35 37 80 41 00 04 80 41 00 37 80 41 00
01 DD 80 3C 00 48 80 41 00 02 B0 90 40 57 6E 80
40 00 01 99 90 3C 33 0E 90 40 47 01 C0 90 3C 3D
01 DD 80 40 00 22 80 3C 00 31 80 3C 00 05 C3 90
3C 41 01 A0 90 41 5A 01 95 80 3C 00 6E 80 41 00
01 85 90 3C 4E 01 8E 80 3C 00 01 90 90 41 42 47
90 43 41 01 A0 80 43 00 01 81 80 41 00 04 B1 90
45 4B 16 90 3C 62 43 80 45 00 01 94 80 3C 00 1B
90 41 4A 01 83 90 3E 5B 58 80 41 00 01 DE 80 3E
00 02 D0 90 47 45 04 90 3C 49 51 80 47 00 00 90
48 36 01 F7 90 40 45 1F 90 40 5F 47 90 41 55 03
80 48 00 2A 80 3C 00 05 90 3E 4A 01 96 80 3E 00
5F 80 40 00 4D 80 40 00 4C 80 41 00 02 81 90 45
3F 03 A5 80 45 00 04 B4 90 41 5C 18 90 48 4A 34
80 41 00 61 90 45 34 21 80 48 00 01 EA 80 45 00
04 DC 90 43 3A 02 F2 80 43 00 01 B5 90 45 59 2C
90 3C 4B 01 DF 80 3C 00 0D 80 45 00 54 90 43 48
01 A1 90 47 3E 22 80 43 00 02 B1 90 3C 62 3E 80
47 00 4E 80 3C 00 01 95 90 48 3E 01 CC 80 48 00
27 90 47 4C 01 8C 90 3C 4E 52 80 47 00 11 80 3C
00 02 A8 90 45 40 04 90 3C 52 01 82 90 3E 57 01
EC 80 3C 00 3F 80 45 00 01 82 80 3E 00 02 DC 90
48 33 02 94 80 48 00 03 DF 90 45 5B 77 80 45 00
02 B9 90 3C 5D 68 90 43 5F 04 90 48 50 76 80 43
00 4D 90 48 3A 6F 90 43 33 18 80 48 00 09 80 3C
00 02 AD 80 48 00 37 80 43 00 2F 90 41 45 01 E1
90 40 3F 52 80 41 00 01 9A 90 43 47 29 90 41 41
19 90 45 56 3F 80 43 00 52 80 40 00 0F 80 41 00
01 8B 80 45 00 4F 90 40 61 44 90 3E 4C 01 A1 90
40 55 01 91 80 3E 00 22 90 43 63 13 80 40 00 01
A4 80 40 00 1E 90 3C 4E 06 90 47 42 2F 80 43 00
37 90 3C 60 1B 90 40 63 31 90 48 5D 21 90 48 48
40 80 3C 00 4D 80 40 00 40 80 3C 00 40 80 47 00
03 80 48 00 2C 80 48 00 01 8A 90 45 62 03 9B 80
45 00 03 90 3C 60 01 BF 80 3C 00 6E 90 43 5F 01
A1 80 43 00 31 90 48 39 58 90 45 62 4E 80 45 00
38 80 48 00 2C 90 41 43 3E 80 41 00 09 E8 90 40
4A 03 A8 90 48 3B 1E 80 40 00 36 90 41 57 4E 90
43 43 01 B7 80 48 00 3D 90 45 41 4D 80 41 00 56
80 43 00 39 80 45 00 6B 90 47 3A 33 90 40 4E 35
80 47 00 01 BA 80 40 00 04 DB 90 43 52 02 88 90
40 3A 7F 80 40 00 14 80 43 00 62 90 45 4B 11 90
45 3D 25 90 41 62 67 80 45 00 01 95 80 45 00 01
A2 90 41 38 2D 80 41 00 54 80 41 00 37 90 3C 57
01 90 48 56 70 90 48 39 08 80 3C 00 56 80 48 00
5E 90 3C 33 3B 90 48 48 02 80 48 00 01 95 90 45
57 0D 80 48 00 3C 80 3C 00 13 90 45 4D 01 A8 80
45 00 01 A0 80 45 00 00 90 48 46 01 95 80 48 00
5F 90 48 34 01 99 80 48 00 7D 90 43 3E 35 90 47
32 3B 90 3E 32 6B 80 47 00 01 CF 80 3E 00 1C 80
43 00 43 90 47 49 01 8B 90 47 55 21 90 41 57 58
80 47 00 01 B6 80 47 00 1B 90 40 63 6F 80 41 00
01 87 90 45 53 2C 90 3E 5E 14 80 40 00 02 A5 80
45 00 55 80 3E 00 67 90 41 58 64 80 41 00 01 D6
90 3C 39 6C 80 3C 00 01 C4 90 3E 5C 01 9A 90 3C
35 02 A3 80 3E 00 23 80 3C 00 01 93 90 3E 37 03
90 80 3E 00 4D 90 47 55 01 D2 90 41 3C 51 80 47
00 67 80 41 00 2F 90 40 54 02 A7 80 40 00 04 AC
90 48 3F 02 E6 80 48 00 03 89 90 3E 56 01 AA 80
3E 00 42 90 48 56 02 AF 80 48 00 0F 90 43 46 02
DE 90 3E 3A 10 90 48 3B 1E 80 43 00 01 A3 90 43
54 41 80 3E 00 23 80 48 00 25 80 43 00 03 A2 90
45 5D 01 85 90 48 46 66 80 45 00 01 9F 80 48 00
16 90 48 38 03 A2 80 48 00 02 F2 90 41 41 13 90
3E 45 43 90 45 40 04 90 45 3F 01 BE 80 45 00 13
90 40 32 3E 80 3E 00 72 80 41 00 09 80 45 00 10
90 43 3E 22 90 3E 49 2A 80 40 00 01 B4 90 40 40
13 90 3E 56 25 90 47 3B 32 80 43 00 26 80 3E 00
2F 80 3E 00 19 90 3E 3E 01 80 80 40 00 65 80 47
00 57 80 3E 00 34 90 3E 41 49 90 3C 5D 5C 90 45
3E 1D 90 48 5C 53 80 3E 00 2D 90 41 63 01 BE 80
3C 00 0D 80 45 00 21 80 48 00 11 90 3C 5B 01 B5
80 41 00 4A 90 3E 4A 7F 80 3E 00 32 80 3C 00 02
9E 90 43 42 7B 80 43 00 7D 90 3C 3E 03 DE 80 3C
00 01 95 90 45 5D 01 95 80 45 00 0C 90 48 37 01
C8 90 3C 34 01 93 80 48 00 4E 90 45 54 08 90 48
3F 24 80 3C 00 1A 80 48 00 01 B7 80 45 00 27 90
48 38 01 ED 90 45 3D 0B 80 48 00 3D 90 45 5D 30
90 3E 51 76 90 3E 35 0B 80 45 00 01 F7 80 3E 00
10 80 45 00 0D 80 3E 00 01 8C 90 40 32 2E 90 3C
4F 01 DA 80 40 00 18 80 3C 00 01 C6 90 48 3A 01
E7 80 48 00 02 BC 90 40 63 02 A2 80 40 00 08 90
3E 3B 01 EB 80 3E 00 0B 90 41 41 02 BF 90 47 54
30 80 41 00 11 80 47 00 03 FA 90 45 5D 01 AF 80
45 00 2A 90 40 5D 01 D9 80 40 00 51 90 48 3F 02
E3 80 48 00 01 90 40 5E 43 90 47 64 17 90 43 57
3E 90 40 5D 15 80 40 00 64 80 40 00 66 80 43 00
30 80 47 00 05 D8 90 45 4F 38 90 45 45 27 90 3C
3D 76 90 41 55 0B 80 45 00 07 80 45 00 56 90 45
5D 01 95 80 41 00 54 80 45 00 06 80 3C 00 3D 90
48 48 6B 90 41 4C 24 90 3E 46 4E 90 3C 4C 33 80
48 00 22 80 3E 00 5B 80 41 00 01 A1 80 3C 00 01
9F 90 48 38 01 FF 90 48 55 7F 80 48 00 01 AB 90
45 36 18 90 3E 3C 59 80 48 00 1F 90 41 3A 46 80
45 00 4D 80 3E 00 02 A5 80 41 00 15 90 40 41 25
90 40 4C 61 80 40 00 01 F0 90 41 37 27 80 40 00
5D 90 45 4E 18 80 41 00 02 B7 80 45 00 1A 90 40
38 01 DE 80 40 00 1C 90 47 5D 4F 90 48 3A 67 80
48 00 05 90 3E 54 26 90 3C 34 61 80 47 00 0D 80
3E 00 62 90 47 44 1F 80 3C 00 03 BC 80 47 00 25
90 41 33 02 D6 90 47 33 2E 90 3C 60 09 90 3C 5D
28 80 41 00 01 B0 80 3C 00 43 80 3C 00 1B 90 40
40 13 90 48 5E 07 90 48 4F 3C 80 47 00 61 80 40
00 67 80 48 00 4B 80 48 00 59 90 40 32 07 90 3C
55 01 90 45 40 24 90 3E 58 55 80 40 00 6C 90 3C
59 01 96 90 40 58 2A 80 3E 00 0B 80 45 00 07 80
3C 00 60 80 3C 00 01 B7 80 40 00 02 90 45 34 01
C5 80 45 00 05 D9 90 41 5D 01 F3 80 41 00 00 90
47 4D 01 86 80 47 00 03 92 90 43 51 02 8B 90 41
59 4B 80 41 00 36 80 43 00 02 B5 90 40 47 01 C9
90 45 54 01 B2 80 40 00 02 80 45 00 01 85 90 40
55 18 90 43 41 03 8B 80 40 00 4F 80 43 00 65 90
48 5A 01 A3 80 48 00 13 90 40 63 7F 80 40 00 07
90 3E 55 31 90 3C 43 45 80 3C 00 01 84 90 3C 4A
29 80 3E 00 02 ED 80 3C 00 2D 90 48 45 15 90 43
4B 01 F0 80 43 00 3C 80 48 00 01 CE 90 45 3D 01
DB 80 45 00 05 FB 90 41 35 01 D1 80 41 00 69 90
48 4B 02 DF 80 48 00 33 90 40 50 02 9C 80 40 00
04 E0 90 41 48 01 C1 90 47 59 71 80 47 00 09 90
47 55 4B 80 41 00 3C 80 47 00 63 90 48 58 01 AD
90 47 63 48 80 48 00 02 94 90 45 3A 09 90 48 5E
57 80 47 00 49 80 45 00 0B 90 43 61 1A 90 41 4E
01 9F 90 47 5D 0B 80 43 00 15 80 48 00 01 8E 80
47 00 10 80 41 00 02 8C 90 41 4D 4A 90 3C 5F 01
F4 80 3C 00 76 80 41 00 11 90 48 4C 01 87 80 48
00 75 90 48 5F 02 8F 90 48 54 75 90 3E 53 0C 80
48 00 57 80 3E 00 2D 90 47 41 4D 80 48 00 37 90
3C 3B 52 90 43 34 35 80 3C 00 45 80 47 00 33 80
43 00 52 90 43 38 45 90 48 34 13 90 47 3A 05 90
3C 4C 42 80 48 00 0F 80 3C 00 21 80 47 00 01 9D
90 3C 58 56 80 43 00 31 80 3C 00 5B 90 47 5B 01
B3 90 40 4D 01 CA 80 40 00 5C 80 47 00 0F 90 3C
56 3D 90 48 3D 50 80 3C 00 47 90 47 34 14 90 48
43 3E 80 48 00 31 80 47 00 01 80 48 00 01 B4 90
48 64 01 B6 80 48 00 02 A9 90 45 32 01 AB 90 48
62 02 96 80 45 00 44 90 41 56 20 90 40 37 50 80
48 00 5B 80 41 00 52 80 40 00 08 90 40 55 01 86
90 47 5D 72 90 41 60 05 80 40 00 01 80 80 47 00
35 90 43 43 26 80 41 00 26 80 43 00 04 F6 90 47
43 01 DB 80 47 00 3C 90 47 5A 4F 80 47 00 0D 90
41 3A 11 90 41 3A 79 80 41 00 1E 90 43 47 01 FE
80 41 00 01 D7 80 43 00 01 8D 90 47 52 50 90 3C
60 01 B4 90 43 58 0B 80 3C 00 26 90 3E 55 2B 90
45 41 36 80 43 00 46 80 3E 00 02 80 47 00 7C 90
45 47 51 90 3E 3B 19 80 45 00 01 8F 80 45 00 2B
80 3E 00 22 90 48 3B 4A 80 48 00 03 92 90 3E 3C
01 95 90 43 62 07 80 3E 00 02 E4 80 43 00 01 C1
90 43 3D 16 90 48 56 46 80 43 00 04 80 48 00 01
A7 90 41 5C 01 9C 90 45 64 13 90 40 61 01 90 90
41 5A 52 80 45 00 40 80 41 00 59 80 41 00 57 80
40 00 7F 90 43 5A 63 80 43 00 05 E7 90 3E 3E 01
EC 90 3E 5B 54 80 3E 00 7E 80 3E 00 03 94 90 3C
40 0A 90 43 50 01 F2 90 47 56 54 80 47 00 2E 80
43 00 02 90 48 62 42 80 3C 00 69 90 48 47 4C 80
48 00 37 90 43 39 49 80 48 00 02 BC 90 47 3A 08
80 43 00 2F 90 3C 56 35 80 47 00 02 A5 80 3C 00
2D 90 45 57 03 C9 80 45 00 01 E1 90 47 5D 01 CF
80 47 00 03 AA 90 3C 62 02 AF 80 3C 00 02 F2 90
48 64 01 AF 80 48 00 14 90 43 3D 01 B1 90 43 57
01 E8 80 43 00 01 EF 80 43 00 01 B5 90 40 47 02
93 90 40 38 4B 90 48 57 43 80 48 00 24 80 40 00
36 90 40 62 45 80 40 00 08 80 40 00 79 90 3E 56
01 E4 90 47 5E 11 80 3E 00 01 C5 80 47 00 01 E7
90 41 54 01 A5 90 40 35 7D 80 41 00 05 80 40 00
04 AD 90 47 5E 02 F7 80 47 00 01 B4 90 47 4C 01
A1 80 47 00 03 CB 90 48 51 01 DF 90 43 49 10 90
43 46 01 A8 80 43 00 48 80 48 00 40 90 41 57 0E
90 48 3D 39 80 41 00 0A 80 43 00 01 CA 90 48 4D
66 80 48 00 4D 80 48 00 01 A6 90 3E 40 5A 90 41
35 68 80 41 00 18 90 3E 40 01 F7 80 3E 00 33 90
3E 35 7B 80 3E 00 56 80 3E 00 01 D9 90 41 44 01
A0 90 3C 58 01 82 80 41 00 01 B9 80 3C 00 01 89
90 40 32 02 D6 80 40 00 54 90 47 3D 74 90 45 64
61 80 45 00 01 8F 80 47 00 02 BE 90 3C 3D 03 94
80 3C 00 03 CB 90 43 50 02 BA 80 43 00 7B 90 3C
4B 00 90 40 39 51 80 40 00 36 90 45 3E 03 80 3C
00 01 8B 90 40 3C 12 80 45 00 01 AA 90 45 4F 1F
90 3C 54 06 80 40 00 01 DA 90 3C 60 63 80 45 00
00 80 3C 00 27 90 47 5D 47 80 47 00 7B 80 3C 00
01 90 48 32 02 C8 80 48 00 01 86 90 3E 5A 01 8E
90 40 49 2B 80 3E 00 1E 90 41 49 01 F0 90 3C 51
24 90 48 3A 19 80 41 00 69 80 40 00 02 90 3C 42
21 90 40 3A 46 80 3C 00 41 80 48 00 04 90 40 49
52 90 3C 5E 14 90 43 5F 15 80 40 00 67 80 3C 00
11 80 40 00 13 80 3C 00 02 87 80 43 00 21 90 3C
61 4B 90 45 4B 68 80 45 00 40 90 3E 40 7A 80 3C
00 61 80 3E 00 6D 90 47 50 59 80 47 00 01 E3 90
43 51 3D 90 43 3A 40 90 41 50 01 C3 80 43 00 0C
80 41 00 1B 80 43 00 0B 90 47 4D 4F 80 47 00 01
D7 90 3E 3A 10 90 43 59 01 AD 80 43 00 02 92 80
3E 00 01 BB 90 43 57 01 C4 80 43 00 01 F8 90 48
4B 6A 90 48 62 26 80 48 00 17 90 3E 45 7A 80 3E
00 01 A6 80 48 00 02 90 43 42 19 90 41 42 0F 90
48 62 15 90 40 4E 12 90 40 35 4A 80 48 00 67 90
43 37 22 90 48 64 01 80 41 00 16 80 40 00 01 80
43 00 0B 80 40 00 02 82 80 43 00 1F 80 48 00 09
90 47 42 26 90 47 32 6E 90 45 59 4F 90 3C 3D 38
80 47 00 0B 80 3C 00 1A 80 47 00 01 A9 80 45 00
03 DA 90 3C 35 01 B4 90 40 37 13 90 40 54 01 AB
80 40 00 3E 80 3C 00 01 CF 80 40 00 03 B3 90 43
51 01 FC 90 41 3D 5E 80 41 00 6D 80 43 00 03 85
90 48 41 01 B1 90 3C 5E 01 EA 80 48 00 0A 90 40
44 4C 80 3C 00 16 90 41 63 2D 80 40 00 01 D6 90
43 43 1D 80 41 00 01 90 3E 5E 21 90 3C 56 01 F8
80 43 00 17 90 48 3E 00 80 3E 00 05 80 3C 00 03
AF 80 48 00 01 94 90 3E 4E 01 99 80 3E 00 01 FB
90 3C 5A 31 90 3E 58 02 AE 80 3C 00 01 8C 80 3E
00 01 8E 90 43 5B 01 E4 80 43 00 0C ED 90 3E 4D
4E 90 3E 51 0F 90 48 3D 4A 80 3E 00 62 80 48 00
63 80 3E 00 54 90 45 42 02 86 90 45 51 39 80 45
00 44 80 45 00 06 F8 90 45 63 02 8B 80 45 00 3C
90 45 54 02 ED 80 45 00 1B 90 43 39 01 A6 90 45
38 01 9E 90 47 3C 01 80 43 00 5B 90 3C 4A 78 80
45 00 01 9E 80 47 00 12 90 40 4E 01 85 90 47 56
26 80 3C 00 7D 90 41 60 2A 80 40 00 05 80 47 00
4F 90 43 63 67 90 41 53 66 80 43 00 22 80 41 00
01 AA 80 41 00 03 F9 90 47 53 01 FD 90 47 3D 01
9B 80 47 00 01 B5 80 47 00 34 90 48 5A 01 CE 80
48 00 01 9A 90 47 4C 6D 90 41 44 01 A7 90 43 4B
01 99 80 47 00 6A 80 41 00 79 80 43 00 02 CB 90
48 62 78 80 48 00 4B 90 41 57 4B 80 41 00 52 90
48 49 05 90 45 43 4B 80 45 00 01 80 90 45 50 10
90 47 42 5E 80 48 00 08 90 47 56 38 90 48 37 40
90 3C 38 1D 90 3E 5A 54 90 47 39 25 80 47 00 09
80 45 00 79 80 47 00 09 80 3C 00 09 80 48 00 2F
80 3E 00 26 80 47 00 03 B6 90 41 34 5B 90 3C 4B
0E 90 45 52 37 80 41 00 3A 90 48 57 5D 80 45 00
21 80 48 00 7B 90 3E 44 3D 80 3C 00 02 B5 80 3E
00 01 BB 90 41 42 16 90 41 54 01 B1 90 3E 50 2D
90 45 4B 45 80 41 00 28 90 48 64 15 90 47 54 25
80 41 00 04 80 3E 00 10 80 48 00 01 93 90 3E 38
53 80 45 00 30 80 3E 00 6D 80 47 00 1E 90 48 54
70 90 43 44 1E 90 43 63 6C 90 48 5D 01 AF 80 48
00 09 80 48 00 15 90 48 56 30 80 43 00 5D 90 41
3F 12 80 43 00 0D 80 48 00 3B 90 41 58 27 90 40
32 34 90 48 4C 03 90 48 5F 01 82 80 41 00 13 80
40 00 24 80 41 00 47 80 48 00 01 B6 80 48 00 02
DB 90 43 41 03 9E 80 43 00 4E 90 48 54 21 90 3E
62 69 90 3C 32 2B 90 43 58 32 80 3E 00 60 80 48
00 3D 80 43 00 36 90 48 56 23 90 43 49 58 90 47
44 1D 80 3C 00 3E 90 40 5B 3D 80 43 00 42 80 48
00 1B 90 45 54 28 90 45 4E 20 90 3E 5F 45 80 40
00 1C 80 47 00 01 87 80 3E 00 07 80 45 00 01 89
80 45 00 36 90 3C 5D 6C 90 40 3C 01 9D 80 40 00
37 80 3C 00 02 C4 90 45 64 01 CE 80 45 00 03 86
90 3C 46 01 96 90 43 59 66 90 3C 57 47 90 41 59
0E 80 43 00 45 80 3C 00 2F 90 41 51 0A 90 43 36
48 80 41 00 22 80 3C 00 48 90 41 3F 3E 90 41 44
01 84 80 41 00 1A 80 43 00 16 80 41 00 0D 90 3E
4D 01 DA 80 41 00 08 80 3E 00 02 FC 90 47 50 01
B8 80 47 00 01 B0 90 40 3C 1B 90 45 5F 01 81 90
47 38 71 80 47 00 3F 80 40 00 1D 80 45 00 01 C1
90 40 5D 7B 90 41 63 01 BF 80 40 00 01 99 80 41
00 03 B0 90 40 4D 02 D7 80 40 00 07 D1 90 43 58
5B 90 3E 60 2B 90 41 64 6A 80 3E 00 42 80 41 00
01 98 80 43 00 03 F1 90 3C 43 73 90 3C 4D 20 90
3E 39 1C 90 47 4B 02 A6 80 3C 00 04 80 3C 00 31
80 47 00 09 80 3E 00 5D 90 3C 35 01 92 90 3E 63
38 80 3C 00 01 EA 90 48 35 7F 80 3E 00 01 B1 80
48 00 23 90 40 44 42 90 47 37 28 90 45 38 01 D3
80 40 00 01 A4 80 47 00 01 90 3C 40 45 80 45 00
15 90 40 3C 13 90 43 46 39 90 3E 45 48 80 40 00
2D 90 48 54 25 80 43 00 30 80 3E 00 12 80 3C 00
7E 90 40 4A 23 90 3E 63 01 CA 90 40 37 0B 80 48
00 01 94 80 3E 00 07 80 40 00 32 90 41 43 32 80
40 00 02 C1 80 41 00 25 90 45 3A 01 CB 80 45 00
02 81 90 41 45 4C 90 48 57 14 90 45 51 67 80 45
00 04 90 47 5B 38 80 48 00 68 80 41 00 4C 80 47
00 01 A9 90 47 45 66 80 47 00 60 90 45 64 35 90
40 42 01 A6 80 45 00 21 90 48 3F 01 A4 80 40 00
1F 80 48 00 04 C9 90 43 4E 27 90 48 43 01 AB 90
48 35 01 B8 80 48 00 30 80 43 00 41 90 43 58 40
80 48 00 0C 80 43 00 58 90 40 64 01 EF 80 40 00
69 90 41 45 02 B9 90 48 34 4C 90 3E 53 31 80 41
00 76 90 48 35 34 80 48 00 3F 80 3E 00 02 BD 80
48 00 05 92 90 43 47 50 80 43 00 32 90 47 5E 03
8A 80 47 00 00 90 47 36 6A 80 47 00 03 EE 90 45
45 23 90 41 40 01 B0 80 41 00 1F 80 45 00 05 B3
90 47 37 77 80 47 00 02 93 90 48 63 04 90 43 56
02 92 90 45 40 17 80 48 00 01 96 80 43 00 01 DE
80 45 00 03 D9 90 47 57 02 DF 80 47 00 5B 90 48
4D 01 E4 90 3E 3E 1F 80 48 00 02 E7 80 3E 00 04
8B 90 47 59 5A 80 47 00 36 90 41 53 3F 90 45 5F
25 90 40 61 33 80 41 00 02 9B 80 45 00 64 80 40
00 02 A2 90 48 56 4C 90 45 53 16 90 3E 40 0B 80
48 00 0B 90 3C 41 01 D7 90 3E 4F 29 80 3E 00 27
80 3C 00 6E 80 45 00 2B 90 41 42 36 80 3E 00 44
90 45 58 23 90 43 35 24 90 45 46 07 90 47 62 01
80 41 00 40 90 48 62 4D 90 41 54 07 90 3E 64 2A
80 43 00 42 90 3C 3C 64 80 3C 00 00 80 45 00 1D
80 45 00 0B 80 47 00 28 80 48 00 07 80 41 00 46
80 3E 00 01 88 90 47 52 73 90 41 59 66 90 40 3B
42 80 41 00 6C 80 47 00 10 80 40 00 5F 90 3E 44
01 FA 90 3C 61 3D 80 3E 00 12 90 40 3D 02 85 80
40 00 2E 80 3C 00 4C 90 3E 32 01 88 90 41 3C 01
AF 90 43 57 22 90 3E 62 51 80 3E 00 5C 80 41 00
16 80 3E 00 15 80 43 00 0B 90 40 5E 0B 90 40 51
4E 90 47 5D 02 80 80 40 00 34 80 47 00 44 80 40
00 29 90 48 3C 03 82 90 3E 45 4A 80 48 00 00 90
48 59 01 C1 80 48 00 10 80 3E 00 01 C4 90 48 47
01 CA 90 3E 37 6A 80 48 00 68 90 41 4F 2C 90 3E
4A 55 80 3E 00 01 8B 80 3E 00 25 80 41 00 02 EF
90 48 5E 5F 80 48 00 01 D7 90 47 4C 01 E8 90 47
63 27 80 47 00 03 90 45 53 14 90 45 44 01 B9 90
40 38 30 80 45 00 01 86 80 47 00 32 80 45 00 05
80 40 00 02 E5 90 45 4F 5B 90 45 3E 01 CB 80 45
00 01 E2 80 45 00 4F 90 40 5F 01 B1 90 45 4D 5D
90 40 44 0C 80 45 00 0B 80 40 00 3C 80 40 00 3C
90 45 53 01 C7 90 3E 55 40 90 3E 59 0C 80 45 00
3F 80 3E 00 0A 90 43 38 24 80 3E 00 01 BC 80 43
00 01 DC 90 40 38 2A 90 45 3E 38 90 47 57 4E 90
3E 45 6F 80 40 00 04 90 41 3D 11 80 45 00 01 B1
80 41 00 13 80 47 00 45 80 3E 00 6F 90 41 61 01
B8 90 47 3D 02 99 80 41 00 01 AD 80 47 00 11 90
48 5B 15 90 45 61 49 80 45 00 01 ED 90 43 40 36
80 48 00 01 97 90 3C 58 72 80 43 00 58 80 3C 00
42 90 43 45 62 80 43 00 01 CC 90 47 45 1C 90 48
64 01 99 80 47 00 01 C0 80 48 00 02 BD 90 41 36
02 BF 90 3E 5E 6D 80 41 00 01 C5 80 3E 00 05 C8
90 45 42 3D 80 45 00 06 F8 90 41 37 01 8B 80 41
00 06 90 41 34 02 F8 90 3C 64 28 90 47 35 22 80
41 00 49 90 48 44 29 80 3C 00 20 90 48 45 21 80
47 00 5D 80 48 00 7C 80 48 00 03 8C 90 47 3B 5E
90 43 3D 01 A3 90 48 46 78 80 47 00 1B 80 43 00
5F 90 47 51 55 80 48 00 76 80 47 00 0F 90 3C 40
5A 90 3E 36 03 80 3C 00 01 BD 80 3E 00 3A 90 3C
61 69 80 3C 00 02 BC 90 47 43 4C 80 47 00 49 90
41 57 37 90 41 5C 02 B1 80 41 00 01 A9 80 41 00
7A 90 40 5E 09 90 3C 42 02 8C 80 40 00 15 90 48
43 01 A4 80 48 00 10 80 3C 00 01 F1 90 3C 3E 01
A2 90 40 38 4A 80 3C 00 21 90 45 5C 70 80 45 00
01 94 90 40 57 36 80 40 00 02 82 80 40 00 78 90
45 34 11 90 45 42 02 F0 80 45 00 49 80 45 00 02
90 45 5E 01 BF 80 45 00 01 D3 90 40 3F 12 90 3E
49 6D 80 3E 00 40 90 3E 33 6D 80 40 00 75 90 3E
5B 10 90 43 60 14 90 3C 54 53 80 3E 00 5A 80 43
00 75 80 3C 00 3E 80 3E 00 09 90 41 39 03 88 90
41 51 43 90 48 35 0B 80 41 00 6B 80 48 00 00 90
41 38 52 90 40 5A 32 90 41 45 0C 80 41 00 01 D8
80 40 00 44 80 41 00 33 80 41 00 0A 90 48 5A 1D
90 43 5C 48 90 3C 52 01 E1 90 3E 4F 02 80 48 00
14 90 3C 57 64 80 3C 00 24 80 3C 00 03 80 43 00
4A 80 3E 00 51 90 48 32 01 F4 90 40 4E 41 90 41
45 16 80 48 00 01 87 80 41 00 1E 80 40 00 01 AD
90 47 43 01 D2 80 47 00 01 BB 90 3C 51 01 CC 90
48 3B 7E 80 3C 00 01 DD 90 47 3C 15 80 48 00 02
C4 80 47 00 04 92 90 3C 41 3E 80 3C 00 01 CA 90
40 5D 52 80 40 00 02 9B 90 48 56 02 C0 80 48 00
01 A9 90 45 4F 01 BF 90 41 38 0C 90 3C 59 01 A6
80 45 00 2F 90 47 51 1D 90 40 39 19 80 3C 00 3D
90 47 3B 04 90 40 38 11 90 47 38 24 90 45 55 02
80 40 00 20 80 41 00 29 80 47 00 01 B7 90 41 4E
0A 80 47 00 01 90 47 3C 0B 90 47 40 01 80 40 00
29 80 47 00 02 80 45 00 32 90 47 3D 3A 80 41 00
17 80 47 00 00 80 47 00 04 80 47 00 04 AB 90 43
57 18 90 3C 64 01 B2 80 3C 00 4A 90 3C 3F 40 80
3C 00 0E 80 43 00 01 D7 90 3C 50 02 F7 80 3C 00
04 DC 90 45 46 06 90 43 5E 47 90 47 4D 01 8D 80
45 00 66 80 43 00 70 80 47 00 04 CA 90 48 53 7F
90 40 5D 72 80 40 00 01 84 80 48 00 7B 90 48 5C
02 CD 90 40 43 4A 80 48 00 01 F4 90 45 37 0F 80
40 00 6C 80 45 00 78 90 3E 3B 01 B5 80 3E 00 7F
90 48 53 70 90 3E 51 63 80 3E 00 01 91 90 47 3F
67 80 48 00 76 90 3E 46 01 EF 80 47 00 0B 90 48
47 3F 80 3E 00 30 90 47 3C 78 80 48 00 26 90 3C
32 01 8C 80 3C 00 38 80 47 00 0A C8 90 47 54 64
90 47 54 5D 90 41 64 01 D8 80 47 00 0D 80 47 00
01 AC 80 41 00 01 F9 90 48 5D 3D 90 40 52 6B 90
3E 5D 01 96 80 40 00 4B 80 48 00 01 B9 90 47 39
36 80 3E 00 01 80 80 47 00 06 94 90 48 39 7A 90
3C 34 64 90 3C 50 21 90 3E 4B 1B 80 48 00 4C 80
3C 00 2D 90 43 61 46 80 3E 00 2E 90 45 58 22 80
3C 00 5E 80 43 00 32 80 45 00 02 BA 90 48 5F 4D
90 48 4D 1B 80 48 00 3A 80 48 00 04 B2 90 43 51
57 80 43 00 02 99 90 3E 49 21 90 3C 64 02 B1 80
3E 00 24 80 3C 00 04 BD 90 45 55 46 90 3E 3F 01
82 80 45 00 5F 90 45 4C 13 80 3E 00 01 BB 90 3C
34 5C 80 45 00 01 88 80 3C 00 01 CC 90 41 62 01
FB 80 41 00 04 9D 90 45 43 01 92 90 3C 3F 2B 90
47 63 0D 80 45 00 37 90 3E 4C 00 80 47 00 2D 90
41 35 08 90 48 41 3B 80 41 00 0A 90 45 46 10 80
3C 00 01 95 80 3E 00 38 90 48 52 09 80 45 00 70
80 48 00 01 D8 80 48 00 01 CA 90 47 47 5F 90 3E
51 4B 80 47 00 08 80 3E 00 52 90 41 4A 01 A0 80
41 00 01 B5 90 48 64 01 82 80 48 00 0E 90 48 5D
01 C5 90 48 5A 01 B3 90 40 5C 44 80 48 00 5A 80
48 00 2E 80 40 00 0E 90 41 5E 01 84 90 48 45 1B
80 41 00 01 AD 90 48 54 59 90 40 3E 19 80 48 00
15 90 40 4C 4F 80 40 00 08 90 3C 61 33 80 48 00
06 80 40 00 1A 90 41 36 01 B5 80 3C 00 01 90 45
33 1D 90 3C 37 24 80 41 00 15 80 45 00 6F 80 3C
00 03 E8 90 40 4C 01 90 3C 41 47 80 3C 00 01 90
47 4D 02 DC 80 40 00 13 80 47 00 07 F9 90 40 56
02 D3 80 40 00 03 D4 90 48 47 01 C5 80 48 00 01
BB 90 47 46 4B 90 3E 64 54 80 3E 00 01 A8 80 47
00 12 90 45 5A 57 90 45 55 7E 90 3C 45 16 90 3E
38 7B 80 3E 00 40 80 3C 00 0F 80 45 00 03 80 45
00 03 BF 90 47 3D 5E 90 48 45 01 B4 90 47 61 35
80 47 00 1A 80 48 00 24 90 45 35 1E 90 43 39 43
80 43 00 25 80 47 00 01 8B 80 45 00 03 92 90 48
55 4C 90 45 4A 4F 90 41 53 41 80 48 00 46 90 3C
39 15 80 41 00 45 80 45 00 01 D1 90 47 3D 07 90
43 33 01 84 90 40 51 10 80 3C 00 19 80 43 00 2B
90 45 55 3E 80 47 00 21 90 40 4D 01 D2 90 48 5D
0E 90 40 48 07 80 40 00 24 80 45 00 37 80 40 00
20 80 40 00 01 AE 90 48 4C 52 80 48 00 3F 90 45
3E 43 80 48 00 04 90 3E 43 01 B2 80 45 00 29 90
45 51 01 B5 80 3E 00 6C 80 45 00 0C F3 90 43 50
73 80 43 00 05 A2 90 3E 33 02 90 47 4A 67 80 47
00 01 9C 90 41 61 1E 80 3E 00 01 B3 80 41 00 04
BC 90 45 5A 2D 90 48 39 09 90 41 61 28 80 45 00
30 90 40 35 28 90 48 5F 32 80 41 00 0F 90 48 48
01 93 80 40 00 05 90 47 53 13 80 48 00 18 90 40
4A 28 80 47 00 3A 90 48 35 16 80 48 00 23 90 43
61 31 80 48 00 01 E3 90 41 54 15 80 40 00 26 80
48 00 63 80 43 00 6E 90 40 52 01 A8 90 40 3A 0D
80 41 00 67 90 47 44 33 80 40 00 6F 80 47 00 01
90 47 3B 01 90 41 4E 4A 80 40 00 16 80 41 00 39
80 47 00 06 D2 90 45 4C 01 9A 90 3C 3F 3C 80 45
00 47 90 3E 3E 0F 90 41 4F 26 80 3C 00 01 CF 80
41 00 01 95 80 3E 00 01 FF 90 43 33 4E 80 43 00
01 AD 90 43 49 02 AC 90 40 4E 28 90 40 57 34 80
43 00 0A 80 40 00 49 80 40 00 02 AC 90 45 59 1D
90 41 62 01 86 90 3E 3C 62 90 3C 49 5D 80 3C 00
1A 80 41 00 04 80 45 00 6F 80 3E 00 04 90 90 3C
45 0B 90 48 60 01 D4 80 3C 00 33 90 3E 3D 40 80
3E 00 5F 80 48 00 3F 90 41 36 0B 90 40 57 3E 80
40 00 59 90 41 4A 01 CB 90 45 3F 27 80 41 00 33
80 41 00 05 90 41 4D 6E 90 47 51 43 80 41 00 01
A2 80 45 00 01 98 90 40 5D 10 80 47 00 02 99 80
40 00 01 BF 90 3C 40 01 EA 90 3E 46 10 90 43 58
2D 80 3C 00 01 B9 80 43 00 63 80 3E 00 02 FC 90
40 3B 16 90 48 59 7B 90 48 39 00 90 47 46 68 90
43 57 0F 80 40 00 20 80 47 00 6D 90 43 33 2E 80
43 00 1F 80 48 00 2E 90 48 4E 2F 80 43 00 26 80
48 00 02 F3 80 48 00 04 C8 90 45 47 01 AA 80 45
00 01 ED 90 3E 4F 56 90 40 4C 01 E6 90 43 44 11
90 3E 5F 24 80 40 00 6E 80 3E 00 01 90 41 3E 49
80 3E 00 01 AB 80 43 00 01 80 41 00 03 96 90 41
58 01 A5 90 41 5B 09 80 41 00 7E 80 41 00 01 D1
90 48 56 02 FE 80 48 00 01 B9 90 40 56 62 90 41
3E 50 80 41 00 01 DC 90 40 5B 05 80 40 00 55 80
40 00 18 90 43 42 01 C3 90 45 39 32 90 3E 5A 61
80 43 00 0D 90 48 5F 01 97 80 48 00 33 80 45 00
58 80 3E 00 38 90 3C 62 30 90 45 57 3F 90 40 5D
2B 80 3C 00 01 F2 80 45 00 01 8F 80 40 00 01 89
90 41 3E 02 90 41 39 38 90 40 54 36 90 48 48 55
80 41 00 17 80 41 00 01 B0 80 48 00 4D 80 40 00
03 92 90 43 39 11 90 47 3A 6D 90 47 40 4B 80 47
00 01 90 41 55 01 9E 80 47 00 34 80 41 00 0D 80
43 00 78 90 41 3C 02 E2 90 45 63 17 80 41 00 49
80 45 00 03 80 90 47 50 4D 90 47 39 02 CA 80 47
00 08 80 47 00 5A 90 3C 4E 67 90 40 61 01 87 90
47 54 18 80 40 00 3E 80 47 00 67 80 3C 00 01 FE
90 40 37 03 9A 80 40 00 01 8B 90 3E 33 01 8B 80
3E 00 03 8F 90 40 39 01 E0 90 40 3E 01 DE 80 40
00 33 80 40 00 05 E5 90 3C 61 38 90 43 35 6E 90
3E 3A 04 90 3E 64 70 90 45 35 10 80 3C 00 0D 90
48 36 2D 80 3E 00 01 98 80 43 00 01 81 80 3E 00
53 80 48 00 1A 80 45 00 02 FA 90 45 5C 47 80 45
00 03 E2 90 41 5C 01 CB 90 47 37 23 80 41 00 10
90 48 42 01 C0 80 48 00 14 90 3E 41 4C 90 43 53
08 80 47 00 6A 90 3E 62 5E 90 48 3F 4C 80 43 00
4D 80 3E 00 65 80 3E 00 51 80 48 00 03 BC 90 47
32 03 90 47 4C 7F 90 47 50 40 80 47 00 77 90 40
46 67 90 3E 42 1B 80 47 00 2D 80 47 00 0A 90 45
5C 33 90 43 33 2E 90 40 41 3F 80 43 00 09 80 40
00 26 80 3E 00 0B 80 45 00 41 90 48 5B 2A 90 47
62 33 90 48 46 17 80 40 00 60 80 48 00 11 90 40
47 62 90 41 55 44 80 41 00 4A 80 47 00 04 80 40
00 4B 80 48 00 63 90 47 3A 01 CA 90 41 4A 5E 90
43 5C 06 90 47 4A 01 A2 80 47 00 1A 80 43 00 17
80 41 00 01 96 80 47 00 2B 90 3E 3D 0B 90 47 49
68 90 43 49 56 90 48 59 09 80 43 00 42 90 43 35
04 90 47 61 2E 80 47 00 0F 80 48 00 09 90 47 37
0A 80 3E 00 69 90 3E 32 22 90 41 59 2F 80 47 00
29 80 43 00 49 80 41 00 2D 90 47 48 1E 80 47 00
01 93 80 3E 00 2B 90 45 3E 5D 90 45 4C 0A 80 47
00 73 90 45 5C 0B 90 45 52 2A 80 45 00 71 80 45
00 3A 80 45 00 4E 90 3C 41 66 80 45 00 01 B9 80
3C 00 3D 90 47 54 01 86 90 3E 3D 02 80 80 47 00
3F 90 3E 44 26 80 3E 00 3B 90 45 40 42 80 3E 00
01 AB 80 45 00 02 C5 90 3E 46 02 B6 90 43 3C 44
80 3E 00 03 85 80 43 00 2D 90 3C 3F 6C 80 3C 00
5F 90 3E 3A 01 85 90 47 43 4E 80 47 00 01 92 80
3E 00 02 81 90 43 58 42 90 41 60 6E 80 43 00 02
98 80 41 00 7C 90 45 50 72 80 45 00 02 F6 90 3C
44 68 80 3C 00 03 90 90 3E 3B 16 90 40 4B 01 C5
90 45 3E 61 80 45 00 07 90 3C 48 35 90 3E 42 20
80 3E 00 44 80 40 00 01 AD 90 43 49 22 80 3E 00
37 80 3C 00 02 C1 90 45 3A 16 80 43 00 01 FF 90
45 45 16 80 45 00 33 90 47 4C 3E 80 45 00 02 8E
80 47 00 5C 90 48 46 62 80 48 00 1D 90 43 42 01
90 41 63 02 EE 80 41 00 71 80 43 00 04 BB 90 3C
58 01 9D 80 3C 00 2A 90 47 4F 01 B8 80 47 00 01
99 90 3E 33 6F 90 41 4C 0A 90 47 52 06 90 41 52
22 90 3C 63 46 80 41 00 2C 80 41 00 75 80 3C 00
0F 90 48 54 37 80 3E 00 37 80 47 00 01 B6 90 41
43 26 90 40 3C 67 80 40 00 0B 80 48 00 6A 90 40
35 6B 80 41 00 49 90 41 3F 01 AC 90 3E 36 3D 80
41 00 42 80 40 00 02 80 3E 00 56 90 40 45 01 90
45 51 2A 90 41 43 06 90 40 42 01 A8 90 43 37 30
80 41 00 07 80 40 00 31 80 40 00 55 90 3E 5F 2E
80 45 00 01 96 90 3E 43 06 80 43 00 36 80 3E 00
01 8C 90 45 46 71 80 45 00 7F 80 3E 00 06 98 90
48 38 26 90 45 5C 32 90 3E 43 43 80 45 00 17 90
47 64 01 BE 80 47 00 0F 80 48 00 31 80 3E 00 63
90 47 57 01 B5 90 43 4D 10 90 48 47 3B 80 47 00
15 80 43 00 01 E3 80 48 00 5D 90 3E 4C 13 90 41
41 01 BE 90 47 4C 22 90 3E 4B 0C 90 41 52 06 90
40 58 25 80 41 00 0C 90 48 57 22 80 41 00 04 80
3E 00 19 90 41 57 08 80 40 00 23 80 47 00 02 90
43 51 1F 80 41 00 58 80 43 00 3E 90 3C 36 18 80
3E 00 55 80 48 00 2D 90 3E 49 1E 80 3C 00 01 CC
80 3E 00 4B 90 43 51 7E 90 3E 3A 02 92 80 43 00
0D 90 43 56 64 80 3E 00 14 90 3E 60 09 80 43 00
01 B3 90 3E 47 02 A4 80 3E 00 01 89 90 47 49 0B
90 43 5C 02 80 3E 00 02 90 45 36 5D 80 45 00 10
80 47 00 01 AC 80 43 00 01 D3 90 47 62 1D 90 3C
4B 70 90 45 49 01 8A 90 41 4B 4A 80 3C 00 0B 80
47 00 45 80 45 00 4F 80 41 00 02 96 90 47 32 01
93 90 41 61 52 90 3C 62 7B 80 47 00 1E 80 3C 00
19 90 45 32 27 90 47 49 01 B0 80 41 00 27 90 40
45 04 90 40 36 3C 80 47 00 04 90 41 4F 4D 80 41
00 4D 80 45 00 0A 90 40 45 5B 80 40 00 4E 80 40
00 17 90 45 36 36 80 40 00 01 81 80 45 00 01 8B
90 47 4C 7A 90 40 46 70 80 47 00 5F 90 47 40 72
90 41 57 23 90 3E 3B 31 80 41 00 2C 80 40 00 24
80 47 00 2D 80 3E 00 03 CC 90 47 4A 2E 90 47 62
01 DF 90 43 3A 08 90 3C 4B 01 9C 80 47 00 08 80
47 00 23 90 47 64 11 90 40 56 64 80 43 00 57 80
3C 00 35 90 3C 63 06 80 40 00 54 80 47 00 50 90
40 39 4A 80 40 00 01 BD 80 3C 00 1D 90 40 41 01
AE 90 3C 43 01 A7 90 3E 40 22 80 40 00 39 80 3C
00 01 80 3E 00 02 C0 90 3C 56 01 CC 90 41 4C 3A
90 3E 32 25 80 41 00 58 90 48 3F 01 80 3C 00 01
82 90 41 64 27 80 3E 00 53 90 47 32 26 80 48 00
67 90 48 57 19 80 47 00 0A 80 41 00 3D 90 45 53
7B 80 45 00 42 90 45 55 48 80 48 00 01 D7 80 45
00 04 F3 90 47 35 03 93 80 47 00 01 C3 90 3E 45
78 80 3E 00 39 90 3C 35 01 9B 90 43 4C 01 D4 80
3C 00 01 90 48 50 11 80 43 00 07 90 3E 50 06 90
3C 44 2A 90 3E 40 72 90 48 4E 74 80 3E 00 11 80
48 00 0A 90 48 36 03 80 3C 00 45 80 48 00 34 80
3E 00 70 80 48 00 02 96 90 3C 57 05 90 47 3B 68
80 3C 00 01 F1 90 40 3C 1C 80 47 00 32 80 40 00
10 90 3E 47 02 90 43 44 02 BF 80 3E 00 14 80 43
00 06 88 90 48 4A 40 80 48 00 2B 90 40 50 64 80
40 00 01 8F 90 3C 4D 65 90 48 55 43 80 3C 00 29
90 48 35 01 F6 80 48 00 26 80 48 00 01 97 90 45
3E 69 80 45 00 02 AD 90 3C 64 01 D8 80 3C 00 02
D5 90 48 3B 4B 90 43 59 03 80 48 00 01 A7 80 43
00 01 8E 90 41 48 02 EB 80 41 00 09 AA 90 3C 4E
02 C6 80 3C 00 0B AD 90 48 59 76 90 43 5D 55 80
43 00 01 B6 80 48 00 01 BC 90 3C 50 73 80 3C 00
7F 90 3E 37 03 D5 80 3E 00 03 F2 90 47 35 01 F9
90 47 5A 68 80 47 00 38 90 41 4F 5F 80 47 00 01
B3 80 41 00 01 F0 90 40 43 5C 80 40 00 03 C8 90
47 36 63 90 3E 60 77 80 47 00 69 80 3E 00 01 DD
90 48 5E 5E 80 48 00 01 D3 90 45 61 02 94 80 45
00 02 C6 90 47 5A 1B 90 47 41 02 CE 80 47 00 0C
80 47 00 02 8E 90 3C 4C 21 90 45 4E 40 80 3C 00
38 90 40 5C 46 90 41 52 0D 90 43 4F 75 80 45 00
0D 80 41 00 01 FD 80 40 00 49 80 43 00 01 F3 90
47 4F 01 B3 90 3E 34 21 80 47 00 73 80 3E 00 02
C0 90 3E 5F 03 8E 80 3E 00 01 D4 90 43 60 01 FA
80 43 00 02 B6 90 48 4D 01 D7 80 48 00 02 90 43
4E 01 AC 80 43 00 01 FA 90 43 53 02 B1 80 43 00
11 90 3E 59 66 80 3E 00 2B 90 40 3C 0A 90 3C 50
54 90 43 5C 3C 80 40 00 09 90 3C 37 2F 80 43 00
01 D0 80 3C 00 6A 80 3C 00 02 E1 90 3E 43 5A 90
45 3B 01 B5 80 3E 00 01 DB 80 45 00 01 9E 90 40
5D 20 90 41 5D 01 D4 80 40 00 01 A9 80 41 00 07
81 90 3C 51 03 CE 80 3C 00 03 F0 90 47 61 1B 90
41 5A 04 90 3C 62 01 CC 90 43 63 12 90 43 48 4C
80 47 00 02 90 45 4D 23 80 41 00 36 80 43 00 21
80 3C 00 79 90 41 3A 47 80 43 00 4F 80 45 00 32
90 40 45 01 9F 80 40 00 11 80 41 00 02 86 90 40
61 01 F5 90 48 49 79 90 3C 3B 19 80 40 00 18 90
3C 63 01 8C 90 3E 55 56 90 47 5D 05 80 3C 00 0F
80 3C 00 1B 80 48 00 79 80 47 00 01 9A 90 48 60
0B 90 3E 3F 20 80 3E 00 38 90 45 40 01 BB 80 48
00 40 80 3E 00 37 80 45 00 2E 90 41 46 03 B0 90
3C 5D 00 80 41 00 03 9A 80 3C 00 02 86 90 47 42
01 87 80 47 00 04 83 90 3E 57 01 AE 80 3E 00 1B
90 3E 5F 02 F1 80 3E 00 05 BD 90 3C 5A 26 90 41
4A 1F 90 3C 58 01 E7 80 3C 00 01 9D 80 3C 00 0E
80 41 00 1F 90 47 59 4F 90 41 37 40 80 47 00 01
D8 90 3E 56 14 90 48 3C 01 80 41 00 01 E2 80 3E
00 6B 90 48 63 39 90 3C 5B 0B 90 3E 33 13 80 48
00 14 80 48 00 1D 90 40 4F 49 80 3C 00 5B 90 47
52 25 80 40 00 01 AB 90 3C 5E 24 80 3E 00 01 99
80 47 00 27 90 41 42 01 AE 90 47 50 27 80 3C 00
6C 90 3E 4A 6B 90 3E 3B 21 80 41 00 33 80 47 00
01 B8 80 3E 00 62 80 3E 00 17 90 43 38 36 90 48
60 28 90 41 3C 37 80 43 00 01 E2 90 48 5A 01 81
80 41 00 1C 80 48 00 51 80 48 00 01 F2 90 3C 4B
02 A8 80 3C 00 07 C7 90 45 33 02 96 80 45 00 01
F1 90 45 39 42 90 40 59 0D 90 41 3E 0E 80 45 00
01 F5 80 41 00 40 90 43 48 59 80 40 00 5F 80 43
00 7D 90 3E 43 02 E9 80 3E 00 5C 90 3E 57 10 90
48 62 14 90 47 39 36 80 48 00 01 D1 80 47 00 36
80 3E 00 12 90 48 42 02 E5 90 41 56 4D 80 41 00
1A 80 48 00 41 90 48 4F 32 90 41 42 55 80 48 00
41 80 41 00 04 84 90 40 59 02 A1 80 40 00 01 96
90 43 55 55 90 47 3A 01 8B 80 47 00 01 CD 90 45
4B 28 80 43 00 01 DE 90 41 35 39 80 45 00 01 8D
90 40 38 01 94 90 43 4A 24 80 41 00 01 B1 80 43
00 5C 80 40 00 01 D8 90 40 42 61 90 3C 3F 7A 80
40 00 01 DD 90 43 34 31 80 3C 00 01 E9 80 43 00
01 92 90 41 39 6A 90 47 44 15 80 41 00 02 E1 80
47 00 7E 90 3C 64 01 99 90 3C 3D 4F 80 3C 00 01
B2 90 41 34 4D 80 41 00 69 80 3C 00 39 90 41 32
1B 90 41 39 73 80 41 00 01 90 41 35 3F 80 41 00
58 80 41 00 5C 90 41 61 25 90 41 32 01 FE 80 41
00 01 87 80 41 00 01 FA 90 47 33 4A 80 47 00 02
AB 90 43 46 7A 90 3C 52 63 90 40 55 01 C0 80 43
00 41 80 3C 00 6F 90 47 5F 66 80 40 00 02 CE 80
47 00 04 90 90 43 50 02 BA 90 47 59 0F 90 40 40
6F 80 40 00 0F 80 43 00 02 92 80 47 00 03 FF 90
48 44 03 81 90 48 50 1B 80 48 00 01 99 80 48 00
01 B2 90 3C 39 5C 90 3E 52 01 88 90 3E 64 21 80
3E 00 3C 80 3C 00 33 90 3C 61 02 84 80 3E 00 1D
90 40 63 6A 80 40 00 27 80 3C 00 3C 90 47 43 64
90 45 54 52 90 43 55 12 80 45 00 1A 80 47 00 01
A3 80 43 00 04 A9 90 48 5F 01 CE 80 48 00 02 84
90 3C 64 18 90 40 36 31 80 3C 00 02 C7 90 41 53
11 80 40 00 01 B3 90 48 54 01 A3 80 48 00 3E 80
41 00 63 90 48 5E 21 90 43 40 49 90 40 58 24 90
48 5F 3B 80 43 00 67 80 48 00 49 80 40 00 08 80
48 00 0D 90 43 64 02 D8 80 43 00 04 E2 90 40 57
4F 80 40 00 2C 90 47 50 3B 90 3E 53 01 9B 90 40
62 01 90 3C 3B 23 80 47 00 62 80 40 00 4C 80 3E
00 3E 80 3C 00 01 FD 90 40 43 02 CA 90 43 4E 66
90 40 37 22 80 40 00 19 90 43 50 7A 90 47 57 0A
80 43 00 32 80 43 00 0A 80 40 00 06 90 40 35 01
D2 80 47 00 01 AC 90 45 5F 38 80 40 00 10 80 45
00 37 90 3C 43 60 90 40 38 02 82 80 3C 00 2B 80
40 00 03 85 90 47 4F 73 90 3E 3C 01 A4 80 3E 00
51 80 47 00 01 A0 90 45 60 01 84 80 45 00 09 90
45 34 1F 90 3E 4B 01 AE 80 45 00 44 80 3E 00 4B
90 48 42 35 90 43 49 13 90 3E 64 03 90 43 4C 7B
90 41 35 2A 80 48 00 50 80 3E 00 58 80 43 00 48
90 40 63 3B 80 43 00 14 80 41 00 61 80 40 00 01
FF 90 43 45 75 90 3E 43 1D 90 3C 54 5E 90 45 5A
16 80 3E 00 7F 80 45 00 1F 80 3C 00 29 80 43 00
03 B1 90 47 62 4C 90 3E 60 4A 90 48 5D 2D 90 47
3D 13 80 47 00 01 D3 80 48 00 74 80 3E 00 1E 80
47 00 51 90 3E 62 01 DC 90 45 43 01 9A 80 3E 00
27 80 45 00 27 90 47 53 7E 80 47 00 06 CC 90 47
39 01 C9 90 40 33 35 80 47 00 5E 80 40 00 01 86
90 47 32 01 AB 90 45 34 26 80 47 00 79 80 45 00
01 9B 90 45 47 01 A0 90 41 4C 36 80 45 00 01 B1
90 45 43 71 80 45 00 21 80 41 00 04 9B 90 45 64
01 B7 80 45 00 01 E7 90 43 61 75 90 43 5E 01 D6
80 43 00 2A 80 43 00 37 90 40 55 01 8C 80 40 00
02 8E 90 43 32 04 90 40 4A 01 C8 80 43 00 7C 90
47 3E 36 90 41 58 01 90 45 5C 30 80 40 00 2A 90
40 4F 01 96 80 41 00 62 80 47 00 01 8E 80 45 00
2C 80 40 00 7B 90 47 4F 14 90 3C 4D 01 AD 80 3C
00 01 B5 80 47 00 01 9F 90 41 3D 0D 90 3C 58 5A
80 41 00 2B 90 41 5E 54 80 41 00 7E 80 3C 00 04
82 90 43 5A 01 99 80 43 00 04 A9 90 47 3F 17 90
45 61 57 90 47 50 03 80 45 00 02 9A 80 47 00 7A
90 3C 58 02 90 3C 5D 1E 80 47 00 02 8B 80 3C 00
25 80 3C 00 27 90 41 4D 01 B0 80 41 00 1B 90 3E
49 01 B1 80 3E 00 02 E0 90 47 36 4A 90 47 4C 0D
90 3C 53 02 CA 80 47 00 0C 80 3C 00 17 80 47 00
04 86 90 43 46 3F 80 43 00 01 DE 90 48 3A 02 A9
80 48 00 01 90 90 48 45 43 90 45 46 25 90 41 5F
3D 80 45 00 01 CE 80 48 00 7B 80 41 00 01 83 90
3C 44 01 F1 90 47 47 01 93 80 3C 00 01 C6 80 47
00 15 90 40 64 01 80 90 47 3A 01 EE 80 40 00 01
A7 80 47 00 01 8C 90 41 3F 01 C6 80 41 00 7A 90
40 58 02 C3 80 40 00 02 CA 90 47 37 47 90 47 35
59 90 45 3A 45 80 47 00 52 80 45 00 71 90 43 56
10 80 47 00 01 AA 90 3E 62 01 9C 90 41 4B 01 88
80 43 00 19 80 3E 00 01 A7 90 40 47 25 90 43 35
40 80 41 00 06 90 47 4E 5E 80 47 00 15 80 40 00
1D 90 43 4E 01 F0 90 47 44 07 80 43 00 2E 80 43
00 78 80 47 00 56 90 43 48 56 90 43 46 3A 80 43
00 59 90 40 43 01 B7 90 47 4F 2C 90 48 3E 31 80
43 00 01 87 90 47 4F 26 80 47 00 0C 80 40 00 01
B8 80 48 00 52 90 41 4B 5D 80 47 00 1F 80 41 00
01 B0 90 43 59 01 BC 80 43 00 01 91 90 40 32 03
90 48 5A 55 90 45 3E 01 B2 80 40 00 4F 80 45 00
11 90 41 4D 38 80 48 00 02 B1 80 41 00 01 CC 90
3E 40 02 D3 80 3E 00 4B 90 48 5E 02 9E 90 47 46
38 80 48 00 3B 80 47 00 2A 90 40 51 64 90 43 48
3E 80 40 00 1F 90 3E 54 01 83 90 48 33 66 80 48
00 18 80 43 00 3E 80 3E 00 01 96 90 45 63 02 C2
80 45 00 02 D5 90 47 3B 02 EB 80 47 00 11 90 48
5C 01 88 90 40 5F 34 90 41 36 0E 80 48 00 01 90
80 40 00 32 80 41 00 03 EC 90 41 4C 45 80 41 00
02 C0 90 43 34 3F 90 48 45 55 80 48 00 6D 90 45
3E 18 80 43 00 69 90 45 46 01 BF 80 45 00 01 E3
80 45 00 64 90 43 4C 02 FA 80 43 00 01 E3 90 47
49 4A 90 48 4A 01 8A 90 40 3F 0F 80 47 00 01 F7
80 48 00 40 80 40 00 01 C1 90 45 61 02 D8 80 45
00 03 AE 90 40 33 01 AF 90 3C 3A 79 90 3E 61 1A
80 40 00 0D 80 3C 00 37 80 3E 00 62 90 47 62 7E
90 41 64 15 80 47 00 01 AD 90 40 3D 01 DB 80 40
00 04 80 41 00 55 90 43 3D 3D 80 43 00 02 A1 90
3C 51 01 9A 80 3C 00 01 80 90 3C 36 48 90 43 32
02 B0 90 47 47 04 80 3C 00 01 8A 80 43 00 1F 90
3E 64 0D 80 47 00 34 80 3E 00 1B 90 41 61 68 80
41 00 06 8C 90 45 3F 03 99 80 45 00 16 90 45 5F
0C 90 48 59 01 A4 80 48 00 35 90 3C 5C 01 FA 80
45 00 29 90 40 5A 3F 90 45 44 02 80 3C 00 3C 90
43 4A 00 80 40 00 45 90 41 53 2F 90 43 3E 1B 80
43 00 42 90 45 56 63 90 48 58 06 80 45 00 42 80
43 00 0F 80 41 00 10 80 45 00 01 CA 80 48 00 03
99 90 47 46 01 F2 90 40 60 6C 90 3E 44 03 80 47
00 41 90 3C 35 39 80 40 00 32 80 3E 00 22 80 3C
00 04 B4 90 40 54 33 90 47 35 02 94 80 40 00 01
B4 80 47 00 01 84 90 3E 5A 5F 80 3E 00 01 A0 90
48 37 02 93 90 48 5F 40 80 48 00 02 E6 80 48 00
59 90 43 5A 02 A2 90 47 35 70 80 43 00 01 E8 80
47 00 01 92 90 3E 32 03 84 80 3E 00 01 B0 90 43
3F 47 90 47 43 04 90 47 3E 23 80 43 00 01 81 90
41 45 1C 80 47 00 01 CE 80 47 00 01 88 80 41 00
03 A4 90 40 5B 01 DF 80 40 00 42 90 43 48 01 B1
80 43 00 0C 90 47 3E 11 90 3C 48 0E 90 47 56 11
90 43 3F 43 90 48 4F 62 80 47 00 01 B6 80 3C 00
09 80 47 00 63 80 43 00 2D 90 48 4A 1E 80 48 00
77 90 47 36 25 80 48 00 2B 80 47 00 3F 90 3C 51
62 90 43 3C 01 84 80 3C 00 01 DD 80 43 00 73 90
41 54 3D 80 41 00 01 F8 90 47 47 01 BB 90 47 42
01 F4 80 47 00 31 80 47 00 01 E1 90 45 36 33 90
3C 4F 02 90 3E 3E 01 86 80 3E 00 52 80 45 00 01
B5 80 3C 00 17 90 3C 3B 01 CC 80 3C 00 04 A7 90
3C 49 6A 80 3C 00 02 D6 90 3C 52 02 A3 90 47 63
2C 90 47 5E 3E 80 3C 00 01 D0 80 47 00 3D 80 47
00 3A 90 41 58 01 A3 90 41 49 01 CD 80 41 00 7D
80 41 00 01 AF 90 41 49 02 AA 90 47 4E 4C 80 41
00 14 90 3C 53 4E 80 47 00 02 C5 80 3C 00 01 B1
90 3C 60 01 8A 90 43 36 6C 90 3E 39 2D 90 40 45
0E 80 3C 00 10 80 43 00 01 B9 90 45 62 6F 80 3E
00 54 80 45 00 31 80 40 00 01 95 90 48 4E 0B 90
3C 3B 69 80 48 00 1D 80 3C 00 01 B2 90 47 37 3E
90 3C 42 01 82 90 3C 48 3C 90 40 3B 0F 80 3C 00
5E 80 3C 00 5D 80 47 00 45 80 40 00 01 FE 90 40
60 53 90 45 3F 01 8F 80 40 00 02 A5 90 40 3C 0C
80 45 00 2C 90 47 3E 01 95 80 47 00 07 80 40 00
07 90 40 56 47 90 48 4C 79 90 41 51 4C 90 48 3A
19 80 40 00 60 80 48 00 62 80 48 00 6D 80 41 00
11 90 45 4C 02 C9 90 3C 3B 54 90 3C 4B 29 80 3C
00 07 80 45 00 2C 80 3C 00 49 90 43 3A 01 F2 90
41 4D 01 91 80 41 00 4F 80 43 00 01 EA 90 3C 54
10 90 48 51 01 E1 80 3C 00 79 80 48 00 02 99 90
40 56 01 C1 90 40 51 49 80 40 00 02 B8 90 3E 3B
01 80 40 00 03 A0 80 3E 00 08 98 90 43 38 01 99
90 40 48 01 C7 90 41 33 25 80 40 00 02 80 43 00
1B 80 41 00 01 DC 90 47 38 2A 90 3E 5E 01 99 90
45 53 01 97 90 48 58 08 80 47 00 03 80 45 00 0A
80 3E 00 01 8F 80 48 00 01 8F 90 43 5C 01 FF 80
43 00 40 90 47 5C 03 B7 80 47 00 02 8A 90 45 52
03 9F 90 41 38 25 80 45 00 01 90 3C 3D 39 80 41
00 28 80 3C 00 02 90 90 41 3D 66 80 41 00 6A 90
45 44 60 80 45 00 02 A4 90 40 46 61 90 41 53 27
90 41 51 01 EE 80 41 00 12 80 40 00 31 90 45 58
79 80 45 00 24 80 41 00 01 88 90 41 5B 01 90 48
5A 01 82 80 41 00 34 80 48 00 02 CC 90 3E 48 4E
80 3E 00 01 E9 90 47 3E 02 B1 80 47 00 01 E7 90
45 51 10 90 43 55 16 90 47 44 02 F0 80 45 00 1D
80 43 00 07 80 47 00 02 8F 90 47 42 63 80 47 00
01 82 90 47 46 03 D4 80 47 00 44 90 43 53 3C 90
3E 5C 33 90 47 5D 60 80 3E 00 4A 90 41 5C 01 B8
80 43 00 7A 80 47 00 01 AE 80 41 00 0B 90 45 35
02 BE 80 45 00 4F 90 45 4D 68 80 45 00 01 BF 90
3E 3A 2F 90 3C 64 7D 90 48 47 4D 80 48 00 01 88
90 47 60 39 90 3E 33 03 80 3E 00 07 90 47 55 27
80 47 00 0D 80 3C 00 14 90 40 4F 0A 80 3E 00 6C
90 48 5F 0F 80 40 00 61 90 48 58 3E 90 40 43 56
80 47 00 01 A1 80 48 00 06 80 48 00 01 A2 90 45
43 25 80 40 00 0A 90 48 64 3B 90 47 50 74 80 48
00 01 97 80 45 00 42 80 47 00 01 EA 90 47 47 6E
90 41 5A 0D 90 41 5E 16 80 47 00 02 8B 80 41 00
01 98 80 41 00 02 FF 90 47 61 01 BC 90 48 64 01
C3 80 47 00 01 D0 80 48 00 02 D8 90 41 59 53 80
41 00 01 B1 90 3C 5E 01 C8 80 3C 00 03 BE 90 43
5E 1B 90 48 52 7B 80 43 00 16 90 43 63 44 90 45
62 47 80 43 00 16 80 48 00 01 8F 90 3C 35 5F 80
45 00 01 91 90 43 34 17 80 3C 00 01 87 80 43 00
62 90 3C 62 01 D4 80 3C 00 08 AB 90 41 37 1E 90
3C 44 01 87 80 3C 00 16 80 41 00 02 AF 90 3C 35
7D 80 3C 00 04 F9 90 48 62 7E 90 3C 5B 01 BF 90
48 47 19 80 48 00 5C 90 47 3F 27 90 47 3C 4D 80
3C 00 17 80 47 00 5C 80 48 00 72 80 47 00 01 83
90 45 40 02 84 80 45 00 02 B3 90 3E 5D 49 90 3E
45 39 90 45 41 4F 80 3E 00 01 CE 90 45 42 43 80
45 00 19 80 45 00 0D 80 3E 00 4E 90 40 52 01 E7
80 40 00 74 90 40 55 01 B0 80 40 00 04 D7 90 48
5F 12 90 48 34 01 C5 80 48 00 5E 80 48 00 03 ED
90 45 35 2E 90 45 60 01 A3 80 45 00 01 80 45 00
00 90 41 44 2C 90 43 58 28 80 41 00 41 90 3C 3F
19 80 43 00 01 BF 90 43 3A 01 F0 80 43 00 10 80
3C 00 01 C2 90 45 52 02 D6 80 45 00 02 BF 90 40
35 37 90 48 40 32 80 40 00 02 D5 90 3C 4C 04 80
48 00 01 EF 80 3C 00 01 8F 90 43 64 02 DC 80 43
00 47 90 47 4B 01 A1 80 47 00 04 DC 90 43 34 01
A3 80 43 00 04 90 48 32 02 E8 80 48 00 02 88 90
3E 52 07 90 40 42 5D 90 3E 33 01 CE 80 40 00 28
90 45 54 24 80 3E 00 5B 80 3E 00 01 F4 80 45 00
01 C8 90 40 5E 46 90 48 44 0B 90 43 4F 57 90 40
38 6D 90 3E 32 18 90 45 56 01 80 40 00 15 80 48
00 3D 80 43 00 05 80 45 00 38 80 40 00 01 F6 80
3E 00 61 90 3E 62 04 90 41 51 01 88 80 41 00 01
B9 80 3E 00 17 90 43 50 01 B0 80 43 00 03 A8 90
43 3B 01 C6 90 48 3B 57 90 45 4C 30 80 43 00 34
90 3C 42 38 80 45 00 42 80 48 00 3F 80 3C 00 04
F1 90 47 5A 01 90 90 3C 4F 33 80 47 00 01 A5 90
40 57 21 80 3C 00 01 9E 80 40 00 44 90 41 49 33
90 45 40 01 C5 80 45 00 01 C8 80 41 00 01 E7 90
40 4B 4A 90 47 32 44 80 40 00 0E 80 47 00 6B 90
3C 38 01 9B 90 41 57 17 80 3C 00 64 90 41 42 31
80 41 00 4D 80 41 00 01 D1 90 3E 36 01 BB 90 45
56 28 80 3E 00 32 80 45 00 02 EA 90 45 52 78 80
45 00 3F 90 43 5D 03 8F 80 43 00 0E F2 90 3E 63
01 DD 80 3E 00 02 EE 90 43 32 02 E6 80 43 00 0B
90 45 53 29 90 3E 36 7F 80 3E 00 01 8E 80 45 00
01 EC 90 47 4C 5E 90 43 33 02 C3 80 47 00 01 8A
80 43 00 01 90 3C 64 6D 90 41 4C 44 90 45 4C 06
90 3E 63 3C 90 3C 32 47 80 41 00 16 80 3C 00 51
90 45 4C 11 80 3E 00 56 80 45 00 3A 80 3C 00 14
90 47 47 77 80 45 00 03 90 41 45 01 E7 80 47 00
01 9A 90 47 57 15 80 41 00 22 90 45 32 07 90 45
47 31 90 40 37 01 D4 80 40 00 28 80 47 00 60 80
45 00 2D 80 45 00 01 95 90 41 49 70 90 47 33 2D
80 41 00 39 90 48 5E 56 90 48 62 72 80 48 00 10
90 3E 50 07 90 45 54 07 80 48 00 30 80 47 00 22
90 3E 60 62 80 3E 00 4B 80 3E 00 01 A6 80 45 00
02 F5 90 43 61 0F 90 3E 5B 01 D7 80 3E 00 4C 80
43 00 4F 90 48 51 3E 90 48 49 29 80 48 00 1E 90
3E 4E 7E 80 48 00 02 94 80 3E 00 70 90 48 4B 0C
90 45 3B 7E 80 45 00 2F 80 48 00 02 B4 90 41 3A
42 90 45 3D 37 90 40 36 01 E2 80 41 00 01 AC 80
45 00 39 80 40 00 36 90 43 45 07 90 43 46 01 AD
80 43 00 28 90 41 40 0D 80 43 00 59 80 41 00 01
F3 90 43 4E 01 A6 90 43 61 02 8D 80 43 00 01 CF
80 43 00 20 90 43 53 55 80 43 00 4A 90 47 4C 03
80 90 43 62 05 80 47 00 0D 90 41 50 39 90 47 56
6B 80 47 00 0E 80 43 00 56 90 45 5F 57 80 41 00
39 80 45 00 01 9C 90 41 33 01 A9 90 3C 56 5C 90
48 5D 01 8B 80 41 00 36 80 3C 00 01 D5 80 48 00
02 BF 90 3E 33 01 B5 90 48 53 01 EA 80 3E 00 01
E2 90 3E 3A 03 80 48 00 28 90 40 52 04 90 40 3F
06 90 40 64 01 95 90 48 32 39 90 3C 58 2F 80 40
00 5D 80 3E 00 38 80 40 00 20 80 40 00 61 80 48
00 01 92 80 3C 00 02 CE 90 3E 59 01 AA 90 3E 3B
01 80 3E 00 14 90 3C 55 38 90 41 60 68 90 47 33
0E 80 3C 00 36 80 3E 00 15 90 48 54 2E 80 47 00
37 90 40 50 6D 80 48 00 1D 80 41 00 1A 80 40 00
01 E7 90 3C 61 27 90 40 5D 35 90 48 64 59 90 41
37 01 8C 80 3C 00 12 80 40 00 17 80 48 00 20 90
3C 47 01 AF 80 41 00 01 FF 80 3C 00 02 88 90 48
37 03 90 80 48 00 01 AF 90 45 32 3D 90 3C 4A 02
89 80 3C 00 1A 80 45 00 01 85 90 45 42 27 90 43
44 01 97 90 45 43 01 E5 80 45 00 08 80 45 00 1F
80 43 00 0A 90 47 52 01 A6 80 47 00 01 98 90 45
5F 6C 80 45 00 04 AE 90 47 50 6C 80 47 00 01 9F
90 41 45 01 B5 90 45 53 6C 80 45 00 01 86 80 41
00 01 8D 90 3C 36 47 90 3C 36 5D 80 3C 00 22 90
45 59 33 90 45 46 78 80 3C 00 01 90 45 49 30 80
45 00 1A 80 45 00 55 90 45 38 05 80 45 00 01 8F
80 45 00 58 90 48 50 01 C4 80 48 00 04 8A 90 3C
32 02 8C 90 3E 3E 0D 90 3C 58 12 90 45 3F 21 80
3C 00 63 80 3C 00 0E 80 45 00 01 DC 80 3E 00 44
90 43 4B 61 90 3E 53 1B 90 48 45 76 80 43 00 0F
80 48 00 1E 80 3E 00 03 DC 90 48 54 3D 90 3C 5F
01 DC 90 3E 5D 40 80 48 00 1C 80 3C 00 22 90 47
54 5D 80 47 00 0D 80 3E 00 1C 90 47 5D 4C 90 47
3C 25 80 47 00 02 BB 90 48 3D 21 90 47 5C 3A 80
48 00 0C 80 47 00 36 90 45 32 01 DE 80 47 00 6D
80 45 00 0C 90 3C 56 75 90 47 47 19 80 3C 00 03
88 80 47 00 25 90 3C 5C 40 80 3C 00 01 AA 90 47
59 01 92 80 47 00 02 AD 90 45 55 65 90 40 61 59
80 45 00 31 90 40 53 1B 90 48 3B 50 80 48 00 1C
90 48 49 3A 80 40 00 23 80 40 00 16 80 48 00 62
90 40 3D 02 8A 80 40 00 04 84 90 48 4C 15 90 43
64 01 DD 80 48 00 01 E8 80 43 00 01 96 90 43 33
66 90 3C 47 32 90 47 4E 37 80 43 00 5B 90 45 56
1C 90 48 63 01 85 80 3C 00 35 90 48 38 02 80 47
00 6E 80 48 00 12 80 45 00 68 80 48 00 5E 90 40
43 02 DB 80 40 00 01 97 90 43 41 03 82 90 43 61
5E 80 43 00 54 80 43 00 55 90 45 5B 01 EC 80 45
00 23 90 3E 3D 02 ED 90 47 34 0A 90 3C 4E 3C 80
3E 00 75 80 47 00 01 8C 80 3C 00 04 9E 90 41 3C
01 8F 90 43 33 01 EB 80 41 00 54 90 47 3B 01 9D
80 43 00 02 A5 80 47 00 05 A4 90 43 5E 11 90 41
5B 65 80 41 00 2F 90 45 41 0C 90 40 4C 58 80 43
00 41 80 40 00 01 DC 90 48 62 02 80 45 00 02 AF
80 48 00 03 ED 90 3C 48 58 90 3E 32 4B 80 3C 00
04 80 3E 00 01 97 90 41 40 01 D9 80 41 00 46 90
45 49 3E 90 45 37 3B 90 40 60 01 BB 80 40 00 0E
80 45 00 4C 80 45 00 01 90 43 51 05 90 47 55 01
90 90 43 34 28 90 48 57 59 80 43 00 23 80 47 00
01 B5 80 48 00 3B 80 43 00 01 8F 90 41 62 01 A7
90 47 62 2A 90 40 64 75 80 47 00 2E 90 40 37 2B
80 40 00 12 80 41 00 03 90 40 41 33 80 40 00 4E
80 40 00 1E 90 48 38 10 90 3E 4A 55 90 3C 54 02
9E 90 41 4E 0E 80 48 00 40 80 3E 00 2B 80 3C 00
22 80 41 00 09 BB 90 3C 63 02 E9 80 3C 00 02 BE
90 40 4D 30 90 48 5C 21 80 40 00 02 C2 80 48 00
51 90 3C 40 64 90 3E 3F 01 B3 80 3E 00 01 A6 80
3C 00 5E 90 47 4D 01 C6 80 47 00 01 F7 90 40 58
02 C4 80 40 00 01 9F 90 3C 3E 01 8E 90 43 44 01
86 90 3C 5E 26 90 3C 5C 19 80 43 00 13 80 3C 00
06 80 3C 00 01 A0 80 3C 00 7A 90 3C 50 02 D6 90
43 35 24 90 43 47 5A 80 3C 00 07 80 43 00 01 9E
80 43 00 01 92 90 47 4C 4F 90 43 3C 01 BD 80 47
00 01 93 80 43 00 02 CE 90 3E 3A 14 90 48 3E 1D
90 40 53 51 90 47 47 01 C1 80 48 00 04 80 47 00
0E 80 3E 00 2A 90 45 51 47 80 40 00 02 FC 80 45
00 05 ED 90 40 5E 02 90 48 4A 4F 90 41 53 0A 90
3C 3E 41 80 48 00 3D 80 41 00 1C 80 40 00 01 CF
90 43 5D 0D 80 3C 00 02 AC 80 43 00 06 DF 90 3C
47 02 DF 90 43 52 17 90 40 4C 29 80 3C 00 01 E2
80 40 00 38 80 43 00 02 BF 90 45 63 01 FB 90 47
4D 27 90 3C 33 1C 80 47 00 36 90 48 5A 06 80 45
00 01 A7 90 43 4E 63 80 3C 00 0F 80 43 00 21 80
48 00 43 90 48 60 01 A3 80 48 00 53 90 3E 38 01
ED 90 45 5E 4E 80 3E 00 01 99 90 48 37 0D 90 3C
59 0D 90 3C 64 5B 80 48 00 02 90 43 56 0C 90 43
39 3D 80 45 00 15 80 3C 00 52 80 3C 00 02 85 90
45 57 10 80 43 00 19 80 43 00 75 80 45 00 03 91
90 3E 41 01 CD 90 3C 42 79 80 3C 00 01 80 80 3E
00 64 90 40 4C 02 C0 90 45 5E 11 90 3E 50 17 80
40 00 45 90 43 5B 01 96 80 45 00 07 90 48 60 27
80 3E 00 25 80 43 00 56 90 40 3A 54 80 48 00 02
9B 80 40 00 04 8A 90 3E 53 46 80 3E 00 07 CA 90
41 5A 3F 80 41 00 01 82 90 43 58 01 AC 90 3C 52
52 80 3C 00 20 80 43 00 7C 90 40 53 02 BC 80 40
00 02 9E 90 3C 58 51 80 3C 00 49 90 47 54 01 A5
90 40 48 28 90 43 52 01 BE 80 47 00 1F 80 43 00
53 80 40 00 71 90 48 37 0C 90 3C 5A 67 80 48 00
01 D5 90 47 58 19 80 3C 00 3B 80 47 00 67 90 3C
43 02 FE 80 3C 00 04 BC 90 3E 42 01 C0 90 43 3C
58 80 43 00 69 90 3E 3A 4A 80 3E 00 12 90 47 52
72 90 45 45 1B 80 3E 00 48 80 45 00 0D 90 41 38
53 80 41 00 01 95 80 47 00 02 91 90 41 62 42 80
41 00 04 95 90 45 64 01 CF 90 40 5F 06 80 45 00
2B 90 3C 53 23 90 41 5B 1B 90 40 4B 59 90 3E 50
49 80 40 00 0E 90 3C 36 2D 80 41 00 11 90 40 3B
2E 80 3E 00 29 80 3C 00 01 9B 80 40 00 00 80 40
00 22 80 3C 00 49 90 3C 36 03 BD 80 3C 00 6A 90
45 38 01 92 90 3C 33 01 D3 90 48 35 13 80 45 00
01 C3 90 40 5D 2B 80 3C 00 5D 90 40 4A 46 80 48
00 01 8B 90 3C 54 0F 90 41 52 34 90 3E 47 09 80
40 00 15 80 41 00 66 80 40 00 7B 80 3C 00 44 80
3E 00 01 AA 90 3E 4D 01 B6 90 40 37 01 EF 80 3E
00 0B 80 40 00 02 8C 90 3E 5F 7B 80 3E 00 02 AE
90 45 3F 01 BB 90 47 38 01 83 80 47 00 63 80 45
00 3B 90 43 4D 01 A3 90 48 61 1B 80 43 00 6F 80
48 00 01 C2 90 40 4B 01 95 90 47 59 01 DF 90 3C
33 07 80 40 00 4E 80 47 00 01 E3 80 3C 00 01 99
90 3C 56 27 90 40 4D 48 90 48 58 4E 80 40 00 20
90 40 40 01 A5 80 3C 00 57 80 40 00 54 80 48 00
0E 90 3E 50 32 90 45 5D 01 B3 80 45 00 0D 80 3E
00 01 A3 90 41 4A 01 A0 90 3E 47 01 A6 80 41 00
11 80 3E 00 03 C4 90 3E 62 01 94 80 3E 00 03 C4
90 48 4C 01 E2 80 48 00 37 90 48 41 56 90 3E 58
28 90 47 53 76 80 48 00 12 80 3E 00 60 90 48 5C
52 90 47 39 11 90 47 3B 01 80 48 00 51 80 47 00
01 80 47 00 02 83 80 47 00 71 90 45 5F 02 BC 90
43 32 01 A1 80 45 00 76 90 3C 63 3F 90 3E 48 3A
80 43 00 1D 80 3C 00 52 80 3E 00 03 AA 90 47 49
01 E9 90 3E 40 12 80 47 00 19 90 48 50 01 9B 80
3E 00 2B 90 47 3B 34 80 48 00 03 99 80 47 00 17
90 3C 42 37 90 45 5E 44 80 45 00 0D 90 47 32 7E
90 48 48 3D 80 3C 00 4A 80 47 00 02 8C 80 48 00
03 C5 90 3C 50 16 90 43 3C 01 A0 80 3C 00 74 90
3C 53 0E 90 3C 34 5F 90 40 51 50 80 43 00 2A 80
3C 00 2C 80 40 00 26 90 40 40 77 80 3C 00 01 A1
80 40 00 47 90 43 3F 01 84 80 43 00 01 8B 90 3E
62 05 90 48 38 02 BA 80 48 00 01 93 80 3E 00 07
E8 90 40 61 01 A2 90 40 37 01 AA 90 41 44 4D 80
40 00 01 8B 80 41 00 12 80 40 00 04 E5 90 48 37
1A 90 47 36 02 C5 80 47 00 09 90 45 60 6C 80 45
00 0C 80 48 00 02 BF 90 3E 4F 01 F9 90 40 5A 22
90 43 33 3E 90 45 40 03 80 3E 00 41 80 43 00 50
80 40 00 78 90 47 56 01 CB 80 45 00 2A 90 41 5A
0C 90 43 3E 7A 80 47 00 62 90 3C 54 4C 80 43 00
40 90 3C 3A 52 80 3C 00 01 80 41 00 01 AE 80 3C
00 01 D1 90 3C 3D 66 90 40 5A 01 82 90 47 33 5C
80 3C 00 1C 80 47 00 16 90 43 46 32 80 40 00 3F
90 3E 43 7F 90 47 42 20 90 41 44 22 80 43 00 65
90 48 59 3D 80 41 00 01 90 3C 43 09 80 48 00 0A
80 3E 00 1E 80 47 00 02 91 80 3C 00 01 DB 90 45
41 39 90 48 50 01 FE 80 48 00 3B 80 45 00 1C 90
3E 5D 2D 90 48 4F 27 90 3E 43 34 80 48 00 67 90
45 54 13 80 3E 00 71 80 3E 00 02 D0 80 45 00 52
90 3E 3A 11 90 45 4E 47 80 45 00 46 80 3E 00 01
D8 90 45 54 02 AB 90 3E 4A 37 80 45 00 02 87 90
47 5A 66 80 3E 00 0D 80 47 00 01 89 90 3C 63 01
88 80 3C 00 2A 90 47 34 01 D3 80 47 00 76 90 47
5D 01 DA 80 47 00 04 FA 90 41 4C 02 B1 90 48 38
53 90 40 62 4D 80 41 00 42 80 40 00 01 C2 80 48
00 04 92 90 3C 58 02 8E 80 3C 00 05 90 3C 39 01
B0 90 45 63 21 90 40 34 08 90 40 51 05 80 3C 00
50 90 47 62 04 80 45 00 5B 80 40 00 23 90 41 56
01 E2 80 40 00 60 80 47 00 06 80 41 00 01 95 90
40 45 4D 90 3C 5D 23 80 40 00 08 90 3C 4B 2C 80
3C 00 56 90 3E 5B 72 80 3C 00 01 B9 80 3E 00 12
90 41 60 14 90 43 57 01 8E 80 41 00 6C 80 43 00
01 DA 90 43 35 01 E2 90 41 4B 29 80 43 00 01 96
90 43 34 01 80 80 41 00 43 80 43 00 02 D6 90 47
5A 02 A0 90 3E 62 24 80 47 00 3A 80 3E 00 01 D1
90 3E 48 1B 90 3E 63 7B 90 3E 5B 30 90 45 52 51
80 45 00 10 80 3E 00 1B 80 3E 00 01 80 80 3E 00
02 8B 90 3E 57 01 FF 90 40 37 4B 80 3E 00 01 E3
80 40 00 03 AD 90 43 45 48 90 40 64 01 88 80 43
00 54 80 40 00 22 90 45 62 02 AB 90 48 32 5A 80
45 00 01 9D 80 48 00 1F 90 40 47 28 90 48 37 43
90 48 4E 0A 90 43 45 50 80 40 00 6A 80 43 00 09
80 48 00 7B 90 47 3D 0A 80 48 00 57 90 48 35 06
90 47 44 01 B1 80 47 00 0D 80 48 00 0F 90 3C 43
02 93 80 47 00 01 8E 90 48 5C 1E 80 3C 00 01 C6
80 48 00 64 90 3E 40 01 E0 90 43 64 58 90 40 48
30 80 3E 00 70 80 40 00 1F 80 43 00 01 FC 90 3C
3B 1A 90 48 57 01 C9 80 48 00 01 C0 80 3C 00 02
F8 90 43 61 1C 90 40 4A 56 90 3C 39 01 9C 80 40
00 1F 80 3C 00 79 80 43 00 02 90 90 43 64 01 B0
80 43 00 0D 90 3C 35 6A 80 3C 00 01 99 90 43 32
02 B3 80 43 00 04 8D 90 40 52 02 B6 90 48 44 6E
80 40 00 04 90 41 5C 11 80 48 00 49 90 3E 5C 02
90 48 32 1C 90 48 41 28 80 3E 00 54 80 41 00 52
90 40 50 40 80 48 00 01 90 80 48 00 5F 90 41 5B
18 90 41 33 56 80 40 00 16 90 41 3F 1A 80 41 00
7B 90 3E 3C 01 92 80 3E 00 2A 80 41 00 4A 80 41
00 05 FA 90 40 4D 01 84 80 40 00 01 E7 90 47 37
01 F0 90 48 3A 2D 90 41 48 4F 80 48 00 0F 80 47
00 79 90 47 54 6E 90 45 5B 5A 80 47 00 34 80 41
00 01 95 90 3E 35 32 80 45 00 09 90 47 63 5E 80
47 00 37 80 3E 00 05 A3 90 3C 45 06 90 40 42 32
90 40 35 2C 80 3C 00 02 92 90 48 43 36 80 40 00
28 80 40 00 0A 80 48 00 04 8A 90 3E 35 67 80 3E
00 07 84 90 3C 46 27 90 47 37 23 80 3C 00 01 9A
90 3E 4E 01 A6 80 47 00 11 90 3E 55 01 90 43 3A
01 8B 80 3E 00 19 80 43 00 01 AE 80 3E 00 37 90
47 54 49 90 41 5F 53 90 41 5F 11 80 47 00 2D 90
40 46 43 80 41 00 5A 90 43 4C 18 80 41 00 2E 90
3C 59 03 80 43 00 2F 80 40 00 22 80 3C 00 02 C8
90 48 4C 12 90 48 5B 40 80 48 00 02 C2 80 48 00
7A 90 41 55 73 80 41 00 01 C2 90 41 5C 01 8B 90
43 49 01 BF 80 43 00 0C 80 41 00 06 D5 90 45 61
01 B8 80 45 00 01 85 90 3C 37 40 90 45 54 07 90
48 53 3A 80 3C 00 32 80 48 00 52 80 45 00 08 C3
90 47 32 12 90 3E 57 28 90 45 38 24 80 47 00 43
80 3E 00 3E 90 3E 4C 4C 80 3E 00 38 90 48 46 45
80 45 00 17 90 47 5A 1E 80 48 00 02 86 80 47 00
12 90 43 60 02 E1 90 45 4E 07 90 3C 5C 69 80 43
00 50 90 40 5B 39 80 45 00 01 81 80 3C 00 0A 90
43 61 01 F3 80 43 00 0D 80 40 00 04 F7 90 41 4F
01 CE 90 3C 40 21 80 41 00 3C 90 40 57 39 90 43
63 19 80 3C 00 1C 90 45 63 41 80 45 00 01 D6 90
3C 5C 29 80 40 00 54 80 43 00 6D 80 3C 00 01 A7
90 3E 54 02 E6 90 43 40 2E 80 3E 00 43 90 41 33
01 DF 80 43 00 0D 80 41 00 03 AB 90 3E 34 0D 90
3E 34 01 B9 80 3E 00 01 8B 90 45 42 75 80 45 00
01 80 3E 00 07 87 90 43 3C 27 90 48 42 67 80 48
00 01 DC 80 43 00 02 89 90 3C 57 61 80 3C 00 02
E0 90 41 60 01 B8 90 3C 4E 0E 90 40 5F 52 80 41
00 25 90 47 5E 4B 80 3C 00 01 DA 80 40 00 01 BB
80 47 00 02 DE 90 3C 56 02 C9 80 3C 00 31 90 47
62 06 90 48 63 44 80 48 00 01 8F 90 40 36 25 90
3C 4C 57 80 40 00 3C 80 47 00 14 90 40 64 02 8F
90 48 63 28 80 3C 00 7D 80 40 00 71 80 48 00 33
90 43 33 01 A8 80 43 00 01 F8 90 47 3D 02 E4 90
45 64 23 80 47 00 01 95 80 45 00 48 90 3C 3B 01
CF 80 3C 00 02 AB 90 3C 55 02 E0 90 3C 45 66 80
3C 00 01 FF 80 3C 00 01 8E 90 41 56 46 80 41 00
4E 90 47 46 25 90 47 37 01 D0 80 47 00 44 90 43
45 14 80 47 00 02 DE 80 43 00 61 90 47 4E 0A 90
3C 3B 39 90 3E 5C 01 AE 90 3C 63 30 80 3E 00 11
80 3C 00 51 80 47 00 6E 80 3C 00 7B 90 45 62 23
90 43 4D 01 F0 80 45 00 38 90 41 51 32 90 45 34
4C 80 43 00 3D 90 43 3E 01 97 80 45 00 10 90 3E
50 10 90 43 55 0D 80 41 00 32 80 3E 00 7B 80 43
00 01 DA 80 43 00 01 FD 90 40 4F 03 90 3C 43 02
EB 90 43 39 20 80 3C 00 21 80 40 00 01 95 80 43
00 14 90 41 52 02 95 90 45 40 47 80 41 00 03 90
43 42 1F 80 45 00 01 C5 90 47 39 78 80 43 00 01
F7 90 45 5C 04 90 3E 39 03 80 47 00 01 BA 90 48
5B 42 90 3C 39 51 80 45 00 2F 80 3E 00 60 80 3C
00 0D 80 48 00 3A 90 47 37 7A 90 40 37 57 80 40
00 39 90 48 3A 60 80 47 00 01 84 90 40 5F 0A 90
3C 60 67 80 48 00 24 90 41 3B 30 90 43 59 17 90
41 53 43 80 43 00 6D 80 40 00 36 80 3C 00 16 80
41 00 1C 80 41 00 58 90 43 5A 25 90 47 58 47 90
48 53 66 90 3C 38 3E 80 48 00 0F 80 47 00 05 80
3C 00 0C 90 45 34 07 80 43 00 02 B3 90 41 38 3C
80 45 00 02 90 80 41 00 1F 90 45 4B 5D 80 45 00
05 E0 90 41 63 20 90 3C 4E 41 80 41 00 7F 90 40
5B 4D 80 3C 00 02 C9 80 40 00 01 9C 90 41 3B 01
8B 80 41 00 6E 90 47 62 02 8B 90 3E 53 1F 80 47
00 23 80 3E 00 31 90 3C 3D 07 90 48 5A 01 84 80
48 00 52 90 47 54 17 80 3C 00 71 90 41 38 02 A8
80 41 00 10 80 47 00 07 90 48 48 4F 90 3C 41 40
80 48 00 02 FD 80 3C 00 02 A1 90 3C 4C 01 81 80
3C 00 63 90 3E 39 01 A3 90 48 55 7B 80 3E 00 01
E0 90 43 5A 01 80 48 00 23 90 43 3C 01 FC 80 43
00 79 90 48 5F 34 80 43 00 47 90 3C 55 01 91 90
40 60 01 93 80 48 00 1B 80 3C 00 19 90 48 5D 06
90 48 64 31 90 3E 46 0C 80 48 00 0A 80 40 00 7C
80 48 00 01 B9 80 3E 00 02 ED 90 40 4C 01 D9 80
40 00 02 DB 90 43 42 41 90 45 5C 04 90 47 42 3D
90 45 4B 04 90 45 41 3F 80 45 00 55 80 45 00 1A
80 43 00 26 90 3E 5B 30 80 45 00 14 80 47 00 13
90 3E 39 2F 90 43 57 5E 80 3E 00 01 C1 80 43 00
0A 80 3E 00 06 C9 90 47 64 01 BC 80 47 00 01 8D
90 40 40 01 8C 90 48 4E 0B 80 40 00 01 94 90 3E
5A 04 90 47 50 68 80 47 00 0F 80 48 00 58 80 3E
00 08 90 40 4E 02 9D 90 3E 3D 7F 80 40 00 62 80
3E 00 03 DB 90 3C 4E 65 80 3C 00 3A 90 3C 5F 6F
80 3C 00 04 D6 90 47 41 39 90 45 5E 69 80 45 00
01 82 80 47 00 02 9F 90 40 41 5A 80 40 00 01 E3
90 3C 44 11 90 45 47 01 90 41 4A 4B 80 45 00 01
F4 80 3C 00 06 90 3C 4B 28 80 41 00 0C 90 3C 43
02 87 80 3C 00 01 C2 80 3C 00 04 E9 90 43 5D 01
DA 90 41 48 01 C7 80 41 00 0F 80 43 00 02 99 90
43 46 72 80 43 00 04 A8 90 45 5B 01 BF 90 3E 51
1E 90 3E 49 36 80 3E 00 45 80 45 00 0C 80 3E 00
01 A3 90 43 44 2A 90 40 61 14 80 43 00 14 90 43
51 2E 80 40 00 50 90 47 58 01 B9 90 41 42 3D 80
43 00 05 80 41 00 01 88 80 47 00 15 90 40 51 74
90 40 4D 75 90 41 4C 54 80 40 00 21 90 41 32 73
80 40 00 4C 80 41 00 64 90 48 40 00 80 41 00 01
95 80 48 00 02 91 90 3C 63 02 92 80 3C 00 01 90
90 45 4A 0D 90 48 64 02 C8 80 45 00 53 90 43 4C
12 80 48 00 2F 80 43 00 21 90 43 4D 39 90 47 4E
01 96 80 43 00 01 A4 80 47 00 01 92 90 41 4D 7C
90 43 44 3E 80 43 00 01 9F 90 47 35 15 80 41 00
60 90 3C 3C 49 80 47 00 09 80 3C 00 01 86 90 41
41 2F 90 45 63 02 98 80 45 00 0F 80 41 00 01 E8
90 47 36 52 90 48 37 01 C5 80 47 00 01 90 3C 5A
0D 90 3C 34 34 80 3C 00 5D 80 3C 00 0F 80 48 00
04 B1 90 47 59 01 91 90 41 5A 49 90 48 48 73 90
3E 62 7E 80 47 00 6C 80 41 00 16 90 48 3C 1D 80
3E 00 04 80 48 00 69 90 3C 36 0C 90 41 38 49 80
41 00 11 80 48 00 72 90 45 55 01 BD 80 3C 00 17
90 3E 4B 08 80 45 00 45 90 43 56 79 80 43 00 49
90 45 4D 68 80 3E 00 02 CF 80 45 00 01 F9 90 45
5C 43 80 45 00 01 B3 90 47 4A 01 AA 90 47 59 59
80 47 00 01 9A 80 47 00 02 A9 90 45 4E 01 AF 80
45 00 01 AB 90 45 3F 27 90 47 4D 01 98 90 41 3F
44 90 40 53 4C 80 45 00 10 80 40 00 6C 80 47 00
34 90 41 5A 17 80 41 00 2C 80 41 00 04 BA 90 40
64 03 DF 80 40 00 01 94 90 47 4F 40 80 47 00 02
CA 90 43 39 03 87 80 43 00 03 91 90 3C 4F 01 FC
90 48 63 5A 90 43 36 19 80 48 00 36 80 3C 00 01
DD 90 3E 61 01 87 80 43 00 38 80 3E 00 01 C8 90
48 64 02 85 90 41 49 06 80 48 00 01 93 90 47 47
62 90 43 50 01 95 80 41 00 16 90 43 3F 5C 80 47
00 17 90 3E 45 19 80 43 00 01 90 80 3E 00 76 80
43 00 00 90 47 34 02 90 43 37 02 C5 80 43 00 32
90 48 60 15 80 47 00 01 AB 90 40 5D 4C 80 40 00
3B 80 48 00 01 E5 90 3C 3D 02 E4 80 3C 00 01 9C
90 48 3B 03 CE 80 48 00 01 86 90 48 5A 2A 90 40
52 01 9D 80 40 00 01 A1 80 48 00 23 90 47 44 01
8B 90 43 59 59 90 43 36 40 80 43 00 01 9D 80 47
00 01 E4 80 43 00 01 EA 90 40 63 01 C4 90 41 51
01 D0 80 40 00 01 BD 80 41 00 02 88 90 47 38 2B
90 45 52 5E 90 45 52 01 80 80 47 00 34 80 45 00
1E 90 47 39 05 90 48 4F 04 80 45 00 7D 90 47 5F
40 90 47 43 01 84 80 48 00 23 80 47 00 18 80 47
00 0D 90 45 37 25 80 47 00 0A 90 40 60 2C 80 45
00 19 90 47 5F 01 93 80 40 00 0D 80 47 00 01 96
90 40 5B 52 80 40 00 01 8F 90 48 40 69 80 48 00
04 E0 90 3E 4A 02 E5 80 3E 00 04 D1 90 48 51 3B
90 41 53 01 A3 90 3C 61 5E 80 48 00 09 90 3E 43
29 90 43 39 09 80 41 00 3B 80 3C 00 5E 80 43 00
01 BA 80 3E 00 01 E5 90 3E 3A 01 A4 90 40 5F 01
BD 80 3E 00 01 9C 80 40 00 02 AB 90 41 46 64 90
40 37 01 D9 90 45 5A 28 80 41 00 01 95 80 40 00
01 90 47 3A 01 B3 80 45 00 04 90 48 47 02 89 80
47 00 1F 80 48 00 18 90 41 4B 01 D1 80 41 00 02
DC 90 45 38 01 C7 90 40 5B 26 80 45 00 43 80 40
00 01 97 90 3C 44 01 AE 90 3E 3F 01 98 80 3C 00
01 85 90 40 42 4B 80 3E 00 02 FD 80 40 00 02 CC
90 48 40 56 90 41 53 5F 80 41 00 02 96 80 48 00
05 8B 90 3E 32 02 D6 80 3E 00 65 90 45 58 59 90
3C 5E 01 EB 80 45 00 11 90 3C 4A 72 80 3C 00 02
BC 90 45 56 28 80 3C 00 02 8B 90 47 56 70 80 45
00 04 80 47 00 58 90 3C 53 01 B2 90 45 32 09 90
45 5C 44 80 45 00 5F 90 45 39 11 80 45 00 11 80
3C 00 46 90 41 62 5A 80 45 00 3B 90 47 46 0C 80
41 00 37 80 47 00 74 90 3E 54 01 FF 90 41 59 01
C8 80 3E 00 01 E4 80 41 00 05 88 90 3E 63 54 90
3E 5E 3F 90 3C 52 03 80 3E 00 01 E5 80 3C 00 3B
80 3E 00 04 81 90 3E 40 3F 90 47 5C 01 C3 90 41
36 23 80 3E 00 42 90 43 4F 17 80 41 00 05 80 47
00 39 80 43 00 3A 90 3C 3E 5F 80 3C 00 01 B8 90
47 53 44 90 47 60 41 90 41 42 28 90 41 59 44 80
47 00 39 80 41 00 2B 80 47 00 2F 80 41 00 39 90
3E 58 02 90 3E 53 01 8E 90 45 56 2D 80 3E 00 01
A2 90 40 5C 0A 90 48 60 1A 80 3E 00 56 80 40 00
2F 80 48 00 32 80 45 00 55 90 40 38 01 D3 80 40
00 2D 90 40 5E 01 F0 90 43 52 78 80 40 00 01 91
90 43 51 76 80 43 00 4C 80 43 00 02 F7 90 43 32
02 BD 80 43 00 02 F5 90 43 59 01 A7 80 43 00 1A
90 3C 42 01 A1 90 3C 4A 37 90 45 4A 01 96 80 3C
00 3F 90 48 36 01 B6 80 3C 00 46 80 45 00 4F 80
48 00 04 90 3C 35 44 80 3C 00 01 BE 90 40 38 01
99 80 40 00 01 9F 90 3C 4B 67 90 45 53 5F 80 3C
00 47 80 45 00 42 90 3C 56 01 DD 90 48 61 30 90
3E 57 35 80 3C 00 6A 80 48 00 01 F5 80 3E 00 04
89 90 45 45 68 80 45 00 11 90 47 5E 3A 90 48 45
01 FA 80 47 00 01 E4 80 48 00 01 FA 90 40 48 03
90 3C 34 02 A9 80 40 00 30 80 3C 00 0C 90 47 45
77 90 43 60 4E 90 41 4D 02 8D 80 47 00 6F 90 45
39 09 80 43 00 3F 80 41 00 01 BA 90 45 58 4F 80
45 00 28 90 3C 4C 58 80 45 00 76 80 3C 00 01 E0
90 43 46 01 D0 80 43 00 03 CC 90 41 44 02 DC 80
41 00 03 90 48 55 03 A1 90 47 37 1A 80 48 00 02
97 90 41 3E 06 80 47 00 01 AA 90 43 4D 01 E5 80
41 00 01 F2 90 41 5A 06 80 43 00 01 90 3E 4B 73
90 3E 52 08 80 41 00 18 90 40 44 20 80 3E 00 3A
80 3E 00 01 E1 80 40 00 78 90 43 48 02 F5 80 43
00 04 85 90 47 44 01 9C 80 47 00 05 B7 90 45 62
42 80 45 00 04 B6 90 40 61 02 C8 90 3C 32 1E 80
40 00 30 90 41 50 01 D8 90 47 44 39 80 3C 00 3C
90 48 4B 01 84 80 41 00 00 90 3C 35 17 80 48 00
29 80 47 00 5D 90 41 50 01 81 90 3C 62 28 80 3C
00 4B 80 41 00 19 80 3C 00 02 A1 90 45 4A 39 90
47 32 3F 80 47 00 0C 90 47 57 00 80 45 00 16 90
40 4F 6D 80 47 00 5A 90 47 40 0D 90 40 62 6D 80
47 00 1B 90 3E 52 38 80 40 00 01 96 90 45 49 4C
80 40 00 01 81 80 3E 00 01 E8 80 45 00 5A 90 3E
3F 1E 90 47 45 60 80 47 00 02 88 80 3E 00 3E 90
48 3C 41 90 43 59 3E 90 43 52 1C 80 48 00 33 80
43 00 01 86 80 43 00 74 90 43 35 5E 80 43 00 66
90 45 5F 01 A0 90 41 45 3E 80 41 00 01 9A 80 45
00 02 8B 90 40 3E 65 90 48 33 35 90 48 46 44 80
40 00 01 BF 80 48 00 61 90 45 4C 0D 90 45 53 02
90 43 5C 07 90 48 5C 10 90 40 44 45 80 43 00 01
80 48 00 16 90 45 55 19 80 40 00 25 90 48 5F 29
90 3E 3F 17 80 48 00 32 80 45 00 00 90 40 38 38
80 3E 00 56 90 48 57 04 80 45 00 03 90 41 3D 04
80 45 00 05 80 48 00 7B 80 41 00 2A 80 40 00 12
90 3E 64 01 A3 90 45 39 4C 80 48 00 01 8B 80 45
00 05 80 3E 00 4F 90 41 36 0F 90 48 3E 01 A0 80
48 00 51 90 41 59 01 8D 80 41 00 4F 90 45 41 23
80 41 00 61 80 45 00 04 90 47 3D 01 A4 80 47 00
01 E8 90 43 5C 02 88 80 43 00 01 B4 90 40 5C 77
90 45 4C 67 90 3E 5B 19 80 45 00 42 90 3E 63 09
80 3E 00 50 90 3E 61 11 80 40 00 41 90 47 32 1B
90 45 5A 36 80 3E 00 00 80 3E 00 35 80 45 00 6B
80 47 00 22 90 47 4E 01 FC 90 43 59 01 8C 80 43
00 1A 80 47 00 02 90 3E 51 25 90 40 60 01 9E 80
3E 00 48 80 40 00 03 BD 90 43 4A 01 93 80 43 00
02 D9 90 3E 5D 01 A3 90 47 4A 00 80 3E 00 12 90
41 60 01 E8 80 47 00 58 80 41 00 05 E4 90 3C 4B
0A 90 41 53 21 90 48 51 02 B8 80 3C 00 25 80 48
00 0D 90 47 5E 46 80 41 00 38 90 3C 3E 32 90 45
43 47 90 48 43 46 80 45 00 6E 80 47 00 53 80 48
00 4C 80 3C 00 38 90 40 3A 47 80 40 00 01 FE 90
43 46 02 83 80 43 00 76 90 47 42 73 80 47 00 7F
90 3E 59 29 90 41 52 4A 80 41 00 01 E0 80 3E 00
18 90 45 4D 01 86 90 47 42 70 80 47 00 6B 90 41
42 47 80 45 00 16 90 3C 49 01 B1 90 47 5B 39 90
3E 63 17 80 3C 00 36 90 45 38 08 80 41 00 01 F0
80 47 00 7C 80 3E 00 54 80 45 00 1D 90 41 3E 01
A1 80 41 00 07 D3 90 40 33 02 C1 80 40 00 01 FB
90 48 59 02 F0 80 48 00 3B 90 3C 43 01 CC 90 3E
4E 01 B7 90 40 3D 12 80 3E 00 09 80 3C 00 30 90
45 61 6E 90 47 44 3F 90 48 4C 20 80 45 00 42 80
48 00 3A 80 40 00 01 9B 80 47 00 06 98 90 40 58
45 90 45 4A 29 90 48 4E 00 90 40 3B 01 AE 80 40
00 24 80 45 00 05 90 41 37 62 80 40 00 10 80 48
00 02 92 90 3C 5E 15 80 41 00 13 90 48 3E 03 90
43 41 01 8F 90 41 5C 04 90 41 4F 4C 80 43 00 42
80 3C 00 44 80 41 00 73 80 48 00 0B 80 41 00 05
96 90 40 39 09 90 41 5F 02 C8 80 40 00 60 90 40
39 11 80 41 00 60 90 47 4C 56 90 47 52 37 90 41
5C 0B 80 47 00 1D 90 40 3B 1F 90 45 59 51 80 40
00 0B 80 41 00 4D 80 47 00 01 C5 90 48 64 08 80
40 00 4C 80 48 00 0E 80 45 00 16 90 43 3F 03 89
80 43 00 34 90 48 41 01 B8 90 47 5A 3E 80 48 00
02 E7 80 47 00 01 BB 90 3C 56 01 DB 80 3C 00 01
C8 90 40 36 43 80 40 00 03 B0 90 3E 4E 02 CB 80
3E 00 03 E3 90 41 54 03 9C 80 41 00 04 C9 90 47
54 02 BB 90 3E 5B 7E 80 3E 00 1D 80 47 00 06 87
90 43 5E 4F 80 43 00 61 90 48 4C 02 8E 80 48 00
06 90 3C 5B 1D 90 47 3F 01 B0 80 47 00 43 80 3C
00 01 B1 90 41 4D 7F 90 3E 4E 5E 80 41 00 01 81
90 43 5C 4A 80 43 00 01 80 80 3E 00 01 E3 90 43
47 01 E0 90 41 49 67 80 43 00 17 90 40 5D 56 80
41 00 5F 80 40 00 02 E3 90 40 38 69 90 41 62 02
9E 80 40 00 4D 90 41 4C 3F 80 41 00 02 B6 80 41
00 23 90 47 5E 01 83 90 41 47 01 A8 90 43 37 03
90 47 40 46 90 3C 54 0F 80 47 00 26 90 3E 4E 08
90 41 63 4E 80 41 00 01 80 47 00 34 90 45 5E 23
80 41 00 43 80 3C 00 45 80 3E 00 28 80 43 00 56
80 45 00 01 9F 90 3C 40 01 DA 90 45 5D 2A 90 40
3D 01 B5 80 3C 00 22 90 40 58 0D 80 45 00 08 90
3E 50 01 CA 80 40 00 02 80 3E 00 19 90 43 5E 01
C6 80 40 00 26 80 43 00 02 EE 90 43 5C 02 C9 80
43 00 0B 90 47 64 02 C4 80 47 00 32 90 45 59 22
90 48 4C 43 90 40 53 08 80 48 00 42 80 45 00 2D
90 43 43 67 90 45 3D 76 80 40 00 0C 80 43 00 1C
90 40 4D 6A 80 45 00 0F 90 3E 47 21 80 40 00 66
90 47 58 17 80 3E 00 01 BC 90 45 3B 01 8A 90 43
63 24 80 47 00 01 D8 80 45 00 4E 90 3E 58 05 80
43 00 02 8F 80 3E 00 01 B8 90 45 4A 02 E6 80 45
00 03 D7 90 47 52 02 89 90 48 59 4A 80 47 00 01
CC 80 48 00 05 8A 90 41 3B 3F 90 47 59 43 90 45
3F 0D 80 47 00 3D 80 41 00 0D 80 45 00 01 A3 90
45 4C 01 BD 90 3C 40 67 80 45 00 01 F6 90 43 40
25 80 3C 00 05 90 3C 61 39 80 43 00 01 D1 80 3C
00 02 DA 90 3E 48 01 83 90 48 43 34 90 41 34 01
EE 80 3E 00 6C 80 48 00 2F 80 41 00 02 9C 90 43
56 01 EF 90 41 53 58 90 3C 32 6A 80 43 00 26 80
3C 00 7C 80 41 00 54 90 41 47 61 80 41 00 01 A8
90 3E 32 43 90 3E 50 02 9D 90 3C 51 2B 80 3E 00
01 92 80 3E 00 1A 90 40 38 01 C7 80 3C 00 01 80
40 00 01 D7 90 3C 33 01 90 3C 3F 01 83 80 3C 00
4D 80 3C 00 03 D9 90 47 38 3D 90 48 63 48 80 47
00 01 D0 80 48 00 1C 90 48 33 60 80 48 00 10 90
3E 5B 63 80 3E 00 04 A5 90 3C 64 02 E5 80 3C 00
01 8A 90 40 57 03 96 80 40 00 79 90 3E 58 02 D5
80 3E 00 74 90 41 63 01 AC 90 3E 60 14 90 45 40
00 90 48 42 3F 80 41 00 3B 90 41 33 25 90 3E 34
2C 90 40 52 19 80 41 00 30 80 40 00 77 80 48 00
08 80 3E 00 4B 80 45 00 14 80 3E 00 6E 90 3E 5E
43 90 45 59 4B 90 3E 55 1F 80 45 00 7A 80 3E 00
01 B8 80 3E 00 02 D0 90 45 43 56 80 45 00 71 90
43 34 63 90 40 55 45 90 48 3C 2F 80 40 00 69 80
48 00 1F 80 43 00 04 FB 90 3E 48 03 AD 80 3E 00
02 F0 90 3E 33 01 B7 80 3E 00 01 89 90 3C 42 60
80 3C 00 2B 90 43 48 04 90 45 53 38 90 48 3F 0C
90 48 4F 2D 80 45 00 6E 80 43 00 44 80 48 00 55
80 48 00 09 90 43 42 01 B4 80 43 00 02 E7 90 43
41 4D 90 48 42 02 AF 80 48 00 30 80 43 00 02 B5
90 3E 5B 01 E8 80 3E 00 01 8C 90 43 42 6C 90 48
49 1E 90 45 54 38 80 48 00 4D 80 45 00 4C 90 47
4D 76 80 43 00 34 80 47 00 22 90 40 62 79 90 45
56 1E 80 40 00 3F 80 45 00 01 80 90 40 5B 01 E3
90 3C 5F 04 90 47 36 7E 80 40 00 30 80 47 00 41
80 3C 00 02 86 90 48 4D 6E 80 48 00 43 90 41 55
05 90 40 37 15 90 41 38 72 80 41 00 24 90 45 4B
22 80 40 00 01 90 3C 50 66 80 41 00 38 80 45 00
05 90 3C 4B 01 BD 80 3C 00 78 80 3C 00 60 90 45
33 02 D1 80 45 00 01 AD 90 47 56 02 CC 90 45 3E
2A 90 47 33 50 90 40 52 00 80 47 00 38 80 47 00
01 9B 80 40 00 00 80 45 00 02 8F 90 47 5E 36 90
48 4E 27 90 3C 48 72 80 3C 00 01 89 90 3E 4A 1B
80 47 00 2E 80 48 00 60 90 48 5A 12 90 45 35 34
80 3E 00 44 80 45 00 3D 80 48 00 01 92 90 41 32
01 99 90 45 45 41 90 45 4B 58 90 48 62 0D 80 41
00 26 80 45 00 17 80 45 00 01 C6 80 48 00 0C 90
47 44 69 90 3E 4D 4C 90 45 57 13 90 3E 33 74 80
3E 00 3A 80 47 00 0F 80 3E 00 36 80 45 00 5E 90
40 40 17 90 48 32 02 BC 80 48 00 01 84 80 40 00
01 C7 90 3E 40 16 90 48 55 39 80 3E 00 71 80 48
00 02 F7 90 47 5B 01 FE 90 41 57 3D 90 47 3F 26
80 47 00 02 80 90 41 49 2B 80 41 00 28 80 47 00
62 80 41 00 01 A9 90 47 50 13 90 45 42 1D 90 45
3E 40 80 47 00 11 80 45 00 3F 90 3E 63 01 C1 80
3E 00 3A 80 45 00 3A 90 41 57 01 AA 90 3C 3E 01
81 90 45 36 3C 80 41 00 1E 90 3E 3B 01 B9 80 45
00 31 80 3E 00 03 80 3C 00 61 90 3E 4A 4D 90 40
61 2E 90 40 3D 35 90 48 34 36 80 40 00 64 80 48
00 49 90 45 58 13 80 3E 00 21 80 40 00 01 8B 80
45 00 03 AF 90 3C 40 17 90 43 4E 61 80 3C 00 01
BD 80 43 00 01 D2 90 3C 52 01 E6 80 3C 00 01 9E
90 40 5B 1B 90 41 5C 42 90 43 39 3E 80 41 00 01
95 80 40 00 01 BD 80 43 00 01 90 48 46 7C 90 45
3B 7E 80 45 00 38 80 48 00 39 90 41 42 01 DE 80
41 00 38 90 3C 59 6C 80 3C 00 05 E3 90 3C 3D 01
C9 90 43 64 01 9F 80 3C 00 0F 80 43 00 04 E3 90
41 55 4F 90 41 40 3D 90 45 5B 16 80 41 00 01 D5
80 45 00 16 80 41 00 01 EB 90 41 5E 01 B1 80 41
00 01 AA 90 41 3C 01 FE 80 41 00 02 B5 90 48 3B
27 90 40 36 23 90 48 41 7D 80 48 00 2E 80 40 00
01 BC 80 48 00 01 86 90 40 32 01 9D 80 40 00 01
D5 90 41 63 49 90 3C 49 01 92 80 41 00 01 CD 80
3C 00 02 97 90 43 52 01 F0 80 43 00 6A 90 43 48
01 B0 80 43 00 2B 90 3C 4F 46 90 3C 3C 13 90 3E
41 5A 80 3C 00 15 80 3E 00 02 9D 80 3C 00 3D 90
41 3C 01 97 90 40 51 60 80 41 00 78 80 40 00 06
A3 90 3C 38 02 BD 90 3E 56 20 80 3C 00 57 90 48
4E 45 90 40 4F 53 80 48 00 2A 90 43 3B 0F 80 3E
00 05 80 40 00 25 90 3C 44 26 90 47 3C 0A 90 47
64 6B 90 48 37 01 81 80 47 00 13 80 3C 00 11 80
43 00 40 80 47 00 04 80 48 00 1F 90 41 46 0E 90
3C 5D 01 AF 80 3C 00 34 90 3E 42 3A 80 41 00 01
A1 80 3E 00 02 E0 90 3E 4B 45 90 45 46 1D 80 3E
00 01 9A 80 45 00 02 99 90 48 51 65 80 48 00 01
D1 90 41 4F 56 90 3C 36 01 8C 90 3E 5F 01 98 90
3C 61 31 80 3C 00 20 80 41 00 57 90 45 47 22 80
3C 00 32 80 3E 00 01 B9 80 45 00 39 90 3E 64 48
90 45 4A 18 90 3C 62 2F 90 3C 47 58 80 3C 00 0A
90 43 52 59 80 43 00 27 90 45 38 0F 90 40 3B 33
80 45 00 2C 80 3E 00 55 80 40 00 0A 80 3C 00 15
90 47 33 63 80 45 00 2E 80 47 00 04 BE 90 3E 50
02 E0 80 3E 00 01 B0 90 41 57 4A 90 45 39 57 80
45 00 7A 90 3C 43 0A 90 41 35 46 80 41 00 0F 80
3C 00 01 C9 90 3E 42 4D 90 43 42 1A 80 41 00 02
96 80 43 00 47 80 3E 00 41 90 3C 4B 02 E1 80 3C
00 01 A3 90 43 47 02 AE 80 43 00 02 B9 90 3C 3F
47 90 41 53 01 A3 90 47 46 01 CE 80 3C 00 2D 80
47 00 19 90 45 46 1E 80 41 00 5E 80 45 00 70 90
41 4B 3D 80 41 00 01 E0 90 3E 4C 1B 90 45 5B 24
90 45 52 6D 80 45 00 7B 80 3E 00 0D 90 41 34 70
80 45 00 60 90 48 34 33 90 47 64 01 B9 80 41 00
55 80 47 00 3B 80 48 00 2E 90 3E 5C 01 B6 90 40
5D 75 90 47 43 01 B2 80 3E 00 4C 80 40 00 0F 80
47 00 05 8B 90 3C 3D 6D 90 47 59 6A 90 41 42 7B
90 47 3E 3C 80 3C 00 28 80 47 00 1D 80 41 00 25
80 47 00 03 85 90 3E 3A 02 BC 90 45 55 7F 80 3E
00 51 90 41 5E 44 80 45 00 01 EA 80 41 00 01 83
90 43 41 01 CB 90 47 3A 01 AD 80 43 00 60 90 45
33 25 80 47 00 01 F1 90 45 3E 19 80 45 00 23 80
45 00 03 90 90 40 46 15 90 41 3D 3C 80 41 00 41
80 40 00 13 90 45 44 03 A0 80 45 00 02 96 90 41
51 2C 90 40 62 3E 90 48 52 01 8B 90 3E 5D 1B 90
3C 39 26 80 41 00 23 80 3C 00 02 80 40 00 5E 80
48 00 01 FB 80 3E 00 01 81 90 3C 63 01 9A 90 48
55 01 9D 80 48 00 0C 80 3C 00 02 DF 90 41 53 05
90 43 5F 3D 90 43 57 40 80 41 00 49 80 43 00 39
90 48 56 75 90 47 52 6B 90 48 62 29 80 47 00 05
90 40 35 0A 80 43 00 4B 80 40 00 21 80 48 00 32
90 45 35 10 80 48 00 01 B5 80 45 00 0B 90 40 4C
01 CF 90 3C 4F 53 80 40 00 4C 90 3E 46 38 90 43
4E 34 80 3E 00 01 88 90 45 37 16 80 3C 00 3F 80
43 00 01 A3 80 45 00 18 90 40 38 02 85 90 40 34
13 80 40 00 03 AA 80 40 00 3A 90 43 46 53 90 48
41 1A 90 47 5F 7C 80 47 00 67 90 3C 52 31 90 3E
38 2E 80 43 00 13 90 3E 37 55 80 3E 00 0C 90 48
41 0C 80 48 00 01 80 3C 00 01 83 80 3E 00 01 BD
90 40 32 31 80 48 00 1B 80 40 00 5E 90 45 46 02
97 80 45 00 02 AC 90 41 3E 66 90 43 41 01 F1 90
43 48 1B 80 43 00 2B 80 43 00 18 90 41 5D 04 80
41 00 01 93 80 41 00 05 BE 90 45 56 39 90 3C 59
01 A6 80 3C 00 25 80 45 00 15 90 40 4E 1F 90 45
59 01 9C 90 43 35 39 80 40 00 2A 90 3E 5A 01 92
80 3E 00 26 90 40 5B 25 80 45 00 29 90 41 56 11
90 43 5F 62 80 43 00 7A 80 41 00 7D 80 40 00 51
80 43 00 04 AA 90 3E 50 01 9F 90 3E 53 03 80 3E
00 02 89 90 41 54 72 80 3E 00 52 80 41 00 3A 90
41 46 06 90 43 34 01 D9 80 43 00 01 8E 80 41 00
2F 90 48 4C 01 E9 90 45 36 44 80 48 00 01 88 90
3C 42 01 8A 80 3C 00 2F 90 45 60 08 80 45 00 02
A1 90 45 4E 24 80 45 00 01 81 90 3E 42 01 ED 80
45 00 1B 90 43 55 25 90 40 3E 01 8C 80 3E 00 0F
80 40 00 6D 90 48 55 4F 80 43 00 06 80 48 00 02
B2 90 47 5E 01 91 80 47 00 01 F5 90 40 5B 4E 90
45 60 2C 80 40 00 38 90 3E 49 3D 90 47 39 2B 80
3E 00 29 80 45 00 35 90 3C 5A 01 A5 90 3C 44 6F
90 47 4D 34 90 43 64 01 80 47 00 45 80 3C 00 35
80 3C 00 22 80 43 00 62 80 47 00 05 F1 90 48 60
2A 90 43 5E 5A 80 43 00 01 CB 80 48 00 05 D1 90
41 3F 01 BB 80 41 00 01 B9 90 40 4A 01 F8 90 45
4E 01 81 80 40 00 03 90 3E 60 08 90 47 4E 6E 90
48 39 09 90 43 5A 0E 90 47 4C 2B 80 3E 00 1F 90
45 41 14 90 3C 3D 01 80 45 00 47 80 3C 00 25 80
47 00 24 80 45 00 5D 80 48 00 44 80 47 00 04 80
43 00 03 83 90 3E 49 77 90 40 35 01 F1 80 40 00
2D 90 43 48 19 80 3E 00 01 9F 90 47 5D 41 90 43
56 4A 80 43 00 56 90 41 5A 1E 80 43 00 27 80 47
00 02 C3 80 41 00 3A 90 43 64 01 A2 90 48 5A 55
90 48 56 7C 80 43 00 01 90 43 33 2C 90 47 43 19
80 48 00 37 80 48 00 01 D2 80 43 00 01 8F 80 47
00 10 90 40 41 01 9B 80 40 00 36 90 43 4E 1F 90
3C 39 5F 90 43 3A 1B 90 45 41 08 80 3C 00 61 90
3E 60 01 96 80 43 00 3A 80 45 00 2C 80 3E 00 4D
80 43 00 02 B9 90 48 5A 02 98 80 48 00 04 C1 90
40 54 66 90 43 36 29 90 40 45 5C 90 40 3D 16 80
40 00 53 80 40 00 44 80 43 00 3A 90 3E 49 18 90
45 41 27 90 45 42 01 AD 80 3E 00 05 80 40 00 22
80 45 00 5C 90 3C 40 5D 90 3C 33 44 80 45 00 12
80 3C 00 56 80 3C 00 02 A4 90 3E 44 1E 90 45 40
39 90 47 5E 46 80 45 00 22 80 3E 00 17 90 45 62
13 90 47 53 02 91 80 47 00 1C 80 45 00 11 80 47
00 04 8F 90 48 32 16 90 41 5F 0E 90 40 4F 08 90
48 39 01 87 80 48 00 64 80 41 00 62 80 48 00 30
80 40 00 69 90 47 63 3E 90 40 58 7C 80 40 00 01
8F 80 47 00 02 99 90 3C 46 0A 90 41 58 01 AD 80
3C 00 2A 90 3C 44 4C 80 41 00 01 AA 80 3C 00 10
90 3C 49 45 80 3C 00 48 90 3E 5A 3D 80 3E 00 01
D4 90 41 37 03 B5 80 41 00 63 90 48 37 59 80 48
00 01 CB 90 48 4D 02 B8 80 48 00 74 90 3E 40 08
90 45 47 43 80 3E 00 1F 90 3E 4F 58 80 3E 00 17
90 47 52 01 B5 90 43 5E 22 80 47 00 34 80 45 00
13 90 43 5F 14 90 3E 46 4E 90 41 55 36 80 3E 00
18 80 43 00 01 BB 90 3C 58 23 80 43 00 4E 90 3E
33 63 80 41 00 47 80 3C 00 0A 90 3E 54 04 90 40
3F 01 AF 80 40 00 42 80 3E 00 52 90 40 45 27 80
3E 00 35 90 41 41 01 81 80 41 00 3F 90 45 45 0D
90 3C 58 01 95 80 40 00 75 90 45 41 35 80 3C 00
06 80 45 00 15 80 45 00 01 9D 90 47 37 02 AD 90
47 54 58 80 47 00 28 80 47 00 01 83 90 41 33 6F
90 48 3B 01 8F 90 3E 46 09 90 3C 63 44 80 41 00
4D 80 3C 00 38 80 3E 00 29 80 48 00 04 90 3C 49
41 90 43 64 01 87 80 3C 00 14 80 43 00 01 E4 90
40 3C 01 BE 90 47 3E 2E 90 48 5C 62 80 48 00 29
80 40 00 66 80 47 00 01 AD 90 48 4C 01 80 90 3E
61 6A 90 47 3D 1C 80 48 00 01 BE 90 40 4E 06 90
41 61 53 80 41 00 27 80 47 00 0D 80 3E 00 01 B1
80 40 00 65 90 47 46 01 89 80 47 00 0F 90 43 56
03 CB 80 43 00 04 A6 90 3C 4A 02 97 90 41 55 0C
90 41 3C 71 80 3C 00 01 95 80 41 00 3E 80 41 00
02 9D 90 48 3F 0C 90 3C 51 4C 90 40 4A 01 8D 90
3E 3C 1D 80 3C 00 4B 90 43 5E 07 80 40 00 18 80
48 00 38 90 3E 59 01 A9 80 43 00 0F 90 3C 53 0F
80 3E 00 1D 80 3E 00 02 90 45 57 04 90 3E 3D 4B
90 47 50 74 80 3E 00 0D 80 47 00 55 90 43 45 12
80 45 00 28 80 3C 00 13 90 40 37 3D 80 43 00 46
90 43 4C 02 91 90 41 44 43 80 43 00 09 80 40 00
01 C1 80 41 00 6B 90 45 53 31 90 3E 5E 01 9F 90
45 58 01 F4 80 45 00 2D 80 3E 00 15 90 3C 60 01
8A 80 45 00 4E 80 3C 00 2B 90 43 36 01 C6 80 43
00 7F 90 48 4C 4D 80 48 00 05 9E 90 3E 53 32 90
45 3E 15 90 45 42 65 80 45 00 01 B0 80 45 00 3C
80 3E 00 02 8D 90 3C 40 01 A7 90 47 35 7B 80 3C
00 21 90 3E 32 15 80 47 00 39 90 45 44 1A 80 3E
00 01 84 90 41 5A 16 80 45 00 39 80 41 00 0D 90
47 55 6C 80 47 00 03 AE 90 41 48 01 81 80 41 00
01 95 90 40 4D 01 BC 90 40 3B 01 A8 80 40 00 01
F0 90 40 3D 39 80 40 00 4B 80 40 00 49 90 40 4B
01 CF 90 3E 37 48 80 40 00 01 8E 80 3E 00 56 90
41 4E 58 90 3C 4F 59 80 41 00 07 80 3C 00 04 83
90 41 36 02 B0 80 41 00 01 87 90 48 35 1A 90 40
35 3E 90 47 5A 01 8E 80 40 00 43 80 48 00 0F 90
43 54 2E 90 47 51 17 80 47 00 21 80 43 00 02 D4
80 47 00 01 BD 90 3C 33 11 90 48 53 0F 90 47 35
73 90 45 3B 01 93 80 3C 00 05 80 47 00 68 80 48
00 2B 90 43 5A 4F 90 41 62 07 80 45 00 03 90 45
5A 51 90 3C 50 01 81 80 3C 00 22 90 43 59 01 87
80 43 00 09 90 40 49 0C 80 41 00 3C 80 45 00 01
D5 80 43 00 63 80 40 00 39 90 47 4E 48 80 47 00
51 90 3E 54 01 EF 80 3E 00 0A BA 90 3E 60 53 80
3E 00 02 BD 90 41 53 01 D5 80 41 00 02 C2 90 48
3A 02 B5 80 48 00 01 82 90 40 4C 01 80 90 47 41
43 90 43 5C 1F 90 41 40 35 80 40 00 21 80 43 00
01 A6 90 3E 4A 0C 80 41 00 75 80 47 00 01 F5 90
3C 32 56 80 3E 00 67 90 48 36 66 80 3C 00 01 89
80 48 00 06 A1 90 47 4B 11 90 47 40 63 80 47 00
38 80 47 00 01 CF 90 41 62 01 97 90 3C 62 40 80
41 00 01 98 80 3C 00 03 B2 90 3E 46 77 90 47 32
01 84 80 3E 00 01 A0 80 47 00 01 8D 90 41 38 01
F5 90 41 4B 01 B7 80 41 00 13 80 41 00 02 D2 90
43 5B 01 F9 80 43 00 03 D0 90 45 3B 03 C4 80 45
00 03 E7 90 41 39 06 90 41 3F 79 90 48 62 0D 90
41 63 2E 80 41 00 15 80 41 00 13 90 43 54 47 90
43 40 06 90 3E 37 01 A9 80 48 00 15 90 3E 64 0C
80 41 00 33 80 43 00 1F 80 3E 00 21 80 3E 00 2D
80 43 00 51 90 41 4F 64 90 48 36 1F 90 3E 50 3F
80 41 00 27 80 48 00 02 CC 90 48 3C 10 80 3E 00
4E 90 43 53 41 90 45 51 12 90 45 5F 10 90 45 39
22 80 45 00 68 80 45 00 48 80 48 00 7F 80 45 00
29 80 43 00 2F 90 40 53 02 BC 90 48 34 28 90 48
53 15 80 40 00 01 AE 90 40 3C 1C 80 48 00 49 80
48 00 01 D8 80 40 00 01 B1 90 41 32 4A 90 3E 4C
12 90 47 54 01 9A 80 3E 00 28 80 47 00 27 80 41
00 77 90 41 3F 53 90 41 41 37 90 43 3F 44 90 3C
4E 13 90 45 4B 47 80 45 00 6B 80 3C 00 1B 80 41
00 26 80 41 00 01 8C 80 43 00 02 9C 90 3C 4D 02
A4 90 41 3D 24 80 3C 00 12 90 45 4A 01 93 80 45
00 01 9C 80 41 00 56 90 40 39 01 B0 90 45 63 19
90 48 3F 21 80 40 00 01 97 90 45 64 5F 90 47 40
56 80 47 00 57 80 45 00 16 80 48 00 01 8E 80 45
00 3B 90 40 59 01 B2 90 45 5E 28 90 45 38 01 83
90 3C 32 2B 80 45 00 40 80 40 00 25 80 45 00 02
82 80 3C 00 2D 90 45 3C 24 90 48 4C 78 80 45 00
01 87 90 45 48 3A 90 41 34 0F 80 48 00 20 80 45
00 7F 90 43 3E 04 80 41 00 01 9E 90 3E 60 66 80
43 00 02 B4 80 3E 00 0A 90 45 38 02 AD 90 40 40
7B 90 3E 47 27 90 45 52 08 80 45 00 1B 90 47 63
01 A2 80 45 00 31 80 40 00 1F 80 3E 00 0C 80 47
00 03 90 90 45 52 25 90 48 42 01 86 80 48 00 01
C9 90 48 64 3D 80 45 00 5E 80 48 00 02 EC 90 48
4D 01 87 90 40 62 01 99 90 41 5A 15 90 3E 4B 4E
80 48 00 2E 90 3E 48 1E 80 40 00 35 80 3E 00 0E
80 41 00 01 9C 80 3E 00 03 BB 90 45 58 4C 80 45
00 01 A1 90 47 3F 01 C1 90 45 44 2E 90 45 4C 0B
80 47 00 2E 90 40 5D 3F 90 41 37 6C 80 45 00 09
90 41 56 2B 80 40 00 20 90 3E 58 3A 80 45 00 08
80 3E 00 58 90 41 36 0B 80 41 00 01 C6 80 41 00
01 97 80 41 00 22 90 45 54 78 80 45 00 10 90 45
52 07 90 43 34 45 80 45 00 0B 90 3C 45 01 A9 90
47 54 01 C4 80 43 00 0B 80 3C 00 01 84 80 47 00
55 90 40 39 4C 90 47 5D 4D 80 47 00 12 80 40 00
03 A7 90 3E 4A 64 80 3E 00 2F 90 3C 41 02 9B 90
40 5B 31 90 45 52 01 81 80 3C 00 01 86 80 45 00
41 80 40 00 02 A5 90 40 5B 47 80 40 00 02 E0 90
43 3C 01 E1 90 3E 5A 7A 90 3E 34 00 90 3E 33 1C
90 48 3B 12 80 43 00 7E 80 3E 00 19 90 43 61 40
80 3E 00 18 80 3E 00 0E 80 48 00 40 80 43 00 01
D9 90 48 5E 7B 80 48 00 01 FA 90 3C 33 18 90 3E
55 02 81 80 3E 00 06 90 47 3C 17 80 3C 00 56 90
47 5D 2E 90 43 34 01 A0 80 47 00 01 85 80 43 00
39 90 47 5C 3D 80 47 00 7F 90 3E 56 17 80 47 00
2D 90 41 44 41 90 41 51 55 80 3E 00 01 F6 80 41
00 01 8A 80 41 00 01 CB 90 3E 64 01 FA 80 3E 00
01 DA 90 40 5B 03 A5 80 40 00 50 90 48 33 01 D1
80 48 00 48 90 41 53 03 D1 80 41 00 02 9F 90 45
64 01 B6 80 45 00 01 E8 90 48 4F 2C 90 41 4F 44
90 45 50 57 90 3E 61 7C 80 45 00 4D 90 3C 5B 2E
80 48 00 28 80 41 00 21 80 3E 00 61 80 3C 00 74
90 45 46 38 90 3E 62 63 90 48 48 18 90 47 62 01
89 80 3E 00 07 90 41 64 32 80 45 00 01 AA 80 41
00 44 80 48 00 02 90 43 47 22 80 47 00 02 8A 90
45 48 0D 80 43 00 07 90 47 41 02 B1 80 47 00 74
80 45 00 4F 90 3E 59 62 80 3E 00 04 E2 90 47 32
6B 90 43 64 01 D3 80 43 00 01 9E 80 47 00 26 90
48 47 01 A4 90 45 5B 27 90 47 3B 49 80 48 00 27
90 41 52 66 90 45 3F 54 80 41 00 2C 90 41 42 33
80 45 00 0C 80 47 00 01 94 80 45 00 01 D9 90 47
3E 12 80 41 00 01 C0 80 47 00 03 D7 90 45 45 57
90 3E 43 7E 80 3E 00 60 80 45 00 69 90 45 34 2C
90 40 51 44 80 45 00 01 C1 90 40 4E 73 80 40 00
2B 90 43 5A 10 80 40 00 01 99 80 43 00 01 82 90
3E 55 48 90 45 5C 01 90 80 3E 00 26 90 3C 3F 01
8A 80 45 00 54 80 3C 00 06 EE 90 45 39 2F 90 45
3F 37 90 47 48 70 90 48 37 01 82 80 47 00 1F 80
45 00 15 80 45 00 08 80 48 00 59 90 45 56 30 90
45 3E 14 90 47 35 01 9A 80 45 00 13 90 47 5C 01
A0 80 47 00 55 80 45 00 01 92 90 41 4A 53 80 47
00 02 A3 80 41 00 01 C6 90 40 5F 6A 90 40 5A 46
90 47 43 3B 90 40 53 14 90 40 57 05 80 47 00 30
90 48 50 5B 80 40 00 09 80 40 00 4B 80 48 00 08
80 40 00 03 90 43 48 01 89 80 43 00 24 80 40 00
07 D7 90 3E 32 01 90 3E 58 5F 80 3E 00 09 90 40
48 61 80 40 00 6A 80 3E 00 02 DF 90 47 4F 02 BA
90 3C 4B 13 80 47 00 6E 90 48 4A 01 D4 90 40 4F
44 80 40 00 0E 80 3C 00 0F 80 48 00 18 90 40 3D
01 F0 80 40 00 02 EA 90 3C 36 3A 90 45 51 7A 90
47 60 07 80 45 00 3D 80 3C 00 01 BC 80 47 00 44
90 45 52 0F 90 41 58 14 90 3E 4D 29 80 45 00 4F
80 41 00 13 80 3E 00 03 E1 90 47 37 02 A3 80 47
00 05 8A 90 40 42 79 90 47 59 01 9C 80 47 00 0C
80 40 00 01 9C 90 40 47 47 90 3C 60 38 80 40 00
17 90 41 58 03 90 45 5A 16 80 3C 00 47 90 40 41
01 E5 90 48 4F 0C 80 41 00 10 80 45 00 01 A6 80
48 00 02 80 40 00 14 90 3C 55 2A 90 40 32 01 86
80 3C 00 02 82 80 40 00 01 DD 90 43 59 75 90 41
3F 01 82 80 43 00 72 80 41 00 02 A1 90 47 45 57
90 41 3D 11 90 3C 53 4B 90 3C 50 01 AA 90 3E 36
0E 80 3C 00 34 80 3C 00 01 80 41 00 2A 80 47 00
01 E5 90 3E 5B 12 90 47 58 25 80 3E 00 02 B3 80
3E 00 09 90 3C 54 16 90 47 38 4F 80 47 00 01 94
90 40 4F 04 80 47 00 4D 80 3C 00 01 97 90 3E 3E
01 A7 80 40 00 36 80 3E 00 01 99 90 47 4E 01 DC
80 47 00 24 90 45 5C 01 C9 80 45 00 5D 90 40 34
1A 90 45 36 31 80 40 00 01 A8 90 41 3F 30 90 45
64 4C 80 45 00 50 80 45 00 01 86 80 41 00 50 90
45 4E 03 89 80 45 00 02 F5 90 3C 43 01 89 90 45
63 02 90 41 5E 6E 90 3C 47 0A 80 41 00 1B 90 3E
4C 01 9D 80 3C 00 16 80 3C 00 04 80 3E 00 27 90
45 4C 37 80 45 00 16 90 47 59 01 C4 90 48 55 04
90 41 43 2E 90 3E 38 1E 80 45 00 13 90 47 32 29
80 3E 00 0A 80 47 00 01 DC 90 3E 4A 59 80 48 00
0D 80 41 00 1A 80 47 00 02 AB 90 3E 51 11 80 3E
00 51 90 47 52 02 DA 80 3E 00 2E 80 47 00 47 90
40 47 01 9D 90 47 53 08 90 3C 5B 3E 80 40 00 69
80 3C 00 59 90 3E 4D 01 90 41 60 08 80 47 00 01
80 90 43 49 34 80 41 00 57 80 3E 00 4C 80 43 00
1A 90 41 58 02 95 90 47 45 07 90 47 34 0B 80 41
00 02 B9 80 47 00 04 80 47 00 07 FB 90 43 48 01
B8 80 43 00 01 BE 90 40 61 01 E8 80 40 00 2C 90
40 61 7C 90 48 38 7F 90 45 39 1C 80 40 00 39 90
3E 60 02 80 48 00 06 80 45 00 7A 90 3C 5B 4A 80
3C 00 00 90 45 42 2B 80 3E 00 28 80 45 00 75 90
41 54 08 90 45 51 55 80 41 00 20 90 47 34 01 B8
80 45 00 36 80 47 00 06 DD 90 43 5B 01 A3 80 43
00 03 B5 90 40 38 29 90 47 5C 44 90 43 36 33 80
40 00 03 90 3C 46 0A 80 47 00 1C 80 43 00 01 E6
80 3C 00 00 90 3C 5E 19 90 41 55 5D 80 41 00 09
90 40 5E 31 80 3C 00 03 A5 80 40 00 50 90 3E 54
02 D8 80 3E 00 02 95 90 40 3F 2C 90 43 61 02 DA
80 40 00 22 80 43 00 03 8C 90 3E 57 01 96 80 3E
00 01 CF 90 43 34 10 90 41 54 55 80 43 00 0B 80
41 00 03 8D 90 45 62 2C 90 3E 35 1A 90 40 54 01
95 80 45 00 01 80 3E 00 16 80 40 00 5A 90 40 4F
01 B6 90 40 3D 73 80 40 00 09 90 45 36 01 E2 80
40 00 0B 80 45 00 53 90 3C 37 4E 90 45 3C 01 9E
80 45 00 11 90 3C 40 36 90 47 48 08 90 48 5F 25
80 3C 00 48 90 41 49 61 80 41 00 01 C2 80 3C 00
36 80 47 00 15 80 48 00 54 90 41 64 1C 90 3E 44
01 B6 90 48 5D 30 80 3E 00 27 80 41 00 01 CC 80
48 00 4B 90 3E 35 01 85 80 3E 00 05 90 43 50 2E
90 47 5A 70 80 47 00 1E 90 48 5F 1A 80 43 00 03
B2 80 48 00 12 90 45 38 02 AA 90 48 5B 4D 80 45
00 2E 90 48 33 61 80 48 00 3C 80 48 00 01 F7 90
3E 44 01 81 90 41 4C 6E 80 3E 00 45 80 41 00 49
90 3E 5D 6C 90 3E 62 02 BE 90 48 34 29 80 3E 00
38 90 45 60 36 80 3E 00 59 90 45 52 04 90 41 51
4F 80 48 00 68 80 45 00 74 80 45 00 21 80 41 00
5D 90 40 51 29 90 45 5A 79 90 45 5B 5A 80 45 00
27 80 40 00 7E 90 47 61 01 A6 80 45 00 23 80 47
00 07 90 40 37 01 80 90 40 3D 01 AF 80 40 00 01
97 90 48 32 3A 90 40 32 0A 90 47 3B 38 80 48 00
00 90 45 64 06 80 40 00 07 90 41 3F 03 80 40 00
5D 80 41 00 04 80 45 00 01 8C 80 47 00 0C 90 41
42 02 89 90 47 56 05 80 41 00 01 80 90 43 33 65
80 47 00 2C 80 43 00 1F 90 48 5E 21 90 41 54 01
AD 90 48 3B 26 90 3C 61 1D 80 41 00 26 80 48 00
48 90 45 3C 6C 90 3E 62 13 90 3E 36 35 80 48 00
01 8F 80 3C 00 5A 80 3E 00 24 80 45 00 2E 90 40
4B 3E 80 3E 00 01 A4 90 45 4B 2F 90 47 42 1A 90
48 56 03 80 40 00 01 85 80 48 00 28 80 47 00 03
90 48 49 30 90 3C 43 02 90 48 55 5D 80 45 00 1F
90 48 59 51 90 41 61 06 80 3C 00 08 80 48 00 01
8F 80 48 00 4C 80 48 00 2F 80 41 00 01 A8 90 47
3E 01 88 80 47 00 5C 90 47 38 02 A8 80 47 00 1D
90 40 41 46 90 43 34 01 90 80 43 00 01 A1 80 40
00 01 99 90 43 45 11 90 43 43 01 ED 90 3E 4A 14
90 47 36 01 90 41 34 04 90 45 4B 1C 90 3E 33 04
90 45 4F 08 90 43 32 33 80 41 00 08 80 43 00 20
80 47 00 08 80 43 00 08 90 40 3C 1A 80 43 00 23
80 3E 00 0B 80 45 00 76 80 45 00 7A 90 40 59 1C
80 3E 00 18 80 40 00 01 F9 80 40 00 75 90 47 60
75 90 40 3E 44 80 40 00 02 82 80 47 00 13 90 40
34 03 C1 80 40 00 64 90 48 4C 68 80 48 00 01 F8
90 3C 4F 01 92 90 43 43 01 99 90 45 52 5E 80 43
00 15 80 45 00 1D 80 3C 00 02 94 90 43 54 01 D7
90 45 51 01 8F 80 43 00 01 98 90 47 4F 3E 80 45
00 19 80 47 00 03 BB 90 40 49 23 90 41 59 01 84
80 41 00 5B 90 43 33 63 80 40 00 01 DD 90 45 5D
20 90 3C 44 0E 80 43 00 1C 80 45 00 43 80 3C 00
01 90 90 3C 42 56 80 3C 00 01 F8 90 41 64 54 80
41 00 41 90 48 62 0C 90 3E 62 13 90 43 4C 26 80
48 00 36 90 45 60 43 80 45 00 01 BE 90 48 3F 5A
80 43 00 02 80 3E 00 06 90 41 5D 01 F4 80 48 00
3B 80 41 00 08 90 47 39 02 BB 80 47 00 01 80 90
3C 3F 03 C4 90 45 49 0E 80 3C 00 4F 90 43 53 14
80 45 00 2F 90 43 43 02 91 80 43 00 16 90 40 5D
0E 90 48 42 55 80 48 00 10 80 43 00 01 91 90 41
4F 0F 80 40 00 27 90 48 40 09 80 41 00 01 AF 90
43 36 38 90 48 37 36 80 43 00 01 96 80 48 00 2E
80 48 00 7E 90 48 54 01 EF 80 48 00 02 BC 90 45
58 6E 90 47 5E 54 80 45 00 01 E6 80 47 00 01 C2
90 47 38 41 90 40 45 57 80 47 00 2E 90 3E 5E 01
91 80 40 00 01 90 47 36 2F 80 3E 00 73 90 45 45
7B 80 45 00 50 80 47 00 02 81 90 43 38 3C 90 3E
3C 01 9E 80 43 00 12 90 41 4B 36 80 3E 00 14 90
45 32 45 80 45 00 3B 90 48 3F 51 90 3C 63 74 80
41 00 01 80 80 3C 00 11 90 43 51 39 80 48 00 02
AC 80 43 00 03 A6 90 43 49 01 D0 90 3E 49 0E 80
43 00 02 FE 80 3E 00 02 C9 90 40 41 03 C1 80 40
00 77 90 40 5B 01 A1 80 40 00 02 D5 90 43 46 01
DA 90 40 60 79 80 43 00 37 80 40 00 45 90 3C 51
01 D0 90 40 39 63 80 3C 00 26 90 47 3A 01 C7 80
47 00 37 90 47 50 28 80 40 00 02 9C 90 43 5F 4A
80 43 00 44 80 47 00 01 BD 90 47 64 18 90 45 33
01 83 90 43 5E 01 83 80 47 00 01 98 80 45 00 01
8D 80 43 00 03 80 90 41 5E 6E 90 47 39 46 80 41
00 01 CF 90 48 5C 6E 80 47 00 1C 90 48 4A 36 90
41 45 6B 80 48 00 01 8D 80 41 00 07 90 47 44 3E
80 48 00 33 90 40 42 2A 90 48 41 47 80 48 00 0C
80 47 00 3B 80 40 00 6A 90 40 4E 03 98 80 40 00
03 F6 90 41 5F 01 CB 90 40 63 01 A8 90 47 5F 1A
80 40 00 2C 80 41 00 01 D6 80 47 00 06 90 40 3E
3E 90 41 3E 0C 90 48 53 48 90 48 34 4D 80 48 00
57 80 40 00 11 90 41 52 36 90 47 4E 31 80 41 00
2D 80 48 00 1D 80 41 00 21 80 47 00 01 9C 90 3E
54 4C 90 43 55 14 90 43 44 43 80 43 00 01 C3 90
48 5F 22 80 43 00 25 80 48 00 2B 80 3E 00 08 90
3E 37 0A 90 3E 32 01 D3 80 3E 00 45 90 47 50 58
80 3E 00 02 EC 90 3C 5A 0F 80 47 00 12 90 3C 39
30 90 48 3A 01 E1 80 48 00 28 80 3C 00 2D 80 3C
00 4E 90 40 5D 03 D5 80 40 00 03 9B 90 3C 5C 1B
90 47 3F 02 AA 90 45 34 00 80 3C 00 30 80 47 00
26 90 43 63 66 90 43 32 13 80 45 00 2C 80 43 00
4F 90 47 5A 75 80 43 00 22 90 48 48 02 AB 80 47
00 01 8F 80 48 00 01 9D 90 45 39 01 9B 90 48 50
01 A1 80 45 00 01 D6 90 48 54 43 90 3E 44 1E 80
48 00 01 D5 80 3E 00 64 90 45 39 31 80 48 00 03
9B 80 45 00 7E 90 43 47 03 B2 80 43 00 5F 90 45
54 01 9E 80 45 00 01 9F 90 45 42 01 D8 80 45 00
01 C0 90 41 43 03 80 80 41 00 30 90 3C 32 38 90
48 58 7A 90 41 51 0D 80 48 00 13 80 3C 00 01 CE
80 41 00 01 AD 90 43 59 2B 90 48 38 7E 90 43 55
48 80 48 00 07 80 43 00 01 81 90 48 56 09 90 43
5B 17 90 45 47 21 80 43 00 23 90 3E 3D 3D 90 3C
4C 09 80 45 00 40 90 3C 4A 0F 80 3E 00 0D 80 48
00 05 80 43 00 01 B4 80 3C 00 36 80 3C 00 01 88
90 48 35 61 90 3C 39 6A 80 3C 00 01 F1 80 48 00
02 DF 90 41 32 22 90 48 39 76 90 41 50 3B 80 41
00 01 99 90 3C 4A 50 80 41 00 22 80 48 00 4A 80
3C 00 06 D1 90 40 39 0C 90 43 45 01 BD 80 43 00
27 80 40 00 02 90 3E 42 63 90 3E 4B 01 A1 90 43
56 07 80 3E 00 44 90 3C 54 45 80 3E 00 18 90 47
5C 25 90 3C 52 19 80 47 00 3E 80 3C 00 20 80 43
00 01 E6 80 3C 00 04 97 90 41 36 01 90 90 41 53
2B 80 41 00 01 83 80 41 00 60 90 40 5C 01 AF 90
43 58 37 90 48 48 51 80 40 00 01 B1 90 3E 55 07
80 48 00 28 80 43 00 27 90 48 50 1B 80 3E 00 01
A0 80 48 00 69 90 3C 3C 33 90 45 40 01 CA 80 3C
00 68 80 45 00 01 A1 90 47 5C 02 B9 80 47 00 01
84 90 3C 4B 02 E9 90 47 3C 0A 90 40 49 26 90 3E
3E 27 80 3C 00 35 80 40 00 68 80 3E 00 54 80 47
00 3E 90 41 47 3D 90 48 60 6B 90 3C 4C 31 80 41
00 01 91 80 48 00 01 EC 80 3C 00 05 99 90 47 45
06 90 45 43 71 90 3C 5B 0E 80 45 00 01 82 80 3C
00 01 CB 80 47 00 13 90 40 41 1C 90 45 52 69 90
47 3B 38 80 45 00 33 90 43 3D 01 CB 80 40 00 0E
80 47 00 01 96 80 43 00 2E 90 48 3A 08 90 47 3A
02 B2 80 48 00 2B 80 47 00 01 AA 90 43 5E 38 90
3E 54 36 90 41 3E 48 80 3E 00 01 80 43 00 01 90
40 5C 40 80 41 00 31 90 41 56 01 F0 80 40 00 19
80 41 00 02 B3 90 47 4E 42 90 3E 4D 37 90 3E 59
0A 80 47 00 01 97 80 3E 00 01 B0 80 3E 00 05 D4
90 47 42 1C 90 3C 40 38 90 43 48 6D 80 3C 00 01
8A 80 47 00 00 80 43 00 03 E3 90 45 4E 48 80 45
00 0E 90 47 3A 01 F8 80 47 00 01 CF 90 41 32 01
BA 90 41 4A 01 E5 90 41 3C 33 80 41 00 56 80 41
00 68 80 41 00 5C 90 43 5F 3E 90 3C 43 59 80 43
00 5B 90 3E 53 21 90 41 44 0C 90 43 41 2D 80 3C
00 0F 80 43 00 1E 90 47 37 07 80 41 00 37 80 3E
00 01 B3 90 3C 4A 31 80 47 00 02 9F 80 3C 00 04
A4 90 40 36 01 8D 80 40 00 2A 90 43 5B 02 F2 80
43 00 02 A3 90 45 48 45 90 40 4A 01 F3 90 48 46
16 90 43 56 42 80 45 00 0A 90 43 4F 21 80 40 00
30 80 43 00 27 80 48 00 01 91 80 43 00 13 90 3E
47 03 8A 80 3E 00 02 C6 90 43 36 7F 90 45 51 67
80 45 00 01 83 80 43 00 57 90 47 3A 35 90 45 5A
5B 80 47 00 1D 90 3C 39 60 90 3E 5B 52 80 45 00
2E 90 45 32 4B 80 3C 00 07 90 40 61 56 80 3E 00
5E 80 40 00 1A 90 3E 40 32 80 45 00 01 FA 80 3E
00 10 90 40 44 01 E0 80 40 00 01 98 90 43 35 40
80 43 00 02 C9 90 3C 46 4B 80 3C 00 03 85 90 43
3F 7E 90 40 5A 03 80 43 00 0D 90 41 51 77 80 41
00 71 90 45 59 52 90 47 4E 76 80 40 00 01 80 45
00 17 80 47 00 01 FD 90 47 5F 78 90 47 5E 01 AD
90 48 33 18 80 47 00 28 80 47 00 02 8B 80 48 00
0F 90 40 63 04 90 45 51 17 90 48 3D 3E 80 40 00
45 80 45 00 01 AA 80 48 00 66 90 43 63 02 86 80
43 00 01 F3 90 45 48 01 E5 80 45 00 03 97 90 3E
36 06 90 47 33 78 80 3E 00 0D 90 47 45 01 A0 80
47 00 01 B1 80 47 00 05 9D 90 48 35 5D 90 48 59
01 A5 90 40 4F 45 80 40 00 45 80 48 00 09 90 48
3F 3D 80 48 00 01 F5 80 48 00 2A 90 3E 3C 01 C4
80 3E 00 0A 90 3C 57 2C 90 47 43 12 90 40 3A 01
FD 90 40 5E 0A 80 3C 00 6B 80 40 00 0C 80 40 00
0B 80 47 00 02 8E 90 3E 4A 01 97 90 47 3C 01 F4
80 3E 00 34 90 43 38 20 80 47 00 01 B3 90 3C 5B
66 90 45 3C 12 80 43 00 01 84 80 45 00 2F 90 47
47 09 80 3C 00 26 90 41 55 0D 90 45 41 0B 80 47
00 01 85 90 3C 58 31 80 45 00 02 90 80 41 00 19
90 45 41 7F 80 3C 00 27 80 45 00 2D 90 3C 37 61
90 3C 3F 01 9F 80 3C 00 1F 80 3C 00 3C 90 3E 43
02 9E 90 45 36 4B 90 3C 3F 40 80 3C 00 35 80 3E
00 5B 90 43 46 5A 80 45 00 01 C2 80 43 00 01 C0
90 3E 55 01 B0 80 3E 00 4D 90 3E 37 72 80 3E 00
32 90 3C 5A 76 80 3C 00 02 A1 90 43 5B 20 90 3E
38 03 90 48 3C 1B 80 43 00 01 F2 80 48 00 0B 80
3E 00 05 EB 90 3E 4D 31 90 45 37 57 90 41 38 68
90 48 62 62 80 45 00 37 80 3E 00 68 90 47 5C 13
80 48 00 4A 80 41 00 43 80 47 00 0D 90 41 52 02
A2 90 40 42 50 80 41 00 39 80 40 00 0E 90 40 4B
5A 80 40 00 27 90 47 53 02 CC 90 3E 61 06 80 47
00 05 90 40 52 28 90 45 32 01 A7 80 40 00 30 80
45 00 14 90 3E 63 71 80 3E 00 02 A0 90 47 3A 2D
80 3E 00 74 90 43 37 7D 90 41 49 41 90 45 49 0C
80 41 00 29 80 47 00 72 80 43 00 01 82 80 45 00
0E 90 48 3C 0D 90 48 3C 57 80 48 00 2E 90 43 4F
7D 80 48 00 64 80 43 00 09 C1 90 45 33 68 90 3E
4D 64 80 3E 00 4F 90 47 3B 0C 80 45 00 77 80 47
00 02 BB 90 3C 45 2E 90 3E 42 72 80 3E 00 17 90
47 4D 7C 80 3C 00 46 80 47 00 06 F4 90 41 5B 01
DE 90 47 5F 2F 90 3C 4D 02 90 48 3F 0A 80 41 00
01 A4 80 47 00 13 80 3C 00 0E 90 48 44 54 90 3C
36 29 80 48 00 1E 80 48 00 16 90 45 42 5D 80 45
00 01 98 90 40 55 01 83 80 3C 00 57 90 48 5D 3E
90 45 5D 50 80 40 00 75 90 3E 47 17 80 45 00 0E
90 40 3C 79 80 48 00 39 80 40 00 35 90 47 57 3B
80 3E 00 02 CF 90 48 34 09 80 47 00 01 88 90 40
52 01 F4 80 40 00 24 90 41 4C 34 80 48 00 10 90
40 46 01 A1 80 41 00 01 84 80 40 00 01 DD 90 45
4E 01 C2 90 3C 61 01 84 90 3E 44 6C 90 40 57 2B
80 45 00 01 93 90 45 34 17 80 3C 00 02 80 3E 00
08 80 40 00 01 F7 80 45 00 36 90 3C 39 7B 90 43
45 16 80 3C 00 67 90 48 5C 0B 90 45 42 1A 90 45
42 44 80 43 00 01 A4 80 45 00 56 80 45 00 55 90
43 5B 24 80 48 00 54 90 47 4E 37 90 45 3C 01 87
80 45 00 5A 80 47 00 03 90 43 39 4C 80 43 00 01
93 80 43 00 03 90 41 40 1F 90 43 62 63 80 43 00
13 90 48 3F 01 AD 80 41 00 05 80 48 00 56 90 47
4F 01 B5 80 47 00 03 AF 90 43 4A 45 90 47 32 73
90 3C 4D 01 82 80 47 00 6A 80 43 00 29 90 47 56
3E 80 3C 00 64 80 47 00 6B 90 3E 57 01 9D 80 3E
00 50 90 40 61 0C 90 40 4D 01 8D 90 40 53 1E 80
40 00 27 90 45 48 05 80 40 00 68 80 40 00 01 8B
90 3E 39 22 80 45 00 1B 80 3E 00 03 C7 90 3C 3E
01 B8 90 40 57 3E 80 3C 00 05 80 40 00 33 90 3E
54 1A 90 41 58 59 80 41 00 19 90 41 38 01 C8 80
41 00 11 80 3E 00 03 8C 90 40 33 63 90 3E 33 18
80 40 00 34 90 48 4D 01 81 90 45 38 77 80 3E 00
0B 80 45 00 2E 90 48 32 74 80 48 00 5E 90 3E 53
52 80 48 00 01 B1 90 45 5E 08 90 3E 45 02 80 3E
00 1A 90 3E 36 13 90 41 56 02 8E 80 3E 00 65 80
41 00 17 80 45 00 2E 80 3E 00 0B A3 90 43 4A 50
80 43 00 01 80 90 45 41 01 C2 80 45 00 06 97 90
48 41 01 AE 90 45 50 11 90 3C 52 66 80 48 00 4F
90 41 53 01 B3 80 3C 00 4C 80 45 00 12 80 41 00
36 90 47 5A 01 B2 90 48 43 02 80 47 00 02 DF 80
48 00 01 93 90 43 62 33 90 3C 42 28 80 43 00 02
B0 80 3C 00 02 F4 90 41 42 1B 90 40 41 7F 90 45
5D 15 80 41 00 34 90 40 44 01 8D 80 45 00 1B 80
40 00 01 81 80 40 00 09 90 43 5D 01 80 90 45 62
0E 90 48 3A 01 A4 80 48 00 4B 90 3C 49 2C 80 43
00 04 80 45 00 01 AC 90 43 4E 0C 90 3E 5E 6A 90
43 42 14 80 3C 00 7A 90 3C 5D 2F 80 43 00 1B 80
3E 00 42 90 48 5A 33 90 3C 5F 1B 80 43 00 6F 90
43 3D 01 97 80 3C 00 23 80 3C 00 39 80 48 00 08
90 43 3F 62 90 3E 40 10 80 43 00 50 80 43 00 02
F9 80 3E 00 01 8C 90 41 4A 50 80 41 00 02 95 90
3E 4E 66 80 3E 00 3D 90 48 3F 01 D6 90 3E 60 17
90 47 62 11 80 48 00 43 90 48 57 03 90 48 3F 01
BC 90 43 41 07 90 3C 3A 2C 80 48 00 0F 80 47 00
10 80 3E 00 5F 90 3C 48 08 80 3C 00 14 90 43 5D
15 80 48 00 43 80 43 00 4C 90 48 49 40 80 43 00
61 90 3C 32 0F 90 40 46 09 90 3C 5C 28 80 3C 00
39 80 3C 00 1C 80 48 00 03 80 3C 00 72 80 40 00
01 C6 90 48 5D 01 A3 80 48 00 23 90 41 53 29 90
3C 3F 01 E0 80 41 00 10 80 3C 00 01 AF 90 48 36
01 91 80 48 00 21 90 45 41 34 90 3C 3E 01 96 80
3C 00 1D 80 45 00 03 B8 90 45 4C 69 80 45 00 49
90 45 4D 01 D3 90 3E 40 23 90 48 5E 38 80 45 00
39 80 3E 00 01 9D 80 48 00 02 F5 90 41 49 5D 90
45 5F 02 CD 80 45 00 0F 80 41 00 01 8D 90 47 3F
01 96 90 41 45 49 80 41 00 76 90 48 5E 56 80 47
00 56 90 45 62 3F 80 45 00 26 80 48 00 01 E7 90
40 4E 01 AD 90 43 51 01 86 90 48 3D 0F 80 43 00
3B 80 40 00 43 90 3C 51 01 CD 80 3C 00 01 84 80
48 00 01 D1 90 45 62 02 D0 80 45 00 05 86 90 3E
32 24 90 41 63 01 8B 80 3E 00 3D 80 41 00 01 9C
90 40 5A 01 BB 90 3C 33 01 B9 80 40 00 73 90 40
4E 48 80 3C 00 17 90 3C 3C 08 80 40 00 02 F5 80
3C 00 03 D3 90 3E 3C 7A 80 3E 00 2D 90 3E 4C 01
94 90 48 63 36 80 3E 00 01 E4 80 48 00 03 F3 90
47 3D 30 90 40 47 79 80 40 00 73 80 47 00 76 90
43 40 45 80 43 00 01 E3 90 40 64 5F 80 40 00 14
90 45 43 01 FA 90 3E 3E 45 90 3C 40 79 80 45 00
3B 90 41 4A 0C 90 41 44 6F 80 3E 00 38 80 3C 00
61 80 41 00 75 90 48 5D 28 80 41 00 01 9A 80 48
00 00 90 43 4A 03 A4 80 43 00 05 ED 90 47 48 03
8B 90 3C 32 19 80 47 00 01 ED 80 3C 00 02 CF 90
47 5C 78 80 47 00 22 90 48 4E 01 E8 80 48 00 01
A7 90 43 52 02 B0 80 43 00 03 BF 90 48 36 53 90
41 43 01 8F 90 47 3A 71 80 47 00 13 80 41 00 17
80 48 00 02 9D 90 41 4D 03 90 47 5B 01 A1 90 45
64 3A 80 47 00 31 90 3E 47 64 90 3C 58 0A 80 45
00 59 80 3E 00 02 80 41 00 79 90 3E 53 1C 90 47
38 1E 90 47 46 67 80 3C 00 13 80 3E 00 26 90 41
4C 32 80 47 00 50 80 47 00 29 90 3C 60 56 80 41
00 36 90 40 51 23 80 3C 00 33 90 3C 54 02 B3 90
45 52 29 80 40 00 17 80 3C 00 29 90 3E 35 27 90
43 63 31 80 3E 00 4B 80 45 00 46 90 47 56 1E 90
43 57 01 87 80 43 00 01 95 80 47 00 01 81 90 48
5F 1C 80 43 00 53 90 40 35 6A 80 40 00 01 CC 80
48 00 02 88 90 43 56 01 83 80 43 00 4E 90 3E 3A
03 B5 80 3E 00 02 9E 90 3E 5A 01 8F 80 3E 00 2B
90 47 3C 01 C2 90 3C 58 4B 90 40 59 6E 80 47 00
31 80 3C 00 24 90 43 36 01 DB 80 40 00 01 D8 80
43 00 03 BE 90 41 55 33 90 43 34 47 80 43 00 3D
90 48 5A 56 80 48 00 42 90 3E 5B 59 90 43 60 1E
80 3E 00 0D 80 41 00 34 90 3E 57 79 80 3E 00 17
90 3E 48 41 90 3E 64 2C 80 43 00 60 90 48 63 20
90 3C 48 4D 80 3E 00 01 A3 80 3E 00 23 90 3C 5A
09 80 48 00 38 80 3C 00 11 90 45 5A 01 83 80 45
00 01 EA 80 3C 00 52 90 47 32 01 95 80 47 00 01
8A 90 48 4F 01 A1 80 48 00 06 B0 90 3C 49 01 A1
90 43 56 01 EA 90 45 4D 24 80 3C 00 47 80 43 00
01 8D 90 47 64 63 80 47 00 6B 80 45 00 49 90 48
61 38 90 48 34 3C 90 48 3E 01 CD 90 40 56 32 80
48 00 0C 80 48 00 0D 80 48 00 5F 80 40 00 40 90
3C 3C 01 C5 90 48 3F 3F 90 48 3E 01 8B 80 48 00
24 80 3C 00 01 EF 80 48 00 06 EC 90 43 63 05 90
3E 5B 39 90 43 58 34 80 3E 00 74 90 45 49 09 90
47 5D 65 80 43 00 26 80 43 00 58 90 43 5C 01 9C
80 47 00 2B 80 43 00 01 80 45 00 02 FF 90 3E 47
01 D1 90 3E 32 64 80 3E 00 49 90 48 4E 7E 80 48
00 01 81 80 3E 00 01 E5 90 40 33 20 90 43 56 01
80 80 40 00 74 80 43 00 09 82 90 48 3B 02 82 80
48 00 01 E2 90 3E 53 02 E9 80 3E 00 01 AF 90 45
5E 02 E3 90 47 64 49 80 45 00 02 D9 90 48 4B 1A
80 47 00 01 E8 80 48 00 04 DC 90 43 34 4A 80 43
00 23 90 41 61 20 90 40 5B 67 80 41 00 78 90 47
37 01 C0 80 40 00 51 80 47 00 55 90 48 5F 6F 80
48 00 05 B1 90 43 46 14 90 41 5F 34 90 45 4C 0A
80 43 00 1E 90 47 4E 7F 80 45 00 01 86 80 41 00
32 80 47 00 56 90 3E 3E 7C 80 3E 00 06 DC 90 3E
54 7F 80 3E 00 01 F6 90 48 42 01 8D 90 41 44 43
80 41 00 49 90 41 4E 59 80 41 00 16 80 48 00 02
BE 90 41 37 22 90 3E 3E 01 CE 80 41 00 3F 80 3E
00 07 90 41 38 02 DE 90 45 4E 06 90 3C 57 37 80
41 00 27 80 45 00 01 8D 90 41 34 4B 80 41 00 61
90 40 47 22 80 3C 00 3D 80 40 00 06 85 90 45 3E
01 A7 90 45 36 01 B2 80 45 00 37 80 45 00 01 AD
90 48 3B 24 90 40 42 3E 80 40 00 0E 80 48 00 48
90 48 36 01 9C 80 48 00 04 F3 90 48 56 0F 90 3C
5F 32 90 48 4A 71 90 43 40 16 80 48 00 01 88 90
3E 45 08 90 47 61 11 80 48 00 2D 80 3C 00 08 90
48 4C 11 80 43 00 62 80 47 00 77 80 3E 00 04 90
40 3D 5B 80 48 00 16 90 47 38 1E 90 3C 46 32 80
47 00 01 80 90 43 3F 3A 80 40 00 01 9B 90 40 63
10 80 43 00 14 80 3C 00 03 9C 80 40 00 5E 90 40
59 01 97 80 40 00 04 A5 90 41 4C 01 A0 90 3E 64
7D 90 48 57 03 80 41 00 06 90 47 43 02 D8 80 3E
00 27 80 48 00 28 80 47 00 02 86 90 41 44 01 84
90 45 61 4D 80 41 00 02 A8 90 3E 43 10 80 45 00
3E 90 45 5D 57 90 3E 4A 54 90 47 50 11 80 3E 00
04 80 45 00 2E 80 47 00 2E 90 3C 43 18 80 3E 00
38 80 3C 00 71 90 43 54 01 C8 90 40 5E 01 9A 80
43 00 01 B9 80 40 00 01 B8 90 41 5C 13 90 3E 50
02 88 80 3E 00 1F 90 3C 33 2C 90 47 4F 04 80 41
00 01 AD 90 40 49 17 80 3C 00 11 80 47 00 1B 90
45 38 52 90 40 42 13 90 48 5D 6A 80 48 00 39 80
40 00 09 90 47 5A 37 90 43 59 3E 80 45 00 01 80
80 40 00 0C 80 47 00 01 91 80 43 00 08 90 43 64
03 E0 80 43 00 4E 90 43 44 01 EB 80 43 00 37 90
43 5C 03 89 80 43 00 04 9A 90 45 37 0F 90 47 3D
48 90 3C 56 7F 80 47 00 01 BC 80 45 00 33 80 3C
00 38 90 3C 4E 01 FB 80 3C 00 2B 90 47 4B 01 93
90 45 4B 3C 80 47 00 02 A4 80 45 00 38 90 40 53
30 90 3E 57 79 80 3E 00 12 80 40 00 04 9F 90 47
36 34 90 43 62 01 99 80 47 00 02 8A 80 43 00 58
90 48 50 1F 90 48 33 02 D5 80 48 00 58 90 48 61
28 80 48 00 2A 80 48 00 02 ED 90 41 38 61 80 41
00 04 E0 90 40 4F 02 DD 80 40 00 03 9B 90 41 45
01 88 90 48 63 10 90 48 3B 78 80 41 00 3D 80 48
00 23 80 48 00 03 90 45 61 01 AD 80 45 00 01 9B
90 3C 3C 06 90 47 4A 61 80 47 00 02 C7 80 3C 00
4E 90 3E 3E 1E 90 40 37 33 80 3E 00 02 C4 80 40
00 3F 90 48 4B 01 9A 90 43 39 6C 80 48 00 78 80
43 00 01 B4 90 3E 41 02 B6 80 3E 00 02 80 90 45
5B 4D 90 47 4D 31 90 47 61 11 80 47 00 63 80 45
00 4D 90 48 50 25 90 41 5F 4B 90 45 50 0B 80 47
00 34 80 48 00 5D 80 45 00 12 90 41 53 47 80 41
00 13 80 41 00 04 AF 90 48 35 07 90 45 57 01 A0
80 45 00 7D 80 48 00 05 BD 90 45 5F 66 80 45 00
01 B6 90 43 60 08 90 40 54 65 90 47 40 17 80 43
00 52 90 48 38 3D 80 40 00 11 90 41 4A 00 80 48
00 33 80 47 00 01 AD 90 43 51 0A 80 41 00 01 9B
80 43 00 64 90 41 4C 01 91 90 3E 61 01 8B 80 3E
00 11 80 41 00 01 EA 90 43 5C 01 82 80 43 00 05
D7 90 47 59 49 90 3C 5E 45 80 3C 00 18 80 47 00
03 90 48 48 01 A2 90 41 4A 3A 90 47 4E 3C 80 41
00 4F 80 47 00 1C 80 48 00 02 FB 90 43 50 01 A4
90 41 53 10 80 43 00 72 90 48 4A 7E 80 48 00 22
90 3E 39 4B 80 41 00 01 FE 80 3E 00 01 B5 90 3C
53 02 82 80 3C 00 01 90 90 48 44 01 FD 80 48 00
04 C4 90 3E 56 38 90 41 61 02 DF 80 3E 00 01 90
47 36 40 80 41 00 15 80 47 00 02 96 90 3C 40 56
80 3C 00 02 B2 90 43 3C 46 90 45 43 10 90 43 4C
75 90 40 43 59 80 43 00 3E 80 43 00 03 90 47 43
09 80 40 00 46 80 45 00 11 80 47 00 04 8F 90 47
43 01 A8 80 47 00 12 90 41 50 01 DF 80 41 00 55
90 48 60 01 97 80 48 00 02 FA 90 45 53 4F 90 40
3D 3C 90 47 3D 01 96 80 47 00 04 90 45 4B 09 90
3C 47 68 90 40 36 09 80 40 00 33 90 3C 4F 0B 90
41 52 02 80 45 00 75 90 3C 58 09 80 3C 00 2D 80
45 00 25 80 3C 00 2E 80 41 00 2C 90 48 54 18 80
40 00 3B 90 41 56 7A 80 3C 00 04 80 41 00 1D 90
43 62 30 90 40 3C 3F 90 41 32 31 80 40 00 0E 80
48 00 01 A2 90 3C 48 05 80 41 00 1A 80 43 00 77
80 3C 00 05 D8 90 3E 51 02 DE 80 3E 00 44 90 41
52 01 9C 90 3E 53 72 80 41 00 06 80 3E 00 40 90
3E 3B 4A 90 3E 58 31 90 3C 5A 41 80 3E 00 63 80
3E 00 01 B9 90 40 53 17 80 3C 00 01 A2 90 41 5D
66 80 41 00 34 80 40 00 19 90 48 35 79 80 48 00
6D 90 48 3A 36 90 41 52 01 C7 90 48 3F 01 9F 80
48 00 20 90 43 37 05 80 41 00 01 C7 90 43 5E 47
80 48 00 01 80 43 00 17 90 40 32 01 81 80 43 00
01 BC 90 40 3C 40 80 40 00 77 90 41 57 01 BB 80
41 00 47 80 40 00 65 90 45 3D 0A 90 41 5F 01 8A
90 3E 58 49 90 3E 36 27 80 45 00 77 80 41 00 01
AB 80 3E 00 53 90 48 4A 06 80 3E 00 01 A3 90 48
36 46 80 48 00 02 88 80 48 00 04 8C 90 3E 5D 02
EA 80 3E 00 64 90 40 3B 03 8A 90 43 5E 47 80 40
00 7D 80 43 00 01 C0 90 41 4C 03 AB 80 41 00 0E
90 3E 4B 03 84 80 3E 00 4A 90 40 60 48 90 3E 61
18 90 43 3C 1D 90 48 3B 33 80 40 00 24 90 47 55
01 80 43 00 01 BF 90 47 4C 05 80 48 00 2F 80 47
00 04 80 3E 00 2C 80 47 00 3A 90 40 4D 01 A8 90
47 50 01 D0 80 40 00 33 90 3C 4D 5C 80 3C 00 70
80 47 00 01 DE 90 41 39 4F 90 48 43 0D 90 41 40
01 93 80 41 00 09 90 47 3C 31 90 45 51 23 80 48
00 05 80 47 00 12 90 3E 4E 47 80 3E 00 07 90 48
54 04 80 41 00 55 80 48 00 01 EE 80 45 00 01 D7
90 43 48 01 EF 80 43 00 7C 90 41 3E 4A 90 45 64
6E 80 41 00 7F 90 43 4A 06 90 3C 40 36 80 45 00
01 E3 80 3C 00 73 90 3C 45 32 80 43 00 2B 80 3C
00 1B 90 3E 58 02 E1 80 3E 00 03 E1 90 41 57 02
83 90 47 34 3A 80 41 00 10 80 47 00 4F 90 47 40
4A 90 43 64 06 80 47 00 39 80 43 00 05 9F 90 48
51 63 90 45 44 01 99 90 47 4B 72 80 48 00 22 80
45 00 01 FD 90 47 3F 12 90 41 40 06 80 47 00 44
80 41 00 65 80 47 00 74 90 3C 5B 0A 90 41 38 09
90 3E 52 60 90 48 4D 2B 80 41 00 61 90 47 37 01
88 80 3E 00 11 80 3C 00 10 90 3C 42 2A 80 48 00
7E 80 47 00 66 90 3C 51 42 80 3C 00 01 8C 80 3C
00 01 82 90 47 3E 02 B1 80 47 00 37 90 47 35 01
84 90 40 34 01 9C 80 47 00 3F 90 40 47 01 82 80
40 00 2B 90 3E 42 76 90 43 33 41 80 40 00 48 80
3E 00 01 C5 80 43 00 01 DB 90 48 59 49 90 48 5C
41 80 48 00 01 95 80 48 00 44 90 43 34 7B 90 40
3D 01 F1 80 40 00 02 80 43 00 21 90 48 55 45 90
45 43 01 D0 80 48 00 7A 80 45 00 68 90 3E 3B 02
89 80 3E 00 58 90 41 5F 4B 90 40 5D 0E 90 47 59
72 90 3C 3B 38 80 47 00 1F 80 40 00 2E 80 41 00
02 A7 80 3C 00 51 90 45 34 01 BB 80 45 00 3C 90
45 48 01 A3 90 3E 58 01 9A 80 45 00 04 90 40 4B
49 90 3C 51 23 90 40 36 43 80 40 00 31 80 3E 00
01 86 80 40 00 1E 80 3C 00 08 90 3C 51 01 A2 90
48 3F 49 80 48 00 67 80 3C 00 01 95 90 41 3C 02
EF 80 41 00 02 C3 90 3E 49 21 90 45 5B 3A 90 40
37 47 80 45 00 01 9D 80 3E 00 06 80 40 00 04 8B
90 40 32 0C 90 43 4C 43 90 48 5B 01 FA 80 43 00
7F 80 40 00 3A 80 48 00 01 F1 90 47 37 73 90 41
4E 01 99 90 48 39 00 80 41 00 10 90 41 4B 34 80
48 00 3C 80 47 00 06 80 41 00 01 81 90 3C 44 03
B8 80 3C 00 02 D0 90 45 4E 01 91 80 45 00 03 A3
90 3E 45 02 EA 80 3E 00 25 90 3C 53 77 90 43 58
2E 90 41 37 1C 80 3C 00 2D 80 43 00 5B 80 41 00
6D 90 40 53 01 FA 90 3E 5D 31 90 3C 4E 7D 80 40
00 74 90 3E 4E 01 80 80 3E 00 05 80 3E 00 0A 80
3C 00 01 C7 90 48 56 1C 90 43 32 6A 90 48 45 23
80 48 00 68 80 43 00 4E 80 48 00 02 D6 90 41 4A
01 A1 80 41 00 42 90 48 39 1A 90 41 4D 6E 90 45
4B 01 A5 90 40 35 06 80 48 00 03 80 41 00 01 C7
80 40 00 3D 90 3E 36 14 80 45 00 01 9A 80 3E 00
02 9E 90 40 35 01 BB 80 40 00 08 FF 90 3C 58 01
BD 80 3C 00 02 84 90 45 32 01 83 80 45 00 46 90
40 62 01 EE 90 45 41 2E 90 48 43 52 90 40 36 1F
90 43 47 3A 80 40 00 65 80 40 00 01 90 41 5B 13
80 48 00 1F 80 45 00 2D 80 43 00 01 C6 90 3E 49
07 90 41 63 1A 90 41 56 70 80 41 00 28 80 41 00
0D 80 41 00 01 E8 90 40 44 10 80 3E 00 01 A2 80
40 00 02 F5 90 41 32 01 EF 80 41 00 27 90 45 4A
02 8E 80 45 00 02 F0 90 3C 60 02 F4 80 3C 00 23
90 45 50 40 80 45 00 49 90 45 3E 01 B1 90 47 43
2F 80 45 00 76 90 48 3E 58 80 48 00 6C 80 47 00
5F 90 40 3B 01 E8 90 3E 4F 43 80 40 00 01 9D 80
3E 00 03 AC 90 41 3E 01 CC 80 41 00 02 D0 90 3E
50 3E 90 3E 33 46 80 3E 00 01 C1 90 43 54 55 80
3E 00 01 8D 80 43 00 01 BF 90 40 61 01 FF 80 40
00 02 90 90 3E 56 25 90 3C 57 54 80 3C 00 47 90
48 4E 2D 90 41 4D 56 80 48 00 7C 80 3E 00 01 85
80 41 00 4A 90 48 47 01 C2 80 48 00 18 90 40 4C
2F 90 47 50 01 ED 90 3C 48 0D 80 47 00 01 8E 80
40 00 56 80 3C 00 02 BD 90 43 60 03 DA 80 43 00
0C 90 40 5C 6E 80 40 00 04 EF 90 45 38 49 90 3E
55 3B 90 47 35 42 80 45 00 15 90 48 59 01 98 90
45 5C 77 80 47 00 36 80 3E 00 68 80 48 00 25 80
45 00 15 90 47 51 68 90 41 64 01 AE 90 43 5D 2D
80 41 00 5A 80 47 00 01 AC 90 47 45 01 9A 80 43
00 3A 80 47 00 02 A8 90 41 4C 01 95 80 41 00 01
A0 90 45 61 34 90 48 54 01 AC 80 45 00 02 A8 90
48 45 06 80 48 00 02 90 48 40 01 B7 90 45 3A 01
A7 80 45 00 12 90 41 4B 2B 90 41 32 0A 80 48 00
25 80 48 00 29 90 43 64 4D 80 41 00 56 80 43 00
22 90 41 60 3B 80 41 00 27 90 48 4F 02 8A 90 48
3F 46 80 41 00 4F 80 48 00 0B 80 48 00 15 90 3C
53 4F 90 40 50 47 80 40 00 53 90 43 5F 2C 90 47
56 66 80 3C 00 18 90 3C 45 01 B6 80 43 00 03 90
41 51 6C 80 41 00 28 80 47 00 7B 80 3C 00 06 C4
90 3E 45 01 DF 90 48 4E 48 80 3E 00 0E 80 48 00
03 F6 90 43 5C 01 8D 80 43 00 3E 90 43 51 01 AB
80 43 00 02 E6 90 41 4D 1F 90 3E 62 01 E9 90 3E
5E 38 90 43 37 73 80 3E 00 24 80 41 00 01 9E 80
3E 00 09 80 43 00 3F 90 40 3B 02 91 80 40 00 02
FC 90 3C 54 0C 90 40 3B 01 82 90 3E 34 19 80 3C
00 01 BA 80 3E 00 04 80 40 00 02 B4 90 3C 46 1A
90 45 5E 52 90 40 61 02 90 45 5A 33 80 3C 00 57
80 45 00 7B 90 3C 4B 08 80 45 00 7F 80 40 00 02
90 3E 42 01 C4 80 3C 00 01 DC 80 3E 00 33 90 47
42 60 90 43 55 55 90 47 36 27 90 41 3D 5D 80 41
00 30 90 41 55 29 80 47 00 2F 80 43 00 01 C0 80
47 00 3F 80 41 00 01 B8 90 41 35 62 90 41 33 3F
90 45 4A 70 80 41 00 02 8E 80 41 00 2D 80 45 00
01 B9 90 3C 55 79 90 47 4B 01 82 80 3C 00 01 96
80 47 00 02 87 90 43 51 4B 80 43 00 02 97 90 43
3E 36 90 41 37 25 90 47 5C 12 80 43 00 01 EA 90
43 59 1C 80 47 00 7C 80 41 00 01 BA 80 43 00 01
EF 90 45 3D 01 AE 80 45 00 01 FA 90 48 36 75 80
48 00 01 C4 90 40 4F 01 85 90 3C 4F 01 E9 80 40
00 01 91 80 3C 00 67 90 40 58 58 90 40 49 6F 90
3C 64 58 80 40 00 01 E9 80 40 00 0B 80 3C 00 03
CF 90 40 3D 22 90 3C 58 77 90 45 49 3E 90 43 61
1D 90 40 48 27 80 3C 00 23 80 40 00 01 DB 90 47
32 45 80 43 00 03 80 45 00 03 80 47 00 3F 80 40
00 26 90 3E 39 60 80 3E 00 06 85 90 47 3D 03 B3
90 3C 45 25 80 47 00 17 80 3C 00 02 8A 90 45 4E
03 91 80 45 00 44 90 47 37 2E 90 43 5C 3B 90 40
5B 19 80 43 00 4E 90 45 42 0E 80 47 00 50 90 3E
48 01 B1 80 40 00 6B 80 45 00 07 80 3E 00 01 8B
90 3C 58 01 81 80 3C 00 09 90 3C 38 48 90 41 4E
02 C2 80 3C 00 28 80 41 00 3F 90 48 39 77 90 43
38 0D 90 45 34 01 E6 80 43 00 50 80 48 00 01 A4
80 45 00 5C 90 43 5B 03 9E 90 3E 5A 10 80 43 00
02 95 90 41 52 01 84 80 3E 00 12 90 43 37 48 90
47 34 37 90 3C 4B 05 80 41 00 34 80 43 00 2F 90
43 58 01 E1 80 3C 00 18 80 47 00 12 80 43 00 01
C3 90 40 55 3A 90 3E 44 2D 90 48 4C 03 80 40 00
01 98 90 3E 3C 5C 80 3E 00 43 80 48 00 02 BE 80
3E 00 04 A4 90 47 34 3D 80 47 00 1F 90 43 40 11
90 43 3C 41 80 43 00 71 90 45 5C 76 80 43 00 19
90 3C 46 01 A5 80 45 00 62 90 41 5A 3C 80 3C 00
02 A8 90 48 4C 3E 90 3C 3C 04 90 41 54 07 80 41
00 01 F3 80 48 00 47 80 41 00 65 80 3C 00 02 90
45 60 02 9C 80 45 00 23 90 3E 37 02 B1 80 3E 00
5E 90 40 5D 59 80 40 00 01 C2 90 3E 47 45 90 48
40 44 80 3E 00 01 EB 90 3E 51 07 80 48 00 01 81
90 47 48 33 90 3E 3E 01 A5 80 3E 00 01 96 80 47
00 1C 90 48 56 40 90 40 40 01 90 3C 35 08 90 3E
5E 02 80 3E 00 3B 90 3C 37 0F 80 40 00 20 80 48
00 41 80 3C 00 24 90 3C 5D 06 80 3E 00 78 80 3C
00 33 80 3C 00 39 90 45 32 01 91 90 3E 5A 1D 80
45 00 01 89 90 41 4D 5C 80 3E 00 6D 80 41 00 77
90 3C 55 01 A6 90 41 4E 03 90 3C 58 01 8B 90 47
34 50 80 41 00 21 80 3C 00 1C 90 41 35 5F 90 45
4F 18 80 3C 00 15 80 41 00 29 90 41 45 51 80 45
00 28 80 47 00 02 A7 80 41 00 4E 90 41 54 03 D0
80 41 00 01 D8 90 41 53 24 90 45 4C 24 90 47 4D
65 80 41 00 01 99 90 41 62 3F 80 47 00 0F 80 41
00 02 80 45 00 5D 90 43 39 01 8F 90 41 4D 01 90
40 39 67 80 41 00 01 92 90 41 36 12 80 40 00 1D
80 43 00 01 B0 80 41 00 07 C9 90 45 3A 77 90 45
59 01 E5 80 45 00 43 80 45 00 77 90 43 57 01 B7
80 43 00 03 FA 90 40 40 35 90 43 56 16 80 40 00
01 94 90 41 3D 13 90 47 3E 15 90 40 32 37 80 43
00 16 80 47 00 2D 80 41 00 02 AA 90 3E 64 10 80
40 00 01 8A 90 3E 55 01 A2 80 3E 00 0A 80 3E 00
77 90 3C 50 25 90 3E 64 01 B0 80 3C 00 3D 80 3E
00 01 AD 90 40 42 6A 90 3E 3B 05 80 40 00 67 90
47 63 30 80 3E 00 71 90 43 5B 2B 80 47 00 01 9E
80 43 00 01 D5 90 41 53 73 80 41 00 01 BF 90 48
63 01 97 90 47 5B 02 87 90 40 59 22 90 47 4B 06
80 47 00 10 80 48 00 33 80 47 00 01 AC 80 40 00
01 CD 90 45 51 01 85 80 45 00 0E 90 3C 5E 42 80
3C 00 02 E1 90 43 48 02 A6 80 43 00 7C 90 3E 4A
3E 90 45 3B 2D 90 3E 5F 2B 90 3C 3A 41 80 3C 00
43 80 45 00 50 90 43 5F 55 80 3E 00 74 80 3E 00
47 80 43 00 01 FB 90 40 4F 01 A8 80 40 00 03 F6
90 40 47 57 90 40 41 5C 80 40 00 0F 80 40 00 05
A9 90 43 4A 7C 90 48 4F 1E 90 3E 48 01 88 80 43
00 7E 80 3E 00 1B 90 40 57 6C 80 48 00 19 90 41
56 2A 90 43 3B 06 80 40 00 3A 90 48 56 2A 90 47
3A 2B 80 41 00 01 D5 80 48 00 4B 90 3C 56 01 80
43 00 75 80 47 00 01 A5 90 48 3C 58 80 3C 00 01
80 48 00 41 90 45 34 02 BE 80 45 00 04 D6 90 43
32 0B 90 40 59 01 A4 80 40 00 0F 80 43 00 14 90
47 3B 01 D4 90 45 3B 01 E7 80 47 00 01 90 43 35
02 90 3C 5D 01 CB 80 45 00 49 90 40 61 23 80 43
00 05 90 47 50 49 80 3C 00 10 80 40 00 17 90 47
41 37 90 41 53 2C 90 3E 4C 16 90 3E 37 0B 80 41
00 55 80 47 00 01 80 80 47 00 77 80 3E 00 03 80
3E 00 51 90 45 4A 01 8F 90 41 4F 3C 80 41 00 31
80 45 00 01 EA 90 43 41 01 83 80 43 00 64 90 43
3B 38 90 40 34 29 90 43 52 31 80 40 00 1E 80 43
00 09 90 41 5F 3E 80 43 00 5A 90 40 38 3D 80 40
00 3F 80 41 00 01 88 90 41 45 02 DA 80 41 00 04
90 47 46 79 80 47 00 04 BB 90 41 54 01 E1 90 47
49 71 80 41 00 01 85 80 47 00 1B 90 45 46 01 82
80 45 00 01 E9 90 45 46 01 A5 80 45 00 4F 90 41
41 02 BA 90 47 51 2D 80 41 00 01 83 90 3E 63 01
FF 90 43 61 17 80 47 00 1C 90 48 52 13 80 3E 00
01 BF 80 43 00 1E 90 3C 52 11 90 45 60 27 90 43
34 39 80 48 00 10 80 45 00 01 80 43 00 01 96 90
3C 55 01 83 80 3C 00 01 AD 90 47 52 78 80 3C 00
27 80 47 00 03 87 90 41 4E 4A 80 41 00 31 90 40
64 01 BA 80 40 00 01 F0 90 47 5C 1A 90 41 54 6E
90 47 37 72 80 47 00 4A 90 41 5B 03 80 41 00 67
80 47 00 51 90 43 58 5E 80 41 00 16 80 43 00 02
E6 90 40 40 03 B2 90 43 4D 1F 80 40 00 01 CA 80
43 00 01 81 90 47 61 02 D6 80 47 00 6B 90 47 5E
01 F4 80 47 00 41 90 43 5B 75 80 43 00 02 A4 90
48 5A 02 83 90 40 34 74 80 48 00 12 90 40 3F 58
80 40 00 01 E1 90 47 5B 32 90 45 4A 44 80 40 00
4B 90 48 63 11 90 40 3F 39 80 45 00 0A 80 47 00
0F 80 48 00 36 90 45 41 01 82 80 40 00 2C 80 45
00 72 90 47 49 3B 90 48 56 5D 90 40 59 2F 80 47
00 40 80 48 00 11 80 40 00 01 AB 90 40 38 01 A2
80 40 00 05 B4 90 47 41 01 DF 80 47 00 34 90 3C
41 36 90 40 4A 5B 80 3C 00 01 9D 90 48 54 01 81
80 48 00 0C 80 40 00 01 99 90 3C 58 03 DD 80 3C
00 04 C3 90 3C 33 2C 90 48 37 3E 80 48 00 56 90
3C 56 18 90 45 35 01 C3 90 41 40 20 80 3C 00 06
80 3C 00 5F 80 41 00 1E 90 45 48 47 80 45 00 07
80 45 00 01 D5 90 45 44 03 C0 80 45 00 38 90 47
38 02 B0 90 3E 3E 2E 80 47 00 23 80 3E 00 01 E0
90 41 50 78 90 43 40 57 80 41 00 09 90 45 35 09
80 43 00 01 8B 80 45 00 35 90 41 62 01 C4 80 41
00 0F 90 3C 42 4A 90 47 4F 44 90 41 35 4C 80 41
00 73 80 47 00 61 80 3C 00 05 E2 90 48 53 01 BE
90 41 54 6A 80 48 00 01 80 80 41 00 6D 90 45 3A
01 BD 80 45 00 3F 90 47 50 01 98 90 41 4D 7A 90
48 4E 06 80 47 00 55 90 3C 34 3F 80 41 00 01 AF
80 48 00 4D 80 3C 00 09 D6 90 41 42 65 90 40 53
01 C3 90 3C 64 44 80 41 00 1F 80 3C 00 0E 80 40
00 02 C2 90 48 55 01 86 90 3E 3C 05 80 48 00 02
BA 90 40 4B 65 80 3E 00 7A 80 40 00 02 90 43 3B
01 D5 90 45 46 01 9A 80 43 00 02 AE 80 45 00 04
EC 90 3E 43 43 90 43 4E 01 BA 80 43 00 7D 90 3E
40 43 80 3E 00 7B 90 3C 46 27 90 41 4C 03 90 47
57 65 80 3E 00 01 C9 80 47 00 08 80 3C 00 41 90
43 4C 37 90 43 39 0C 80 41 00 16 90 47 5A 5C 90
41 58 01 81 80 43 00 0E 90 3C 5A 1F 80 41 00 07
80 43 00 01 87 80 47 00 02 8D 80 3C 00 3C 90 47
44 64 90 3C 56 02 8C 80 47 00 3E 80 3C 00 04 EA
90 3E 58 24 90 3E 37 49 80 3E 00 6F 80 3E 00 07
8A 90 45 5D 01 AA 90 3C 3D 01 99 80 45 00 01 CD
80 3C 00 01 F5 90 41 61 02 A2 80 41 00 01 F2 90
48 5F 04 90 43 3D 01 8B 80 43 00 01 BF 90 45 42
3F 90 3C 3D 47 80 48 00 3F 80 45 00 2B 90 47 56
57 80 3C 00 02 B7 90 48 4E 1C 80 47 00 3C 90 3C
42 40 90 43 4A 13 80 48 00 6C 80 3C 00 31 80 43
00 35 90 3E 3C 4F 80 3E 00 24 90 48 60 01 86 80
48 00 38 90 3C 40 17 90 40 44 01 8D 80 3C 00 0A
90 48 3F 5C 90 3E 35 5B 80 40 00 01 D7 80 48 00
20 80 3E 00 4C 90 48 3C 76 90 3C 50 14 90 43 5B
5A 80 3C 00 56 80 43 00 33 80 48 00 03 B9 90 48
36 02 81 90 43 64 08 90 48 4B 01 C8 80 48 00 52
80 43 00 15 80 48 00 29 90 3C 4F 03 90 3E 50 74
90 47 32 06 80 3C 00 2B 90 41 4E 22 90 43 4C 31
80 41 00 0D 90 43 4F 0E 80 3E 00 33 80 47 00 01
9C 90 41 64 59 80 43 00 0E 90 48 60 40 80 43 00
2A 90 43 45 1D 90 43 55 01 94 80 48 00 08 90 48
64 3A 80 41 00 0A 90 40 3D 2B 80 43 00 01 92 80
43 00 09 80 48 00 01 BC 80 40 00 2A 90 47 3E 2C
90 40 49 39 80 47 00 01 91 90 3E 4D 67 80 3E 00
4D 80 40 00 01 A4 90 3E 59 02 85 90 47 63 50 90
40 5B 54 80 40 00 01 80 3E 00 74 90 3E 46 4C 80
3E 00 52 80 47 00 03 A8 90 48 32 01 B0 80 48 00
53 90 3E 32 02 D4 90 45 42 01 8C 80 3E 00 01 AE
80 45 00 68 90 47 48 01 C8 80 47 00 01 C1 90 3C
40 78 80 3C 00 58 90 41 4B 61 90 48 46 01 C4 80
48 00 30 80 41 00 02 86 90 48 49 54 80 48 00 23
90 48 44 15 90 45 5E 01 A6 80 45 00 55 80 48 00
3E 90 43 42 02 89 80 43 00 01 F2 90 3C 40 01 DD
90 3E 4E 25 80 3C 00 0A 90 43 40 01 9D 90 43 4B
01 8B 80 3E 00 01 AC 80 43 00 0A 80 43 00 1F 90
3C 40 02 C3 80 3C 00 63 90 47 39 7A 90 40 51 01
C4 80 47 00 01 9F 90 3E 49 5B 80 40 00 50 80 3E
00 30 90 3E 62 02 C4 80 3E 00 02 E5 90 43 47 1A
90 47 54 01 89 80 47 00 1D 80 43 00 02 C3 90 41
41 3F 80 41 00 04 B1 90 48 61 02 CF 80 48 00 05
97 90 45 3B 66 90 41 36 7B 90 43 40 06 90 41 61
01 AB 80 45 00 01 9F 80 43 00 02 80 41 00 41 90
3C 56 17 80 41 00 0D 90 45 46 01 9E 80 45 00 01
94 80 3C 00 09 90 41 63 45 90 43 4E 6F 90 47 40
22 80 41 00 01 B7 80 43 00 65 80 47 00 02 A2 90
40 54 01 E0 90 41 60 02 80 80 40 00 69 90 45 48
22 80 41 00 01 EA 80 45 00 01 AB 90 45 60 76 80
45 00 04 F1 90 47 46 02 D1 90 41 32 38 80 47 00
01 D0 90 41 4B 01 89 80 41 00 32 80 41 00 01 97
90 43 3C 03 90 48 42 02 82 90 40 4C 10 90 40 61
5B 90 47 4A 03 80 48 00 0F 80 43 00 71 80 40 00
27 80 47 00 4A 80 40 00 01 8D 90 40 47 01 8F 90
45 4A 3D 90 3E 33 3D 80 3E 00 47 80 40 00 2B 90
41 3D 09 90 3C 5D 13 80 45 00 01 AB 90 45 42 01
AF 80 41 00 43 80 3C 00 01 91 90 3C 35 1E 80 45
00 1C 90 43 5B 01 94 80 3C 00 7C 80 43 00 01 8B
90 43 59 01 90 80 43 00 54 90 43 52 01 8C 90 41
51 7D 80 43 00 02 E2 80 41 00 4E 90 41 56 66 90
41 58 01 D2 80 41 00 59 90 40 35 29 80 41 00 0A
90 40 33 65 80 40 00 61 90 3E 63 01 F2 80 40 00
42 80 3E 00 73 90 41 3A 01 8A 80 41 00 01 A3 90
43 54 67 80 43 00 02 A0 90 43 38 3D 80 43 00 01
D0 90 48 64 05 90 43 3B 4B 80 43 00 0D 80 48 00
07 90 40 42 02 A5 80 40 00 05 AE 90 48 47 01 9F
80 48 00 2E 90 41 40 01 B8 90 40 5A 26 80 41 00
47 90 45 4D 7D 80 40 00 0E 80 45 00 1F 90 3C 42
66 90 3C 3A 46 80 3C 00 52 80 3C 00 04 9E 90 43
63 01 9A 80 43 00 04 CE 90 41 5C 29 90 45 5C 5C
80 45 00 7E 80 41 00 52 90 40 5E 02 BA 80 40 00
7B 90 48 47 5A 80 48 00 01 AD 90 43 37 03 90 3C
44 31 90 3C 46 13 80 43 00 77 80 3C 00 01 F3 80
3C 00 42 90 43 5B 02 90 3E 5D 64 80 43 00 01 92
80 3E 00 58 90 41 48 1E 90 41 4E 72 80 41 00 01
A2 80 41 00 01 80 90 40 3F 43 90 3E 3B 03 80 80
40 00 18 90 48 44 09 80 3E 00 01 81 80 48 00 01
D3 90 45 4B 34 90 48 40 4A 90 43 53 25 90 48 44
1F 80 43 00 0E 90 45 55 21 80 45 00 31 90 43 5B
05 80 45 00 38 80 48 00 19 80 48 00 01 8B 80 43
00 13 90 43 37 50 90 48 5D 59 80 48 00 6E 90 41
4F 0B 80 43 00 21 90 43 33 35 90 43 4D 02 9C 90
45 32 37 80 43 00 06 80 43 00 01 80 45 00 08 80
41 00 2A 90 41 41 01 B8 90 40 4D 15 90 3C 42 41
80 41 00 01 D4 80 3C 00 19 90 3E 5A 1A 80 40 00
01 D2 90 40 3C 01 9A 80 3E 00 39 90 40 3F 01 B1
90 45 4B 0D 80 40 00 4C 90 3C 57 09 90 48 32 0A
80 40 00 01 AD 80 45 00 1A 80 3C 00 33 90 43 58
44 80 43 00 01 83 80 48 00 04 B3 90 41 5B 42 90
48 5D 2B 90 3C 4A 62 90 3C 59 2A 90 47 3A 01 86
80 3C 00 0C 90 48 55 19 80 41 00 26 80 48 00 25
80 47 00 09 80 3C 00 10 90 43 55 0E 80 48 00 01
AA 80 43 00 2B 90 45 4C 7F 90 48 46 01 C3 90 3E
5F 38 80 45 00 3B 80 48 00 1E 80 3E 00 01 AF 90
48 37 12 90 3E 4A 01 A4 90 45 5B 6B 80 3E 00 0F
80 48 00 0C 90 47 4E 54 90 3E 5B 12 80 45 00 01
AD 90 47 5A 01 86 80 47 00 3E 80 3E 00 42 80 47
00 01 C0 90 48 33 01 AD 90 43 39 71 80 43 00 5A
90 47 46 35 90 3C 55 1C 80 48 00 01 BA 90 40 36
05 80 47 00 14 90 41 64 4B 80 41 00 13 80 3C 00
79 80 40 00 04 90 48 3B 61 90 3C 4A 02 AF 80 48
00 01 AB 80 3C 00 01 DA 90 41 42 67 80 41 00 2D
90 41 5D 01 AD 80 41 00 64 90 3E 52 25 90 3E 46
01 CA 80 3E 00 32 80 3E 00 03 FD 90 47 60 59 90
41 3E 2D 80 47 00 4D 80 41 00 02 C8 90 45 41 03
99 80 45 00 02 D2 90 47 46 01 AB 90 3E 62 5E 90
47 39 3F 80 47 00 01 8F 80 47 00 1F 80 3E 00 07
D3 90 47 3E 01 BF 90 45 40 5F 90 3C 41 60 80 47
00 0E 80 45 00 4D 80 3C 00 01 F4 90 3C 44 78 90
3E 57 1E 90 45 58 65 80 3C 00 01 8E 80 3E 00 5D
80 45 00 23 90 47 43 74 90 3C 63 01 B3 80 3C 00
13 80 47 00 04 AF 90 47 5D 71 90 3C 63 58 90 48
3B 61 80 48 00 39 80 47 00 39 80 3C 00 1B 90 45
61 03 91 90 45 42 42 80 45 00 01 85 90 47 5D 1D
80 45 00 3C 90 43 64 5A 80 47 00 0B 90 45 60 02
B0 80 43 00 6C 90 3E 37 1D 80 45 00 01 91 80 3E
00 01 CB 90 45 60 01 CD 90 41 5B 01 C1 80 45 00
23 80 41 00 0A 90 3C 4E 36 90 3E 59 0D 90 47 41
17 80 3C 00 4C 80 47 00 01 B2 80 3E 00 17 90 3C
59 01 B9 90 47 38 16 80 3C 00 01 BE 80 47 00 02
B1 90 48 3F 01 F7 80 48 00 2D 90 40 37 01 E4 90
47 55 42 80 40 00 42 90 41 34 35 90 43 3E 02 8A
80 47 00 07 80 41 00 7B 90 41 49 06 80 43 00 01
8D 90 3C 5C 7B 90 45 63 29 80 3C 00 48 80 41 00
3A 80 45 00 03 84 90 45 42 29 90 41 39 66 80 41
00 01 EE 80 45 00 02 DD 90 41 56 01 B4 80 41 00
02 C4 90 3C 60 02 E6 90 40 4C 09 80 3C 00 01 C4
80 40 00 50 90 48 39 03 88 80 48 00 46 90 40 37
01 A7 90 3E 36 46 90 48 4C 5A 80 3E 00 01 82 80
40 00 24 80 48 00 2C 90 45 51 70 80 45 00 03 85
90 43 3C 03 AC 80 43 00 42 90 47 32 01 C9 80 47
00 66 90 40 57 79 90 3C 57 02 E3 80 40 00 45 80
3C 00 05 DE 90 48 3B 03 B3 90 41 35 25 80 48 00
01 F1 80 41 00 01 9E 90 47 44 03 92 80 47 00 03
A3 90 43 61 01 FE 80 43 00 01 EA 90 3E 56 7A 80
3E 00 65 90 48 5A 01 BD 80 48 00 04 AF 90 3E 3E
77 80 3E 00 01 84 90 43 54 03 A1 80 43 00 42 90
3E 34 01 E9 90 43 5C 01 BC 80 3E 00 64 80 43 00
01 A7 90 3C 49 47 80 3C 00 43 90 43 3B 02 F9 80
43 00 79 90 41 3C 1E 90 43 45 5C 90 41 3E 01 AE
90 47 3E 27 80 43 00 26 90 48 3F 57 80 47 00 0E
80 41 00 13 90 45 57 02 80 48 00 1A 90 40 54 29
80 41 00 4D 80 40 00 2C 80 45 00 04 BF 90 3E 3B
01 D1 80 3E 00 05 85 90 45 46 30 90 47 5D 55 80
47 00 36 90 47 3F 23 80 45 00 01 B7 80 47 00 04
AC 90 43 43 0D 90 41 5F 4E 90 43 53 5B 80 41 00
01 94 80 43 00 42 80 43 00 33 90 45 38 19 90 3E
35 01 FC 80 45 00 72 90 3C 53 1A 90 40 50 25 80
3E 00 01 8B 80 40 00 4F 80 3C 00 03 84 FF 2F 00
